<svg width="38" height="24" viewBox="0 0 38 24" fill="none" xmlns="http://www.w3.org/2000/svg">
<path d="M5.99023 9.06885L7.22656 12.6079H4.75391L5.99023 9.06885Z" fill="#7D7F82"/>
<path d="M13.9824 9.06885L15.2188 12.6079H12.7461L13.9824 9.06885Z" fill="#7D7F82"/>
<path fill-rule="evenodd" clip-rule="evenodd" d="M2 2.78955C0.895447 2.78955 0 3.68497 0 4.78955V18.7896C0 19.8941 0.895447 20.7896 2 20.7896H36C37.1046 20.7896 38 19.8941 38 18.7896V4.78955C38 3.68497 37.1046 2.78955 36 2.78955H2ZM33.4238 12.7251C33.6895 12.9282 33.8223 13.2173 33.8223 13.5923C33.8223 13.936 33.6914 14.2134 33.4297 14.4243C33.1719 14.6313 32.7852 14.7349 32.2695 14.7349C31.6719 14.7349 31.2129 14.6021 30.8926 14.3364C30.5723 14.0708 30.4121 13.6958 30.4121 13.2114H28.9297C28.9297 13.7466 29.0723 14.2153 29.3574 14.6177C29.6465 15.02 30.0488 15.3364 30.5645 15.5669C31.084 15.7935 31.6523 15.9067 32.2695 15.9067C33.2031 15.9067 33.9414 15.6978 34.4844 15.2798C35.0312 14.8579 35.3047 14.2915 35.3047 13.5806C35.3047 13.1431 35.2109 12.7622 35.0234 12.438C34.8359 12.1099 34.541 11.8208 34.1387 11.5708C33.7363 11.3169 33.2031 11.0923 32.5391 10.897C31.875 10.6978 31.3984 10.4946 31.1094 10.2876C30.8203 10.0767 30.6758 9.81494 30.6758 9.50244C30.6758 9.13135 30.8086 8.84229 31.0742 8.63525C31.3438 8.42822 31.7207 8.32471 32.2051 8.32471C32.7246 8.32471 33.123 8.45166 33.4004 8.70557C33.6816 8.95557 33.8223 9.30322 33.8223 9.74854H35.2988C35.2988 9.25635 35.166 8.80908 34.9004 8.40674C34.6348 8.00049 34.2695 7.68799 33.8047 7.46924C33.3398 7.25049 32.8105 7.14111 32.2168 7.14111C31.3223 7.14111 30.5938 7.36377 30.0312 7.80908C29.4727 8.25439 29.1934 8.8208 29.1934 9.5083C29.1934 10.2935 29.582 10.9302 30.3594 11.4185C30.7656 11.6724 31.3125 11.9028 32 12.1099C32.6875 12.3169 33.1621 12.522 33.4238 12.7251ZM3.64648 15.7896L4.33789 13.8032H7.64258L8.33984 15.7896H9.88672L6.6582 7.2583H5.32812L2.10547 15.7896H3.64648ZM11.6387 15.7896L12.3301 13.8032H15.6348L16.332 15.7896H17.8789L14.6504 7.2583H13.3203L10.0977 15.7896H11.6387ZM20.7734 7.2583L23.2344 13.7974L25.6895 7.2583H27.6055V15.7896H26.1289V12.9771L26.2754 9.21533L23.7559 15.7896H22.6953L20.1816 9.22119L20.3281 12.9771V15.7896H18.8516V7.2583H20.7734Z" fill="#7D7F82"/>
</svg>
