<svg width="24" height="24" viewBox="0 0 24 24" fill="none" xmlns="http://www.w3.org/2000/svg">
<path d="M21.9195 2.533C21.3795 1.879 20.587 1.4815 19.745 1.441C18.903 1.406 18.0765 1.72 17.48 2.3165L12.9365 6.86C12.0555 7.741 11.23 8.693 10.482 9.69L8.5265 12.2975C7.755 13.326 6.905 14.3065 5.999 15.212L3.5025 17.7085C2.705 17.4935 1.8395 17.7945 1.3455 18.4935C0.784498 19.286 0.894998 20.379 1.607 21.091L2.948 22.432C3.356 22.84 3.889 23.0505 4.418 23.0505C4.813 23.0505 5.2065 22.9335 5.545 22.6935C6.2445 22.1995 6.5455 21.3345 6.331 20.5365L8.827 18.04C9.733 17.134 10.713 16.284 11.7415 15.5125L14.349 13.557C15.346 12.809 16.298 11.9835 17.179 11.1025L21.654 6.6275C22.774 5.5085 22.8905 3.7095 21.9195 2.533ZM8 1.7895C7.20435 1.7895 6.44129 2.10557 5.87868 2.66818C5.31607 3.23078 5 3.99385 5 4.7895C5 5.58514 5.31607 6.34821 5.87868 6.91082C6.44129 7.47342 7.20435 7.7895 8 7.7895C8.79565 7.7895 9.55871 7.47342 10.1213 6.91082C10.6839 6.34821 11 5.58514 11 4.7895C11 3.99385 10.6839 3.23078 10.1213 2.66818C9.55871 2.10557 8.79565 1.7895 8 1.7895Z" fill="#7D7F82"/>
</svg>
