<svg width="24" height="24" viewBox="0 0 24 24" fill="none" xmlns="http://www.w3.org/2000/svg">
<path d="M11.9785 3C11.4481 3 10.9394 3.21071 10.5643 3.58579C10.1892 3.96086 9.97851 4.46957 9.97851 5C9.97851 5.53043 10.1892 6.03914 10.5643 6.41422C10.9394 6.78929 11.4481 7 11.9785 7C13.0831 7 13.9785 6.10457 13.9785 5C13.9785 3.89543 13.0831 3 11.9785 3V3ZM9.97852 8C9.78109 8.00001 9.58809 8.05846 9.42383 8.16797L6.42383 10.168C6.14564 10.3534 5.97854 10.6657 5.97852 11V14H7.97851V11.5352L9.35937 10.6133L8.76953 14.957L8.7793 14.959L8.22852 17.916L5.5 20.3574L6.75195 21.9121L9.73438 19.2871C9.93038 19.1391 10.0653 18.9246 10.1133 18.6836L10.5918 16.0273L13.0742 18.5117L13.9473 22H16.0098L14.9473 17.7559C14.9033 17.5809 14.8135 17.421 14.6855 17.293L12.3516 14.959L12.875 10.6484L14.1465 12.5547C14.332 12.8329 14.6442 13 14.9785 13H17.9785V11H15.5137L13.8105 8.44531C13.6251 8.16713 13.3129 8.00003 12.9785 8H9.97852ZM18.4785 14C17.6501 14 16.9785 14.6716 16.9785 15.5C16.9785 16.3284 17.6501 17 18.4785 17C19.3069 17 19.9785 16.3284 19.9785 15.5C19.9785 14.6716 19.3069 14 18.4785 14Z" fill="#7D7F82"/>
</svg>
