<svg width="24" height="24" viewBox="0 0 24 24" fill="none" xmlns="http://www.w3.org/2000/svg">
<path d="M12 1.78955C6.48603 1.78955 2 6.27559 2 11.7896C2 17.3035 6.48603 21.7896 12 21.7896C17.514 21.7896 22 17.3035 22 11.7896C22 6.27559 17.514 1.78955 12 1.78955ZM12 3.28955C12.2534 3.28955 12.5023 3.30605 12.75 3.32764V11.0396H15.2959C15.4501 8.94945 16.248 6.99405 17.5898 5.39111C17.9682 5.72176 18.3183 6.08276 18.6328 6.4751C17.5778 7.78446 16.942 9.35934 16.7959 11.0396H20.4619C20.4835 11.2872 20.5 11.5362 20.5 11.7896C20.5 12.0429 20.4835 12.2919 20.4619 12.5396H16.7949C16.9414 14.2165 17.5767 15.7963 18.6309 17.1069C18.3153 17.5002 17.9637 17.8617 17.584 18.1929C16.2439 16.5882 15.4493 14.625 15.2949 12.5396H12.75V20.2515C12.5023 20.2731 12.2534 20.2896 12 20.2896C11.7466 20.2896 11.4977 20.2731 11.25 20.2515V12.5396H8.96387C8.80477 14.6823 7.96695 16.6948 6.5586 18.3228C6.17389 18.0022 5.81962 17.6471 5.49707 17.2642C6.62845 15.9233 7.31134 14.284 7.46387 12.5396H3.53809C3.5165 12.2919 3.5 12.0429 3.5 11.7896C3.5 11.5362 3.5165 11.2872 3.53809 11.0396H7.46387C7.31183 9.2901 6.63283 7.65233 5.5 6.31201C5.82243 5.92955 6.17609 5.57453 6.56055 5.25439C7.97041 6.88166 8.8051 8.89039 8.96387 11.0396H11.25V3.32764C11.4977 3.30605 11.7466 3.28955 12 3.28955L12 3.28955Z" fill="#7D7F82"/>
</svg>
