<svg width="26" height="18" viewBox="0 0 26 18" fill="none" xmlns="http://www.w3.org/2000/svg">
<path d="M7.19473 8.78455V10.9614H8.54653C8.81625 10.9614 9.04155 10.9171 9.22243 10.8286C9.4033 10.7369 9.53817 10.612 9.62702 10.4539C9.71904 10.2927 9.76505 10.1046 9.76505 9.88957C9.76505 9.66509 9.72539 9.47064 9.64606 9.30623C9.56673 9.13866 9.44138 9.01061 9.27003 8.92209C9.09867 8.8304 8.87496 8.78455 8.59889 8.78455H7.19473Z" fill="#7D7F82"/>
<path d="M7.19473 5.94851V7.91667H8.36566C8.62586 7.91667 8.8464 7.87873 9.02728 7.80285C9.21132 7.7238 9.35094 7.61156 9.44614 7.46612C9.54134 7.31752 9.58894 7.13889 9.58894 6.93022C9.58894 6.69941 9.54451 6.51129 9.45566 6.36585C9.36681 6.22042 9.23036 6.1145 9.04631 6.0481C8.86544 5.98171 8.63379 5.94851 8.35138 5.94851H7.19473Z" fill="#7D7F82"/>
<path d="M13.2309 8.60908C13.2117 8.68903 13.1961 8.77282 13.1842 8.86043H15.4061V8.77033C15.3998 8.56481 15.3585 8.37195 15.2824 8.19173C15.2094 8.01152 15.0967 7.86608 14.9444 7.75542C14.7921 7.64476 14.589 7.58943 14.3351 7.58943C14.1448 7.58943 13.975 7.63053 13.8258 7.71274C13.6799 7.79178 13.5577 7.90718 13.4593 8.05894C13.361 8.2107 13.2848 8.39408 13.2309 8.60908Z" fill="#7D7F82"/>
<path fill-rule="evenodd" clip-rule="evenodd" d="M4 2C2.89543 2 2 2.89543 2 4V13.5C2 14.6046 2.89543 15.5 4 15.5H22C23.1046 15.5 24 14.6046 24 13.5V4C24 2.89543 23.1046 2 22 2H4ZM9.97449 8.22019C9.91464 8.25355 9.85152 8.28389 9.78512 8.31119C9.94922 8.35328 10.0948 8.41464 10.222 8.49526C10.4695 8.65018 10.6536 8.85095 10.7741 9.09756C10.8947 9.34417 10.955 9.60976 10.955 9.89431C10.955 10.3338 10.8582 10.7021 10.6647 10.9993C10.4743 11.2965 10.1998 11.5226 9.84121 11.6775C9.48263 11.8293 9.05107 11.9051 8.54653 11.9051H6.00001V5H8.35138C8.73216 5 9.0717 5.03636 9.36998 5.10908C9.67144 5.1818 9.92689 5.29562 10.1363 5.45054C10.3489 5.6023 10.5092 5.79517 10.6171 6.02913C10.7281 6.2631 10.7837 6.54133 10.7837 6.86382C10.7837 7.14837 10.7154 7.40921 10.579 7.64634C10.4425 7.88031 10.241 8.07159 9.97449 8.22019ZM14.4779 12C14.0972 12 13.7529 11.9383 13.4451 11.815C13.1404 11.6886 12.8802 11.5131 12.6644 11.2886C12.4518 11.0641 12.2884 10.8001 12.1742 10.4966C12.0599 10.1931 12.0028 9.86585 12.0028 9.5149V9.3252C12.0028 8.92367 12.0615 8.56007 12.1789 8.23442C12.2963 7.90876 12.4598 7.63053 12.6692 7.39973C12.8786 7.16576 13.1261 6.98713 13.4117 6.86382C13.6973 6.74051 14.0067 6.67886 14.3399 6.67886C14.708 6.67886 15.0301 6.74051 15.3062 6.86382C15.5822 6.98713 15.8107 7.16102 15.9916 7.3855C16.1756 7.60682 16.3121 7.87082 16.4009 8.17751C16.4929 8.48419 16.539 8.82249 16.539 9.19241V9.68089H13.1604C13.1717 9.84311 13.2 9.99645 13.2451 10.1409C13.3086 10.3306 13.4006 10.4966 13.5212 10.6389C13.6418 10.7812 13.7878 10.8934 13.9591 10.9756C14.1305 11.0547 14.3256 11.0942 14.5446 11.0942C14.8207 11.0942 15.0666 11.0388 15.2824 10.9282C15.4981 10.8175 15.6854 10.661 15.844 10.4587L16.4485 11.042C16.3375 11.2033 16.1931 11.3582 16.0154 11.5068C15.8377 11.6522 15.6203 11.7708 15.3633 11.8625C15.1094 11.9542 14.8143 12 14.4779 12ZM19.9572 7.6084V6.77371H19.0385V5.51694H17.8914V6.77371H17.0537V7.6084H17.8914V10.5583C17.8914 10.9092 17.9485 11.1906 18.0627 11.4024C18.177 11.6143 18.3356 11.7676 18.5387 11.8625C18.7418 11.9542 18.9751 12 19.2384 12C19.4003 12 19.5431 11.9889 19.6668 11.9668C19.7937 11.9447 19.9048 11.9194 20 11.8909L19.9952 11.0183C19.9508 11.0278 19.8921 11.0373 19.8191 11.0467C19.7461 11.0562 19.67 11.061 19.5907 11.061C19.4796 11.061 19.3828 11.0467 19.3003 11.0183C19.2178 10.9898 19.1528 10.9345 19.1052 10.8523C19.0607 10.7669 19.0385 10.6452 19.0385 10.4871V7.6084H19.9572Z" fill="#7D7F82"/>
</svg>
