<svg width="24" height="24" viewBox="0 0 24 24" fill="none" xmlns="http://www.w3.org/2000/svg">
<path d="M12 2C6.477 2 2 6.477 2 12C2 17.523 6.477 22 12 22C17.523 22 22 17.523 22 12C22 6.477 17.523 2 12 2ZM12 3.5C12.3388 3.5 12.6715 3.52572 13 3.56445V5.58496C12.6732 5.53403 12.3408 5.5 12 5.5C11.6592 5.5 11.3269 5.53403 11 5.58496V3.56445C11.3285 3.52572 11.6612 3.5 12 3.5ZM9.5 3.87695V6.00195C8.90981 6.24923 8.36328 6.58105 7.87598 6.98242L6.05762 5.93262C7.01419 4.99557 8.18927 4.28124 9.5 3.87695H9.5ZM14.5 3.87695C15.8107 4.28124 16.9858 4.99557 17.9424 5.93262L16.124 6.98242C15.6367 6.58105 15.0902 6.24923 14.5 6.00195L14.5 3.87695ZM12 7C14.7703 7 17 9.22969 17 12C17 14.7703 14.7703 17 12 17C9.22969 17 7 14.7703 7 12C7 9.22969 9.22969 7 12 7ZM5.07129 7.09473L6.81348 8.10059C6.41273 8.63195 6.09201 9.2247 5.86817 9.86426L4.11133 8.85059C4.36216 8.22461 4.68607 7.63722 5.07129 7.09473ZM18.9287 7.09473C19.3139 7.63722 19.6378 8.22461 19.8887 8.85059L18.1318 9.86426C17.908 9.2247 17.5873 8.63195 17.1865 8.10059L18.9287 7.09473ZM3.66699 10.3262L5.53027 11.4014C5.51209 11.5988 5.5 11.7979 5.5 12C5.5 12.3622 5.53735 12.7152 5.59473 13.0615L3.77637 14.1113C3.60245 13.4348 3.5 12.7301 3.5 12C3.5 11.427 3.5584 10.8676 3.66699 10.3262H3.66699ZM20.333 10.3262C20.4416 10.8676 20.5 11.427 20.5 12C20.5 12.7301 20.3976 13.4348 20.2236 14.1113L18.4053 13.0615C18.4627 12.7152 18.5 12.3622 18.5 12C18.5 11.7979 18.4879 11.5988 18.4697 11.4014L20.333 10.3262ZM6.02148 14.5469C6.28756 15.1682 6.65158 15.7367 7.08789 16.2412L5.33203 17.2549C4.91915 16.7321 4.56851 16.1601 4.28613 15.5488L6.02148 14.5469ZM17.9785 14.5469L19.7139 15.5488C19.4315 16.1601 19.0809 16.7321 18.668 17.2549L16.9131 16.2402C17.349 15.736 17.7126 15.1677 17.9785 14.5469H17.9785ZM15.7471 17.2998L17.6055 18.373C16.714 19.1581 15.6623 19.7645 14.5 20.123V17.998C14.9437 17.8122 15.3594 17.5749 15.7471 17.2998ZM8.25391 17.3008C8.64126 17.5756 9.05677 17.8123 9.5 17.998V20.123C8.33766 19.7645 7.28598 19.1581 6.39453 18.373L8.25391 17.3008ZM11 18.415C11.3269 18.466 11.6592 18.5 12 18.5C12.3408 18.5 12.6732 18.466 13 18.415V20.4355C12.6715 20.4743 12.3388 20.5 12 20.5C11.6612 20.5 11.3285 20.4743 11 20.4355V18.415Z" fill="#7D7F82"/>
</svg>
