<svg width="24" height="24" viewBox="0 0 24 24" fill="none" xmlns="http://www.w3.org/2000/svg">
<path fill-rule="evenodd" clip-rule="evenodd" d="M3 5C3 3.89543 3.89543 3 5 3H19C20.1046 3 21 3.89543 21 5V19C21 20.1046 20.1046 21 19 21H5C3.89543 21 3 20.1046 3 19V5ZM14.8107 16.131C15.5022 15.5472 15.8986 14.7362 16 13.6979H14.2576C14.1654 14.393 13.9464 14.8899 13.6007 15.1885C13.255 15.4871 12.7387 15.6364 12.0519 15.6364C11.3005 15.6364 10.7289 15.3601 10.3371 14.8075C9.94987 14.2549 9.75627 13.4528 9.75627 12.4011V11.5388C9.76549 10.5004 9.97292 9.7139 10.3786 9.17914C10.7888 8.63993 11.3742 8.37032 12.1348 8.37032C12.7894 8.37032 13.2849 8.52629 13.6214 8.83824C13.9625 9.14572 14.1746 9.64929 14.2576 10.3489H16C15.8894 9.28387 15.4952 8.45945 14.8176 7.87567C14.14 7.29189 13.2458 7 12.1348 7C11.3097 7 10.5814 7.18939 9.94987 7.56818C9.32296 7.94697 8.84126 8.48619 8.50475 9.18583C8.16825 9.88547 8 10.6943 8 11.6123V12.5214C8.01383 13.4171 8.18669 14.2037 8.51858 14.881C8.85048 15.5584 9.32066 16.082 9.92913 16.4519C10.5422 16.8173 11.2498 17 12.0519 17C13.1997 17 14.1193 16.7103 14.8107 16.131Z" fill="#7D7F82"/>
</svg>
