<svg width="24" height="24" viewBox="0 0 24 24" fill="none" xmlns="http://www.w3.org/2000/svg">
<path d="M7.26316 2C6.1 2 5.1579 2.93975 5.1579 4.1V9.35H4.10526C2.9421 9.35 2 10.2898 2 11.45V16.7C2 17.8603 2.94211 18.8 4.10526 18.8H5.1579V20.9C5.1579 22.0603 6.1 23 7.26316 23H19.8947C21.0579 23 22 22.0602 22 20.9V7.25L16.7368 2L7.26316 2ZM7.26316 4.1H15.6842V8.3H19.8947V9.35H7.26316V4.1ZM6.21053 11.45C7.37368 11.45 8.31579 12.3898 8.31579 13.55H7.26316C7.26316 12.9715 6.79053 12.5 6.21052 12.5C5.63052 12.5 5.15789 12.9715 5.15789 13.55V14.6C5.15789 15.1786 5.63052 15.65 6.21052 15.65C6.79052 15.65 7.26316 15.1786 7.26316 14.6H8.31579C8.31579 15.7603 7.37368 16.7 6.21053 16.7C5.04737 16.7 4.10526 15.7603 4.10526 14.6V13.55C4.10526 12.3898 5.04737 11.45 6.21053 11.45ZM11.0995 11.45C12.5974 11.4931 12.6887 12.7971 12.6887 13.0291H11.6711C11.6711 12.921 11.6894 12.297 11.0831 12.297C10.8988 12.297 10.484 12.3784 10.5156 12.8855C10.5462 13.3507 11.1616 13.5704 11.2743 13.6197C11.51 13.7058 12.6751 14.2245 12.6846 15.2829C12.6867 15.5076 12.6285 16.6843 11.1201 16.7C9.47901 16.7178 9.36842 15.3092 9.36842 15.0184H10.3943C10.3943 15.1727 10.4074 15.919 11.1201 15.8612C11.5485 15.8255 11.6419 15.518 11.6567 15.2891C11.6809 14.9037 11.3122 14.6721 10.9227 14.4852C10.3753 14.2227 9.50962 13.9 9.49383 12.8773C9.48015 11.9565 10.1585 11.4238 11.0995 11.45L11.0995 11.45ZM13.5789 11.45H14.6871L15.676 15.2788L16.6711 11.45H17.7895L16.3647 16.7H14.9955L13.5789 11.45ZM7.26316 18.8H19.8947V20.9H7.26316V18.8Z" fill="#7D7F82"/>
</svg>
