<svg width="28" height="18" viewBox="0 0 28 18" fill="none" xmlns="http://www.w3.org/2000/svg">
<path fill-rule="evenodd" clip-rule="evenodd" d="M4 2C2.89543 2 2 2.89543 2 4V14C2 15.1046 2.89543 16 4 16H24C25.1046 16 26 15.1046 26 14V4C26 2.89543 25.1046 2 24 2H4ZM9.65625 11.6875V10.7734H7.17188V6H6V11.6875H9.65625ZM11.6742 11.6875V6H10.5063V11.6875H11.6742ZM14.3602 11.6875H15.5867L17.5672 6H16.2625L14.9735 10.3292L13.6883 6H12.3914L14.3602 11.6875ZM22.0148 11.6875V10.7734H19.3703V9.20703H21.6203V8.31641H19.3703V6.91797H22.0109V6H18.1984V11.6875H22.0148Z" fill="#7D7F82"/>
</svg>
