<svg width="24" height="24" viewBox="0 0 24 24" fill="none" xmlns="http://www.w3.org/2000/svg">
<path d="M4 2V4H3C2.448 4 2 4.448 2 5V6C2 6.552 2.448 7 3 7H7C7.552 7 8 6.552 8 6V5C8 4.448 7.552 4 7 4H6V2H4ZM11 2V14H10C9.448 14 9 14.448 9 15V16C9 16.552 9.448 17 10 17H14C14.552 17 15 16.552 15 16V15C15 14.448 14.552 14 14 14H13V2H11ZM18 2V9H17C16.448 9 16 9.448 16 10V11C16 11.552 16.448 12 17 12H21C21.552 12 22 11.552 22 11V10C22 9.448 21.552 9 21 9H20V2H18ZM4 9V22H6V9H4ZM18 14V22H20V14H18ZM11 19V22H13V19H11Z" fill="#7D7F82"/>
</svg>
