<svg width="24" height="24" viewBox="0 0 24 24" fill="none" xmlns="http://www.w3.org/2000/svg">
<path fill-rule="evenodd" clip-rule="evenodd" d="M5 9.28955C5 5.15405 8.3645 1.78955 12.5 1.78955C16.6355 1.78955 20 5.15405 20 9.28955C20 12.4834 17.9898 15.2101 15.1709 16.2896H16.25C16.664 16.2896 17 16.6256 17 17.0396C17 17.4536 16.664 17.7896 16.25 17.7896H16C15.1159 17.7896 13.8433 18.5719 13.5596 19.7896H19.75C19.8494 19.7881 19.9481 19.8065 20.0403 19.8436C20.1325 19.8806 20.2164 19.9356 20.2872 20.0054C20.358 20.0752 20.4142 20.1584 20.4526 20.2501C20.4909 20.3418 20.5107 20.4402 20.5107 20.5396C20.5107 20.6389 20.4909 20.7373 20.4526 20.829C20.4142 20.9207 20.358 21.0039 20.2872 21.0737C20.2164 21.1435 20.1325 21.1985 20.0403 21.2355C19.9481 21.2726 19.8494 21.291 19.75 21.2896H5.25C5.15062 21.291 5.05194 21.2726 4.95972 21.2355C4.86749 21.1985 4.78355 21.1435 4.71277 21.0737C4.642 21.0039 4.58579 20.9207 4.54743 20.829C4.50907 20.7373 4.48932 20.6389 4.48932 20.5396C4.48932 20.4402 4.50907 20.3418 4.54743 20.2501C4.58579 20.1584 4.642 20.0752 4.71277 20.0054C4.78355 19.9356 4.86749 19.8806 4.95972 19.8436C5.05194 19.8065 5.15062 19.7881 5.25 19.7896H11.4404C11.1567 18.5719 9.88405 17.7896 9 17.7896H8.75C8.336 17.7896 8 17.4536 8 17.0396C8 16.6256 8.336 16.2896 8.75 16.2896H9.8291C7.01023 15.2101 5 12.4834 5 9.28955ZM15.5 11.2896C16.0523 11.2896 16.5 10.8418 16.5 10.2896C16.5 9.73727 16.0523 9.28955 15.5 9.28955C14.9477 9.28955 14.5 9.73727 14.5 10.2896C14.5 10.8418 14.9477 11.2896 15.5 11.2896ZM14 13.7896C14.5523 13.7896 15 13.3418 15 12.7896C15 12.2373 14.5523 11.7896 14 11.7896C13.4477 11.7896 13 12.2373 13 12.7896C13 13.3418 13.4477 13.7896 14 13.7896ZM13.5 10.2897C13.5 10.842 13.0523 11.2897 12.5 11.2897C11.9477 11.2897 11.5 10.842 11.5 10.2897C11.5 9.73741 11.9477 9.28969 12.5 9.28969C13.0523 9.28969 13.5 9.73741 13.5 10.2897Z" fill="#7D7F82"/>
</svg>
