<svg width="24" height="24" viewBox="0 0 24 24" fill="none" xmlns="http://www.w3.org/2000/svg">
<path d="M3 5C3 4.44772 3.44772 4 4 4H20C20.5523 4 21 4.44772 21 5V7C21 7.55228 20.5523 8 20 8H4C3.44772 8 3 7.55228 3 7V5Z" fill="#7D7F82"/>
<path d="M3 11C3 10.4477 3.44772 10 4 10H20C20.5523 10 21 10.4477 21 11V13C21 13.5523 20.5523 14 20 14H4C3.44772 14 3 13.5523 3 13V11Z" fill="#7D7F82"/>
<path d="M4 16C3.44772 16 3 16.4477 3 17V19C3 19.5523 3.44772 20 4 20H20C20.5523 20 21 19.5523 21 19V17C21 16.4477 20.5523 16 20 16H4Z" fill="#7D7F82"/>
</svg>
