<svg width="24" height="24" viewBox="0 0 24 24" fill="none" xmlns="http://www.w3.org/2000/svg">
<path fill-rule="evenodd" clip-rule="evenodd" d="M4 4C3.44772 4 3 4.44772 3 5V7C3 7.55228 3.44772 8 4 8H20C20.5523 8 21 7.55228 21 7V5C21 4.44772 20.5523 4 20 4H4ZM20 5H4V7H20V5Z" fill="#7D7F82"/>
<path d="M3 11C3 10.4477 3.44772 10 4 10H20C20.5523 10 21 10.4477 21 11V13C21 13.5523 20.5523 14 20 14H4C3.44772 14 3 13.5523 3 13V11Z" fill="#7D7F82"/>
<path fill-rule="evenodd" clip-rule="evenodd" d="M3 17C3 16.4477 3.44772 16 4 16H20C20.5523 16 21 16.4477 21 17V19C21 19.5523 20.5523 20 20 20H4C3.44772 20 3 19.5523 3 19V17ZM4 17H20V19H4V17Z" fill="#7D7F82"/>
</svg>
