<svg width="24" height="24" viewBox="0 0 24 24" fill="none" xmlns="http://www.w3.org/2000/svg">
<path d="M19.25 4.28955C18.9405 4.28955 18.6623 4.48004 18.5508 4.76904L15.5664 12.481C15.3044 13.1365 14.8121 13.6708 14.1806 13.9858C13.7826 14.1848 13.338 14.2896 12.8935 14.2896H5.11131C3.97381 14.2896 2.96838 15.0143 2.60838 16.0933L1.86717 18.3159C1.59567 19.1304 1.72845 19.9973 2.23045 20.6938C2.73245 21.3903 3.5116 21.7896 4.3701 21.7896H13.75C15.53 21.7896 17.2892 20.7635 17.9482 19.314L23.4482 5.31397C23.5387 5.08297 23.5091 4.8217 23.3691 4.6167C23.2296 4.4117 22.998 4.28955 22.75 4.28955L19.25 4.28955ZM8.74998 5.7417C6.47648 5.7417 4.63279 6.4132 4.63279 7.2417C4.63279 7.9807 6.10216 8.59378 8.03416 8.71728C8.05516 8.71878 8.07566 8.71969 8.09666 8.72119C8.31016 8.73369 8.52698 8.7417 8.74998 8.7417C11.024 8.7417 12.8672 8.0702 12.8672 7.2417C12.8672 6.4132 11.0235 5.7417 8.74998 5.7417V5.7417ZM4.49998 9.2456V10.0396C4.49998 11.5166 6.63798 12.2896 8.74998 12.2896C10.862 12.2896 13 11.5166 13 10.0396V9.2583C11.764 10.0118 9.8721 10.2407 8.7031 10.2407C7.2786 10.2407 5.59748 9.9641 4.49998 9.2456L4.49998 9.2456Z" fill="#7D7F82"/>
</svg>
