<svg width="24" height="24" viewBox="0 0 24 24" fill="none" xmlns="http://www.w3.org/2000/svg">
<path d="M12.3359 15.5928H13.5117C14.127 15.5928 14.6419 15.4583 15.0566 15.1895C15.4759 14.9206 15.7904 14.5355 16 14.0342C16.2142 13.5329 16.3213 12.9359 16.3213 12.2432V11.7031C16.3213 11.1654 16.2598 10.6891 16.1367 10.2744C16.0182 9.8597 15.8405 9.51107 15.6035 9.22852C15.3711 8.94596 15.084 8.73177 14.7422 8.58594C14.4049 8.4401 14.0153 8.36719 13.5732 8.36719H12.3359V15.5928Z" fill="#7D7F82"/>
<path fill-rule="evenodd" clip-rule="evenodd" d="M5 3C3.89543 3 3 3.89543 3 5V19C3 20.1046 3.89543 21 5 21H19C20.1046 21 21 20.1046 21 19V5C21 3.89543 20.1046 3 19 3H5ZM8.3373 16.9531V7H6.62148V16.9531H8.3373ZM13.5117 16.9531C14.1953 16.9531 14.8128 16.8438 15.3643 16.625C15.9202 16.4017 16.3988 16.085 16.7998 15.6748C17.2008 15.2601 17.5085 14.7633 17.7227 14.1846C17.9368 13.6058 18.0439 12.9587 18.0439 12.2432V11.7168C18.0439 11.0013 17.9368 10.3542 17.7227 9.77539C17.5085 9.19661 17.2008 8.69987 16.7998 8.28516C16.4033 7.87044 15.9316 7.55371 15.3848 7.33496C14.8379 7.11165 14.234 7 13.5732 7H10.6201V16.9531H13.5117Z" fill="#7D7F82"/>
</svg>
