<svg width="24" height="24" viewBox="0 0 24 24" fill="none" xmlns="http://www.w3.org/2000/svg">
<path d="M19 20.2896V3.28955C19 1.90955 17.88 0.789551 16.5 0.789551H7.5C6.12 0.789551 5 1.90955 5 3.28955V20.2896C5 21.6696 6.12 22.7896 7.5 22.7896H16.5C17.88 22.7896 19 21.6696 19 20.2896ZM16.5 20.7896H7.5C7.224 20.7896 7 20.5656 7 20.2896V3.28955C7 3.01355 7.224 2.78955 7.5 2.78955H8.625L9.349 4.23655C9.518 4.57555 9.864 4.78955 10.243 4.78955H13.715C14.094 4.78955 14.44 4.57555 14.609 4.23655L15.333 2.78955H16.5C16.776 2.78955 17 3.01355 17 3.28955V20.2896C17 20.5656 16.776 20.7896 16.5 20.7896H16.5Z" fill="#7D7F82"/>
</svg>
