<svg width="24" height="24" viewBox="0 0 24 24" fill="none" xmlns="http://www.w3.org/2000/svg">
<path d="M8.74414 2.27981C8.61397 2.27992 8.48606 2.31391 8.37301 2.37844C8.25995 2.44296 8.16563 2.5358 8.09932 2.64782C8.03302 2.75984 7.99701 2.88719 7.99483 3.01734C7.99266 3.1475 8.02439 3.27598 8.08692 3.39016L10.7305 8.39406C9.9509 8.5486 9.22462 8.84822 8.57129 9.25442L4.90528 2.67434C4.83957 2.55263 4.7415 2.45146 4.6219 2.38201C4.50229 2.31255 4.36581 2.27752 4.22754 2.28078C4.09746 2.28378 3.9704 2.32057 3.85884 2.38752C3.74727 2.45448 3.65505 2.5493 3.59122 2.66268C3.52738 2.77606 3.49414 2.9041 3.49476 3.03421C3.49538 3.16432 3.52983 3.29204 3.59473 3.40481L7.37793 10.1958C6.20543 11.3755 5.47852 12.999 5.47852 14.7896C5.47852 18.3851 8.4045 21.3111 12 21.3111C15.5955 21.3111 18.5215 18.3851 18.5215 14.7896C18.5215 13.001 17.7962 11.3791 16.626 10.1997L20.4111 3.40481C20.4772 3.29037 20.5118 3.16051 20.5116 3.02837C20.5113 2.89624 20.4761 2.76652 20.4096 2.65234C20.3431 2.53816 20.2477 2.44358 20.1328 2.37816C20.018 2.31274 19.888 2.27881 19.7559 2.27981C19.6213 2.28074 19.4894 2.31786 19.3742 2.38727C19.2589 2.45669 19.1644 2.55584 19.1006 2.67434L15.4336 9.25637C14.7808 8.84976 14.0545 8.55023 13.2754 8.39504L15.9189 3.39016C15.9657 3.30302 15.9947 3.20751 16.0044 3.10912C16.014 3.01073 16.0042 2.91139 15.9753 2.81683C15.9465 2.72227 15.8992 2.63434 15.8363 2.55811C15.7733 2.48187 15.6959 2.41884 15.6085 2.37263C15.5211 2.32641 15.4254 2.29794 15.327 2.28883C15.2285 2.27973 15.1292 2.29018 15.0348 2.31958C14.9404 2.34898 14.8528 2.39675 14.7769 2.46015C14.7011 2.52355 14.6385 2.60132 14.5928 2.68899L12.0029 7.59231L9.41309 2.68899C9.35019 2.56571 9.25441 2.46223 9.13635 2.39002C9.01828 2.3178 8.88254 2.27966 8.74414 2.27981ZM12.1865 11.7046C12.3335 11.6923 12.4822 11.7327 12.6045 11.8208C12.7675 11.9383 12.8643 12.1267 12.8643 12.3277V17.0777C12.8643 17.4227 12.5843 17.7027 12.2393 17.7027C11.8943 17.7027 11.6143 17.4227 11.6143 17.0777V13.1948L10.9365 13.4214C10.6085 13.5294 10.256 13.3529 10.1465 13.0259C10.0375 12.6984 10.2135 12.3444 10.541 12.2349L12.041 11.7349C12.0886 11.7189 12.1375 11.7087 12.1865 11.7046Z" fill="#7D7F82"/>
</svg>
