<svg width="24" height="24" viewBox="0 0 24 24" fill="none" xmlns="http://www.w3.org/2000/svg">
<path fill-rule="evenodd" clip-rule="evenodd" d="M9.97449 14.8052L12.8964 11.8833C12.4979 11.8833 12.2323 11.8833 11.8339 11.8833C9.17761 11.8833 3.86511 13.2114 3.86511 15.8677V17.7271H12.8964L9.97449 14.8052ZM11.9667 9.7583C14.2245 9.7583 15.9511 8.03174 15.9511 5.77393C15.9511 3.51611 14.2245 1.78955 11.9667 1.78955C9.70886 1.78955 7.9823 3.51611 7.9823 5.77393C7.9823 8.03174 9.70886 9.7583 11.9667 9.7583Z" fill="#7D7F82"/>
<path d="M18.3396 17.7271L20.9958 15.0708L19.6677 13.7427L17.0115 16.3989L14.3552 13.7427L13.0271 15.0708L15.5505 17.7271L13.0271 20.3833L14.3552 21.7114L17.0115 19.0552L19.6677 21.7114L20.9958 20.3833L18.3396 17.7271Z" fill="#7D7F82"/>
</svg>
