<svg width="24" height="24" viewBox="0 0 24 24" fill="none" xmlns="http://www.w3.org/2000/svg">
<path d="M13.8379 9.50879C14.2116 10.0511 14.3984 10.8441 14.3984 11.8877V12.373C14.3939 13.4076 14.207 14.196 13.8379 14.7383C13.4688 15.276 12.9401 15.5449 12.252 15.5449C11.5501 15.5449 11.0124 15.2646 10.6387 14.7041C10.265 14.1436 10.0781 13.3551 10.0781 12.3389V11.8535C10.0827 10.819 10.2718 10.0352 10.6455 9.50195C11.0192 8.96419 11.5501 8.69531 12.2383 8.69531C12.931 8.69531 13.4642 8.96647 13.8379 9.50879Z" fill="#7D7F82"/>
<path fill-rule="evenodd" clip-rule="evenodd" d="M3 5C3 3.89543 3.89543 3 5 3H19C20.1046 3 21 3.89543 21 5V19C21 20.1046 20.1046 21 19 21H5C3.89543 21 3 20.1046 3 19V5ZM15.957 14.916C16.3034 14.1777 16.4766 13.3187 16.4766 12.3389V11.8945C16.4766 10.9193 16.2988 10.0602 15.9434 9.31738C15.5924 8.56999 15.0934 7.99805 14.4463 7.60156C13.8037 7.20052 13.0677 7 12.2383 7C11.4089 7 10.6706 7.20052 10.0234 7.60156C9.38086 7.99805 8.88184 8.56999 8.52637 9.31738C8.17546 10.0602 8 10.9215 8 11.9014V12.3936C8.00456 13.3506 8.18457 14.1982 8.54004 14.9365C8.89551 15.6702 9.39681 16.2354 10.0439 16.6318C10.6911 17.0283 11.4271 17.2266 12.252 17.2266C13.0859 17.2266 13.8242 17.026 14.4668 16.625C15.1139 16.224 15.6107 15.6543 15.957 14.916Z" fill="#7D7F82"/>
</svg>
