<svg width="24" height="24" viewBox="0 0 24 24" fill="none" xmlns="http://www.w3.org/2000/svg">
<path d="M17.3925 2.79395L5.00461 19.6141L6.61958 20.7956L19.0074 3.97544L17.3925 2.79395Z" fill="#7D7F82"/>
<path d="M6.79633 10.3669C4.70284 10.3669 3 8.66974 3 6.58322C3 4.4967 4.70284 2.79953 6.79633 2.79953C8.88982 2.79953 10.5927 4.4967 10.5927 6.58322C10.5927 8.66974 8.88982 10.3669 6.79633 10.3669ZM6.79633 4.80618C5.80467 4.80618 5.00334 5.60485 5.00334 6.5932C5.00334 7.58156 5.80467 8.38023 6.79633 8.38023C7.78798 8.38023 8.58932 7.58156 8.58932 6.5932C8.58932 5.60485 7.78798 4.80618 6.79633 4.80618Z" fill="#7D7F82"/>
<path d="M17.2137 20.7895C15.1202 20.7895 13.4174 19.0924 13.4174 17.0058C13.4174 14.9193 15.1202 13.2221 17.2137 13.2221C19.3072 13.2221 21.01 14.9193 21.01 17.0058C21.01 19.0924 19.3072 20.7895 17.2137 20.7895ZM17.2137 15.2288C16.222 15.2288 15.4207 16.0275 15.4207 17.0158C15.4207 18.0042 16.222 18.8028 17.2137 18.8028C18.2053 18.8028 19.0067 18.0042 19.0067 17.0158C19.0067 16.0275 18.2053 15.2288 17.2137 15.2288Z" fill="#7D7F82"/>
</svg>
