<svg width="24" height="24" viewBox="0 0 24 24" fill="none" xmlns="http://www.w3.org/2000/svg">
<path d="M12.8828 11.7852H11.0508V8.66113H12.9307C13.4365 8.67025 13.833 8.8252 14.1201 9.12598C14.4072 9.42676 14.5508 9.82096 14.5508 10.3086C14.5508 10.7826 14.4072 11.1471 14.1201 11.4023C13.8376 11.6576 13.4251 11.7852 12.8828 11.7852Z" fill="#7D7F82"/>
<path fill-rule="evenodd" clip-rule="evenodd" d="M3 5C3 3.89543 3.89543 3 5 3H19C20.1046 3 21 3.89543 21 5V19C21 20.1046 20.1046 21 19 21H5C3.89543 21 3 20.1046 3 19V5ZM11.0508 16.9531V13.4463H12.8486C14.029 13.4463 14.9518 13.166 15.6172 12.6055C16.2871 12.0404 16.6221 11.2702 16.6221 10.2949C16.6221 9.65234 16.4694 9.0804 16.1641 8.5791C15.8587 8.07324 15.4212 7.68359 14.8516 7.41016C14.2865 7.13672 13.6302 7 12.8828 7H9V16.9531H11.0508Z" fill="#7D7F82"/>
</svg>
