<svg width="24" height="24" viewBox="0 0 24 24" fill="none" xmlns="http://www.w3.org/2000/svg">
<path d="M12 1.78955C6.48603 1.78955 2 6.27559 2 11.7896C2 17.3035 6.48603 21.7896 12 21.7896C17.514 21.7896 22 17.3035 22 11.7896C22 6.27559 17.514 1.78955 12 1.78955ZM8.62402 3.98682L11.5 6.04639V8.05029L8.44043 10.2427L6.40723 9.56494L5.38184 6.45459C6.2408 5.38951 7.35021 4.53709 8.62402 3.98682ZM15.376 3.98682C16.6498 4.53709 17.7592 5.38951 18.6182 6.45459L17.5928 9.56494L15.5596 10.2427L12.5 8.05029V6.04639L15.376 3.98682ZM17.9463 10.5005L20.4736 12.311C20.3856 13.765 19.9366 15.1163 19.2109 16.2808L15.9062 16.2612L14.7275 14.7563L15.9062 11.1812L17.9463 10.5005ZM6.05371 10.5015L8.09473 11.1821L9.28906 14.8032L8.14844 16.2603L4.78906 16.2808C4.06359 15.1165 3.61453 13.7656 3.52637 12.312L6.05371 10.5015ZM10.1152 15.3696H13.9385L15.0615 16.8052L13.9316 20.062C13.3104 20.2059 12.6657 20.2896 12 20.2896C11.3142 20.2896 10.651 20.1999 10.0127 20.0474L8.91895 16.897L10.1152 15.3696Z" fill="#7D7F82"/>
</svg>
