<svg width="24" height="24" viewBox="0 0 24 24" fill="none" xmlns="http://www.w3.org/2000/svg">
<path d="M11.0909 2C6.07818 2 2 6.07818 2 11.0909C2 16.1036 6.07818 20.1818 11.0909 20.1818C12.3873 20.1818 13.6109 19.8915 14.7273 19.3988V18.7631C14.4082 18.4759 14.1107 18.1669 13.8661 17.8114C13.0107 18.166 12.0736 18.3636 11.0909 18.3636C7.08091 18.3636 3.81818 15.1009 3.81818 11.0909C3.81818 9.4133 4.39613 7.87141 5.35405 6.63956L7.30185 8.58736C7.64003 8.07736 8.07736 7.64003 8.58736 7.30185L6.63956 5.35405C7.87141 4.39614 9.4133 3.81818 11.0909 3.81818C14.4764 3.81818 17.3211 6.14788 18.1275 9.28516C18.2066 9.28152 18.2836 9.27273 18.3636 9.27273C18.9482 9.27273 19.5116 9.36729 20.0398 9.53729C19.2998 5.26365 15.5727 2 11.0909 2H11.0909ZM11.0909 8.36364C9.59545 8.36364 8.36364 9.59545 8.36364 11.0909C8.36364 12.5864 9.59545 13.8182 11.0909 13.8182C12.5864 13.8182 13.8182 12.5864 13.8182 11.0909C13.8182 9.59545 12.5864 8.36364 11.0909 8.36364ZM11.0909 10.1818C11.6038 10.1818 12 10.5781 12 11.0909C12 11.6038 11.6038 12 11.0909 12C10.5781 12 10.1818 11.6038 10.1818 11.0909C10.1818 10.5781 10.5781 10.1818 11.0909 10.1818ZM18.3636 11.0909C16.3555 11.0909 14.7273 12.7191 14.7273 14.7273C14.7273 16.0698 15.4631 17.2294 16.5455 17.8594V22L18.3636 21.0909L20.1818 22V17.8594C21.2642 17.2294 22 16.0698 22 14.7273C22 12.7191 20.3718 11.0909 18.3636 11.0909H18.3636ZM18.3636 12.9091C19.3682 12.9091 20.1818 13.7227 20.1818 14.7273C20.1818 15.7318 19.3682 16.5455 18.3636 16.5455C17.3591 16.5455 16.5455 15.7318 16.5455 14.7273C16.5455 13.7227 17.3591 12.9091 18.3636 12.9091Z" fill="#7D7F82"/>
</svg>
