<svg width="24" height="24" viewBox="0 0 24 24" fill="none" xmlns="http://www.w3.org/2000/svg">
<path d="M20.443 3.3465C18.968 1.87092 16.6858 1.42514 14.0155 2.09076C11.4968 2.71918 8.89531 4.27803 6.69247 6.48196C4.48851 8.68534 2.92964 11.2862 2.30121 13.8049C1.63558 16.4751 2.08137 18.7573 3.55697 20.2324C4.58566 21.2616 6.0063 21.7896 7.67731 21.7896C8.40289 21.7896 9.17622 21.6896 9.98452 21.4881C12.5032 20.8597 15.1047 19.3008 17.3075 17.0969C19.5115 14.8935 21.0704 12.2927 21.6988 9.77398C22.3644 7.10428 21.9186 4.82152 20.443 3.3465ZM16.1972 9.25769C16.5225 9.58301 16.5225 10.1098 16.1972 10.4352C16.0346 10.5984 15.8214 10.6794 15.6082 10.6794C15.395 10.6794 15.1819 10.5984 15.0192 10.4357L14.4979 9.91387L12.8996 11.5121L13.4209 12.0334C13.7462 12.3587 13.7462 12.8856 13.4209 13.2109C13.2588 13.3741 13.0456 13.4551 12.8325 13.4551C12.6193 13.4551 12.4061 13.3741 12.2434 13.2114L11.7221 12.6896L10.1239 14.2879L10.6452 14.8091C10.9705 15.1345 10.9705 15.6613 10.6452 15.9866C10.483 16.1498 10.2699 16.2309 10.0567 16.2309C9.84351 16.2309 9.63033 16.1498 9.46767 15.9872L8.94638 15.4653L8.4251 15.9866C8.26244 16.1498 8.04926 16.2309 7.83608 16.2309C7.6229 16.2309 7.40972 16.1498 7.24706 15.9872C6.92174 15.6619 6.92174 15.135 7.24706 14.8097L7.76835 14.2884L7.24706 13.7671C6.92174 13.4418 6.92174 12.915 7.24706 12.5897C7.57238 12.2644 8.09922 12.2644 8.42454 12.5897L8.94583 13.111L10.5441 11.5127L10.0228 10.9914C9.69751 10.6661 9.69751 10.1393 10.0228 9.81395C10.3481 9.48863 10.875 9.48863 11.2003 9.81395L11.7216 10.3352L13.3199 8.73696L12.7986 8.21568C12.4733 7.89037 12.4733 7.36353 12.7986 7.03822C13.1239 6.7129 13.6507 6.7129 13.9761 7.03822L14.4974 7.5595L15.0186 7.03822C15.344 6.7129 15.8708 6.7129 16.1961 7.03822C16.5214 7.36353 16.5214 7.89037 16.1961 8.21568L15.6754 8.73641L16.1972 9.25769Z" fill="#7D7F82"/>
</svg>
