<svg width="24" height="24" viewBox="0 0 24 24" fill="none" xmlns="http://www.w3.org/2000/svg">
<path fill-rule="evenodd" clip-rule="evenodd" d="M15 2.78955H15.615C16.521 2.78955 17.41 3.03555 18.188 3.50255L22 5.78955L21 10.7896H19V20.7896H5V10.7896H3L2 5.78955L5.812 3.50255C6.589 3.03555 7.479 2.78955 8.385 2.78955H9C9 2.78955 10 4.78955 12 4.78955C14 4.78955 15 2.78955 15 2.78955ZM9.58544 16.7896H14.8437V15.7476H11.2129L13.125 13.7012C13.6263 13.1569 13.9862 12.6717 14.2046 12.2456C14.4266 11.8159 14.5376 11.4059 14.5376 11.0156C14.5376 10.3424 14.3174 9.81608 13.8769 9.43652C13.4401 9.05339 12.8421 8.86182 12.083 8.86182C11.5566 8.86182 11.0911 8.96745 10.6865 9.17871C10.2855 9.38997 9.97574 9.68717 9.75731 10.0703C9.54247 10.4499 9.43505 10.8778 9.43505 11.354H10.7402C10.7402 10.9064 10.8566 10.5537 11.0893 10.2959C11.3221 10.0381 11.6497 9.90918 12.0723 9.90918C12.4267 9.90918 12.7078 10.0238 12.9155 10.2529C13.1268 10.4821 13.2324 10.7829 13.2324 11.1553C13.2324 11.4382 13.1518 11.721 12.9907 12.0039C12.8332 12.2832 12.5664 12.6323 12.1904 13.0513L9.58544 15.8926V16.7896Z" fill="#7D7F82"/>
</svg>
