<svg width="24" height="24" viewBox="0 0 24 24" fill="none" xmlns="http://www.w3.org/2000/svg">
<path d="M12 1.78955C6.48603 1.78955 2 6.27559 2 11.7896C2 17.3035 6.48603 21.7896 12 21.7896C17.514 21.7896 22 17.3035 22 11.7896C22 6.27559 17.514 1.78955 12 1.78955ZM15.251 3.93408C16.2329 4.33964 17.1179 4.92571 17.873 5.64795C17.0938 5.50968 12.7104 4.85524 8.75 6.88818C9.021 7.36668 9.3398 7.87364 9.7168 8.39014C13.1817 6.63818 16.9741 6.79122 19.0752 7.07275C19.4199 7.58955 19.7017 8.1491 19.9277 8.73779C18.6747 8.48689 14.4431 7.83303 10.6914 9.58252C11.0404 9.96452 11.4213 10.3398 11.8398 10.6978C15.2028 9.34936 18.6425 9.77298 20.335 10.1216C20.4357 10.6301 20.4891 11.1557 20.4951 11.6929C20.186 11.6188 19.7506 11.526 19.1885 11.4438C19.124 14.2696 18.1827 16.7295 17.3076 18.4272C16.5294 19.0498 15.6401 19.5365 14.6719 19.856C14.9497 19.4911 17.6265 15.853 17.6904 11.2983C17.1284 11.2688 16.5232 11.266 15.8867 11.311C15.8735 15.1834 14.0518 18.4973 12.8701 20.2456C12.87 20.2457 12.8692 20.2455 12.8691 20.2456C12.5833 20.2745 12.2936 20.2896 12 20.2896C11.6711 20.2896 11.3484 20.2661 11.0293 20.23C11.8399 19.1751 14.2896 15.6595 14.3828 11.5054C13.7893 11.6194 13.1878 11.7887 12.5908 12.0132C12.1386 15.5751 10.1167 18.3519 8.93359 19.7124C8.44443 19.5235 7.97937 19.2909 7.53906 19.019C7.75891 18.7777 8.028 18.4695 8.33398 18.0747C6.15941 16.6835 4.63521 14.82 3.63574 13.2642C3.55207 12.7845 3.5 12.2936 3.5 11.7896C3.5 11.2271 3.55748 10.6786 3.66113 10.147C4.13113 11.229 5.83749 14.7098 9.20117 16.8403C9.49767 16.3728 9.78962 15.8555 10.0576 15.2935C6.94238 13.3454 5.1233 10.2703 4.22656 8.354C4.48046 7.77877 4.79872 7.24113 5.16797 6.7417C5.70068 8.0917 7.36334 11.7165 10.6309 13.8774C10.8289 13.2859 10.9807 12.6598 11.0762 12.0083C8.31221 9.73868 6.94777 6.8744 6.38672 5.4126C6.77666 5.06924 7.19777 4.76252 7.64648 4.49463C7.73849 4.75493 7.87593 5.11771 8.07031 5.55225C10.6161 4.24579 13.2738 3.93254 15.251 3.93408Z" fill="#7D7F82"/>
</svg>
