<svg width="24" height="24" viewBox="0 0 24 24" fill="none" xmlns="http://www.w3.org/2000/svg">
<path d="M5 3C3.895 3 3 3.895 3 5V9V19C3 20.0931 3.90694 21 5 21H19C20.0931 21 21 20.0931 21 19V8V5C21 3.895 20.105 3 19 3L5 3ZM6 5C6.552 5 7 5.448 7 6C7 6.552 6.552 7 6 7C5.448 7 5 6.552 5 6C5 5.448 5.448 5 6 5ZM9 5C9.552 5 10 5.448 10 6C10 6.552 9.552 7 9 7C8.448 7 8 6.552 8 6C8 5.448 8.448 5 9 5ZM12 5H19V7H12V5ZM5 9H19V19H5V9ZM7 11V13H12V11H7ZM14 11V17H17V11H14ZM7 15V17H12V15H7Z" fill="#7D7F82"/>
</svg>
