<svg width="16" height="16" viewBox="0 0 16 16" fill="none" xmlns="http://www.w3.org/2000/svg">
<path d="M8.00076 5.00518C8.41497 5.00518 8.75076 5.34097 8.75076 5.75518V8.88058C8.75076 9.29479 8.41497 9.63058 8.00076 9.63058C7.58655 9.63058 7.25076 9.29479 7.25076 8.88058V5.75518C7.25076 5.34097 7.58655 5.00518 8.00076 5.00518Z" fill="#7D7F82"/>
<path d="M7.99734 10.0059C7.58313 10.0059 7.24734 10.3417 7.24734 10.7559C7.24734 11.1701 7.58313 11.5059 7.99734 11.5059H8.00296C8.41717 11.5059 8.75296 11.1701 8.75296 10.7559C8.75296 10.3417 8.41717 10.0059 8.00296 10.0059H7.99734Z" fill="#7D7F82"/>
<path fill-rule="evenodd" clip-rule="evenodd" d="M7.90358 14.2624H4.21287C2.9636 14.2624 1.89177 13.8096 1.34626 12.8802C0.801161 11.9516 0.927119 10.7949 1.53169 9.70456L3.48213 6.19126L5.31969 2.89117C5.94958 1.75559 6.89143 1 8.00085 1C9.11027 1 10.0518 1.75496 10.6817 2.89054L14.4698 9.71046C15.075 10.8019 15.1987 11.959 14.6527 12.8871C14.1067 13.8154 13.0358 14.2687 11.7888 14.2687H8.00085C7.96789 14.2687 7.93542 14.2665 7.90358 14.2624ZM8.00085 2.5C7.64154 2.5 7.11425 2.74802 6.6315 3.61859L4.79359 6.91933L2.84354 10.4319C2.39798 11.2355 2.45205 11.801 2.63986 12.1209C2.82725 12.4402 3.29312 12.7624 4.21287 12.7624H8.00085C8.03381 12.7624 8.06628 12.7646 8.09812 12.7687H11.7888C12.7047 12.7687 13.1714 12.4469 13.3598 12.1266C13.5483 11.8061 13.6031 11.2409 13.1584 10.4385L9.37055 3.61922C8.8878 2.74865 8.36016 2.5 8.00085 2.5Z" fill="#7D7F82"/>
</svg>
