<svg width="16" height="16" viewBox="0 0 16 16" fill="none" xmlns="http://www.w3.org/2000/svg">
<path fill-rule="evenodd" clip-rule="evenodd" d="M13 4.33502C13.3673 4.33502 13.665 4.63275 13.665 5.00002L13.665 11C13.665 11.3673 13.3673 11.665 13 11.665C12.6328 11.665 12.335 11.3673 12.335 11L12.335 5.00002C12.335 4.63275 12.6328 4.33502 13 4.33502ZM11.665 13C11.665 13.3673 11.3673 13.665 11 13.665L5.00004 13.665C4.63277 13.665 4.33504 13.3673 4.33504 13C4.33504 12.6328 4.63277 12.335 5.00004 12.335L11 12.335C11.3673 12.335 11.665 12.6328 11.665 13ZM11.665 3.00002C11.665 3.36729 11.3673 3.66502 11 3.66502L5.00004 3.66502C4.63277 3.66502 4.33504 3.36729 4.33504 3.00002C4.33504 2.63275 4.63277 2.33502 5.00004 2.33502L11 2.33502C11.3673 2.33502 11.665 2.63275 11.665 3.00002ZM11 4.33502C11.3673 4.33502 11.665 4.63275 11.665 5.00002L11.665 11C11.665 11.3673 11.3673 11.665 11 11.665L5.00004 11.665C4.63277 11.665 4.33504 11.3673 4.33504 11L4.33504 5.00002C4.33504 4.63275 4.63277 4.33502 5.00004 4.33502L11 4.33502ZM10.335 5.66502L5.66504 5.66502L5.66504 10.335L10.335 10.335L10.335 5.66502ZM3.00004 4.33502C3.36731 4.33502 3.66504 4.63275 3.66504 5.00002L3.66504 11C3.66504 11.3673 3.36731 11.665 3.00004 11.665C2.63277 11.665 2.33504 11.3673 2.33504 11L2.33504 5.00002C2.33504 4.63275 2.63277 4.33502 3.00004 4.33502Z" fill="#7D7F82"/>
</svg>
