<svg width="16" height="16" viewBox="0 0 16 16" fill="none" xmlns="http://www.w3.org/2000/svg">
<path fill-rule="evenodd" clip-rule="evenodd" d="M7.52975 2.0298C7.78945 1.7701 8.21051 1.7701 8.47021 2.0298L10.4702 4.0298C10.6604 4.21998 10.7173 4.50601 10.6144 4.75451C10.5114 5.003 10.2689 5.16502 9.99998 5.16502H5.99998C5.73101 5.16502 5.48853 5.003 5.3856 4.75451C5.28267 4.50601 5.33957 4.21998 5.52975 4.0298L7.52975 2.0298ZM5.3856 11.2455C5.48853 10.997 5.73101 10.835 5.99998 10.835H9.99998C10.2689 10.835 10.5114 10.997 10.6144 11.2455C10.7173 11.494 10.6604 11.7801 10.4702 11.9702L8.47021 13.9702C8.21051 14.2299 7.78945 14.2299 7.52975 13.9702L5.52975 11.9702C5.33957 11.7801 5.28267 11.494 5.3856 11.2455Z" fill="#7D7F82"/>
</svg>
