<svg width="16" height="16" viewBox="0 0 16 16" fill="none" xmlns="http://www.w3.org/2000/svg">
<path fill-rule="evenodd" clip-rule="evenodd" d="M14 4.33502C14.3673 4.33502 14.665 4.63275 14.665 5.00002L14.665 11C14.665 11.3673 14.3673 11.665 14 11.665C13.6328 11.665 13.335 11.3673 13.335 11L13.335 5.00002C13.335 4.63275 13.6328 4.33502 14 4.33502ZM11.665 2.00002C11.665 2.36729 11.3673 2.66502 11 2.66502L5.00004 2.66502C4.63277 2.66502 4.33504 2.36729 4.33504 2.00002C4.33504 1.63275 4.63277 1.33502 5.00004 1.33502L11 1.33502C11.3673 1.33502 11.665 1.63275 11.665 2.00002ZM11.665 14C11.665 14.3673 11.3673 14.665 11 14.665L5.00004 14.665C4.63277 14.665 4.33504 14.3673 4.33504 14C4.33504 13.6328 4.63277 13.335 5.00004 13.335L11 13.335C11.3673 13.335 11.665 13.6328 11.665 14ZM2.00004 4.33502C2.36731 4.33502 2.66504 4.63275 2.66504 5.00002L2.66504 11C2.66504 11.3673 2.36731 11.665 2.00004 11.665C1.63277 11.665 1.33504 11.3673 1.33504 11L1.33504 5.00002C1.33504 4.63275 1.63277 4.33502 2.00004 4.33502Z" fill="#7D7F82"/>
</svg>
