<svg width="16" height="16" viewBox="0 0 16 16" fill="none" xmlns="http://www.w3.org/2000/svg">
<path fill-rule="evenodd" clip-rule="evenodd" d="M5.33496 6.00002C5.33496 4.52818 6.52812 3.33502 7.99996 3.33502H12C13.4718 3.33502 14.665 4.52818 14.665 6.00002V10C14.665 11.4719 13.4718 12.665 12 12.665H7.99996C6.52812 12.665 5.33496 11.4719 5.33496 10V6.00002ZM7.99996 4.66502C7.26266 4.66502 6.66496 5.26272 6.66496 6.00002V10C6.66496 10.7373 7.26266 11.335 7.99996 11.335H12C12.7373 11.335 13.335 10.7373 13.335 10V6.00002C13.335 5.26272 12.7373 4.66502 12 4.66502H7.99996ZM1.52973 5.5298C1.78943 5.2701 2.21049 5.2701 2.47019 5.5298L4.47019 7.5298C4.72989 7.78949 4.72989 8.21055 4.47019 8.47025L2.47019 10.4702C2.21049 10.7299 1.78943 10.7299 1.52973 10.4702C1.27004 10.2105 1.27004 9.78949 1.52973 9.5298L3.05951 8.00002L1.52973 6.47025C1.27004 6.21055 1.27004 5.78949 1.52973 5.5298Z" fill="#7D7F82"/>
</svg>
