<svg width="16" height="16" viewBox="0 0 16 16" fill="none" xmlns="http://www.w3.org/2000/svg">
<path fill-rule="evenodd" clip-rule="evenodd" d="M1.33496 6.00002C1.33496 4.52818 2.52812 3.33502 3.99996 3.33502H12C13.4718 3.33502 14.665 4.52818 14.665 6.00002V10C14.665 11.4719 13.4718 12.665 12 12.665H3.99996C2.52812 12.665 1.33496 11.4719 1.33496 10V6.00002ZM3.99996 4.66502C3.26266 4.66502 2.66496 5.26272 2.66496 6.00002V10C2.66496 10.7373 3.26266 11.335 3.99996 11.335H12C12.7373 11.335 13.335 10.7373 13.335 10V6.00002C13.335 5.26272 12.7373 4.66502 12 4.66502H3.99996ZM4.33496 8.00002C4.33496 7.63275 4.63269 7.33502 4.99996 7.33502H11C11.3672 7.33502 11.665 7.63275 11.665 8.00002C11.665 8.36729 11.3672 8.66502 11 8.66502H4.99996C4.63269 8.66502 4.33496 8.36729 4.33496 8.00002Z" fill="#7D7F82"/>
</svg>
