<svg width="16" height="16" viewBox="0 0 16 16" fill="none" xmlns="http://www.w3.org/2000/svg">
<path fill-rule="evenodd" clip-rule="evenodd" d="M2.33496 5.00002C2.33496 4.63275 2.63269 4.33502 2.99996 4.33502L13 4.33502C13.3672 4.33502 13.665 4.63275 13.665 5.00002C13.665 5.36729 13.3672 5.66502 13 5.66502L2.99996 5.66502C2.63269 5.66502 2.33496 5.36729 2.33496 5.00002ZM4.33496 8.00002C4.33496 7.63275 4.63269 7.33502 4.99996 7.33502L11.1666 7.33502C11.5339 7.33502 11.8316 7.63275 11.8316 8.00002C11.8316 8.36729 11.5339 8.66502 11.1666 8.66502L4.99996 8.66502C4.63269 8.66502 4.33496 8.36729 4.33496 8.00002ZM4.33496 11C4.33496 10.6328 4.63269 10.335 4.99996 10.335L11.1666 10.335C11.5339 10.335 11.8316 10.6328 11.8316 11C11.8316 11.3673 11.5339 11.665 11.1666 11.665L4.99996 11.665C4.63269 11.665 4.33496 11.3673 4.33496 11Z" fill="#7D7F82"/>
</svg>
