<svg width="16" height="16" viewBox="0 0 16 16" fill="none" xmlns="http://www.w3.org/2000/svg">
<path d="M13 8C13 10.7614 10.7614 13 8 13C5.23858 13 3 10.7614 3 8C3 5.23858 5.23858 3 8 3C10.7614 3 13 5.23858 13 8Z" fill="#F2F2F2"/>
<path fill-rule="evenodd" clip-rule="evenodd" d="M6.02977 6.02977C6.28947 5.77008 6.71053 5.77008 6.97023 6.02977L8 7.05955L9.02977 6.02977C9.28947 5.77008 9.71053 5.77008 9.97023 6.02977C10.2299 6.28947 10.2299 6.71053 9.97023 6.97023L8.94045 8L9.97023 9.02977C10.2299 9.28947 10.2299 9.71053 9.97023 9.97023C9.71053 10.2299 9.28947 10.2299 9.02977 9.97023L8 8.94045L6.97023 9.97023C6.71053 10.2299 6.28947 10.2299 6.02977 9.97023C5.77008 9.71053 5.77008 9.28947 6.02977 9.02977L7.05955 8L6.02977 6.97023C5.77008 6.71053 5.77008 6.28947 6.02977 6.02977Z" fill="#B2B2B2"/>
</svg>
