<svg width="16" height="16" viewBox="0 0 16 16" fill="none" xmlns="http://www.w3.org/2000/svg">
<path fill-rule="evenodd" clip-rule="evenodd" d="M3.52973 3.5298C3.78943 3.2701 4.21049 3.2701 4.47019 3.5298L7.99996 7.05957L11.5297 3.5298C11.7894 3.2701 12.2105 3.2701 12.4702 3.5298C12.7299 3.78949 12.7299 4.21055 12.4702 4.47025L8.94041 8.00002L12.4702 11.5298C12.7299 11.7895 12.7299 12.2105 12.4702 12.4702C12.2105 12.7299 11.7894 12.7299 11.5297 12.4702L7.99996 8.94047L4.47019 12.4702C4.21049 12.7299 3.78943 12.7299 3.52973 12.4702C3.27004 12.2105 3.27004 11.7895 3.52973 11.5298L7.05951 8.00002L3.52973 4.47025C3.27004 4.21055 3.27004 3.78949 3.52973 3.5298Z" fill="#7D7F82"/>
</svg>
