<svg width="16" height="16" viewBox="0 0 16 16" fill="none" xmlns="http://www.w3.org/2000/svg">
<path fill-rule="evenodd" clip-rule="evenodd" d="M4.52973 4.5298C4.78943 4.2701 5.21049 4.2701 5.47019 4.5298L7.99996 7.05957L10.5297 4.5298C10.7894 4.2701 11.2105 4.2701 11.4702 4.5298C11.7299 4.78949 11.7299 5.21055 11.4702 5.47025L8.94041 8.00002L11.4702 10.5298C11.7299 10.7895 11.7299 11.2105 11.4702 11.4702C11.2105 11.7299 10.7894 11.7299 10.5297 11.4702L7.99996 8.94047L5.47019 11.4702C5.21049 11.7299 4.78943 11.7299 4.52973 11.4702C4.27004 11.2105 4.27004 10.7895 4.52973 10.5298L7.05951 8.00002L4.52973 5.47025C4.27004 5.21055 4.27004 4.78949 4.52973 4.5298Z" fill="#7D7F82"/>
</svg>
