<svg width="16" height="16" viewBox="0 0 16 16" fill="none" xmlns="http://www.w3.org/2000/svg">
<path fill-rule="evenodd" clip-rule="evenodd" d="M6.47019 3.5298C6.72989 3.78949 6.72989 4.21055 6.47019 4.47025L2.94041 8.00002L6.47019 11.5298C6.72989 11.7895 6.72989 12.2105 6.47019 12.4702C6.21049 12.7299 5.78943 12.7299 5.52974 12.4702L1.52973 8.47025C1.27004 8.21055 1.27004 7.78949 1.52973 7.5298L5.52974 3.5298C5.78943 3.2701 6.21049 3.2701 6.47019 3.5298ZM9.52974 3.5298C9.78943 3.2701 10.2105 3.2701 10.4702 3.5298L14.4702 7.5298C14.7299 7.78949 14.7299 8.21055 14.4702 8.47025L10.4702 12.4702C10.2105 12.7299 9.78943 12.7299 9.52974 12.4702C9.27004 12.2105 9.27004 11.7895 9.52974 11.5298L13.0595 8.00002L9.52974 4.47025C9.27004 4.21055 9.27004 3.78949 9.52974 3.5298Z" fill="#7D7F82"/>
</svg>
