<svg width="16" height="16" viewBox="0 0 16 16" fill="none" xmlns="http://www.w3.org/2000/svg">
<g clip-path="url(#clip0_10387_45885)">
<path fill-rule="evenodd" clip-rule="evenodd" d="M7.43663 2.5317C7.96962 2.48027 8.52393 2.58835 9.02335 2.87669L14.0696 5.79014C14.3877 5.97378 14.4966 6.38049 14.313 6.69855L10.6169 13.1005C9.88094 14.3751 8.25105 14.8118 6.9764 14.0759L3.66221 12.1625C2.38756 11.4265 1.95083 9.79665 2.68675 8.522L3.33488 7.39942L3.33488 3.5C3.33488 2.30431 4.30418 1.33501 5.49988 1.33501C6.34772 1.33501 7.08122 1.82202 7.43663 2.5317ZM6.16707 2.9977C6.01458 2.79569 5.77228 2.66501 5.49988 2.66501C5.03872 2.66501 4.66488 3.03885 4.66488 3.5L4.66488 5.09579L5.38289 3.85215C5.58507 3.50198 5.85531 3.21467 6.16707 2.9977ZM8.35835 4.02851C7.99891 3.82098 7.58379 3.79911 7.22149 3.93482C6.94153 4.03969 6.69601 4.23777 6.53471 4.51715L4.33046 8.33502L11.8324 8.33501L12.8287 6.60946L8.35835 4.02851ZM11.0646 9.66502L3.67287 9.66501C3.59792 10.189 3.84075 10.7298 4.32721 11.0106L7.6414 12.9241C8.27992 13.2927 9.0964 13.074 9.46505 12.4355L11.0646 9.66502Z" fill="#7D7F82"/>
</g>
<defs>
<clipPath id="clip0_10387_45885">
<rect width="16" height="16" fill="white"/>
</clipPath>
</defs>
</svg>
