<svg width="16" height="16" viewBox="0 0 16 16" fill="none" xmlns="http://www.w3.org/2000/svg">
<path d="M3.70708 7.29289C3.31655 7.68341 3.31655 8.31658 3.70708 8.7071L5.02976 10.0298L7.05953 8.00001L5.02975 5.97022L3.70708 7.29289Z" fill="#7D7F82"/>
<path d="M5.9702 5.02977L7.99998 7.05955L10.0298 5.02976L8.7071 3.70708C8.31658 3.31655 7.68341 3.31655 7.29289 3.70708L5.9702 5.02977Z" fill="#7D7F82"/>
<path d="M10.9702 5.97021L8.94044 8.00001L10.9702 10.0298L12.2929 8.7071C12.6834 8.31658 12.6834 7.68341 12.2929 7.29289L10.9702 5.97021Z" fill="#7D7F82"/>
<path d="M10.0298 10.9702L7.99998 8.94046L5.97021 10.9702L7.29289 12.2929C7.68341 12.6834 8.31658 12.6834 8.7071 12.2929L10.0298 10.9702Z" fill="#7D7F82"/>
</svg>
