<svg width="16" height="16" viewBox="0 0 16 16" fill="none" xmlns="http://www.w3.org/2000/svg">
<path fill-rule="evenodd" clip-rule="evenodd" d="M5.33496 2.00002C5.33496 1.63275 5.63269 1.33502 5.99996 1.33502H9.99996C10.3672 1.33502 10.665 1.63275 10.665 2.00002C10.665 2.36729 10.3672 2.66502 9.99996 2.66502H5.99996C5.63269 2.66502 5.33496 2.36729 5.33496 2.00002ZM3.4926 3.33502H2.49996C2.13269 3.33502 1.83496 3.63275 1.83496 4.00002C1.83496 4.36729 2.13269 4.66502 2.49996 4.66502H2.89814L3.65816 12.2652C3.7944 13.6276 4.94079 14.665 6.30994 14.665H9.68999C11.0591 14.665 12.2055 13.6276 12.3418 12.2652L13.1018 4.66502H13.5C13.8672 4.66502 14.165 4.36729 14.165 4.00002C14.165 3.63275 13.8672 3.33502 13.5 3.33502H12.5073C12.5019 3.33496 12.4964 3.33496 12.491 3.33502H3.50891C3.50349 3.33496 3.49805 3.33496 3.4926 3.33502ZM11.7651 4.66502H4.23478L4.98156 12.1329C5.04981 12.8153 5.62408 13.335 6.30994 13.335H9.68999C10.3758 13.335 10.9501 12.8153 11.0184 12.1329L11.7651 4.66502Z" fill="#7D7F82"/>
</svg>
