<svg width="16" height="16" viewBox="0 0 16 16" fill="none" xmlns="http://www.w3.org/2000/svg">
<path fill-rule="evenodd" clip-rule="evenodd" d="M3.99996 2.66502C3.26266 2.66502 2.66496 3.26272 2.66496 4.00002L2.66496 9.00002C2.66496 9.73732 3.26266 10.335 3.99996 10.335H12C12.7373 10.335 13.335 9.73732 13.335 9.00002V4.00002C13.335 3.26272 12.7373 2.66502 12 2.66502H3.99996ZM8.66496 11.665H12C13.4718 11.665 14.665 10.4719 14.665 9.00002V4.00002C14.665 2.52818 13.4718 1.33502 12 1.33502H3.99996C2.52812 1.33502 1.33496 2.52818 1.33496 4.00002L1.33496 9.00002C1.33496 10.4719 2.52812 11.665 3.99996 11.665H7.33496V13.335H5.49996C5.13269 13.335 4.83496 13.6328 4.83496 14C4.83496 14.3673 5.13269 14.665 5.49996 14.665H10.5C10.8672 14.665 11.165 14.3673 11.165 14C11.165 13.6328 10.8672 13.335 10.5 13.335H8.66496V11.665Z" fill="#7D7F82"/>
</svg>
