<svg width="16" height="16" viewBox="0 0 16 16" fill="none" xmlns="http://www.w3.org/2000/svg">
<g clip-path="url(#clip0_10387_45745)">
<path fill-rule="evenodd" clip-rule="evenodd" d="M3.00002 2.33494C2.63275 2.33494 2.33502 2.63267 2.33502 2.99994L2.33502 7.24258C2.33502 7.60985 2.63275 7.90758 3.00002 7.90758C3.36729 7.90758 3.66502 7.60985 3.66502 7.24258L3.66502 4.6054L11.3946 12.335H8.75736C8.39009 12.335 8.09236 12.6327 8.09236 13C8.09236 13.3672 8.39009 13.665 8.75736 13.665L13 13.665C13.1764 13.665 13.3455 13.5949 13.4702 13.4702C13.5949 13.3455 13.665 13.1763 13.665 13L13.665 8.75733C13.665 8.39006 13.3673 8.09233 13 8.09233C12.6327 8.09233 12.335 8.39006 12.335 8.75733L12.335 11.3945L4.60546 3.66494L7.24266 3.66494C7.60993 3.66494 7.90766 3.36721 7.90766 2.99994C7.90766 2.63267 7.60993 2.33494 7.24266 2.33494H3.00002Z" fill="#7D7F82"/>
</g>
<defs>
<clipPath id="clip0_10387_45745">
<rect width="16" height="16" fill="white"/>
</clipPath>
</defs>
</svg>
