<svg width="16" height="16" viewBox="0 0 16 16" fill="none" xmlns="http://www.w3.org/2000/svg">
<g clip-path="url(#clip0_10387_45747)">
<path fill-rule="evenodd" clip-rule="evenodd" d="M13 2.33494C13.3673 2.33494 13.665 2.63267 13.665 2.99994L13.665 7.24258C13.665 7.60985 13.3673 7.90758 13 7.90758C12.6327 7.90758 12.335 7.60985 12.335 7.24258L12.335 4.6054L4.60545 12.335H7.24264C7.60991 12.335 7.90764 12.6327 7.90764 13C7.90764 13.3672 7.60991 13.665 7.24264 13.665L3 13.665C2.82363 13.665 2.65449 13.5949 2.52977 13.4702C2.40506 13.3455 2.335 13.1763 2.335 13L2.335 8.75733C2.335 8.39006 2.63273 8.09233 3 8.09233C3.36727 8.09233 3.665 8.39006 3.665 8.75733L3.665 11.3945L11.3945 3.66494L8.75734 3.66494C8.39007 3.66494 8.09234 3.36721 8.09234 2.99994C8.09234 2.63267 8.39007 2.33494 8.75734 2.33494H13Z" fill="#7D7F82"/>
</g>
<defs>
<clipPath id="clip0_10387_45747">
<rect width="16" height="16" fill="white"/>
</clipPath>
</defs>
</svg>
