<svg width="16" height="16" viewBox="0 0 16 16" fill="none" xmlns="http://www.w3.org/2000/svg">
<path fill-rule="evenodd" clip-rule="evenodd" d="M3.99996 2.66502C3.81495 2.66502 3.66496 2.81501 3.66496 3.00002V13C3.66496 13.185 3.81495 13.335 3.99996 13.335H12C12.185 13.335 12.335 13.185 12.335 13V6.66502H9.99996C9.08041 6.66502 8.33496 5.91958 8.33496 5.00002V2.66502H3.99996ZM9.66496 3.10547V5.00002C9.66496 5.18504 9.81495 5.33502 9.99996 5.33502H11.8945L9.66496 3.10547ZM2.33496 3.00002C2.33496 2.08047 3.08041 1.33502 3.99996 1.33502H8.99996C9.49647 1.33502 9.97265 1.53226 10.3237 1.88335L13.1166 4.67624C13.4677 5.02733 13.665 5.50351 13.665 6.00002V13C13.665 13.9196 12.9195 14.665 12 14.665H3.99996C3.08041 14.665 2.33496 13.9196 2.33496 13V3.00002Z" fill="#7D7F82"/>
</svg>
