<svg width="16" height="16" viewBox="0 0 16 16" fill="none" xmlns="http://www.w3.org/2000/svg">
<path fill-rule="evenodd" clip-rule="evenodd" d="M2.33496 4.00002C2.33496 3.63275 2.63269 3.33502 2.99996 3.33502H13C13.3672 3.33502 13.665 3.63275 13.665 4.00002C13.665 4.36729 13.3672 4.66502 13 4.66502H2.99996C2.63269 4.66502 2.33496 4.36729 2.33496 4.00002ZM2.33496 8.00002C2.33496 7.63275 2.63269 7.33502 2.99996 7.33502H13C13.3672 7.33502 13.665 7.63275 13.665 8.00002C13.665 8.36729 13.3672 8.66502 13 8.66502H2.99996C2.63269 8.66502 2.33496 8.36729 2.33496 8.00002ZM2.33496 12C2.33496 11.6328 2.63269 11.335 2.99996 11.335H13C13.3672 11.335 13.665 11.6328 13.665 12C13.665 12.3673 13.3672 12.665 13 12.665H2.99996C2.63269 12.665 2.33496 12.3673 2.33496 12Z" fill="#7D7F82"/>
</svg>
