<svg width="16" height="16" viewBox="0 0 16 16" fill="none" xmlns="http://www.w3.org/2000/svg">
<path fill-rule="evenodd" clip-rule="evenodd" d="M4.33496 3.00002C4.33496 2.08047 5.08041 1.33502 5.99996 1.33502H13C13.9195 1.33502 14.665 2.08047 14.665 3.00002V10C14.665 10.9196 13.9195 11.665 13 11.665H11.665V13C11.665 13.9196 10.9195 14.665 9.99996 14.665H2.99996C2.08041 14.665 1.33496 13.9196 1.33496 13V6.00002C1.33496 5.08047 2.08041 4.33502 2.99996 4.33502H4.33496V3.00002ZM5.66496 4.33502H9.99996C10.9195 4.33502 11.665 5.08047 11.665 6.00002V10.335H13C13.185 10.335 13.335 10.185 13.335 10V3.00002C13.335 2.81501 13.185 2.66502 13 2.66502H5.99996C5.81495 2.66502 5.66496 2.81501 5.66496 3.00002V4.33502ZM2.99996 5.66502C2.81495 5.66502 2.66496 5.81501 2.66496 6.00002V13C2.66496 13.185 2.81495 13.335 2.99996 13.335H9.99996C10.185 13.335 10.335 13.185 10.335 13V6.00002C10.335 5.81501 10.185 5.66502 9.99996 5.66502H2.99996Z" fill="#7D7F82"/>
</svg>
