<svg width="16" height="16" viewBox="0 0 16 16" fill="none" xmlns="http://www.w3.org/2000/svg">
<g clip-path="url(#clip0_10387_45790)">
<path fill-rule="evenodd" clip-rule="evenodd" d="M8.39364 2.4232C9.43438 1.38245 11.1218 1.38245 12.1625 2.4232L13.5767 3.83741C14.6175 4.87816 14.6175 6.56554 13.5767 7.60629L7.21277 13.9703C7.08806 14.095 6.91891 14.165 6.74254 14.165H2.4999C2.13263 14.165 1.8349 13.8673 1.8349 13.5L1.8349 9.25738C1.8349 9.08101 1.90496 8.91187 2.02968 8.78716L8.39364 2.4232ZM11.2221 3.36365C10.7007 2.8423 9.85544 2.8423 9.33409 3.36365L8.33955 4.35819L11.6417 7.66038L12.6363 6.66584C13.1576 6.14449 13.1576 5.29921 12.6363 4.77786L11.2221 3.36365ZM10.7013 8.60083L7.39909 5.29864L3.1649 9.53284L3.1649 12.835H6.46709L10.7013 8.60083Z" fill="#7D7F82"/>
</g>
<defs>
<clipPath id="clip0_10387_45790">
<rect width="16" height="16" fill="white"/>
</clipPath>
</defs>
</svg>
