<svg width="16" height="16" viewBox="0 0 16 16" fill="none" xmlns="http://www.w3.org/2000/svg">
<path fill-rule="evenodd" clip-rule="evenodd" d="M7.99989 1.83502C8.25772 1.83502 8.49232 1.98406 8.60187 2.21747L9.68717 4.52968L12.1003 4.89838C12.3467 4.93602 12.5514 5.10829 12.6305 5.34464C12.7096 5.581 12.6499 5.84175 12.4759 6.02015L10.7102 7.82978L11.1283 10.393C11.1693 10.6443 11.0632 10.897 10.855 11.0437C10.6468 11.1903 10.3732 11.2052 10.1503 11.082L7.99989 9.8933L5.84947 11.082C5.6266 11.2052 5.35293 11.1903 5.14475 11.0437C4.93657 10.897 4.83043 10.6443 4.87143 10.393L5.28953 7.82978L3.52391 6.02015C3.34985 5.84175 3.29016 5.581 3.36929 5.34464C3.44841 5.10829 3.65306 4.93602 3.89945 4.89838L6.31261 4.52968L7.3979 2.21747C7.50746 1.98406 7.74205 1.83502 7.99989 1.83502ZM7.99989 4.06511L7.36581 5.41602C7.27158 5.61677 7.08348 5.75734 6.86426 5.79083L5.37965 6.01766L6.47587 7.14119C6.62326 7.29226 6.69019 7.50434 6.65621 7.71265L6.40455 9.2555L7.67817 8.55146C7.87837 8.44079 8.1214 8.44079 8.32161 8.55146L9.59523 9.2555L9.34356 7.71265C9.30958 7.50434 9.37651 7.29226 9.52391 7.14119L10.6201 6.01766L9.13552 5.79083C8.9163 5.75734 8.7282 5.61677 8.63397 5.41602L7.99989 4.06511ZM3.73302 7.14603C4.09455 7.21071 4.33519 7.55622 4.2705 7.91775L3.92359 9.85664C3.88453 10.0749 3.73923 10.2594 3.53614 10.3485L2.98767 10.5891L3.54215 10.9184C3.72363 11.0262 3.84317 11.2137 3.86426 11.4237L3.92584 12.0368L4.31695 11.66C4.48169 11.5013 4.71644 11.4384 4.93847 11.4935L6.79473 11.954C7.1512 12.0425 7.36848 12.4031 7.28004 12.7596C7.19161 13.116 6.83095 13.3333 6.47448 13.2449L4.975 12.8729L3.86242 13.9448C3.67903 14.1215 3.41083 14.1779 3.17178 14.0901C2.93273 14.0023 2.76481 13.7857 2.73936 13.5323L2.57446 11.8906L1.1958 11.0718C0.981499 10.9446 0.856357 10.7081 0.871613 10.4593C0.886869 10.2106 1.03996 9.99121 1.26821 9.89107L2.67688 9.2731L2.96129 7.68351C3.02598 7.32198 3.37149 7.08134 3.73302 7.14603ZM12.3022 7.14603C12.6638 7.08134 13.0093 7.32198 13.074 7.68351L13.3584 9.2731L14.767 9.89107C14.9953 9.99121 15.1484 10.2106 15.1636 10.4593C15.1789 10.7081 15.0538 10.9446 14.8395 11.0718L13.4608 11.8906L13.2959 13.5323C13.2704 13.7857 13.1025 14.0023 12.8635 14.0901C12.6244 14.1779 12.3562 14.1215 12.1728 13.9448L11.0603 12.8729L9.56077 13.2449C9.20431 13.3333 8.84365 13.116 8.75521 12.7596C8.66678 12.4031 8.88406 12.0425 9.24052 11.954L11.0968 11.4935C11.3188 11.4384 11.5536 11.5013 11.7183 11.66L12.1094 12.0368L12.171 11.4237C12.1921 11.2137 12.3116 11.0262 12.4931 10.9184L13.0476 10.5891L12.4991 10.3485C12.296 10.2594 12.1507 10.0749 12.1117 9.85664L11.7648 7.91775C11.7001 7.55622 11.9407 7.21071 12.3022 7.14603Z" fill="#7D7F82"/>
</svg>
