<svg width="16" height="16" viewBox="0 0 16 16" fill="none" xmlns="http://www.w3.org/2000/svg">
<path fill-rule="evenodd" clip-rule="evenodd" d="M8.6198 2.83521C8.11406 2.20303 7.34837 1.83502 6.53879 1.83502H4.00004C2.5282 1.83502 1.33504 3.02818 1.33504 4.50002V11.5C1.33504 12.9719 2.5282 14.165 4.00004 14.165H12C13.4719 14.165 14.665 12.9719 14.665 11.5V7.00002C14.665 5.52818 13.4719 4.33502 12 4.33502H10.4613C10.0557 4.33502 9.67217 4.15067 9.41883 3.83399L8.6198 2.83521ZM6.53879 3.16502C6.94434 3.16502 7.3279 3.34937 7.58125 3.66605L8.38027 4.66483C8.88602 5.29701 9.65171 5.66502 10.4613 5.66502H12C12.7373 5.66502 13.335 6.26272 13.335 7.00002V11.5C13.335 12.2373 12.7373 12.835 12 12.835H4.00004C3.26274 12.835 2.66504 12.2373 2.66504 11.5V4.50002C2.66504 3.76272 3.26274 3.16502 4.00004 3.16502H6.53879Z" fill="#7D7F82"/>
</svg>
