<svg width="16" height="16" viewBox="0 0 16 16" fill="none" xmlns="http://www.w3.org/2000/svg">
<path fill-rule="evenodd" clip-rule="evenodd" d="M5.27262 3.33502C5.54265 3.33502 5.78587 3.49831 5.88811 3.74823L9.16084 11.7482C9.2999 12.0882 9.13706 12.4765 8.79714 12.6155C8.45721 12.7546 8.06892 12.5917 7.92986 12.2518L6.93746 9.82594H3.60778L2.61538 12.2518C2.47632 12.5917 2.08803 12.7546 1.7481 12.6155C1.40818 12.4765 1.24534 12.0882 1.3844 11.7482L4.65713 3.74823C4.75937 3.49831 5.00259 3.33502 5.27262 3.33502ZM4.15187 8.49594H6.39336L5.27262 5.75634L4.15187 8.49594ZM11.8181 8.39836C10.9662 8.39836 10.3013 9.06976 10.3013 9.86669C10.3013 10.6636 10.9662 11.335 11.8181 11.335C12.67 11.335 13.3349 10.6636 13.3349 9.86669C13.3349 9.06976 12.67 8.39836 11.8181 8.39836ZM13.3697 7.52057C12.9217 7.23407 12.3879 7.06836 11.8181 7.06836C10.26 7.06836 8.97126 8.3072 8.97126 9.86669C8.97126 11.4262 10.26 12.665 11.8181 12.665C12.3879 12.665 12.9217 12.4993 13.3697 12.2128C13.4584 12.4757 13.707 12.665 13.9999 12.665C14.3672 12.665 14.6649 12.3673 14.6649 12V7.73336C14.6649 7.36609 14.3672 7.06836 13.9999 7.06836C13.707 7.06836 13.4584 7.25766 13.3697 7.52057Z" fill="#7D7F82"/>
</svg>
