<svg width="16" height="16" viewBox="0 0 16 16" fill="none" xmlns="http://www.w3.org/2000/svg">
<path fill-rule="evenodd" clip-rule="evenodd" d="M2.33496 5.00002C2.33496 3.52818 3.52812 2.33502 4.99996 2.33502H11C12.4718 2.33502 13.665 3.52818 13.665 5.00002V11C13.665 12.4719 12.4718 13.665 11 13.665H4.99996C3.52812 13.665 2.33496 12.4719 2.33496 11V5.00002ZM4.99996 3.66502C4.26266 3.66502 3.66496 4.26272 3.66496 5.00002V11C3.66496 11.7373 4.26266 12.335 4.99996 12.335H11C11.7373 12.335 12.335 11.7373 12.335 11V5.00002C12.335 4.26272 11.7373 3.66502 11 3.66502H4.99996Z" fill="#7D7F82"/>
</svg>
