<svg width="16" height="16" viewBox="0 0 16 16" fill="none" xmlns="http://www.w3.org/2000/svg">
<path d="M3 3.665C3 3.29773 3.29773 3 3.665 3H12.3373C12.7046 3 13.0023 3.29773 13.0023 3.665C13.0023 4.03227 12.7046 4.33 12.3373 4.33H3.665C3.29773 4.33 3 4.03227 3 3.665Z" fill="#7D7F82"/>
<path d="M3.00031 7.99959C3.00031 7.63232 3.29804 7.33459 3.66531 7.33459H9.78017C10.1474 7.33459 10.4452 7.63232 10.4452 7.99959C10.4452 8.36686 10.1474 8.66459 9.78017 8.66459H3.66531C3.29804 8.66459 3.00031 8.36686 3.00031 7.99959Z" fill="#7D7F82"/>
<path d="M3.66531 11.6691C3.29804 11.6691 3.00031 11.9668 3.00031 12.3341C3.00031 12.7013 3.29804 12.9991 3.66531 12.9991H12.1104C12.4776 12.9991 12.7754 12.7013 12.7754 12.3341C12.7754 11.9668 12.4776 11.6691 12.1104 11.6691H3.66531Z" fill="#7D7F82"/>
</svg>
