<svg width="16" height="16" viewBox="0 0 16 16" fill="none" xmlns="http://www.w3.org/2000/svg">
<g clip-path="url(#clip0_10387_45721)">
<path fill-rule="evenodd" clip-rule="evenodd" d="M2.81573 2.81573C4.19068 1.44078 6.05552 0.668335 8 0.668335C9.94448 0.668335 11.8093 1.44078 13.1843 2.81573C14.5592 4.19068 15.3317 6.05552 15.3317 8C15.3317 9.94448 14.5592 11.8093 13.1843 13.1843C11.8093 14.5592 9.94448 15.3317 8 15.3317C6.05552 15.3317 4.19068 14.5592 2.81573 13.1843C1.44078 11.8093 0.668335 9.94448 0.668335 8C0.668335 6.05552 1.44078 4.19068 2.81573 2.81573ZM6.48641 2.19231C5.46216 2.45928 4.51745 2.99492 3.75618 3.75618C2.78852 4.72385 2.18542 5.98792 2.03527 7.335H4.7016C4.85089 5.49187 5.46782 3.72265 6.48641 2.19231ZM8 2.36448C6.88553 3.79964 6.20384 5.52453 6.03657 7.335H9.96344C9.79616 5.52453 9.11447 3.79964 8 2.36448ZM9.96344 8.665C9.79616 10.4755 9.11447 12.2004 8 13.6355C6.88553 12.2004 6.20384 10.4755 6.03657 8.665H9.96344ZM4.7016 8.665H2.03527C2.18542 10.0121 2.78852 11.2762 3.75618 12.2438C4.51745 13.0051 5.46216 13.5407 6.48641 13.8077C5.46782 12.2774 4.85089 10.5081 4.7016 8.665ZM9.51359 13.8077C10.5322 12.2774 11.1491 10.5081 11.2984 8.665H13.9647C13.8146 10.0121 13.2115 11.2762 12.2438 12.2438C11.4826 13.0051 10.5378 13.5407 9.51359 13.8077ZM13.9647 7.335H11.2984C11.1491 5.49187 10.5322 3.72265 9.51359 2.19231C10.5378 2.45928 11.4826 2.99492 12.2438 3.75618C13.2115 4.72385 13.8146 5.98792 13.9647 7.335Z" fill="#7D7F82"/>
</g>
<defs>
<clipPath id="clip0_10387_45721">
<rect width="16" height="16" fill="white"/>
</clipPath>
</defs>
</svg>
