<svg width="16" height="16" viewBox="0 0 16 16" fill="none" xmlns="http://www.w3.org/2000/svg">
<path fill-rule="evenodd" clip-rule="evenodd" d="M1.33496 4.00002C1.33496 2.52818 2.52812 1.33502 3.99996 1.33502H12C13.4718 1.33502 14.665 2.52818 14.665 4.00002V12C14.665 13.4719 13.4718 14.665 12 14.665H3.99996C2.52812 14.665 1.33496 13.4719 1.33496 12V4.00002ZM3.99996 2.66502C3.26266 2.66502 2.66496 3.26272 2.66496 4.00002V12C2.66496 12.7373 3.26266 13.335 3.99996 13.335H5V2.66502H3.99996ZM6.33 2.66502V13.335H10V2.66502H6.33ZM11.33 2.66502V13.335H12C12.7373 13.335 13.335 12.7373 13.335 12V4.00002C13.335 3.26272 12.7373 2.66502 12 2.66502H11.33Z" fill="#7D7F82"/>
</svg>
