<svg width="16" height="16" viewBox="0 0 16 16" fill="none" xmlns="http://www.w3.org/2000/svg">
<path fill-rule="evenodd" clip-rule="evenodd" d="M1.33496 5.00002C1.33496 3.52818 2.52812 2.33502 3.99996 2.33502H12C13.4718 2.33502 14.665 3.52818 14.665 5.00002V11C14.665 12.4719 13.4718 13.665 12 13.665H3.99996C2.52812 13.665 1.33496 12.4719 1.33496 11V5.00002ZM3.99996 3.66502C3.26266 3.66502 2.66496 4.26272 2.66496 5.00002V11C2.66496 11.7373 3.26266 12.335 3.99996 12.335H12C12.7373 12.335 13.335 11.7373 13.335 11V5.00002C13.335 4.26272 12.7373 3.66502 12 3.66502H3.99996ZM5.33496 6.00002C5.33496 5.63275 5.63269 5.33502 5.99996 5.33502H9.99996C10.3672 5.33502 10.665 5.63275 10.665 6.00002V6.50002C10.665 6.86729 10.3672 7.16502 9.99996 7.16502C9.68965 7.16502 9.42898 6.95247 9.35559 6.66502H8.66496V9.35565C8.95241 9.42904 9.16496 9.68971 9.16496 10C9.16496 10.3673 8.86723 10.665 8.49996 10.665H7.49996C7.13269 10.665 6.83496 10.3673 6.83496 10C6.83496 9.68971 7.04751 9.42904 7.33496 9.35565V6.66502H6.64433C6.57094 6.95247 6.31027 7.16502 5.99996 7.16502C5.63269 7.16502 5.33496 6.86729 5.33496 6.50002V6.00002Z" fill="#7D7F82"/>
</svg>
