<svg width="16" height="16" viewBox="0 0 16 16" fill="none" xmlns="http://www.w3.org/2000/svg">
<path fill-rule="evenodd" clip-rule="evenodd" d="M14.165 13C14.165 13.3673 13.8673 13.665 13.5 13.665L12 13.665C11.0805 13.665 10.335 12.9196 10.335 12L10.335 4.00002C10.335 3.08047 11.0805 2.33502 12 2.33502L13.5 2.33502C13.8673 2.33502 14.165 2.63275 14.165 3.00002C14.165 3.36729 13.8673 3.66502 13.5 3.66502L12 3.66502C11.815 3.66502 11.665 3.81501 11.665 4.00002L11.665 12C11.665 12.185 11.815 12.335 12 12.335L13.5 12.335C13.8673 12.335 14.165 12.6328 14.165 13ZM8.00004 4.33502C8.36731 4.33502 8.66504 4.63275 8.66504 5.00002L8.66504 11.1667C8.66504 11.534 8.36731 11.8317 8.00004 11.8317C7.63277 11.8317 7.33504 11.534 7.33504 11.1667L7.33504 5.00002C7.33504 4.63275 7.63277 4.33502 8.00004 4.33502ZM5.66504 4.00002L5.66504 12C5.66504 12.9196 4.9196 13.665 4.00004 13.665L2.50004 13.665C2.13277 13.665 1.83504 13.3673 1.83504 13C1.83504 12.6328 2.13277 12.335 2.50004 12.335L4.00004 12.335C4.18506 12.335 4.33504 12.185 4.33504 12L4.33504 4.00002C4.33504 3.81501 4.18506 3.66502 4.00004 3.66502L2.50004 3.66502C2.13277 3.66502 1.83504 3.36729 1.83504 3.00002C1.83504 2.63275 2.13277 2.33502 2.50004 2.33502L4.00004 2.33502C4.91959 2.33502 5.66504 3.08047 5.66504 4.00002Z" fill="#7D7F82"/>
</svg>
