<svg width="16" height="16" viewBox="0 0 16 16" fill="none" xmlns="http://www.w3.org/2000/svg">
<g clip-path="url(#clip0_10387_45804)">
<path fill-rule="evenodd" clip-rule="evenodd" d="M2.27441 2.58114C2.62917 2.48608 2.99381 2.6966 3.08887 3.05136L3.44794 4.39138C5.25175 2.01785 8.58208 1.30023 11.2315 2.82989C14.1051 4.48897 15.0898 8.16354 13.4307 11.0372C11.7715 13.9109 8.09695 14.8954 5.22335 13.2364C4.27659 12.6897 3.53351 11.9229 3.02341 11.0376C2.84005 10.7194 2.94937 10.3128 3.26759 10.1294C3.58581 9.94605 3.99242 10.0554 4.17579 10.3736C4.57227 11.0617 5.14946 11.6579 5.88835 12.0845C8.12583 13.3764 10.987 12.6097 12.2788 10.3722C13.5707 8.13467 12.804 5.27351 10.5665 3.9817C8.54424 2.81413 6.01246 3.32808 4.59037 5.08977L5.97627 4.71841C6.33102 4.62335 6.69567 4.83387 6.79073 5.18862C6.88579 5.54338 6.67526 5.90802 6.32051 6.00308L3.40098 6.7854C3.23062 6.83105 3.04911 6.80716 2.89636 6.71897C2.74362 6.63079 2.63217 6.48554 2.58652 6.31518L1.80419 3.3956C1.70913 3.04085 1.91966 2.6762 2.27441 2.58114ZM7.99996 5.335C8.36723 5.335 8.66496 5.63273 8.66496 6L8.66496 7.72455L9.97019 9.02978C10.2299 9.28947 10.2299 9.71053 9.97019 9.97023C9.71049 10.2299 9.28943 10.2299 9.02973 9.97023L7.52973 8.47023C7.40502 8.34552 7.33496 8.17637 7.33496 8L7.33496 6C7.33496 5.63273 7.63269 5.335 7.99996 5.335Z" fill="#7D7F82"/>
</g>
<defs>
<clipPath id="clip0_10387_45804">
<rect width="16" height="16" fill="white"/>
</clipPath>
</defs>
</svg>
