<svg width="16" height="16" viewBox="0 0 16 16" fill="none" xmlns="http://www.w3.org/2000/svg">
<path fill-rule="evenodd" clip-rule="evenodd" d="M8.78517 3.39332C8.31705 3.05287 7.68287 3.05287 7.21475 3.39332L3.71475 5.93878C3.36933 6.18999 3.16496 6.59132 3.16496 7.01844V12C3.16496 12.7373 3.76266 13.335 4.49996 13.335H11.5C12.2373 13.335 12.835 12.7373 12.835 12V7.01844C12.835 6.59132 12.6306 6.18999 12.2852 5.93878L8.78517 3.39332ZM6.43248 2.3177C7.36697 1.63808 8.63296 1.63808 9.56744 2.3177L13.0674 4.86316C13.757 5.36465 14.165 6.16581 14.165 7.01844V12C14.165 13.4718 12.9718 14.665 11.5 14.665H4.49996C3.02812 14.665 1.83496 13.4718 1.83496 12V7.01844C1.83496 6.16581 2.24293 5.36465 2.93248 4.86316L6.43248 2.3177ZM7.99996 7.83499C8.36723 7.83499 8.66496 8.13272 8.66496 8.49999V11.5C8.66496 11.8673 8.36723 12.165 7.99996 12.165C7.63269 12.165 7.33496 11.8673 7.33496 11.5V8.49999C7.33496 8.13272 7.63269 7.83499 7.99996 7.83499Z" fill="#7D7F82"/>
</svg>
