<svg width="16" height="16" viewBox="0 0 16 16" fill="none" xmlns="http://www.w3.org/2000/svg">
<path fill-rule="evenodd" clip-rule="evenodd" d="M2.33496 4.00002C2.33496 3.08047 3.08041 2.33502 3.99996 2.33502H4.99996C5.91951 2.33502 6.66496 3.08047 6.66496 4.00002V12C6.66496 12.9196 5.91951 13.665 4.99996 13.665H3.99996C3.08041 13.665 2.33496 12.9196 2.33496 12V4.00002ZM3.99996 3.66502C3.81495 3.66502 3.66496 3.81501 3.66496 4.00002V12C3.66496 12.185 3.81495 12.335 3.99996 12.335H4.99996C5.18498 12.335 5.33496 12.185 5.33496 12V4.00002C5.33496 3.81501 5.18498 3.66502 4.99996 3.66502H3.99996ZM9.33496 4.00002C9.33496 3.08047 10.0804 2.33502 11 2.33502H12C12.9195 2.33502 13.665 3.08047 13.665 4.00002V12C13.665 12.9196 12.9195 13.665 12 13.665H11C10.0804 13.665 9.33496 12.9196 9.33496 12V4.00002ZM11 3.66502C10.8149 3.66502 10.665 3.81501 10.665 4.00002V12C10.665 12.185 10.8149 12.335 11 12.335H12C12.185 12.335 12.335 12.185 12.335 12V4.00002C12.335 3.81501 12.185 3.66502 12 3.66502H11Z" fill="#7D7F82"/>
</svg>
