<svg width="16" height="16" viewBox="0 0 16 16" fill="none" xmlns="http://www.w3.org/2000/svg">
<path fill-rule="evenodd" clip-rule="evenodd" d="M14.4703 7.5298C14.73 7.78949 14.73 8.21055 14.4703 8.47025L11.4703 11.4702C11.2106 11.7299 10.7895 11.7299 10.5298 11.4702C10.2701 11.2105 10.2701 10.7895 10.5298 10.5298L12.3946 8.66502L3.60549 8.66502L5.47027 10.5298C5.72996 10.7895 5.72996 11.2105 5.47027 11.4702C5.21057 11.7299 4.78951 11.7299 4.52981 11.4702L1.52981 8.47025C1.27011 8.21055 1.27011 7.78949 1.52981 7.5298L4.52981 4.5298C4.78951 4.2701 5.21057 4.2701 5.47027 4.5298C5.72996 4.78949 5.72996 5.21055 5.47027 5.47025L3.60549 7.33502L12.3946 7.33502L10.5298 5.47025C10.2701 5.21055 10.2701 4.78949 10.5298 4.5298C10.7895 4.2701 11.2106 4.2701 11.4703 4.5298L14.4703 7.5298Z" fill="#7D7F82"/>
</svg>
