<svg width="16" height="16" viewBox="0 0 16 16" fill="none" xmlns="http://www.w3.org/2000/svg">
<path fill-rule="evenodd" clip-rule="evenodd" d="M7.99996 1.83502C8.36723 1.83502 8.66496 2.13275 8.66496 2.50002V13C8.66496 13.3673 8.36723 13.665 7.99996 13.665C7.63269 13.665 7.33496 13.3673 7.33496 13V2.50002C7.33496 2.13275 7.63269 1.83502 7.99996 1.83502ZM3.99996 4.66502C3.26266 4.66502 2.66496 5.26272 2.66496 6.00002V10C2.66496 10.7373 3.26266 11.335 3.99996 11.335H5.49996C5.86723 11.335 6.16496 11.6328 6.16496 12C6.16496 12.3673 5.86723 12.665 5.49996 12.665H3.99996C2.52812 12.665 1.33496 11.4719 1.33496 10V6.00002C1.33496 4.52818 2.52812 3.33502 3.99996 3.33502H5.49996C5.86723 3.33502 6.16496 3.63275 6.16496 4.00002C6.16496 4.36729 5.86723 4.66502 5.49996 4.66502H3.99996ZM9.83496 4.00002C9.83496 3.63275 10.1327 3.33502 10.5 3.33502H12C13.4718 3.33502 14.665 4.52818 14.665 6.00002V10C14.665 11.4719 13.4718 12.665 12 12.665H10.5C10.1327 12.665 9.83496 12.3673 9.83496 12C9.83496 11.6328 10.1327 11.335 10.5 11.335H12C12.7373 11.335 13.335 10.7373 13.335 10V6.00002C13.335 5.26272 12.7373 4.66502 12 4.66502H10.5C10.1327 4.66502 9.83496 4.36729 9.83496 4.00002Z" fill="#7D7F82"/>
</svg>
