<svg width="16" height="16" viewBox="0 0 16 16" fill="none" xmlns="http://www.w3.org/2000/svg">
<path fill-rule="evenodd" clip-rule="evenodd" d="M2.33496 5.00002C2.33496 4.63275 2.63269 4.33502 2.99996 4.33502L13 4.33502C13.3672 4.33502 13.665 4.63275 13.665 5.00002C13.665 5.36729 13.3672 5.66502 13 5.66502L2.99996 5.66502C2.63269 5.66502 2.33496 5.36729 2.33496 5.00002ZM2.33496 8.00002C2.33496 7.63275 2.63269 7.33502 2.99996 7.33502L9.66663 7.33502C10.0339 7.33502 10.3316 7.63275 10.3316 8.00002C10.3316 8.36729 10.0339 8.66502 9.66663 8.66502L2.99996 8.66502C2.63269 8.66502 2.33496 8.36729 2.33496 8.00002ZM2.335 11C2.335 10.6328 2.63273 10.335 3 10.335L9.66667 10.335C10.0339 10.335 10.3317 10.6328 10.3317 11C10.3317 11.3673 10.0339 11.665 9.66667 11.665L3 11.665C2.63273 11.665 2.335 11.3673 2.335 11Z" fill="#7D7F82"/>
</svg>
