<svg width="16" height="16" viewBox="0 0 16 16" fill="none" xmlns="http://www.w3.org/2000/svg">
<g clip-path="url(#clip0_10387_45850)">
<path d="M7.33342 14.6666C7.33342 15.0333 7.63341 15.3066 8.00008 15.3066C8.36675 15.3066 8.66675 14.98 8.66675 14.6133C8.66675 14.2466 8.36675 13.9466 8.00008 13.9466C7.63341 13.9466 7.33342 14.2466 7.33342 14.6133V14.6666Z" fill="#7D7F82"/>
<path d="M12.2867 13.2333C12.4201 13.36 12.5867 13.4266 12.7601 13.4266C12.9334 13.4266 13.1001 13.36 13.2267 13.2333C13.4867 12.9733 13.4867 12.5533 13.2267 12.2933L13.1401 12.2066C12.8801 11.9466 12.4601 11.9466 12.2001 12.2066C11.9401 12.4666 11.9401 12.8866 12.2001 13.1466L12.2867 13.2333Z" fill="#7D7F82"/>
<path d="M2.76675 13.2333C2.90008 13.36 3.06675 13.4266 3.24008 13.4266C3.40675 13.4266 3.58008 13.36 3.70675 13.2333L3.79341 13.1466C4.05341 12.8866 4.05341 12.4666 3.79341 12.2066C3.53341 11.9466 3.11342 11.9466 2.85342 12.2066L2.76675 12.2933C2.50675 12.5533 2.50675 12.9733 2.76675 13.2333Z" fill="#7D7F82"/>
<path d="M14.6134 8.66663H14.6667C15.0334 8.66663 15.3067 8.36663 15.3067 7.99996C15.3067 7.63329 14.9801 7.33329 14.6134 7.33329C14.2467 7.33329 13.9467 7.63329 13.9467 7.99996C13.9467 8.36663 14.2467 8.66663 14.6134 8.66663Z" fill="#7D7F82"/>
<path d="M1.33341 8.66663H1.38675C1.75341 8.66663 2.02675 8.36663 2.02675 7.99996C2.02675 7.63329 1.70008 7.33329 1.33341 7.33329C0.966748 7.33329 0.666748 7.63329 0.666748 7.99996C0.666748 8.36663 0.966748 8.66663 1.33341 8.66663Z" fill="#7D7F82"/>
<path d="M12.2001 3.79996C12.3334 3.92663 12.5001 3.99329 12.6734 3.99329C12.8467 3.99329 13.0134 3.92663 13.1401 3.79996L13.2267 3.71329C13.4867 3.45329 13.4867 3.03329 13.2267 2.77329C12.9667 2.51329 12.5467 2.51329 12.2867 2.77329L12.2001 2.85996C11.9401 3.11996 11.9401 3.53996 12.2001 3.79996Z" fill="#7D7F82"/>
<path d="M2.85342 3.79996C2.98675 3.92663 3.15341 3.99329 3.32675 3.99329C3.49341 3.99329 3.66675 3.92663 3.79341 3.79329C4.05341 3.53329 4.05341 3.11329 3.79341 2.85329L3.70675 2.76663C3.44675 2.50663 3.02675 2.50663 2.76675 2.76663C2.50675 3.02663 2.50675 3.44663 2.76675 3.70663L2.85342 3.79996Z" fill="#7D7F82"/>
<path d="M7.33342 1.38663C7.33342 1.75329 7.63341 2.02663 8.00008 2.02663C8.36675 2.02663 8.66675 1.69996 8.66675 1.33329C8.66675 0.966626 8.36675 0.666626 8.00008 0.666626C7.63341 0.666626 7.33342 0.966626 7.33342 1.33329V1.38663Z" fill="#7D7F82"/>
<path d="M12.6666 8.00004C12.6666 10.5774 10.5772 12.6667 7.99992 12.6667C5.42259 12.6667 3.33325 10.5774 3.33325 8.00004C3.33325 5.42271 5.42259 3.33337 7.99992 3.33337C10.5772 3.33337 12.6666 5.42271 12.6666 8.00004Z" fill="#7D7F82"/>
</g>
<defs>
<clipPath id="clip0_10387_45850">
<rect width="16" height="16" fill="white"/>
</clipPath>
</defs>
</svg>
