<svg width="16" height="16" viewBox="0 0 16 16" fill="none" xmlns="http://www.w3.org/2000/svg">
<path fill-rule="evenodd" clip-rule="evenodd" d="M4.83496 4.50002C4.83496 2.75204 6.25198 1.33502 7.99996 1.33502C9.74794 1.33502 11.165 2.75204 11.165 4.50002V5.34005C12.5599 5.42526 13.665 6.58359 13.665 8.00002V12C13.665 13.4719 12.4718 14.665 11 14.665H4.99996C3.52812 14.665 2.33496 13.4719 2.33496 12V8.00002C2.33496 6.58359 3.43997 5.42526 4.83496 5.34005V4.50002ZM4.99996 6.66502C4.26266 6.66502 3.66496 7.26272 3.66496 8.00002V12C3.66496 12.7373 4.26266 13.335 4.99996 13.335H11C11.7373 13.335 12.335 12.7373 12.335 12V8.00002C12.335 7.26272 11.7373 6.66502 11 6.66502H4.99996ZM9.83496 5.33502H6.16496V4.50002C6.16496 3.48658 6.98652 2.66502 7.99996 2.66502C9.0134 2.66502 9.83496 3.48658 9.83496 4.50002V5.33502ZM7.99996 8.33502C8.36723 8.33502 8.66496 8.63275 8.66496 9.00002V11C8.66496 11.3673 8.36723 11.665 7.99996 11.665C7.63269 11.665 7.33496 11.3673 7.33496 11V9.00002C7.33496 8.63275 7.63269 8.33502 7.99996 8.33502Z" fill="#7D7F82"/>
</svg>
