<svg width="16" height="16" viewBox="0 0 16 16" fill="none" xmlns="http://www.w3.org/2000/svg">
<path d="M3.875 8C3.875 8.34518 3.59518 8.625 3.25 8.625C2.90482 8.625 2.625 8.34518 2.625 8C2.625 7.65482 2.90482 7.375 3.25 7.375C3.59518 7.375 3.875 7.65482 3.875 8ZM8.625 8C8.625 8.34518 8.34518 8.625 8 8.625C7.65482 8.625 7.375 8.34518 7.375 8C7.375 7.65482 7.65482 7.375 8 7.375C8.34518 7.375 8.625 7.65482 8.625 8ZM13.375 8C13.375 8.34518 13.0952 8.625 12.75 8.625C12.4048 8.625 12.125 8.34518 12.125 8C12.125 7.65482 12.4048 7.375 12.75 7.375C13.0952 7.375 13.375 7.65482 13.375 8Z" stroke="#7D7F82" stroke-width="1.25"/>
</svg>
