<svg width="16" height="16" viewBox="0 0 16 16" fill="none" xmlns="http://www.w3.org/2000/svg">
<path fill-rule="evenodd" clip-rule="evenodd" d="M3.33496 4.00002C3.33496 2.52818 4.52812 1.33502 5.99996 1.33502H9.99996C11.4718 1.33502 12.665 2.52818 12.665 4.00002V12C12.665 13.4719 11.4718 14.665 9.99996 14.665H5.99996C4.52812 14.665 3.33496 13.4719 3.33496 12V4.00002ZM5.99996 2.66502C5.26266 2.66502 4.66496 3.26272 4.66496 4.00002V12C4.66496 12.7373 5.26266 13.335 5.99996 13.335H9.99996C10.7373 13.335 11.335 12.7373 11.335 12V4.00002C11.335 3.26272 10.7373 2.66502 9.99996 2.66502H9.57454C9.63202 2.7634 9.66496 2.87786 9.66496 3.00002C9.66496 3.36729 9.36723 3.66502 8.99996 3.66502H6.99996C6.63269 3.66502 6.33496 3.36729 6.33496 3.00002C6.33496 2.87786 6.3679 2.7634 6.42538 2.66502H5.99996Z" fill="#7D7F82"/>
</svg>
