<svg width="16" height="16" viewBox="0 0 16 16" fill="none" xmlns="http://www.w3.org/2000/svg">
<path fill-rule="evenodd" clip-rule="evenodd" d="M8.00002 1.83502C8.25315 1.83502 8.48432 1.97873 8.59635 2.20572L10.205 5.46516L13.802 5.98783C14.0525 6.02423 14.2606 6.19969 14.3388 6.44042C14.417 6.68116 14.3518 6.94543 14.1705 7.12212L11.5677 9.65924L12.1822 13.2417C12.225 13.4912 12.1224 13.7433 11.9176 13.8921C11.7128 14.0409 11.4413 14.0605 11.2173 13.9427L8.00002 12.2513L4.78276 13.9427C4.55871 14.0605 4.28722 14.0409 4.08243 13.8921C3.87765 13.7433 3.77509 13.4912 3.81788 13.2417L4.43232 9.65924L1.8295 7.12212C1.64824 6.94543 1.58301 6.68116 1.66123 6.44042C1.73945 6.19969 1.94756 6.02423 2.19806 5.98783L5.79506 5.46516L7.40369 2.20572C7.51572 1.97873 7.74689 1.83502 8.00002 1.83502ZM8.00002 4.00262L6.83299 6.36728C6.73613 6.56355 6.54889 6.69959 6.33229 6.73106L3.72274 7.11025L5.61103 8.95088C5.76776 9.10365 5.83928 9.32377 5.80228 9.53949L5.35652 12.1385L7.69057 10.9114C7.8843 10.8096 8.11574 10.8096 8.30947 10.9114L10.6435 12.1385L10.1978 9.53949C10.1608 9.32377 10.2323 9.10365 10.389 8.95088L12.2773 7.11025L9.66775 6.73106C9.45115 6.69959 9.26391 6.56355 9.16705 6.36728L8.00002 4.00262Z" fill="#7D7F82"/>
</svg>
