<svg width="16" height="16" viewBox="0 0 16 16" fill="none" xmlns="http://www.w3.org/2000/svg">
<path fill-rule="evenodd" clip-rule="evenodd" d="M2.706 7.33502H4.35223C4.42952 5.85496 4.76284 4.502 5.28385 3.45998C5.29643 3.43482 5.30917 3.40975 5.32208 3.38477C3.91477 4.20309 2.91593 5.64665 2.706 7.33502ZM7.99996 1.33502C4.31898 1.33502 1.33496 4.31904 1.33496 8.00002C1.33496 11.681 4.31898 14.665 7.99996 14.665C11.6809 14.665 14.665 11.681 14.665 8.00002C14.665 4.31904 11.6809 1.33502 7.99996 1.33502ZM7.99996 2.66502C7.55911 2.66502 6.98098 3.03968 6.47343 4.05478C6.05559 4.89046 5.76024 6.03347 5.68424 7.33502H10.3157C10.2397 6.03347 9.94433 4.89046 9.52649 4.05478C9.01894 3.03968 8.44081 2.66502 7.99996 2.66502ZM11.6477 7.33502C11.5704 5.85496 11.2371 4.502 10.7161 3.45998C10.7035 3.43482 10.6908 3.40975 10.6778 3.38477C12.0852 4.20309 13.084 5.64665 13.2939 7.33502H11.6477ZM10.3157 8.66502H5.68424C5.76024 9.96657 6.05559 11.1096 6.47343 11.9453C6.98098 12.9604 7.55911 13.335 7.99996 13.335C8.44081 13.335 9.01894 12.9604 9.52649 11.9453C9.94433 11.1096 10.2397 9.96657 10.3157 8.66502ZM10.6778 12.6153C10.6908 12.5903 10.7035 12.5652 10.7161 12.5401C11.2371 11.498 11.5704 10.1451 11.6477 8.66502H13.2939C13.084 10.3534 12.0852 11.797 10.6778 12.6153ZM5.32208 12.6153C5.30917 12.5903 5.29643 12.5652 5.28385 12.5401C4.76284 11.498 4.42952 10.1451 4.35223 8.66502H2.706C2.91593 10.3534 3.91477 11.797 5.32208 12.6153Z" fill="#7D7F82"/>
</svg>
