<svg width="16" height="16" viewBox="0 0 16 16" fill="none" xmlns="http://www.w3.org/2000/svg">
<path fill-rule="evenodd" clip-rule="evenodd" d="M7.99996 3.33502C8.36723 3.33502 8.66496 3.63275 8.66496 4.00002V7.33502H12C12.3672 7.33502 12.665 7.63275 12.665 8.00002C12.665 8.36729 12.3672 8.66502 12 8.66502H8.66496V12C8.66496 12.3673 8.36723 12.665 7.99996 12.665C7.63269 12.665 7.33496 12.3673 7.33496 12L7.33496 8.66502H3.99996C3.63269 8.66502 3.33496 8.36729 3.33496 8.00002C3.33496 7.63275 3.63269 7.33502 3.99996 7.33502H7.33496L7.33496 4.00002C7.33496 3.63275 7.63269 3.33502 7.99996 3.33502Z" fill="#7D7F82"/>
</svg>
