<svg width="16" height="16" viewBox="0 0 16 16" fill="none" xmlns="http://www.w3.org/2000/svg">
<path fill-rule="evenodd" clip-rule="evenodd" d="M14.9702 2.5298C15.2299 2.78949 15.2299 3.21055 14.9702 3.47025L3.47019 14.9702C3.21049 15.2299 2.78943 15.2299 2.52973 14.9702C2.27004 14.7105 2.27004 14.2895 2.52973 14.0298L14.0297 2.5298C14.2894 2.2701 14.7105 2.2701 14.9702 2.5298ZM14.9702 6.5298C15.2299 6.78949 15.2299 7.21055 14.9702 7.47025L7.47019 14.9702C7.21049 15.2299 6.78943 15.2299 6.52974 14.9702C6.27004 14.7105 6.27004 14.2895 6.52974 14.0298L14.0297 6.5298C14.2894 6.2701 14.7105 6.2701 14.9702 6.5298ZM14.9702 10.5298C15.2299 10.7895 15.2299 11.2105 14.9702 11.4702L11.4702 14.9702C11.2105 15.2299 10.7894 15.2299 10.5297 14.9702C10.27 14.7105 10.27 14.2895 10.5297 14.0298L14.0297 10.5298C14.2894 10.2701 14.7105 10.2701 14.9702 10.5298Z" fill="#7D7F82"/>
</svg>
