<svg width="16" height="16" viewBox="0 0 16 16" fill="none" xmlns="http://www.w3.org/2000/svg">
<path fill-rule="evenodd" clip-rule="evenodd" d="M5.97019 2.0298C6.22989 2.28949 6.22989 2.71055 5.97019 2.97025L4.60541 4.33502H6.99996C10.6809 4.33502 13.665 7.31904 13.665 11V13C13.665 13.3673 13.3672 13.665 13 13.665C12.6327 13.665 12.335 13.3673 12.335 13V11C12.335 8.05358 9.9464 5.66502 6.99996 5.66502H4.60541L5.97019 7.0298C6.22989 7.28949 6.22989 7.71055 5.97019 7.97025C5.71049 8.22995 5.28943 8.22995 5.02973 7.97025L2.52973 5.47025C2.27004 5.21055 2.27004 4.78949 2.52973 4.5298L5.02973 2.0298C5.28943 1.7701 5.71049 1.7701 5.97019 2.0298Z" fill="#7D7F82"/>
</svg>
