<svg width="16" height="16" viewBox="0 0 16 16" fill="none" xmlns="http://www.w3.org/2000/svg">
<g clip-path="url(#clip0_10387_45792)">
<path fill-rule="evenodd" clip-rule="evenodd" d="M2.58813 2.85696C2.94288 2.7619 3.30753 2.97243 3.40259 3.32718L3.71626 4.49779C5.42863 2.31466 8.52993 1.66655 11.0024 3.09401C13.7118 4.65833 14.6403 8.12301 13.0759 10.8325C11.5116 13.5421 8.04685 14.4704 5.33737 12.9061C4.44475 12.3907 3.74407 11.6676 3.26308 10.8329C3.07971 10.5147 3.18903 10.1081 3.50725 9.92469C3.82547 9.74132 4.23209 9.85064 4.41545 10.1689C4.78282 10.8064 5.31762 11.3589 6.00237 11.7543C8.07573 12.9513 10.727 12.2409 11.9241 10.1675C13.1212 8.09415 12.4107 5.44288 10.3374 4.24582C8.50344 3.187 6.21734 3.62052 4.8854 5.16963L6.05223 4.85696C6.40699 4.7619 6.77163 4.97243 6.86669 5.32718C6.96175 5.68194 6.75123 6.04658 6.39647 6.14164L3.66445 6.87371C3.49409 6.91936 3.31258 6.89547 3.15984 6.80728C3.0071 6.7191 2.89564 6.57385 2.84999 6.40349L2.11791 3.67142C2.02285 3.31667 2.23338 2.95202 2.58813 2.85696Z" fill="#7D7F82"/>
</g>
<defs>
<clipPath id="clip0_10387_45792">
<rect width="16" height="16" fill="white"/>
</clipPath>
</defs>
</svg>
