<svg width="16" height="16" viewBox="0 0 16 16" fill="none" xmlns="http://www.w3.org/2000/svg">
<path fill-rule="evenodd" clip-rule="evenodd" d="M2.33496 5.00002C2.33496 4.63275 2.63269 4.33502 2.99996 4.33502L13 4.33502C13.3672 4.33502 13.665 4.63275 13.665 5.00002C13.665 5.36729 13.3672 5.66502 13 5.66502L2.99996 5.66502C2.63269 5.66502 2.33496 5.36729 2.33496 5.00002ZM5.33496 8.00002C5.33496 7.63275 5.63269 7.33502 5.99996 7.33502L12.6666 7.33502C13.0339 7.33502 13.3316 7.63275 13.3316 8.00002C13.3316 8.36729 13.0339 8.66502 12.6666 8.66502L5.99996 8.66502C5.63269 8.66502 5.33496 8.36729 5.33496 8.00002ZM5.33496 11C5.33496 10.6328 5.63269 10.335 5.99996 10.335L12.6666 10.335C13.0339 10.335 13.3316 10.6328 13.3316 11C13.3316 11.3673 13.0339 11.665 12.6666 11.665L5.99996 11.665C5.63269 11.665 5.33496 11.3673 5.33496 11Z" fill="#7D7F82"/>
</svg>
