<svg width="16" height="16" viewBox="0 0 16 16" fill="none" xmlns="http://www.w3.org/2000/svg">
<path fill-rule="evenodd" clip-rule="evenodd" d="M3.99996 2.66502C3.26266 2.66502 2.66496 3.26272 2.66496 4.00002V12C2.66496 12.7373 3.26266 13.335 3.99996 13.335H4.33496V11C4.33496 10.0805 5.08041 9.33502 5.99996 9.33502H9.99996C10.9195 9.33502 11.665 10.0805 11.665 11V13.335H12C12.7373 13.335 13.335 12.7373 13.335 12V5.82845C13.335 5.47439 13.1943 5.13482 12.9439 4.88446L11.1155 3.05603C10.8652 2.80567 10.5256 2.66502 10.1715 2.66502H3.99996ZM12 14.665C13.4718 14.665 14.665 13.4719 14.665 12V5.82845C14.665 5.12165 14.3842 4.44379 13.8844 3.94401L12.056 2.11558C11.5562 1.6158 10.8783 1.33502 10.1715 1.33502H3.99996C2.52812 1.33502 1.33496 2.52818 1.33496 4.00002V12C1.33496 13.4719 2.52812 14.665 3.99996 14.665H12ZM10.335 13.335V11C10.335 10.815 10.185 10.665 9.99996 10.665H5.99996C5.81495 10.665 5.66496 10.815 5.66496 11V13.335H10.335ZM4.33496 5.50002C4.33496 5.13275 4.63269 4.83502 4.99996 4.83502H7.99996C8.36723 4.83502 8.66496 5.13275 8.66496 5.50002C8.66496 5.86729 8.36723 6.16502 7.99996 6.16502H4.99996C4.63269 6.16502 4.33496 5.86729 4.33496 5.50002Z" fill="#7D7F82"/>
</svg>
