<svg width="16" height="16" viewBox="0 0 16 16" fill="none" xmlns="http://www.w3.org/2000/svg">
<path fill-rule="evenodd" clip-rule="evenodd" d="M4.99996 2.66502C4.26266 2.66502 3.66496 3.26272 3.66496 4.00002V7.00002C3.66496 7.36729 3.36723 7.66502 2.99996 7.66502C2.63269 7.66502 2.33496 7.36729 2.33496 7.00002V4.00002C2.33496 2.52818 3.52812 1.33502 4.99996 1.33502H11C12.4718 1.33502 13.665 2.52818 13.665 4.00002V7.00002C13.665 7.36729 13.3672 7.66502 13 7.66502C12.6327 7.66502 12.335 7.36729 12.335 7.00002V4.00002C12.335 3.26272 11.7373 2.66502 11 2.66502H4.99996ZM5.49996 6.33502C5.86723 6.33502 6.16496 6.63275 6.16496 7.00002V9.00002C6.16496 9.36729 5.86723 9.66502 5.49996 9.66502C5.13269 9.66502 4.83496 9.36729 4.83496 9.00002V7.00002C4.83496 6.63275 5.13269 6.33502 5.49996 6.33502ZM10.5 6.33502C10.8672 6.33502 11.165 6.63275 11.165 7.00002V9.00002C11.165 9.36729 10.8672 9.66502 10.5 9.66502C10.1327 9.66502 9.83496 9.36729 9.83496 9.00002V7.00002C9.83496 6.63275 10.1327 6.33502 10.5 6.33502ZM2.99996 8.33502C3.36723 8.33502 3.66496 8.63275 3.66496 9.00002V12C3.66496 12.7373 4.26266 13.335 4.99996 13.335H11C11.7373 13.335 12.335 12.7373 12.335 12V9.00002C12.335 8.63275 12.6327 8.33502 13 8.33502C13.3672 8.33502 13.665 8.63275 13.665 9.00002V12C13.665 13.4719 12.4718 14.665 11 14.665H4.99996C3.52812 14.665 2.33496 13.4719 2.33496 12V9.00002C2.33496 8.63275 2.63269 8.33502 2.99996 8.33502Z" fill="#7D7F82"/>
</svg>
