<svg width="16" height="16" viewBox="0 0 16 16" fill="none" xmlns="http://www.w3.org/2000/svg">
<path fill-rule="evenodd" clip-rule="evenodd" d="M7.49996 2.66502C4.82966 2.66502 2.66496 4.82973 2.66496 7.50002C2.66496 10.1703 4.82966 12.335 7.49996 12.335C10.1703 12.335 12.335 10.1703 12.335 7.50002C12.335 4.82973 10.1703 2.66502 7.49996 2.66502ZM1.33496 7.50002C1.33496 4.09519 4.09513 1.33502 7.49996 1.33502C10.9048 1.33502 13.665 4.09519 13.665 7.50002C13.665 8.96288 13.1555 10.3067 12.3042 11.3638L14.4702 13.5298C14.7299 13.7895 14.7299 14.2105 14.4702 14.4702C14.2105 14.7299 13.7894 14.7299 13.5297 14.4702L11.3638 12.3043C10.3067 13.1555 8.96282 13.665 7.49996 13.665C4.09513 13.665 1.33496 10.9049 1.33496 7.50002Z" fill="#7D7F82"/>
</svg>
