<svg width="16" height="16" viewBox="0 0 16 16" fill="none" xmlns="http://www.w3.org/2000/svg">
<path fill-rule="evenodd" clip-rule="evenodd" d="M3.49996 1.33502C3.86723 1.33502 4.16496 1.63275 4.16496 2.00002L4.16496 3.33502L4.99996 3.33502C5.36723 3.33502 5.66496 3.63275 5.66496 4.00002C5.66496 4.36729 5.36723 4.66502 4.99996 4.66502L4.16496 4.66502L4.16496 14C4.16496 14.3673 3.86723 14.665 3.49996 14.665C3.13269 14.665 2.83496 14.3673 2.83496 14L2.83496 4.66502L1.99996 4.66502C1.63269 4.66502 1.33496 4.36729 1.33496 4.00002C1.33496 3.63275 1.63269 3.33502 1.99996 3.33502L2.83496 3.33502L2.83496 2.00002C2.83496 1.63275 3.13269 1.33502 3.49996 1.33502ZM12.5 1.33502C12.8672 1.33502 13.165 1.63275 13.165 2.00002L13.165 7.33502L14 7.33502C14.3672 7.33502 14.665 7.63275 14.665 8.00002C14.665 8.36729 14.3672 8.66502 14 8.66502L13.165 8.66502L13.165 14C13.165 14.3673 12.8672 14.665 12.5 14.665C12.1327 14.665 11.835 14.3673 11.835 14L11.835 8.66502L11 8.66502C10.6327 8.66502 10.335 8.36729 10.335 8.00002C10.335 7.63275 10.6327 7.33502 11 7.33502L11.835 7.33502L11.835 2.00002C11.835 1.63275 12.1327 1.33502 12.5 1.33502ZM7.99996 1.33502C8.36723 1.33502 8.66496 1.63275 8.66496 2.00002L8.66496 11.335L9.49996 11.335C9.86723 11.335 10.165 11.6328 10.165 12C10.165 12.3673 9.86723 12.665 9.49996 12.665L8.66496 12.665L8.66496 14C8.66496 14.3673 8.36723 14.665 7.99996 14.665C7.63269 14.665 7.33496 14.3673 7.33496 14L7.33496 12.665L6.49996 12.665C6.13269 12.665 5.83496 12.3673 5.83496 12C5.83496 11.6328 6.13269 11.335 6.49996 11.335L7.33496 11.335L7.33496 2.00002C7.33496 1.63275 7.63269 1.33502 7.99996 1.33502Z" fill="#7D7F82"/>
</svg>
