<svg width="16" height="16" viewBox="0 0 16 16" fill="none" xmlns="http://www.w3.org/2000/svg">
<path fill-rule="evenodd" clip-rule="evenodd" d="M7.52974 1.5298C7.78943 1.2701 8.21049 1.2701 8.47019 1.5298L10.9702 4.0298C11.2299 4.28949 11.2299 4.71055 10.9702 4.97025C10.7105 5.22995 10.2894 5.22995 10.0297 4.97025L8.66496 3.60547V11C8.66496 11.3673 8.36723 11.665 7.99996 11.665C7.63269 11.665 7.33496 11.3673 7.33496 11V3.60547L5.97019 4.97025C5.71049 5.22995 5.28943 5.22995 5.02973 4.97025C4.77004 4.71055 4.77004 4.28949 5.02973 4.0298L7.52974 1.5298ZM12.4243 4.9346C12.6082 4.61669 13.015 4.50806 13.3329 4.69196C14.1278 5.15175 14.665 6.01276 14.665 7.00002V12C14.665 13.4719 13.4718 14.665 12 14.665H3.99996C2.52812 14.665 1.33496 13.4719 1.33496 12V7.00002C1.33496 6.01276 1.87214 5.15175 2.66698 4.69196C2.98489 4.50806 3.39169 4.61669 3.57559 4.9346C3.75949 5.25251 3.65085 5.65931 3.33294 5.84321C2.93218 6.07505 2.66496 6.50672 2.66496 7.00002V12C2.66496 12.7373 3.26266 13.335 3.99996 13.335H12C12.7373 13.335 13.335 12.7373 13.335 12V7.00002C13.335 6.50672 13.0677 6.07505 12.667 5.84321C12.3491 5.65931 12.2404 5.25251 12.4243 4.9346Z" fill="#7D7F82"/>
</svg>
