<svg width="16" height="16" viewBox="0 0 16 16" fill="none" xmlns="http://www.w3.org/2000/svg">
<path fill-rule="evenodd" clip-rule="evenodd" d="M1.33496 8.00002C1.33496 4.31904 4.31898 1.33502 7.99996 1.33502C11.6809 1.33502 14.665 4.31904 14.665 8.00002C14.665 11.681 11.6809 14.665 7.99996 14.665C4.31898 14.665 1.33496 11.681 1.33496 8.00002ZM3.50003 5.13298C2.97135 5.96103 2.66496 6.94474 2.66496 8.00002C2.66496 9.05529 2.97135 10.039 3.50002 10.8671C4.02883 10.039 4.33496 9.05576 4.33496 8.00001C4.33496 6.94427 4.02883 5.96101 3.50003 5.13298ZM4.38692 4.07466C5.19034 5.1756 5.66496 6.53299 5.66496 8.00001C5.66496 9.46704 5.19034 10.8244 4.38691 11.9254C5.18369 12.6591 6.20444 13.1534 7.33496 13.294V2.70606C6.20445 2.84663 5.1837 3.3409 4.38692 4.07466ZM8.66496 2.70606V13.294C9.79548 13.1534 10.8162 12.6591 11.613 11.9254C10.8096 10.8244 10.335 9.46704 10.335 8.00001C10.335 6.53299 10.8096 5.1756 11.613 4.07466C10.8162 3.3409 9.79547 2.84663 8.66496 2.70606ZM12.4999 5.13298C11.9711 5.96102 11.665 6.94427 11.665 8.00001C11.665 9.05576 11.9711 10.039 12.4999 10.8671C13.0286 10.039 13.335 9.05529 13.335 8.00002C13.335 6.94475 13.0286 5.96103 12.4999 5.13298Z" fill="#7D7F82"/>
</svg>
