<svg width="16" height="16" viewBox="0 0 16 16" fill="none" xmlns="http://www.w3.org/2000/svg">
<path fill-rule="evenodd" clip-rule="evenodd" d="M2.33496 3.50002C2.33496 3.13275 2.63269 2.83502 2.99996 2.83502H13C13.3672 2.83502 13.665 3.13275 13.665 3.50002C13.665 3.86729 13.3672 4.16502 13 4.16502H2.99996C2.63269 4.16502 2.33496 3.86729 2.33496 3.50002ZM2.33496 6.50002C2.33496 6.13275 2.63269 5.83502 2.99996 5.83502H13C13.3672 5.83502 13.665 6.13275 13.665 6.50002V7.50002C13.665 7.86729 13.3672 8.16502 13 8.16502H2.99996C2.63269 8.16502 2.33496 7.86729 2.33496 7.50002V6.50002ZM2.33496 10.5C2.33496 10.1328 2.63269 9.83502 2.99996 9.83502H13C13.3672 9.83502 13.665 10.1328 13.665 10.5V12.5C13.665 12.8673 13.3672 13.165 13 13.165H2.99996C2.63269 13.165 2.33496 12.8673 2.33496 12.5V10.5Z" fill="#7D7F82"/>
</svg>
