<svg width="16" height="16" viewBox="0 0 16 16" fill="none" xmlns="http://www.w3.org/2000/svg">
<path d="M2.33 6.09917C2.33 4.58113 2.63768 3.69149 3.16459 3.16459C3.69149 2.63768 4.58113 2.33 6.09917 2.33H9.89989C11.4179 2.33 12.3076 2.63768 12.8345 3.16459C13.3614 3.69149 13.6691 4.58113 13.6691 6.09917V9.89989C13.6691 11.4179 13.3614 12.3076 12.8345 12.8345C12.3076 13.3614 11.4179 13.6691 9.89989 13.6691H9.26644C8.89917 13.6691 8.60144 13.9668 8.60144 14.3341C8.60144 14.7013 8.89917 14.9991 9.26644 14.9991H9.89989C11.5491 14.9991 12.8766 14.6733 13.7749 13.7749C14.6733 12.8766 14.9991 11.5491 14.9991 9.89989V6.09917C14.9991 4.44995 14.6733 3.1225 13.7749 2.22414C12.8766 1.32577 11.5491 1 9.89989 1H6.09917C4.44995 1 3.1225 1.32577 2.22414 2.22414C1.32577 3.1225 1 4.44995 1 6.09917V6.71996C1 7.08723 1.29773 7.38496 1.665 7.38496C2.03227 7.38496 2.33 7.08723 2.33 6.71996V6.09917Z" fill="#7D7F82"/>
<path fill-rule="evenodd" clip-rule="evenodd" d="M3.66038 7.96796C2.88215 7.96796 2.1644 8.11954 1.65799 8.62595C1.15157 9.13237 1 9.85012 1 10.6283V12.3387C1 13.1169 1.15157 13.8346 1.65799 14.3411C2.1644 14.8475 2.88215 14.999 3.66038 14.999H5.3707C6.14893 14.999 6.86668 14.8475 7.37309 14.3411C7.87951 13.8346 8.03108 13.1169 8.03108 12.3387V10.6283C8.03108 9.85012 7.87951 9.13237 7.37309 8.62595C6.86668 8.11954 6.14893 7.96796 5.3707 7.96796H3.66038ZM2.33 10.6283C2.33 9.9813 2.46348 9.70136 2.59844 9.5664C2.7334 9.43145 3.01333 9.29796 3.66038 9.29796H5.3707C6.01775 9.29796 6.29768 9.43145 6.43264 9.5664C6.5676 9.70136 6.70108 9.9813 6.70108 10.6283V12.3387C6.70108 12.9857 6.5676 13.2656 6.43264 13.4006C6.29768 13.5356 6.01775 13.669 5.3707 13.669H3.66038C3.01333 13.669 2.7334 13.5356 2.59844 13.4006C2.46348 13.2656 2.33 12.9857 2.33 12.3387V10.6283Z" fill="#7D7F82"/>
</svg>
