<svg width="16" height="16" viewBox="0 0 16 16" fill="none" xmlns="http://www.w3.org/2000/svg">
<path fill-rule="evenodd" clip-rule="evenodd" d="M1.33496 8.00002C1.33496 5.9759 2.97584 4.33502 4.99996 4.33502H11C13.0241 4.33502 14.665 5.9759 14.665 8.00002C14.665 10.0241 13.0241 11.665 11 11.665H4.99996C2.97584 11.665 1.33496 10.0241 1.33496 8.00002ZM4.99996 5.66502C3.71038 5.66502 2.66496 6.71044 2.66496 8.00002C2.66496 9.28961 3.71038 10.335 4.99996 10.335H11C12.2895 10.335 13.335 9.28961 13.335 8.00002C13.335 6.71044 12.2895 5.66502 11 5.66502H4.99996ZM11 7.66502C10.8149 7.66502 10.665 7.81501 10.665 8.00002C10.665 8.18504 10.8149 8.33502 11 8.33502C11.185 8.33502 11.335 8.18504 11.335 8.00002C11.335 7.81501 11.185 7.66502 11 7.66502ZM9.33496 8.00002C9.33496 7.08047 10.0804 6.33502 11 6.33502C11.9195 6.33502 12.665 7.08047 12.665 8.00002C12.665 8.91958 11.9195 9.66502 11 9.66502C10.0804 9.66502 9.33496 8.91958 9.33496 8.00002Z" fill="#7D7F82"/>
</svg>
