<svg width="16" height="16" viewBox="0 0 16 16" fill="none" xmlns="http://www.w3.org/2000/svg">
<path fill-rule="evenodd" clip-rule="evenodd" d="M7.99996 3.66502C6.15809 3.66502 4.66496 5.15815 4.66496 7.00002C4.66496 8.84189 6.15809 10.335 7.99996 10.335C9.84183 10.335 11.335 8.84189 11.335 7.00002C11.335 5.15815 9.84183 3.66502 7.99996 3.66502ZM3.33496 7.00002C3.33496 4.42361 5.42355 2.33502 7.99996 2.33502C10.5764 2.33502 12.665 4.42361 12.665 7.00002C12.665 9.57643 10.5764 11.665 7.99996 11.665C5.42355 11.665 3.33496 9.57643 3.33496 7.00002ZM1.83496 13C1.83496 12.6328 2.13269 12.335 2.49996 12.335H13.5C13.8672 12.335 14.165 12.6328 14.165 13C14.165 13.3673 13.8672 13.665 13.5 13.665H2.49996C2.13269 13.665 1.83496 13.3673 1.83496 13Z" fill="#7D7F82"/>
</svg>
