<svg width="16" height="16" viewBox="0 0 16 16" fill="none" xmlns="http://www.w3.org/2000/svg">
<path fill-rule="evenodd" clip-rule="evenodd" d="M2.22415 2.22415C3.12252 1.32578 4.44999 1 6.09923 1H9.89999C11.5492 1 12.8767 1.32578 13.7751 2.22415C14.6734 3.12252 14.9992 4.44999 14.9992 6.09923V9.89999C14.9992 11.5492 14.6734 12.8767 13.7751 13.7751C12.8767 14.6734 11.5492 14.9992 9.89999 14.9992H8.0069C8.0045 14.9992 8.0021 14.9993 7.9997 14.9993C7.9973 14.9993 7.9949 14.9992 7.9925 14.9992H6.09923C4.44999 14.9992 3.12252 14.6734 2.22415 13.7751C1.32578 12.8767 1 11.5492 1 9.89999V6.09923C1 4.44999 1.32578 3.12252 2.22415 2.22415ZM8.6647 13.6692H9.89999C11.4181 13.6692 12.3077 13.3615 12.8346 12.8346C13.3615 12.3077 13.6692 11.4181 13.6692 9.89999V7.39772H8.6647V13.6692ZM7.3347 7.39772V13.6692H6.09923C4.58116 13.6692 3.69152 13.3615 3.1646 12.8346C2.63769 12.3077 2.33 11.4181 2.33 9.89999V7.39772H7.3347ZM13.6692 6.06772C13.6649 4.56884 13.3579 3.68786 12.8346 3.1646C12.3077 2.63769 11.4181 2.33 9.89999 2.33H6.09923C4.58116 2.33 3.69152 2.63769 3.1646 3.1646C2.64134 3.68786 2.33428 4.56884 2.33004 6.06772H13.6692Z" fill="#7D7F82"/>
</svg>
