<svg width="16" height="16" viewBox="0 0 16 16" fill="none" xmlns="http://www.w3.org/2000/svg">
<path fill-rule="evenodd" clip-rule="evenodd" d="M2.33496 4.00002C2.33496 2.52818 3.52812 1.33502 4.99996 1.33502H11C12.4718 1.33502 13.665 2.52818 13.665 4.00002V12C13.665 13.4719 12.4718 14.665 11 14.665H4.99996C3.52812 14.665 2.33496 13.4719 2.33496 12V4.00002ZM4.99996 2.66502C4.26266 2.66502 3.66496 3.26272 3.66496 4.00002V12C3.66496 12.7373 4.26266 13.335 4.99996 13.335H11C11.7373 13.335 12.335 12.7373 12.335 12V4.00002C12.335 3.26272 11.7373 2.66502 11 2.66502H4.99996ZM6.33496 11C6.33496 10.6328 6.63269 10.335 6.99996 10.335H8.99996C9.36723 10.335 9.66496 10.6328 9.66496 11C9.66496 11.3673 9.36723 11.665 8.99996 11.665H6.99996C6.63269 11.665 6.33496 11.3673 6.33496 11Z" fill="#7D7F82"/>
</svg>
