<svg width="16" height="16" viewBox="0 0 16 16" fill="none" xmlns="http://www.w3.org/2000/svg">
<path d="M4.16726 5.46576C4.16726 5.09849 4.46499 4.80076 4.83226 4.80076H11.1668C11.5341 4.80076 11.8318 5.09849 11.8318 5.46576C11.8318 5.83303 11.5341 6.13076 11.1668 6.13076H4.83226C4.46499 6.13076 4.16726 5.83303 4.16726 5.46576Z" fill="#7D7F82"/>
<path d="M4.83226 7.96796C4.46499 7.96796 4.16726 8.2657 4.16726 8.63296C4.16726 9.00023 4.46499 9.29797 4.83226 9.29797H8.63298C9.00025 9.29797 9.29798 9.00023 9.29798 8.63296C9.29798 8.2657 9.00025 7.96796 8.63298 7.96796H4.83226Z" fill="#7D7F82"/>
<path fill-rule="evenodd" clip-rule="evenodd" d="M2.14495 2.14495C2.9471 1.3428 4.09631 1 5.46572 1H10.5333C11.9028 1 13.052 1.3428 13.8541 2.14495C14.6563 2.9471 14.9991 4.09631 14.9991 5.46572V8.63299C14.9991 10.0024 14.6563 11.1516 13.8541 11.9538C13.052 12.7559 11.9028 13.0987 10.5333 13.0987H10.2324L9.29168 14.353C8.9755 14.7746 8.51335 15.0371 7.99953 15.0371C7.48572 15.0371 7.02357 14.7746 6.70739 14.353L5.77321 13.1074L5.7666 13.1039C5.76216 13.1017 5.75816 13.1 5.75483 13.0987H5.46572C4.18705 13.0987 3.01024 12.9504 2.17727 12.2215C1.32234 11.4735 1 10.274 1 8.63299V5.46572C1 4.09631 1.3428 2.9471 2.14495 2.14495ZM3.08541 3.08541C2.62065 3.55016 2.33 4.30132 2.33 5.46572V8.63299C2.33 10.1593 2.64111 10.8601 3.05309 11.2206C3.48703 11.6003 4.21057 11.7687 5.46572 11.7687H5.78245C5.99903 11.7687 6.20248 11.8356 6.35732 11.9123C6.50978 11.9879 6.6904 12.1104 6.82339 12.291L7.77139 13.555C7.87329 13.6909 7.96224 13.7071 7.99953 13.7071C8.03682 13.7071 8.12578 13.6909 8.22768 13.555L9.17786 12.2881L9.18041 12.2847C9.4246 11.9634 9.80928 11.7687 10.2166 11.7687H10.5333C11.6977 11.7687 12.4489 11.4781 12.9137 11.0133C13.3784 10.5485 13.6691 9.79739 13.6691 8.63299V5.46572C13.6691 4.30132 13.3784 3.55016 12.9137 3.08541C12.4489 2.62065 11.6977 2.33 10.5333 2.33H5.46572C4.30132 2.33 3.55016 2.62065 3.08541 3.08541Z" fill="#7D7F82"/>
</svg>
