<svg width="16" height="16" viewBox="0 0 16 16" fill="none" xmlns="http://www.w3.org/2000/svg">
<path fill-rule="evenodd" clip-rule="evenodd" d="M6.66751 1.00145C7.49206 0.525395 8.50795 0.525395 9.33251 1.00145L13.3947 3.34675C14.2192 3.82281 14.7272 4.7026 14.7272 5.65471V10.3453C14.7272 11.2974 14.2192 12.1772 13.3947 12.6533L9.3325 14.9986C8.50795 15.4746 7.49206 15.4746 6.6675 14.9986L2.60533 12.6533C1.78077 12.1772 1.27283 11.2974 1.27283 10.3453V5.65471C1.27283 4.7026 1.78077 3.82281 2.60533 3.34675L6.66751 1.00145ZM8.6675 2.15327C8.25445 1.91479 7.74556 1.91479 7.33251 2.15327L3.27033 4.49856C2.85728 4.73704 2.60283 5.17776 2.60283 5.65471V10.3453C2.60283 10.8223 2.85728 11.263 3.27033 11.5015L7.3325 13.8468C7.74556 14.0852 8.25445 14.0852 8.6675 13.8468L12.7297 11.5015C13.1427 11.263 13.3972 10.8223 13.3972 10.3453V5.65471C13.3972 5.17776 13.1427 4.73704 12.7297 4.49857L8.6675 2.15327ZM8 6.66501C7.2627 6.66501 6.665 7.26271 6.665 8.00001C6.665 8.73731 7.2627 9.33501 8 9.33501C8.73731 9.33501 9.335 8.73731 9.335 8.00001C9.335 7.26271 8.73731 6.66501 8 6.66501ZM5.335 8.00001C5.335 6.52817 6.52817 5.33501 8 5.33501C9.47184 5.33501 10.665 6.52817 10.665 8.00001C10.665 9.47185 9.47184 10.665 8 10.665C6.52817 10.665 5.335 9.47185 5.335 8.00001Z" fill="#7D7F82"/>
</svg>
