<svg width="16" height="16" viewBox="0 0 16 16" fill="none" xmlns="http://www.w3.org/2000/svg">
<path fill-rule="evenodd" clip-rule="evenodd" d="M5.27262 2.33502C5.54265 2.33502 5.78587 2.49831 5.88811 2.74823L9.16084 10.7482C9.2999 11.0882 9.13706 11.4764 8.79714 11.6155C8.45721 11.7546 8.06892 11.5917 7.92986 11.2518L6.93746 8.82594H3.60778L2.61538 11.2518C2.47632 11.5917 2.08803 11.7546 1.7481 11.6155C1.40818 11.4764 1.24534 11.0882 1.3844 10.7482L4.65713 2.74823C4.75937 2.49831 5.00259 2.33502 5.27262 2.33502ZM4.15187 7.49594H6.39336L5.27262 4.75634L4.15187 7.49594ZM11.8181 7.39836C10.9662 7.39836 10.3013 8.06976 10.3013 8.86669C10.3013 9.66362 10.9662 10.335 11.8181 10.335C12.67 10.335 13.3349 9.66362 13.3349 8.86669C13.3349 8.06976 12.67 7.39836 11.8181 7.39836ZM13.3697 6.52057C12.9217 6.23407 12.3879 6.06836 11.8181 6.06836C10.26 6.06836 8.97126 7.3072 8.97126 8.86669C8.97126 10.4262 10.26 11.665 11.8181 11.665C12.3879 11.665 12.9217 11.4993 13.3697 11.2128C13.4584 11.4757 13.707 11.665 13.9999 11.665C14.3672 11.665 14.6649 11.3673 14.6649 11V6.73336C14.6649 6.36609 14.3672 6.06836 13.9999 6.06836C13.707 6.06836 13.4584 6.25766 13.3697 6.52057ZM1.33489 13C1.33489 12.6328 1.63262 12.335 1.99989 12.335H13.9999C14.3672 12.335 14.6649 12.6328 14.6649 13C14.6649 13.3673 14.3672 13.665 13.9999 13.665H1.99989C1.63262 13.665 1.33489 13.3673 1.33489 13Z" fill="#7D7F82"/>
</svg>
