<svg width="16" height="16" viewBox="0 0 16 16" fill="none" xmlns="http://www.w3.org/2000/svg">
<g clip-path="url(#clip0_10387_45781)">
<path fill-rule="evenodd" clip-rule="evenodd" d="M7.52983 3.28713C8.9611 1.85586 11.2816 1.85586 12.7129 3.28714C14.1442 4.71841 14.1442 7.03896 12.7129 8.47023L12.4455 8.73761C12.1858 8.99731 11.7648 8.99731 11.5051 8.73761C11.2454 8.47792 11.2454 8.05686 11.5051 7.79716L11.7725 7.52978C12.6843 6.6179 12.6843 5.13946 11.7725 4.22759C10.8606 3.31571 9.38215 3.31571 8.47028 4.22759L8.24338 4.45449C7.98368 4.71418 7.56262 4.71418 7.30293 4.45449C7.04323 4.19479 7.04323 3.77373 7.30293 3.51403L7.52983 3.28713ZM5.39476 1.33751C5.7549 1.26548 6.10524 1.49904 6.17726 1.85918L6.53082 3.62694C6.60284 3.98708 6.36928 4.33742 6.00915 4.40945C5.64901 4.48148 5.29867 4.24792 5.22664 3.88778L4.87309 2.12001C4.80106 1.75987 5.03462 1.40954 5.39476 1.33751ZM14.6625 10.6053C14.5905 10.9654 14.2402 11.199 13.88 11.127L12.1123 10.7734C11.7521 10.7014 11.5186 10.351 11.5906 9.9909C11.6626 9.63077 12.013 9.39721 12.3731 9.46924L14.1409 9.82279C14.501 9.89482 14.7346 10.2452 14.6625 10.6053ZM9.88449 6.11556C10.1442 6.37526 10.1442 6.79632 9.88449 7.05601L7.05606 9.88444C6.79636 10.1441 6.37531 10.1441 6.11561 9.88444C5.85591 9.62474 5.85591 9.20369 6.11561 8.94399L8.94404 6.11556C9.20374 5.85586 9.62479 5.85586 9.88449 6.11556ZM4.76305 5.65555C4.69102 6.01568 4.34068 6.24924 3.98055 6.17721L2.21278 5.82366C1.85264 5.75163 1.61908 5.40129 1.69111 5.04116C1.76314 4.68102 2.11348 4.44746 2.47361 4.51949L4.24138 4.87304C4.60152 4.94507 4.83508 5.29541 4.76305 5.65555ZM10.3445 11.237C10.7046 11.165 11.055 11.3985 11.127 11.7587L11.4806 13.5264C11.5526 13.8866 11.319 14.2369 10.9589 14.3089C10.5988 14.381 10.2484 14.1474 10.1764 13.7873L9.82284 12.0195C9.75081 11.6594 9.98437 11.309 10.3445 11.237ZM8.92494 11.3177C9.18464 11.5774 9.18464 11.9985 8.92494 12.2582L8.47028 12.7129C7.039 14.1441 4.71845 14.1441 3.28718 12.7129C1.85591 11.2816 1.85591 8.96105 3.28718 7.52978L3.61493 7.20203C3.87463 6.94233 4.29568 6.94233 4.55538 7.20203C4.81508 7.46173 4.81508 7.88279 4.55538 8.14249L4.22764 8.47023C3.31576 9.3821 3.31576 10.8605 4.22764 11.7724C5.13951 12.6843 6.61795 12.6843 7.52982 11.7724L7.98449 11.3177C8.24419 11.0581 8.66524 11.0581 8.92494 11.3177Z" fill="#7D7F82"/>
</g>
<defs>
<clipPath id="clip0_10387_45781">
<rect width="16" height="16" fill="white"/>
</clipPath>
</defs>
</svg>
