<svg width="16" height="16" viewBox="0 0 16 16" fill="none" xmlns="http://www.w3.org/2000/svg">
<path fill-rule="evenodd" clip-rule="evenodd" d="M0.834961 8.00002C0.834961 5.9759 2.47584 4.33502 4.49996 4.33502H5.99996C6.36723 4.33502 6.66496 4.63275 6.66496 5.00002C6.66496 5.36729 6.36723 5.66502 5.99996 5.66502H4.49996C3.21038 5.66502 2.16496 6.71044 2.16496 8.00002C2.16496 9.28961 3.21038 10.335 4.49996 10.335H5.99996C6.36723 10.335 6.66496 10.6328 6.66496 11C6.66496 11.3673 6.36723 11.665 5.99996 11.665H4.49996C2.47584 11.665 0.834961 10.0241 0.834961 8.00002ZM9.33496 5.00002C9.33496 4.63275 9.63269 4.33502 9.99996 4.33502H11.5C13.5241 4.33502 15.165 5.9759 15.165 8.00002C15.165 10.0241 13.5241 11.665 11.5 11.665H9.99996C9.63269 11.665 9.33496 11.3673 9.33496 11C9.33496 10.6328 9.63269 10.335 9.99996 10.335H11.5C12.7895 10.335 13.835 9.28961 13.835 8.00002C13.835 6.71044 12.7895 5.66502 11.5 5.66502H9.99996C9.63269 5.66502 9.33496 5.36729 9.33496 5.00002Z" fill="#7D7F82"/>
</svg>
