<svg width="16" height="16" viewBox="0 0 16 16" fill="none" xmlns="http://www.w3.org/2000/svg">
<path fill-rule="evenodd" clip-rule="evenodd" d="M7.99995 1.33502C8.17632 1.33502 8.34547 1.40508 8.47018 1.52979L11.8036 4.86312C12.0633 5.12282 12.0633 5.54387 11.8036 5.80358C11.5439 6.06328 11.1229 6.06328 10.8632 5.80359L8.66496 3.60545V10C8.66496 10.3673 8.36723 10.665 7.99996 10.665C7.63269 10.665 7.33496 10.3673 7.33496 10V3.6055L5.13694 5.80358C4.87725 6.06328 4.45619 6.06328 4.19649 5.80359C3.93679 5.54389 3.93678 5.12284 4.19648 4.86314L7.52973 1.5298C7.65444 1.40509 7.82358 1.33502 7.99995 1.33502ZM1.99996 11.0018C2.36723 11.0018 2.66496 11.2995 2.66496 11.6668V13.0001C2.66496 13.1774 2.73537 13.3473 2.86071 13.4727C2.98605 13.598 3.15604 13.6684 3.33329 13.6684H12.3333C12.5105 13.6684 12.6805 13.598 12.8059 13.4727C12.9312 13.3473 13.0016 13.1774 13.0016 13.0001V11.6668C13.0016 11.2995 13.2994 11.0018 13.6666 11.0018C14.0339 11.0018 14.3316 11.2995 14.3316 11.6668V13.0001C14.3316 13.5301 14.1211 14.0384 13.7463 14.4131C13.3716 14.7879 12.8633 14.9984 12.3333 14.9984H3.33329C2.8033 14.9984 2.29502 14.7879 1.92026 14.4131C1.5455 14.0384 1.33496 13.5301 1.33496 13.0001V11.6668C1.33496 11.2995 1.63269 11.0018 1.99996 11.0018Z" fill="#7D7F82"/>
</svg>
