<svg width="16" height="16" viewBox="0 0 16 16" fill="none" xmlns="http://www.w3.org/2000/svg">
<path fill-rule="evenodd" clip-rule="evenodd" d="M4.33115 3.66502C4.00492 3.66502 3.66496 3.95941 3.66496 4.42433V4.67662C3.66496 5.04388 3.36723 5.34162 2.99996 5.34162C2.63269 5.34162 2.33496 5.04388 2.33496 4.67662V4.42433C2.33496 3.30669 3.19115 2.33502 4.33115 2.33502H11.6688C12.8192 2.33502 13.665 3.31788 13.665 4.42433V4.67662C13.665 5.04388 13.3672 5.34162 13 5.34162C12.6327 5.34162 12.335 5.04388 12.335 4.67662V4.42433C12.335 3.96197 11.9974 3.66502 11.6688 3.66502H8.66501L8.66501 12.335L9.53377 12.3349C9.90104 12.3349 10.1988 12.6326 10.1988 12.9999C10.1988 13.3672 9.90112 13.6649 9.53385 13.6649H6.46625C6.09898 13.6649 5.80126 13.3672 5.80129 12.9999C5.80131 12.6326 6.09906 12.3349 6.46633 12.3349L7.33501 12.335L7.33501 3.66502H4.33115Z" fill="#7D7F82"/>
</svg>
