<svg width="16" height="16" viewBox="0 0 16 16" fill="none" xmlns="http://www.w3.org/2000/svg">
<path d="M7.99997 8C9.65682 8 11 6.65685 11 5C11 3.34315 9.65682 2 7.99997 2C6.34312 2 4.99997 3.34315 4.99997 5C4.99997 6.65685 6.34312 8 7.99997 8Z" fill="#7D7F82"/>
<path d="M3.49708 12.9712C3.32178 11.2181 4.17038 9.6178 5.53445 8.7295C5.81474 8.54697 6.17008 8.57361 6.47942 8.70084C6.94819 8.89365 7.46166 8.99998 7.99996 8.99998C8.53827 8.99998 9.05174 8.89365 9.52051 8.70084C9.82985 8.57361 10.1852 8.54697 10.4655 8.7295C11.8295 9.6178 12.6781 11.2181 12.5028 12.9712C12.5009 12.9902 12.4956 13.0087 12.4845 13.0244C12.3765 13.1775 11.6275 14 7.99996 14C4.37239 14 3.62341 13.1775 3.51539 13.0244C3.50436 13.0087 3.49899 12.9902 3.49708 12.9712Z" fill="#7D7F82"/>
</svg>
