<svg width="16" height="16" viewBox="0 0 16 16" fill="none" xmlns="http://www.w3.org/2000/svg">
<path fill-rule="evenodd" clip-rule="evenodd" d="M7.52973 1.5298C7.78943 1.2701 8.21049 1.2701 8.47019 1.5298L11.4702 4.5298C11.7299 4.78949 11.7299 5.21055 11.4702 5.47025C11.2105 5.72995 10.7894 5.72995 10.5297 5.47025L8.66496 3.60547V12.3946L10.5297 10.5298C10.7894 10.2701 11.2105 10.2701 11.4702 10.5298C11.7299 10.7895 11.7299 11.2105 11.4702 11.4702L8.47019 14.4702C8.21049 14.7299 7.78943 14.7299 7.52973 14.4702L4.52973 11.4702C4.27004 11.2105 4.27004 10.7895 4.52973 10.5298C4.78943 10.2701 5.21049 10.2701 5.47019 10.5298L7.33496 12.3946V3.60547L5.47019 5.47025C5.21049 5.72995 4.78943 5.72995 4.52973 5.47025C4.27004 5.21055 4.27004 4.78949 4.52973 4.5298L7.52973 1.5298Z" fill="#7D7F82"/>
</svg>
