<svg width="16" height="16" viewBox="0 0 16 16" fill="none" xmlns="http://www.w3.org/2000/svg">
<path fill-rule="evenodd" clip-rule="evenodd" d="M3.99996 13.665C3.08041 13.665 2.33496 12.9195 2.33496 12V11C2.33496 10.0804 3.08041 9.33498 3.99996 9.33498H12C12.9195 9.33498 13.665 10.0804 13.665 11V12C13.665 12.9195 12.9195 13.665 12 13.665H3.99996ZM3.66496 12C3.66496 12.185 3.81495 12.335 3.99996 12.335H12C12.185 12.335 12.335 12.185 12.335 12V11C12.335 10.815 12.185 10.665 12 10.665H3.99996C3.81495 10.665 3.66496 10.815 3.66496 11V12ZM3.99996 6.66498C3.08041 6.66498 2.33496 5.91953 2.33496 4.99998V3.99998C2.33496 3.08042 3.08041 2.33498 3.99996 2.33498H12C12.9195 2.33498 13.665 3.08042 13.665 3.99998V4.99998C13.665 5.91953 12.9195 6.66498 12 6.66498L3.99996 6.66498ZM3.66496 4.99998C3.66496 5.18499 3.81495 5.33498 3.99996 5.33498H12C12.185 5.33498 12.335 5.18499 12.335 4.99998V3.99998C12.335 3.81496 12.185 3.66498 12 3.66498H3.99996C3.81495 3.66498 3.66496 3.81496 3.66496 3.99998L3.66496 4.99998Z" fill="#7D7F82"/>
</svg>
