<svg width="16" height="16" viewBox="0 0 16 16" fill="none" xmlns="http://www.w3.org/2000/svg">
<path fill-rule="evenodd" clip-rule="evenodd" d="M13 1.83502C13.3672 1.83502 13.665 2.13275 13.665 2.50002L13.665 4.00002C13.665 4.91958 12.9195 5.66502 12 5.66502L3.99996 5.66502C3.08041 5.66502 2.33496 4.91958 2.33496 4.00002L2.33496 2.50002C2.33496 2.13275 2.63269 1.83502 2.99996 1.83502C3.36723 1.83502 3.66496 2.13275 3.66496 2.50002L3.66496 4.00002C3.66496 4.18504 3.81495 4.33502 3.99996 4.33502L12 4.33502C12.185 4.33502 12.335 4.18504 12.335 4.00002L12.335 2.50002C12.335 2.13275 12.6327 1.83502 13 1.83502ZM4.33496 8.00002C4.33496 7.63275 4.63269 7.33502 4.99996 7.33502L11.1666 7.33502C11.5339 7.33502 11.8316 7.63275 11.8316 8.00002C11.8316 8.36729 11.5339 8.66502 11.1666 8.66502L4.99996 8.66502C4.63269 8.66502 4.33496 8.36729 4.33496 8.00002ZM3.99996 10.335L12 10.335C12.9195 10.335 13.665 11.0805 13.665 12L13.665 13.5C13.665 13.8673 13.3672 14.165 13 14.165C12.6327 14.165 12.335 13.8673 12.335 13.5L12.335 12C12.335 11.815 12.185 11.665 12 11.665L3.99996 11.665C3.81495 11.665 3.66496 11.815 3.66496 12L3.66496 13.5C3.66496 13.8673 3.36723 14.165 2.99996 14.165C2.63269 14.165 2.33496 13.8673 2.33496 13.5L2.33496 12C2.33496 11.0805 3.08041 10.335 3.99996 10.335Z" fill="#7D7F82"/>
</svg>
