<svg width="16" height="16" viewBox="0 0 16 16" fill="none" xmlns="http://www.w3.org/2000/svg">
<path fill-rule="evenodd" clip-rule="evenodd" d="M2.33496 3.00002C2.33496 2.63275 2.63269 2.33502 2.99996 2.33502H13C13.3672 2.33502 13.665 2.63275 13.665 3.00002C13.665 3.36729 13.3672 3.66502 13 3.66502H2.99996C2.63269 3.66502 2.33496 3.36729 2.33496 3.00002ZM4.33496 5.00002C4.33496 4.63275 4.63269 4.33502 4.99996 4.33502H11C11.3672 4.33502 11.665 4.63275 11.665 5.00002V11C11.665 11.3673 11.3672 11.665 11 11.665H4.99996C4.63269 11.665 4.33496 11.3673 4.33496 11V5.00002ZM5.66496 5.66502V10.335H10.335V5.66502H5.66496ZM2.33496 13C2.33496 12.6328 2.63269 12.335 2.99996 12.335H13C13.3672 12.335 13.665 12.6328 13.665 13C13.665 13.3673 13.3672 13.665 13 13.665H2.99996C2.63269 13.665 2.33496 13.3673 2.33496 13Z" fill="#7D7F82"/>
</svg>
