<svg width="16" height="16" viewBox="0 0 16 16" fill="none" xmlns="http://www.w3.org/2000/svg">
<path fill-rule="evenodd" clip-rule="evenodd" d="M6.1246 1.08496C4.49665 1.08496 3.18408 1.40648 2.29529 2.29527C1.49823 3.09234 1.15739 4.23021 1.09553 5.63074C1.08859 5.66926 1.08496 5.70893 1.08496 5.74945C1.08496 5.77388 1.08628 5.798 1.08884 5.82174C1.08625 5.92143 1.08498 6.02238 1.08498 6.12458V9.87425C1.08498 11.5022 1.4065 12.8148 2.29529 13.7036C3.18408 14.5923 4.49665 14.9139 6.1246 14.9139H9.87427C11.5022 14.9139 12.8148 14.5923 13.7036 13.7036C14.5924 12.8148 14.9139 11.5022 14.9139 9.87425V6.12458C14.9139 6.02227 14.9126 5.9212 14.91 5.82141C14.9126 5.79777 14.9139 5.77377 14.9139 5.74945C14.9139 5.70904 14.9103 5.66948 14.9034 5.63106C14.8415 4.23039 14.5007 3.0924 13.7036 2.29527C12.8148 1.40648 11.5022 1.08496 9.87427 1.08496H6.1246ZM13.5247 5.08445C13.4128 4.19966 13.1468 3.6194 12.7631 3.23572C12.2458 2.71839 11.371 2.41496 9.87427 2.41496H6.1246C4.62782 2.41496 3.75308 2.71839 3.23574 3.23572C2.85207 3.6194 2.58605 4.19966 2.4742 5.08445H13.5247ZM2.41498 6.41445V9.87425C2.41498 11.371 2.71841 12.2458 3.23574 12.7631C3.75308 13.2804 4.62782 13.5839 6.1246 13.5839H9.87427C11.371 13.5839 12.2458 13.2804 12.7631 12.7631C13.2805 12.2458 13.5839 11.371 13.5839 9.87425V6.41445H2.41498Z" fill="#7D7F82"/>
</svg>
