<svg width="24" height="24" viewBox="0 0 24 24" fill="none" xmlns="http://www.w3.org/2000/svg">
<g clip-path="url(#clip0_144_11843)">
<path d="M8.0001 5H10.0001V7H9.1001L12.0001 9.9V9H20.0001V17.9L22.0001 19.9V7H12.0001V3H5.1001L8.0001 5.9V5ZM16.0001 11H18.0001V13H16.0001V11ZM1.3001 1.8L0.100098 3.1L2.0001 5V21H18.0001L21.0001 24L22.3001 22.7L1.3001 1.8ZM6.0001 19H4.0001V17H6.0001V19ZM6.0001 15H4.0001V13H6.0001V15ZM6.0001 11H4.0001V9H6.0001V11ZM10.0001 19H8.0001V17H10.0001V19ZM10.0001 15H8.0001V13H10.0001V15ZM12.0001 19V17H14.0001L16.0001 19H12.0001Z" fill="#7D7F82"/>
</g>
<defs>
<clipPath id="clip0_144_11843">
<rect width="24" height="24" fill="white"/>
</clipPath>
</defs>
</svg>
