<svg width="24" height="24" viewBox="0 0 24 24" fill="none" xmlns="http://www.w3.org/2000/svg">
<path d="M11 2H3V4H11V2Z" fill="#7D7F82"/>
<path d="M6 11H8V7H11V5H3V7H6V11Z" fill="#7D7F82"/>
<path d="M12.4037 20.1818L20.1818 12.4037L21.596 13.8179L13.8179 21.596L12.4037 20.1818Z" fill="#7D7F82"/>
<path d="M14.5 16C15.3284 16 16 15.3284 16 14.5C16 13.6716 15.3284 13 14.5 13C13.6716 13 13 13.6716 13 14.5C13 15.3284 13.6716 16 14.5 16Z" fill="#7D7F82"/>
<path d="M21 19.5C21 20.3284 20.3284 21 19.5 21C18.6716 21 18 20.3284 18 19.5C18 18.6716 18.6716 18 19.5 18C20.3284 18 21 18.6716 21 19.5Z" fill="#7D7F82"/>
<path d="M15.5 11C16.88 11 18 9.88 18 8.5V4H21V2H17V6.51C16.58 6.19 16.07 6 15.5 6C14.12 6 13 7.12 13 8.5C13 9.88 14.12 11 15.5 11Z" fill="#7D7F82"/>
<path fill-rule="evenodd" clip-rule="evenodd" d="M8.32999 17.37L9.73998 15.96L11.15 17.39L9.73998 18.8L11.15 20.21L9.73998 21.62L8.32999 20.21L7.26999 21.27C6.77998 21.76 6.13999 22 5.49999 22C4.85999 22 4.21999 21.76 3.71999 21.26C2.73999 20.28 2.73999 18.7 3.71999 17.72L4.77999 16.66L4.42999 16.31C3.44999 15.33 3.44999 13.75 4.42999 12.77C4.91999 12.28 5.55999 12.04 6.19999 12.04C6.83998 12.04 7.47999 12.28 7.96999 12.77C8.94999 13.75 8.94999 15.33 7.96999 16.31L7.61999 16.66L8.32999 17.37ZM6.19999 14.05C6.10998 14.05 5.96999 14.08 5.84999 14.2C5.65999 14.39 5.65999 14.71 5.84999 14.9L6.19999 15.26L6.54999 14.91C6.73999 14.71 6.73999 14.4 6.54999 14.2C6.42999 14.08 6.28998 14.05 6.19999 14.05ZM5.49999 20C5.58998 20 5.72999 19.97 5.84999 19.85L6.91999 18.79L6.20999 18.08L5.14999 19.14C4.95999 19.34 4.95999 19.66 5.14999 19.85C5.26999 19.97 5.40999 20 5.49999 20Z" fill="#7D7F82"/>
</svg>
