<svg width="24" height="24" viewBox="0 0 24 24" fill="none" xmlns="http://www.w3.org/2000/svg">
<path d="M8 10V8H5.09C6.47 5.61 9.05 4 12 4C15.72 4 18.85 6.56 19.74 10H21.8C20.87 5.44 16.84 2 12 2C8.73 2 5.82 3.58 4 6.01V4H2V10H8Z" fill="#7D7F82"/>
<path d="M9 12C9 13.66 10.34 15 12 15C13.66 15 15 13.66 15 12C15 10.34 13.66 9 12 9C10.34 9 9 10.34 9 12Z" fill="#7D7F82"/>
<path d="M18.91 16H16V14H22V20H20V17.99C18.18 20.42 15.27 22 12 22C7.15995 22 3.12995 18.56 2.19995 14H4.25995C5.14995 17.44 8.27995 20 12 20C14.95 20 17.53 18.39 18.91 16Z" fill="#7D7F82"/>
</svg>
