<svg width="24" height="24" viewBox="0 0 24 24" fill="none" xmlns="http://www.w3.org/2000/svg">
<path d="M9.6 13.5H10C10.2 13.5 10.4 13.4 10.5 13.3C10.6 13.2 10.7 13.1 10.7 12.9V12.7C10.7 12.7 10.6 12.6 10.6 12.5C10.6 12.4 10.5 12.4 10.4 12.4H9.9C9.9 12.4 9.8 12.5 9.7 12.5C9.6 12.5 9.6 12.6 9.6 12.7V12.9H8.6C8.6 12.7 8.6 12.6 8.7 12.4C8.8 12.2 8.9 12.1 9 12C9.1 11.9 9.3 11.8 9.4 11.8C9.5 11.8 9.8 11.7 9.9 11.7C10.1 11.7 10.3 11.7 10.5 11.8C10.7 11.9 10.8 11.9 11 12C11.2 12.1 11.2 12.2 11.3 12.4C11.4 12.6 11.4 12.7 11.4 12.9V13.2C11.4 13.2 11.3 13.4 11.3 13.5C11.3 13.6 11.2 13.7 11.1 13.7C11 13.7 10.9 13.8 10.8 13.9C11 14 11.2 14.1 11.3 14.3C11.4 14.5 11.5 14.7 11.5 14.9C11.5 15.1 11.5 15.3 11.4 15.4C11.3 15.5 11.2 15.7 11.1 15.8C11 15.9 10.8 16 10.6 16C10.4 16 10.2 16.1 10 16.1C9.8 16.1 9.6 16.1 9.5 16C9.4 15.9 9.2 15.9 9 15.8C8.8 15.7 8.8 15.6 8.7 15.4C8.6 15.2 8.6 15 8.6 14.8H9.4V15C9.4 15 9.5 15.1 9.5 15.2C9.5 15.3 9.6 15.3 9.7 15.3H10.2C10.2 15.3 10.3 15.2 10.4 15.2C10.5 15.2 10.5 15.1 10.5 15V14.5C10.5 14.5 10.4 14.4 10.4 14.3C10.4 14.2 10.3 14.2 10.2 14.2H9.6V13.5ZM15.3 14.2C15.3 14.5 15.3 14.8 15.2 15L14.9 15.6C14.9 15.6 14.6 15.9 14.4 15.9C14.2 15.9 14 16 13.8 16C13.6 16 13.4 16 13.2 15.9C13 15.8 12.9 15.7 12.7 15.6C12.5 15.5 12.5 15.3 12.4 15C12.3 14.7 12.3 14.5 12.3 14.2V13.5C12.3 13.2 12.3 12.9 12.4 12.7L12.7 12.1C12.7 12.1 13 11.8 13.2 11.8C13.4 11.8 13.6 11.7 13.8 11.7C14 11.7 14.2 11.7 14.4 11.8C14.6 11.9 14.7 12 14.9 12.1C15.1 12.2 15.1 12.4 15.2 12.7C15.3 13 15.3 13.2 15.3 13.5V14.2ZM14.4 13.4V12.9C14.4 12.9 14.3 12.7 14.3 12.6C14.3 12.5 14.2 12.5 14.1 12.4C14 12.3 13.9 12.3 13.8 12.3C13.7 12.3 13.6 12.3 13.5 12.4L13.3 12.6C13.3 12.6 13.2 12.8 13.2 12.9V14.9C13.2 14.9 13.3 15.1 13.3 15.2C13.3 15.3 13.4 15.3 13.5 15.4C13.6 15.5 13.7 15.5 13.8 15.5C13.9 15.5 14 15.5 14.1 15.4L14.3 15.2C14.3 15.2 14.4 15 14.4 14.9V13.4ZM4 13C4 17.4 7.6 21 12 21C16.4 21 20 17.4 20 13H18C18 16.3 15.3 19 12 19C8.7 19 6 16.3 6 13C6 9.7 8.7 7 12 7V11L17 6L12 1V5C7.6 5 4 8.6 4 13Z" fill="#7D7F82"/>
</svg>
