<svg width="24" height="24" viewBox="0 0 24 24" fill="none" xmlns="http://www.w3.org/2000/svg">
<path d="M4 13C4 17.4 7.6 21 12 21C16.4 21 20 17.4 20 13H18C18 16.3 15.3 19 12 19C8.7 19 6 16.3 6 13C6 9.7 8.7 7 12 7V11L17 6L12 1V5C7.6 5 4 8.6 4 13ZM10.7 13.9L10.9 11.7H13.3V12.4H11.6L11.5 13.3C11.5 13.3 11.6 13.3 11.6 13.2C11.6 13.1 11.7 13.2 11.7 13.1C11.7 13 11.8 13.1 11.9 13.1H12.1C12.3 13.1 12.5 13.1 12.6 13.2C12.7 13.3 12.9 13.4 13 13.5C13.1 13.6 13.2 13.8 13.3 14C13.4 14.2 13.4 14.4 13.4 14.6C13.4 14.8 13.4 15 13.3 15.1C13.2 15.2 13.2 15.4 13 15.6C12.8 15.8 12.7 15.8 12.5 15.9C12.3 16 12.1 16 11.9 16C11.7 16 11.5 16 11.4 15.9C11.3 15.8 11.1 15.8 10.9 15.7C10.7 15.6 10.7 15.5 10.6 15.3C10.5 15.1 10.5 15 10.5 14.8H11.3C11.3 15 11.4 15.1 11.5 15.2C11.6 15.3 11.7 15.3 11.9 15.3C12 15.3 12.1 15.3 12.2 15.2L12.4 15C12.4 15 12.5 14.8 12.5 14.7V14.1L12.4 13.9L12.2 13.7C12.2 13.7 12 13.6 11.9 13.6H11.7C11.7 13.6 11.6 13.6 11.5 13.7C11.4 13.8 11.4 13.7 11.4 13.8C11.4 13.9 11.3 13.9 11.3 13.9H10.7Z" fill="#7D7F82"/>
</svg>
