<svg width="24" height="24" viewBox="0 0 24 24" fill="none" xmlns="http://www.w3.org/2000/svg">
<path d="M8 4V5.45L10 7.45V4H14V8H10.55L12.55 10H14V11.45L16 13.45V10H20V14H16.55L18.55 16H20V17.45L22 19.45V4C22 2.9 21.1 2 20 2H4.55L6.55 4H8ZM16 4H20V8H16V4ZM1.27 1.27L0 2.55L2 4.55V20C2 21.1 2.9 22 4 22H19.46L21.46 24L22.73 22.73L1.27 1.27ZM10 12.55L11.45 14H10V12.55ZM4 6.55L5.45 8H4V6.55ZM8 20H4V16H8V20ZM8 14H4V10H7.45L8 10.55V14ZM14 20H10V16H13.45L14 16.54V20ZM16 20V18.54L17.46 20H16Z" fill="#7D7F82"/>
</svg>
