<svg width="24" height="24" viewBox="0 0 24 24" fill="none" xmlns="http://www.w3.org/2000/svg">
<path fill-rule="evenodd" clip-rule="evenodd" d="M10.33 11.28C10.56 11.54 10.84 11.78 11.15 12H22V20C22 21.1 21.1 22 20 22H4C2.9 22 2 21.1 2 20V12H5V11.25C5 10.01 6.01 9 7.25 9H7.28C7.62 9 7.95 9.09 8.24 9.23C8.5 9.35 8.74 9.52 8.93 9.73L10.33 11.28ZM5 20H7V14H5V20ZM9 20H11V14H9V20ZM13 14V20H15V14H13ZM17 14V20H19V14H17Z" fill="#7D7F82"/>
<path d="M18.58 5.79L18.65 5.86C19.68 6.86 20.16 8.21 19.95 9.57L19.89 10H17.98L18.09 9.41C18.24 8.62 17.99 7.83 17.42 7.21L17.35 7.15C16.32 6.14 15.85 4.79 16.05 3.43L16.11 3H18L17.91 3.59C17.76 4.38 18.01 5.17 18.58 5.79Z" fill="#7D7F82"/>
<path d="M14.58 5.79L14.65 5.86C15.68 6.86 16.16 8.21 15.95 9.57L15.89 10H13.98L14.09 9.41C14.24 8.62 13.99 7.83 13.42 7.21L13.35 7.15C12.32 6.14 11.85 4.79 12.05 3.43L12.11 3H14L13.91 3.59C13.76 4.38 14.01 5.17 14.58 5.79Z" fill="#7D7F82"/>
<path d="M9 6C9 7.10457 8.10457 8 7 8C5.89543 8 5 7.10457 5 6C5 4.89543 5.89543 4 7 4C8.10457 4 9 4.89543 9 6Z" fill="#7D7F82"/>
</svg>
