<svg width="24" height="24" viewBox="0 0 24 24" fill="none" xmlns="http://www.w3.org/2000/svg">
<path d="M16 3.33C18.58 3.33 20.67 5.42 20.67 8H22C22 4.69 19.31 2 16 2V3.33Z" fill="#7D7F82"/>
<path d="M16 6C17.11 6 18 6.89 18 8H19.33C19.33 6.16 17.84 4.67 16 4.67V6Z" fill="#7D7F82"/>
<path d="M12 17.2C13.7674 17.2 15.2 15.7673 15.2 14C15.2 12.2327 13.7674 10.8 12 10.8C10.2327 10.8 8.80005 12.2327 8.80005 14C8.80005 15.7673 10.2327 17.2 12 17.2Z" fill="#7D7F82"/>
<path fill-rule="evenodd" clip-rule="evenodd" d="M15 7C16.11 7 17 7.89 17 9H22V20C22 21.1 21.1 22 20 22H4C2.9 22 2 21.1 2 20V8C2 6.9 2.9 6 4 6H7.17L9 4H15V7ZM7 14C7 16.76 9.24 19 12 19C14.76 19 17 16.76 17 14C17 11.24 14.76 9 12 9C9.24 9 7 11.24 7 14Z" fill="#7D7F82"/>
</svg>
