<svg width="24" height="24" viewBox="0 0 24 24" fill="none" xmlns="http://www.w3.org/2000/svg">
<path d="M7 8H5V16H7V8Z" fill="#7D7F82"/>
<path fill-rule="evenodd" clip-rule="evenodd" d="M9 8H12C12.55 8 13 8.45 13 9V15C13 15.55 12.55 16 12 16H9C8.45 16 8 15.55 8 15V9C8 8.45 8.45 8 9 8ZM10 14H11V10H10V14Z" fill="#7D7F82"/>
<path fill-rule="evenodd" clip-rule="evenodd" d="M15 8H18C18.55 8 19 8.45 19 9V15C19 15.55 18.55 16 18 16H15C14.45 16 14 15.55 14 15V9C14 8.45 14.45 8 15 8ZM16 14H17V10H16V14Z" fill="#7D7F82"/>
<path fill-rule="evenodd" clip-rule="evenodd" d="M2 20V4H22V20H2ZM4 6V18H20V6H4Z" fill="#7D7F82"/>
</svg>
