<svg width="24" height="24" viewBox="0 0 24 24" fill="none" xmlns="http://www.w3.org/2000/svg">
<path d="M11.63 2.01001C10.6 3.60001 8.76998 7.57001 11.1 12.08C13.38 16.52 18 17.72 20.36 17.49C18.57 20.21 15.49 22.01 11.99 22.01C10.91 22.01 9.85998 21.83 8.87998 21.51C10.13 20.83 11 19.52 11 18C11 16.17 9.76998 14.63 8.09998 14.15C7.17998 12.83 5.65998 12 3.99998 12C3.28998 12 2.61998 12.15 1.99998 12.42C1.99998 12.35 1.99498 12.28 1.98998 12.21C1.98498 12.14 1.97998 12.07 1.97998 12C1.97998 6.59001 6.26998 2.20001 11.63 2.01001Z" fill="#7D7F82"/>
<path d="M6.82 16H7C8.1 16 9 16.9 9 18C9 19.1 8.1 20 7 20H4C2.34 20 1 18.66 1 17C1 15.34 2.34 14 4 14C5.3 14 6.4 14.84 6.82 16Z" fill="#7D7F82"/>
</svg>
