<svg width="24" height="24" viewBox="0 0 24 24" fill="none" xmlns="http://www.w3.org/2000/svg">
<path d="M10.41 7H9.41001C9.72182 5.74358 9.26827 5.27776 9.02122 5.02404C8.99889 5.0011 8.97825 4.9799 8.96001 4.96C8.10001 4.05 7.86001 3.11 8.07001 2H9.06001C8.84546 3.23853 9.08742 3.526 9.48908 4.00324L9.52001 4.04C10.6263 5.34386 10.5618 5.83789 10.4155 6.9581L10.41 7Z" fill="#7D7F82"/>
<path fill-rule="evenodd" clip-rule="evenodd" d="M20 19C20 20.66 18.66 22 17 22C15.7 22 14.6 21.16 14.18 19.99H7.84L6.84 21.54C6.54 22 5.92 22.13 5.46 21.83C5 21.53 4.87 20.91 5.17 20.45L9.12 14.37C6.69 13.27 5 10.84 5 8H19C19 10.84 17.31 13.27 14.89 14.37L15.49 15.3C14.85 15.56 14.31 15.98 13.89 16.51L12.87 14.94C12.58 14.98 12.29 15 12 15C11.71 15 11.42 14.98 11.13 14.94L9.14 18H14.18C14.6 16.84 15.7 16 17 16C18.66 16 20 17.34 20 19ZM18 19C18 18.45 17.55 18 17 18C16.45 18 16 18.45 16 19C16 19.55 16.45 20 17 20C17.55 20 18 19.55 18 19Z" fill="#7D7F82"/>
<path d="M11.89 7H12.89L12.8955 6.9581C13.0418 5.83789 13.1063 5.34386 12 4.04L11.9765 4.012C11.5704 3.52912 11.3241 3.23629 11.54 2H10.55C10.34 3.11 10.58 4.05 11.44 4.96C11.457 4.97778 11.4759 4.9966 11.4962 5.01677C11.7494 5.26887 12.2141 5.73151 11.89 7Z" fill="#7D7F82"/>
<path d="M15.41 7H14.41C14.7218 5.74358 14.2683 5.27776 14.0212 5.02404C13.9989 5.0011 13.9782 4.9799 13.96 4.96C13.1 4.05 12.86 3.11 13.07 2H14.06C13.8455 3.23853 14.0874 3.526 14.4891 4.00324C14.4993 4.01536 14.5096 4.02761 14.52 4.04C15.6263 5.34386 15.5618 5.83789 15.4155 6.9581C15.4137 6.97197 15.4118 6.98593 15.41 7Z" fill="#7D7F82"/>
</svg>
