<svg width="24" height="24" viewBox="0 0 24 24" fill="none" xmlns="http://www.w3.org/2000/svg">
<path d="M19.82 20.36C20.27 20.63 20.89 21 22 21V19C21.44 19 21.22 18.87 20.85 18.64C20.4 18.37 19.78 18 18.67 18C17.56 18 16.94 18.37 16.49 18.64C16.12 18.87 15.89 19 15.34 19C14.7954 19 14.5645 18.8627 14.2008 18.6464L14.19 18.64C13.74 18.37 13.12 18 12.01 18C10.9101 18 10.2914 18.3633 9.83265 18.6326L9.82 18.64C9.45 18.87 9.23 19 8.67 19C8.11 19 7.89 18.87 7.52 18.64C7.07 18.37 6.45 18 5.34 18C4.24014 18 3.62137 18.3633 3.16265 18.6326L3.15 18.64C2.78 18.87 2.56 19 2 19V21C3.09986 21 3.71863 20.6367 4.17735 20.3674L4.19 20.36C4.56 20.13 4.79 20 5.34 20C5.89 20 6.12 20.13 6.49 20.36C6.94 20.63 7.56 21 8.67 21C9.76986 21 10.3886 20.6367 10.8473 20.3674L10.86 20.36C11.23 20.13 11.45 20 12.01 20C12.5546 20 12.7855 20.1373 13.1492 20.3536L13.16 20.36C13.61 20.63 14.23 21 15.34 21C16.4305 21 17.0384 20.6429 17.4956 20.3743L17.52 20.36C17.89 20.13 18.11 20 18.67 20C19.2146 20 19.4455 20.1373 19.8092 20.3536L19.82 20.36Z" fill="#7D7F82"/>
<path d="M22 16.5C21.9933 16.5 21.9866 16.5 21.98 16.5L22 16.5Z" fill="#7D7F82"/>
<path d="M19.82 15.86C20.2673 16.1284 20.8825 16.4956 21.98 16.5V14.5C21.4354 14.5 21.2045 14.3627 20.8408 14.1464L20.83 14.14C20.38 13.87 19.76 13.5 18.65 13.5C17.54 13.5 16.92 13.87 16.47 14.14C16.1 14.37 15.87 14.5 15.32 14.5C14.7754 14.5 14.5445 14.3627 14.1808 14.1464L14.17 14.14C13.72 13.87 13.1 13.5 11.99 13.5C10.88 13.5 10.26 13.87 9.81 14.14C9.44 14.37 9.22 14.5 8.66 14.5C8.11537 14.5 7.88452 14.3627 7.52079 14.1464L7.51 14.14C7.06 13.87 6.44 13.5 5.33 13.5C4.22 13.5 3.6 13.87 3.15 14.14C2.78 14.37 2.56 14.5 2 14.5V16.5C3.08709 16.5 3.70419 16.1451 4.1707 15.8769C4.18053 15.8712 4.1903 15.8656 4.2 15.86C4.57 15.63 4.8 15.5 5.35 15.5C5.89463 15.5 6.12548 15.6373 6.48921 15.8536L6.5 15.86C6.95 16.13 7.57 16.5 8.68 16.5C9.79 16.5 10.41 16.13 10.86 15.86C11.23 15.63 11.45 15.5 12.01 15.5C12.5546 15.5 12.7855 15.6373 13.1492 15.8536L13.16 15.86C13.61 16.13 14.23 16.5 15.34 16.5C16.45 16.5 17.07 16.13 17.52 15.86C17.89 15.63 18.11 15.5 18.67 15.5C19.2146 15.5 19.4455 15.6373 19.8092 15.8536L19.82 15.86Z" fill="#7D7F82"/>
<path d="M9.82 11.64C9.45 11.87 9.23 12 8.67 12C8.11 12 7.89 11.87 7.52 11.64C7.4994 11.6282 7.47842 11.6162 7.45703 11.6039C7.26038 11.4909 7.02959 11.3582 6.75 11.25L10 8.00001L9 7.00001C7.89 5.89001 6.82 5.49001 5 5.50001V3.00001C7.5 2.99001 8.93 3.45001 10.48 5.00001L16.9 11.41C16.75 11.49 16.61 11.57 16.49 11.64C16.12 11.87 15.89 12 15.34 12C14.7954 12 14.5645 11.8627 14.2008 11.6464L14.19 11.64C13.74 11.37 13.12 11 12.01 11C10.9101 11 10.2914 11.3633 9.83265 11.6326L9.82 11.64Z" fill="#7D7F82"/>
<path d="M19 5.5C19 6.88071 17.8807 8 16.5 8C15.1193 8 14 6.88071 14 5.5C14 4.11929 15.1193 3 16.5 3C17.8807 3 19 4.11929 19 5.5Z" fill="#7D7F82"/>
</svg>
