<svg width="24" height="24" viewBox="0 0 24 24" fill="none" xmlns="http://www.w3.org/2000/svg">
<path d="M12 5V1L7 6L12 11V7C15.3 7 18 9.7 18 13C18 16.3 15.3 19 12 19C8.7 19 6 16.3 6 13H4C4 17.4 7.6 21 12 21C16.4 21 20 17.4 20 13C20 8.6 16.4 5 12 5ZM10.7 13.9L10.9 11.7H13.3V12.4H11.6L11.5 13.3C11.5 13.3 11.6 13.3 11.6 13.2C11.6 13.1 11.7 13.2 11.7 13.1C11.7 13 11.8 13.1 11.9 13.1H12.1C12.3 13.1 12.5 13.1 12.6 13.2C12.7 13.3 12.9 13.4 13 13.5C13.1 13.6 13.2 13.8 13.3 14C13.4 14.2 13.4 14.4 13.4 14.6C13.4 14.8 13.4 15 13.3 15.1C13.2 15.2 13.2 15.4 13 15.6C12.8 15.8 12.7 15.8 12.6 15.9C12.5 16 12.2 16 12 16C11.8 16 11.6 16 11.5 15.9C11.4 15.8 11.2 15.8 11 15.7C10.8 15.6 10.8 15.5 10.7 15.3C10.6 15.1 10.6 15 10.6 14.8H11.4C11.4 15 11.5 15.1 11.6 15.2C11.7 15.3 11.8 15.3 12 15.3C12.1 15.3 12.2 15.3 12.3 15.2L12.5 15C12.5 15 12.6 14.8 12.6 14.7V14.1L12.5 13.9L12.3 13.7C12.3 13.7 12.1 13.6 12 13.6H11.8C11.8 13.6 11.7 13.6 11.6 13.7C11.5 13.8 11.5 13.7 11.5 13.8C11.5 13.9 11.4 13.9 11.4 13.9H10.7Z" fill="#7D7F82"/>
</svg>
