<svg width="24" height="24" viewBox="0 0 24 24" fill="none" xmlns="http://www.w3.org/2000/svg">
<path d="M14.27 5.99999C13.72 6.94999 14.05 8.17999 15 8.72999C15.95 9.27999 17.18 8.94999 17.73 7.99999C18.28 7.04999 17.95 5.81999 17 5.26999C16.05 4.71999 14.82 5.04999 14.27 5.99999Z" fill="#7D7F82"/>
<path d="M15.84 10.41C15.84 10.41 14.21 9.46999 13.24 8.90999C10.86 7.52999 10.04 4.46999 11.42 2.08999L9.69001 1.08999C8.10001 3.82999 8.60001 7.20999 10.66 9.39999L5.51001 18.32L7.24001 19.32L8.74001 16.72L10.47 17.72L7.47001 22.92L9.20001 23.92L15.49 13.03C16.63 14.58 16.82 16.72 15.8 18.49L17.53 19.49C19.13 16.74 18.81 12.91 15.84 10.41Z" fill="#7D7F82"/>
<path d="M12.75 3.79999C13.47 4.20999 14.38 3.96999 14.8 3.24999C15.21 2.52999 14.97 1.61999 14.25 1.19999C13.53 0.78999 12.62 1.02999 12.2 1.74999C11.79 2.46999 12.03 3.38999 12.75 3.79999Z" fill="#7D7F82"/>
</svg>
