<svg width="24" height="24" viewBox="0 0 24 24" fill="none" xmlns="http://www.w3.org/2000/svg">
<path d="M6 4.00999C3.58 5.83999 2 8.72999 2 12C2 13.46 2.32 14.85 2.89 16.11L6 14.31V4.00999Z" fill="#7D7F82"/>
<path d="M11 11.42V2.04999C9.94 2.15999 8.93 2.42999 8 2.83999V13.16L11 11.42Z" fill="#7D7F82"/>
<path d="M12 13.15L3.89 17.83C4.5 18.67 5.23 19.42 6.07 20.03L15 14.89L12 13.15Z" fill="#7D7F82"/>
<path d="M13 7.95999V11.42L21.11 16.1C21.53 15.17 21.81 14.17 21.93 13.12L13 7.95999Z" fill="#7D7F82"/>
<path d="M8.07 21.2C9.28 21.71 10.6 22 12 22C15.34 22 18.29 20.35 20.11 17.84L17 16.04L8.07 21.2Z" fill="#7D7F82"/>
<path d="M21.92 10.81C21.37 6.17999 17.66 2.50999 13 2.04999V5.64999L21.92 10.81Z" fill="#7D7F82"/>
</svg>
