<svg width="24" height="24" viewBox="0 0 24 24" fill="none" xmlns="http://www.w3.org/2000/svg">
<path d="M20.3101 3.68998C20.6601 4.03998 21.0601 5.95998 20.9801 8.37998L15.6201 3.01998C18.0301 2.92998 19.9601 3.33998 20.3101 3.68998Z" fill="#7D7F82"/>
<path fill-rule="evenodd" clip-rule="evenodd" d="M13.08 3.28003C10.75 3.70003 8.29003 4.62003 6.46003 6.46003C4.63003 8.30003 3.70003 10.75 3.28003 13.08L10.91 20.71C13.25 20.3 15.7 19.37 17.53 17.53C19.36 15.69 20.29 13.24 20.71 10.91L13.08 3.28003ZM9.90003 15.5L8.50003 14.1L14.1 8.50003L15.5 9.90003L9.90003 15.5Z" fill="#7D7F82"/>
<path d="M3.0201 15.62C2.9401 18.04 3.3401 19.96 3.6901 20.31C4.0401 20.66 5.9701 21.07 8.3801 20.98L3.0201 15.62Z" fill="#7D7F82"/>
</svg>
