<svg width="24" height="24" viewBox="0 0 24 24" fill="none" xmlns="http://www.w3.org/2000/svg">
<path d="M22 5.5C22 7.433 20.433 9 18.5 9C16.567 9 15 7.433 15 5.5C15 3.567 16.567 2 18.5 2C20.433 2 22 3.567 22 5.5Z" fill="#7D7F82"/>
<path d="M15.0501 12.81L6.56009 4.32003C6.17009 3.93003 5.54009 3.93003 5.15009 4.32003L2.32009 7.15003C1.93009 7.54003 1.93009 8.17003 2.32009 8.56003L10.8101 17.05C11.2001 17.44 11.8301 17.44 12.2201 17.05L15.0501 14.22C15.4401 13.83 15.4401 13.2 15.0501 12.81Z" fill="#7D7F82"/>
<path d="M15.7555 16.342L14.3413 17.7562L18.5839 21.9988L19.9981 20.5846L15.7555 16.342Z" fill="#7D7F82"/>
</svg>
