<svg width="24" height="24" viewBox="0 0 24 24" fill="none" xmlns="http://www.w3.org/2000/svg">
<path d="M17.01 9H7.01V14H17.01V9Z" fill="#7D7F82"/>
<path d="M8.5 17C9.05228 17 9.5 16.5523 9.5 16C9.5 15.4477 9.05228 15 8.5 15C7.94772 15 7.5 15.4477 7.5 16C7.5 16.5523 7.94772 17 8.5 17Z" fill="#7D7F82"/>
<path d="M15.5 17C16.0523 17 16.5 16.5523 16.5 16C16.5 15.4477 16.0523 15 15.5 15C14.9477 15 14.5 15.4477 14.5 16C14.5 16.5523 14.9477 17 15.5 17Z" fill="#7D7F82"/>
<path fill-rule="evenodd" clip-rule="evenodd" d="M12 2C13.86 2 16 2.09 17.8 2.8C20.47 3.84 22 6.05 22 8.86V22H2V8.86C2 6.05 3.53 3.84 6.2 2.8C8 2.09 10.14 2 12 2ZM15.37 18.5C16.82 18.5 18 17.33 18 15.88V9C18 6.38 15.32 6 12 6C9 6 6 6.37 6 9V15.88C6 17.32 7.18 18.5 8.62 18.5L7.5 19.62V20H9.17L10.67 18.5H13.5L15 20H16.5V19.62L15.37 18.5Z" fill="#7D7F82"/>
</svg>
