<svg width="24" height="24" viewBox="0 0 24 24" fill="none" xmlns="http://www.w3.org/2000/svg">
<g clip-path="url(#clip0_144_11938)">
<path d="M0 7.71999V9.39999L3 8.39999V18H5V5.99999H4.75L0 7.71999ZM23.78 14.37C23.64 14.09 23.43 13.84 23.15 13.63C22.87 13.42 22.54 13.24 22.14 13.1C21.74 12.96 21.29 12.83 20.79 12.72C20.44 12.65 20.15 12.57 19.92 12.49C19.69 12.41 19.51 12.33 19.37 12.24C19.23 12.15 19.14 12.05 19.09 11.94C19.04 11.83 19.01 11.7 19.01 11.55C19.01 11.41 19.04 11.27 19.1 11.14C19.16 11.01 19.25 10.89 19.37 10.8C19.49 10.7 19.64 10.62 19.82 10.56C20 10.5 20.22 10.47 20.46 10.47C20.71 10.47 20.93 10.51 21.12 10.58C21.31 10.65 21.47 10.75 21.6 10.87C21.73 10.99 21.82 11.13 21.89 11.29C21.95 11.45 21.99 11.61 21.99 11.78H23.94C23.94 11.39 23.86 11.03 23.7 10.69C23.54 10.35 23.31 10.06 23.01 9.80999C22.71 9.55999 22.35 9.36999 21.92 9.21999C21.49 9.06999 21 8.99999 20.46 8.99999C19.95 8.99999 19.48 9.06999 19.07 9.20999C18.66 9.34999 18.3 9.53999 18.01 9.77999C17.72 10.02 17.5 10.3 17.34 10.62C17.18 10.94 17.11 11.27 17.11 11.63C17.11 11.99 17.19 12.32 17.34 12.59C17.49 12.87 17.7 13.11 17.98 13.32C18.25 13.53 18.58 13.7 18.96 13.85C19.34 13.99 19.77 14.11 20.23 14.21C20.62 14.29 20.94 14.38 21.18 14.47C21.42 14.56 21.61 14.66 21.75 14.76C21.88 14.86 21.97 14.98 22.02 15.1C22.07 15.22 22.09 15.35 22.09 15.49C22.09 15.81 21.96 16.06 21.69 16.26C21.42 16.46 21.03 16.55 20.52 16.55C20.3 16.55 20.09 16.53 19.88 16.47C19.67 16.42 19.48 16.34 19.32 16.23C19.15 16.12 19.02 15.97 18.91 15.79C18.8 15.61 18.74 15.38 18.73 15.12H16.84C16.84 15.48 16.92 15.83 17.08 16.17C17.24 16.51 17.47 16.82 17.78 17.1C18.09 17.37 18.47 17.59 18.93 17.76C19.39 17.93 19.91 18.01 20.51 18.01C21.04 18.01 21.52 17.95 21.95 17.82C22.38 17.69 22.75 17.51 23.06 17.28C23.37 17.05 23.6 16.77 23.77 16.45C23.94 16.13 24.02 15.78 24.02 15.39C24 14.99 23.93 14.65 23.78 14.37ZM13.82 7.04999C13.48 6.64999 13.07 6.34999 12.59 6.16999C12.12 5.98999 11.58 5.89999 11 5.89999C10.42 5.89999 9.89 5.98999 9.41 6.16999C8.93 6.34999 8.52 6.63999 8.18 7.04999C7.84 7.45999 7.58 7.97999 7.39 8.63999C7.21 9.28999 7.11 10.09 7.11 11.03V12.95C7.11 13.89 7.2 14.69 7.39 15.34C7.58 16 7.84 16.53 8.19 16.94C8.53 17.35 8.94 17.65 9.42 17.83C9.9 18.01 10.43 18.11 11.01 18.11C11.6 18.11 12.13 18.02 12.6 17.83C13.08 17.65 13.48 17.35 13.82 16.94C14.16 16.53 14.42 16 14.6 15.34C14.78 14.69 14.88 13.89 14.88 12.95V11.03C14.88 10.09 14.79 9.28999 14.6 8.63999C14.42 7.97999 14.16 7.44999 13.82 7.04999ZM12.9 13.22C12.9 13.82 12.86 14.33 12.78 14.75C12.7 15.17 12.58 15.51 12.42 15.77C12.26 16.03 12.06 16.22 11.83 16.34C11.6 16.46 11.32 16.52 11.01 16.52C10.71 16.52 10.43 16.46 10.19 16.34C9.95 16.22 9.75 16.03 9.59 15.77C9.43 15.51 9.3 15.17 9.21 14.75C9.12 14.33 9.08 13.82 9.08 13.22V10.72C9.08 10.12 9.12 9.60999 9.21 9.19999C9.3 8.78999 9.42 8.45999 9.59 8.19999C9.75 7.94999 9.95 7.76999 10.19 7.64999C10.43 7.53999 10.7 7.47999 11 7.47999C11.31 7.47999 11.58 7.53999 11.81 7.64999C12.05 7.75999 12.25 7.93999 12.41 8.19999C12.57 8.44999 12.7 8.77999 12.78 9.18999C12.86 9.59999 12.91 10.11 12.91 10.71V13.22H12.9Z" fill="#7D7F82"/>
</g>
<defs>
<clipPath id="clip0_144_11938">
<rect width="24" height="24" fill="white"/>
</clipPath>
</defs>
</svg>
