<svg width="24" height="24" viewBox="0 0 24 24" fill="none" xmlns="http://www.w3.org/2000/svg">
<path d="M23 21.74L21.54 20.28L7.20999 5.95001L3.24999 1.99001L1.98999 3.25001L4.68999 5.95001H4.04999C2.93999 5.95001 2.05999 6.84001 2.05999 7.95001L2.04999 18.95C2.04999 20.06 2.93999 20.95 4.04999 20.95H19.69L21.74 23L23 21.74ZM22 7.95001C22.05 6.84001 21.16 5.95001 20.05 6.00001H16.05V3.95001C16.05 2.84001 15.16 1.95001 14.05 2.00001H10.05C8.93999 1.95001 8.04999 2.84001 8.04999 3.95001V4.27001L22 18.27V7.95001ZM14.05 6.00001H9.99999V3.95001H14.05V6.00001Z" fill="#7D7F82"/>
</svg>
