<svg width="20" height="14" viewBox="0 0 20 14" fill="none" xmlns="http://www.w3.org/2000/svg">
<path d="M0 2C0 0.89543 0.895431 0 2 0H18C19.1046 0 20 0.895431 20 2V12C20 13.1046 19.1046 14 18 14H2C0.895431 14 0 13.1046 0 12V2Z" fill="white"/>
<path d="M13.3333 0H18C19.1046 0 20 0.895431 20 2V12C20 13.1046 19.1046 14 18 14H13.3333V0Z" fill="#1AB11F"/>
<path fill-rule="evenodd" clip-rule="evenodd" d="M0 12C0 13.1046 0.895431 14 2 14H6.66667V0H2C0.895431 0 0 0.89543 0 2V12Z" fill="#262626"/>
<path fill-rule="evenodd" clip-rule="evenodd" d="M6.66667 14H13.3333V0H6.66667V14Z" fill="#DC0D18"/>
<path fill-rule="evenodd" clip-rule="evenodd" d="M10 7.46667C10.526 7.46667 10.9524 6.83987 10.9524 6.06667C10.9524 5.29347 10.526 4.66667 10 4.66667C9.47401 4.66667 9.04762 5.29347 9.04762 6.06667C9.04762 6.83987 9.47401 7.46667 10 7.46667Z" fill="#ED868B"/>
<path d="M12.5714 6.53333C12.5714 6.16514 12.273 5.86667 11.9048 5.86667C11.5366 5.86667 11.2381 6.16514 11.2381 6.53333C11.2381 6.95141 11.0172 7.32506 10.6708 7.54214C10.3589 7.73768 10.2645 8.14911 10.46 8.46108C10.6556 8.77305 11.067 8.86744 11.3789 8.6719C12.0908 8.22573 12.5714 7.4376 12.5714 6.53333Z" fill="#ED868B"/>
<path d="M8.7619 6.53333C8.7619 6.16514 8.46343 5.86667 8.09524 5.86667C7.72705 5.86667 7.42857 6.16514 7.42857 6.53333C7.42857 7.47731 7.952 8.29418 8.7159 8.72856C9.03596 8.91056 9.44296 8.79864 9.62496 8.47857C9.80696 8.15851 9.69504 7.75151 9.37497 7.56951C9.00261 7.35777 8.7619 6.96945 8.7619 6.53333Z" fill="#ED868B"/>
</svg>
