<svg width="20" height="14" viewBox="0 0 20 14" fill="none" xmlns="http://www.w3.org/2000/svg">
<mask id="mask0_11425_87597" style="mask-type:luminance" maskUnits="userSpaceOnUse" x="0" y="0" width="20" height="14">
<rect width="20" height="14" rx="2" fill="white"/>
</mask>
<g mask="url(#mask0_11425_87597)">
<rect width="20" height="14" fill="#EE343C"/>
<path fill-rule="evenodd" clip-rule="evenodd" d="M8.9538 3.17477C8.73048 2.95592 8.385 2.92185 8.12324 3.09287C7.69077 3.37541 7.73058 4.02136 8.19447 4.24867L8.72571 4.50898C8.92273 4.60552 9.04762 4.80579 9.04762 5.02519C9.04762 5.34268 8.79025 5.60005 8.47277 5.60005H8.2498C8.14811 5.60005 8.04777 5.57679 7.95645 5.53204L6.5896 4.86228C6.3504 4.74508 6.06329 4.79136 5.87304 4.97781C5.56317 5.28148 5.64682 5.80032 6.03642 5.99123L6.50415 6.22041C6.7859 6.35847 6.81008 6.7508 6.54741 6.92241C6.24351 7.12096 6.33465 7.5883 6.69087 7.65813L7.10329 7.73896C7.48252 7.81329 7.59214 8.30316 7.28076 8.53203L6.92865 8.79083C6.6948 8.9627 6.81637 9.33338 7.10659 9.33338C7.13068 9.33338 7.15469 9.33048 7.17809 9.32475L8.09453 9.10022C8.42983 9.01807 8.68986 9.39262 8.49569 9.67806C8.32554 9.92818 8.50469 10.2667 8.80719 10.2667H9.23417C9.40735 10.2667 9.56132 10.377 9.61708 10.5409C9.74145 10.9066 10.2586 10.9066 10.3829 10.5409C10.4387 10.377 10.5927 10.2667 10.7658 10.2667H11.1928C11.4953 10.2667 11.6745 9.92818 11.5043 9.67806C11.3101 9.39262 11.5702 9.01807 11.9055 9.10022L12.8219 9.32475C12.8453 9.33048 12.8693 9.33338 12.8934 9.33338C13.1836 9.33338 13.3052 8.9627 13.0714 8.79083L12.7192 8.53203C12.4079 8.30316 12.5175 7.81329 12.8967 7.73896L13.3091 7.65813C13.6654 7.5883 13.7565 7.12096 13.4526 6.92241C13.1899 6.7508 13.2141 6.35847 13.4959 6.22041L13.9636 5.99123C14.3532 5.80032 14.4368 5.28148 14.127 4.97781C13.9367 4.79136 13.6496 4.74508 13.4104 4.86228L12.0436 5.53204C11.9522 5.57679 11.8519 5.60005 11.7502 5.60005H11.5272C11.2098 5.60005 10.9524 5.34268 10.9524 5.02519C10.9524 4.80579 11.0771 4.6056 11.2741 4.50906C11.4415 4.42705 11.6249 4.3372 11.8056 4.24865C12.2695 4.02135 12.3092 3.37541 11.8768 3.09287C11.615 2.92185 11.2695 2.95592 11.0462 3.17477L10.4666 3.74276C10.2074 3.9968 9.7926 3.9968 9.53338 3.74276L8.9538 3.17477Z" fill="#262626"/>
</g>
</svg>
