<svg width="20" height="14" viewBox="0 0 20 14" fill="none" xmlns="http://www.w3.org/2000/svg">
<rect width="20" height="14" rx="2" fill="white"/>
<mask id="mask0_11425_87654" style="mask-type:luminance" maskUnits="userSpaceOnUse" x="0" y="0" width="20" height="14">
<rect width="20" height="14" rx="2" fill="white"/>
</mask>
<g mask="url(#mask0_11425_87654)">
<rect width="20" height="14" fill="#0A17A7"/>
<path d="M-0.915074 -0.333333H0H0.47619H0.581265L0.667345 -0.273077L3.9146 2H4.66793L8.39732 -0.284251L8.90476 -0.595057V0V0.293115C8.90476 0.510658 8.79862 0.714517 8.6204 0.839269L5.57143 2.97355V3.578L8.45876 6.00336C8.80818 6.29688 8.60063 6.86667 8.14428 6.86667C8.04397 6.86667 7.94608 6.83581 7.8639 6.77828M-0.915074 -0.333333L7.8639 6.77828M-0.915074 -0.333333L-0.214397 0.255235L3 2.95533V3.55978L-0.191154 5.79359L-0.333333 5.89311V6.06667V6.53333V7.12839L0.174104 6.81758L3.90349 4.53333H4.65683L7.8639 6.77828M-0.915074 -0.333333L7.8639 6.77828" fill="#FF2E3B" stroke="white" stroke-width="0.666667"/>
<path fill-rule="evenodd" clip-rule="evenodd" d="M0 2.33333V4.2H3.33333V6.33333C3.33333 6.70152 3.63181 7 4 7H4.57143C4.93962 7 5.23809 6.70152 5.23809 6.33333V4.2H8.38095C8.74914 4.2 9.04762 3.90152 9.04762 3.53333V3C9.04762 2.63181 8.74914 2.33333 8.38095 2.33333H5.23809V0H3.33333V2.33333H0Z" fill="url(#paint0_linear_11425_87654)"/>
<path fill-rule="evenodd" clip-rule="evenodd" d="M0 2.8H3.80952V2.33333V0H4.7619V2.33333V2.8H8.57143V3.73333H4.7619V4.2V6.53333H3.80952V4.2V3.73333H0V2.8Z" fill="url(#paint1_linear_11425_87654)"/>
<path fill-rule="evenodd" clip-rule="evenodd" d="M4.28569 11.4334L3.44599 11.866L3.60636 10.9497L2.92704 10.3008L3.86584 10.1671L4.28569 9.33337L4.70553 10.1671L5.64434 10.3008L4.96501 10.9497L5.12538 11.866L4.28569 11.4334Z" fill="white"/>
<path fill-rule="evenodd" clip-rule="evenodd" d="M14.2858 12.1333L13.6123 12.3266L13.8096 11.6666L13.6123 11.0066L14.2858 11.1999L14.9592 11.0066L14.7619 11.6666L14.9592 12.3266L14.2858 12.1333Z" fill="white"/>
<path fill-rule="evenodd" clip-rule="evenodd" d="M14.2858 3.2667L13.6123 3.46L13.8096 2.80003L13.6123 2.14007L14.2858 2.33337L14.9592 2.14007L14.7619 2.80003L14.9592 3.46L14.2858 3.2667Z" fill="white"/>
<path fill-rule="evenodd" clip-rule="evenodd" d="M17.1428 6.06662L16.4694 6.25992L16.6666 5.59996L16.4694 4.93999L17.1428 5.13329L17.8162 4.93999L17.619 5.59996L17.8162 6.25992L17.1428 6.06662Z" fill="white"/>
<path fill-rule="evenodd" clip-rule="evenodd" d="M11.4286 6.99998L10.7551 7.19328L10.9524 6.53331L10.7551 5.87334L11.4286 6.06664L12.102 5.87334L11.9048 6.53331L12.102 7.19328L11.4286 6.99998Z" fill="white"/>
<path fill-rule="evenodd" clip-rule="evenodd" d="M15.7142 8.16667L15.3775 8.26332L15.4761 7.93334L15.3775 7.60336L15.7142 7.70001L16.0509 7.60336L15.9523 7.93334L16.0509 8.26332L15.7142 8.16667Z" fill="white"/>
</g>
<defs>
<linearGradient id="paint0_linear_11425_87654" x1="0" y1="0" x2="0" y2="7" gradientUnits="userSpaceOnUse">
<stop stop-color="white"/>
<stop offset="1" stop-color="#F0F0F0"/>
</linearGradient>
<linearGradient id="paint1_linear_11425_87654" x1="0" y1="0" x2="0" y2="6.53333" gradientUnits="userSpaceOnUse">
<stop stop-color="#FF2E3B"/>
<stop offset="1" stop-color="#FC0D1B"/>
</linearGradient>
</defs>
</svg>
