<svg width="20" height="14" viewBox="0 0 20 14" fill="none" xmlns="http://www.w3.org/2000/svg">
<rect width="20" height="14" rx="2" fill="white"/>
<mask id="mask0_11425_87662" style="mask-type:luminance" maskUnits="userSpaceOnUse" x="0" y="0" width="20" height="14">
<rect width="20" height="14" rx="2" fill="white"/>
</mask>
<g mask="url(#mask0_11425_87662)">
<rect width="20" height="14" fill="url(#paint0_linear_11425_87662)"/>
<rect x="9.5238" width="10.4762" height="14" fill="#08379D"/>
<path fill-rule="evenodd" clip-rule="evenodd" d="M0 14H6.66667V0H0V14Z" fill="#08379D"/>
<path fill-rule="evenodd" clip-rule="evenodd" d="M6.66663 14H13.3333V0H6.66663V14Z" fill="#FFCC50"/>
<path fill-rule="evenodd" clip-rule="evenodd" d="M9.73975 4.60263C9.87385 4.40939 10.1605 4.41207 10.291 4.60778L10.7036 5.22682C10.81 5.38635 10.6956 5.60001 10.5039 5.60001C10.3617 5.60001 10.2506 5.72295 10.2651 5.86442L10.4456 7.63385C10.463 7.80396 10.6062 7.93334 10.7772 7.93334H10.8173C10.9039 7.93334 10.9872 7.89963 11.0493 7.83934L11.3273 7.56991C11.392 7.50713 11.4286 7.42078 11.4286 7.33058V6.66882C11.4286 6.58217 11.3937 6.49917 11.3318 6.43852C11.159 6.26915 11.2274 5.97685 11.4574 5.90171L11.846 5.77475C12.0868 5.69609 12.3239 5.90413 12.2772 6.15309L11.9631 7.82665C11.9501 7.89599 11.9154 7.95941 11.864 8.00779L11.0487 8.77596C10.9868 8.83423 10.9051 8.86668 10.8201 8.86668H10.8095C10.6254 8.86668 10.4762 9.01592 10.4762 9.20001V9.46668C10.4762 9.65077 10.3269 9.80001 10.1429 9.80001H9.85714C9.67304 9.80001 9.5238 9.65077 9.5238 9.46668V9.20001C9.5238 9.01592 9.37457 8.86668 9.19047 8.86668H9.18372C9.09648 8.86668 9.01272 8.83248 8.95041 8.77142L8.16812 8.00477C8.12062 7.95822 8.08813 7.89852 8.07483 7.83335L7.73362 6.16145C7.68251 5.91098 7.92073 5.69856 8.16373 5.77794L8.54262 5.90171C8.77263 5.97685 8.84101 6.26915 8.66818 6.43852C8.6063 6.49917 8.57142 6.58217 8.57142 6.66882V7.33058C8.57142 7.42078 8.60798 7.50713 8.67274 7.56991L8.95065 7.83934C9.01284 7.89963 9.09605 7.93334 9.18267 7.93334H9.22275C9.39375 7.93334 9.53701 7.80396 9.55437 7.63385L9.7353 5.86068C9.74953 5.72121 9.64007 5.60001 9.49988 5.60001C9.30887 5.60001 9.19656 5.38538 9.30546 5.22845L9.73975 4.60263Z" fill="#262626"/>
</g>
<defs>
<linearGradient id="paint0_linear_11425_87662" x1="0" y1="0" x2="0" y2="14" gradientUnits="userSpaceOnUse">
<stop stop-color="#1132C7"/>
<stop offset="1" stop-color="#0522A5"/>
</linearGradient>
</defs>
</svg>
