<svg width="20" height="14" viewBox="0 0 20 14" fill="none" xmlns="http://www.w3.org/2000/svg">
<rect width="20" height="14" rx="2" fill="white"/>
<mask id="mask0_11425_87663" style="mask-type:luminance" maskUnits="userSpaceOnUse" x="0" y="0" width="20" height="14">
<rect width="20" height="14" rx="2" fill="white"/>
</mask>
<g mask="url(#mask0_11425_87663)">
<rect width="20" height="14" fill="#E4233B"/>
<path fill-rule="evenodd" clip-rule="evenodd" d="M0 0L8.57143 7L0 14V0Z" fill="#34CD4E"/>
<path fill-rule="evenodd" clip-rule="evenodd" d="M20 0L11.4286 7L20 14V0Z" fill="#34CD4E"/>
<path fill-rule="evenodd" clip-rule="evenodd" d="M12.1158 4.47559C11.5402 4.01177 10.8033 3.73329 9.99998 3.73329C9.19667 3.73329 8.45973 4.01177 7.8842 4.47558L-0.916072 -1.34155L-1.9812 0.205984L6.81838 6.02267C6.71978 6.33125 6.66664 6.65952 6.66664 6.99996C6.66664 7.3404 6.71978 7.66867 6.81838 7.97725L-1.9812 13.7939L-0.916072 15.3415L7.88419 9.52433C8.45973 9.98815 9.19667 10.2666 9.99998 10.2666C10.8033 10.2666 11.5402 9.98815 12.1158 9.52433L20.916 15.3415L21.9812 13.7939L13.1816 7.97725C13.2802 7.66867 13.3333 7.3404 13.3333 6.99996C13.3333 6.65952 13.2802 6.33125 13.1816 6.02267L21.9812 0.205984L20.916 -1.34155L12.1158 4.47559Z" fill="white"/>
<path fill-rule="evenodd" clip-rule="evenodd" d="M9.99996 6.0667L9.32652 6.26L9.52377 5.60003L9.32652 4.94006L9.99996 5.13336L10.6734 4.94006L10.4761 5.60003L10.6734 6.26L9.99996 6.0667ZM8.57138 8.40003L7.89795 8.59333L8.09519 7.93336L7.89795 7.2734L8.57138 7.4667L9.24482 7.2734L9.04757 7.93336L9.24482 8.59333L8.57138 8.40003ZM10.7551 8.59333L11.4285 8.40003L12.102 8.59333L11.9047 7.93336L12.102 7.2734L11.4285 7.4667L10.7551 7.2734L10.9523 7.93336L10.7551 8.59333Z" fill="#DF2239"/>
</g>
</svg>
