<svg width="20" height="14" viewBox="0 0 20 14" fill="none" xmlns="http://www.w3.org/2000/svg">
<rect width="20" height="14" rx="2" fill="white"/>
<mask id="mask0_11425_87668" style="mask-type:luminance" maskUnits="userSpaceOnUse" x="0" y="0" width="20" height="14">
<rect width="20" height="14" rx="2" fill="white"/>
</mask>
<g mask="url(#mask0_11425_87668)">
<path fill-rule="evenodd" clip-rule="evenodd" d="M0 12.1334H20V1.8667H0V12.1334Z" fill="#094995"/>
<path fill-rule="evenodd" clip-rule="evenodd" d="M0 1.86667H20V0H0V1.86667Z" fill="#D5182F"/>
<path fill-rule="evenodd" clip-rule="evenodd" d="M0 14H20V12.1333H0V14Z" fill="#D5182F"/>
<path fill-rule="evenodd" clip-rule="evenodd" d="M10 11.2C12.3669 11.2 14.2857 9.31964 14.2857 7.00005C14.2857 4.68045 12.3669 2.80005 10 2.80005C7.63307 2.80005 5.71429 4.68045 5.71429 7.00005C5.71429 9.31964 7.63307 11.2 10 11.2Z" fill="white"/>
<path fill-rule="evenodd" clip-rule="evenodd" d="M10 9.79995C11.578 9.79995 12.8572 8.54635 12.8572 6.99995C12.8572 5.45355 11.578 4.19995 10 4.19995C8.42207 4.19995 7.14288 5.45355 7.14288 6.99995C7.14288 8.54635 8.42207 9.79995 10 9.79995Z" stroke="#118014" stroke-width="1.33333" stroke-linecap="round" stroke-dasharray="0.67 2"/>
</g>
</svg>
