<svg width="20" height="14" viewBox="0 0 20 14" fill="none" xmlns="http://www.w3.org/2000/svg">
<rect x="0.25" y="0.25" width="19.5" height="13.5" rx="1.75" fill="white" stroke="#F5F5F5" stroke-width="0.5"/>
<mask id="mask0_11425_87681" style="mask-type:luminance" maskUnits="userSpaceOnUse" x="0" y="0" width="20" height="14">
<rect x="0.25" y="0.25" width="19.5" height="13.5" rx="1.75" fill="white" stroke="white" stroke-width="0.5"/>
</mask>
<g mask="url(#mask0_11425_87681)">
<rect x="14.2858" width="5.71428" height="14" fill="#FF3131"/>
<path fill-rule="evenodd" clip-rule="evenodd" d="M0 14H5.71429V0H0V14Z" fill="#FF3131"/>
<path fill-rule="evenodd" clip-rule="evenodd" d="M11.6849 6.28201C11.4637 6.49878 11.0955 6.29838 11.1574 5.99494L11.4285 4.66661L10.4761 5.13328L9.99996 3.73328L9.52377 5.13328L8.57139 4.66661L8.84247 5.99494C8.9044 6.29838 8.53618 6.49878 8.31499 6.28201C8.19289 6.16235 7.9975 6.16235 7.8754 6.28201L7.61901 6.53328L6.66663 6.06661L7.14282 6.99994L6.90956 7.22854C6.77619 7.35924 6.77619 7.57398 6.90956 7.70468L8.0952 8.86661H9.52377L9.76186 10.2666H10.2381L10.4761 8.86661H11.9047L13.0904 7.70468C13.2237 7.57398 13.2237 7.35924 13.0904 7.22854L12.8571 6.99994L13.3333 6.06661L12.3809 6.53328L12.1245 6.28201C12.0024 6.16235 11.807 6.16235 11.6849 6.28201Z" fill="#FF3131"/>
</g>
</svg>
