<svg width="20" height="14" viewBox="0 0 20 14" fill="none" xmlns="http://www.w3.org/2000/svg">
<rect width="20" height="14" rx="2" fill="white"/>
<mask id="mask0_11425_87609" style="mask-type:luminance" maskUnits="userSpaceOnUse" x="0" y="0" width="20" height="14">
<rect width="20" height="14" rx="2" fill="white"/>
</mask>
<g mask="url(#mask0_11425_87609)">
<rect width="20" height="14" fill="#19BFBF"/>
<path fill-rule="evenodd" clip-rule="evenodd" d="M5.74353 3.90527C5.72522 3.79759 5.76082 3.68777 5.83884 3.61132L7.52185 1.96196C7.58416 1.9009 7.66792 1.8667 7.75516 1.8667H8.84348C8.96877 1.8667 9.08347 1.93695 9.14041 2.04854L9.43104 2.61819C9.48798 2.72979 9.60268 2.80003 9.72796 2.80003H11.2244C11.3497 2.80003 11.4644 2.87028 11.5214 2.98188L12.7644 5.41819C12.8213 5.52979 12.936 5.60003 13.0613 5.60003H13.6109C13.8871 5.60003 14.0434 5.91663 13.8756 6.13595L12.8756 7.44262C12.8633 7.45864 12.8525 7.47574 12.8434 7.49371L12.4174 8.32866C12.3934 8.37557 12.381 8.42749 12.381 8.48015V9.25324C12.381 9.30591 12.3685 9.35782 12.3445 9.40474L11.9048 10.2667L11.4286 11.2L11.0452 11.9515C10.9882 12.0631 10.8735 12.1334 10.7482 12.1334H10.2042C10.0789 12.1334 9.96417 12.0631 9.90723 11.9515L9.56023 11.2714C9.5363 11.2245 9.52382 11.1726 9.52382 11.1199V8.54008C9.52382 8.45051 9.48777 8.3647 9.42379 8.30201L9.10433 7.98893C9.06705 7.9524 9.03887 7.90762 9.02206 7.8582L8.64831 6.75936C8.60235 6.62424 8.47546 6.53337 8.33273 6.53337H6.47192C6.30939 6.53337 6.17055 6.41615 6.1433 6.25592L5.74353 3.90527Z" fill="white"/>
<path fill-rule="evenodd" clip-rule="evenodd" d="M13.3333 9.66671C13.3333 9.48261 13.4826 9.33337 13.6666 9.33337H13.9524C14.1365 9.33337 14.2857 9.48261 14.2857 9.66671V10.1866C14.2857 10.2392 14.2732 10.2912 14.2493 10.3381L13.8917 11.0389C13.8413 11.1378 13.7396 11.2 13.6286 11.2C13.4655 11.2 13.3333 11.0678 13.3333 10.9047V9.66671Z" fill="white"/>
</g>
</svg>
