<svg width="20" height="14" viewBox="0 0 20 14" fill="none" xmlns="http://www.w3.org/2000/svg">
<rect width="20" height="14" rx="2" fill="white"/>
<mask id="mask0_11425_87611" style="mask-type:luminance" maskUnits="userSpaceOnUse" x="0" y="0" width="20" height="14">
<rect width="20" height="14" rx="2" fill="white"/>
</mask>
<g mask="url(#mask0_11425_87611)">
<rect width="20" height="14" fill="#19BFBF"/>
<path fill-rule="evenodd" clip-rule="evenodd" d="M3.96346 5.76494C3.87883 5.9308 3.9465 6.13383 4.1137 6.21576L5.41005 6.85097C5.57726 6.9329 5.64492 7.13593 5.5603 7.30179L5.38713 7.64121C5.30442 7.80332 5.10697 7.86913 4.94354 7.78905L4.35508 7.5007C4.30942 7.47833 4.25925 7.4667 4.20841 7.4667H3.19045C3.00636 7.4667 2.85712 7.61594 2.85712 7.80003V8.15825C2.85712 8.30247 2.94986 8.43033 3.08694 8.47511L3.78069 8.70173C4.01071 8.77687 4.07908 9.06917 3.90626 9.23854C3.84437 9.29919 3.8095 9.38219 3.8095 9.46884V9.74489C3.8095 9.7814 3.8155 9.81767 3.82725 9.85223L4.24111 11.069C4.26965 11.1529 4.33043 11.222 4.41001 11.261L5.02642 11.563C5.15327 11.6251 5.30552 11.6006 5.4064 11.5017L6.19045 10.7334L6.32994 10.5967C6.49426 10.4356 6.4499 10.1605 6.2433 10.0593L5.85193 9.86749C5.76767 9.8262 5.71426 9.74055 5.71426 9.64672C5.71426 9.48726 5.86373 9.36999 6.01861 9.40793L7.36501 9.7378C7.51414 9.77434 7.61902 9.90802 7.61902 10.0616V10.6307C7.61902 10.6976 7.63913 10.7629 7.67675 10.8182L8.47219 11.9875C8.53425 12.0788 8.63745 12.1334 8.74779 12.1334H8.82362C8.95907 12.1334 9.08105 12.0514 9.13223 11.926L9.72506 10.4736C9.83285 10.2095 10.201 10.194 10.3306 10.4481L10.4514 10.6849C10.4678 10.717 10.4893 10.7462 10.515 10.7715L11.3902 11.6291C11.4156 11.654 11.4448 11.6747 11.4768 11.6903L11.9009 11.8982C12.1224 12.0067 12.3809 11.8455 12.3809 11.5988V11.3401C12.3809 11.2505 12.3449 11.1647 12.2809 11.102L12.1477 10.9714C12.0143 10.8407 12.0143 10.626 12.1477 10.4953L12.2837 10.362C12.346 10.3009 12.4298 10.2667 12.517 10.2667H13.256C13.3069 10.2667 13.357 10.2551 13.4027 10.2327L14.099 9.8915C14.2133 9.83552 14.2857 9.71939 14.2857 9.59217V9.00675C14.2857 8.91717 14.2496 8.83137 14.1857 8.76868L14.0524 8.6381C13.9191 8.50741 13.9191 8.29266 14.0524 8.16196L14.4378 7.78426C14.5985 7.62679 14.8658 7.67044 14.9681 7.87084L15.179 8.28433C15.2153 8.35534 15.2882 8.40003 15.368 8.40003C15.5264 8.40003 15.6289 8.23267 15.5569 8.09156L15.392 7.76846C15.3074 7.6026 15.3751 7.39957 15.5423 7.31764L15.8862 7.14909C16.0534 7.06716 16.1211 6.86414 16.0365 6.69827L15.7768 6.18932C15.7368 6.11079 15.6672 6.05133 15.5834 6.02395L14.8077 5.77057C14.5699 5.69289 14.4993 5.39072 14.6779 5.21564L15.1409 4.76196C15.2032 4.7009 15.2869 4.6667 15.3742 4.6667H16.4625C16.5878 4.6667 16.7025 4.59645 16.7594 4.48486L16.9185 4.17307C17.0258 3.9627 16.8864 3.71052 16.6511 3.68956L12.4611 3.31626C12.2421 3.29676 12.1467 3.02962 12.3036 2.87577C12.3531 2.82733 12.3809 2.76103 12.3809 2.69182V2.20003C12.3809 2.01594 12.2317 1.8667 12.0476 1.8667H10.1361C10.0488 1.8667 9.96507 1.9009 9.90277 1.96196L8.63665 3.20275C8.59394 3.24461 8.54075 3.27421 8.48266 3.28844L6.66664 3.73337L4.8793 4.17126C4.80344 4.18985 4.72345 4.1812 4.65331 4.14684L4.53018 4.0865C4.26379 3.95597 3.97241 4.21231 4.06794 4.49317L4.24033 5.00001C4.26933 5.08526 4.2626 5.17862 4.22167 5.25884L3.96346 5.76494ZM10.4762 11.6667C10.4762 11.9244 10.263 12.1334 9.99997 12.1334C9.73698 12.1334 9.52378 11.9244 9.52378 11.6667C9.52378 11.409 9.73698 11.2 9.99997 11.2C10.263 11.2 10.4762 11.409 10.4762 11.6667ZM7.14283 7.4667C7.40582 7.4667 7.61902 7.25777 7.61902 7.00003C7.61902 6.7423 7.40582 6.53337 7.14283 6.53337C6.87984 6.53337 6.66664 6.7423 6.66664 7.00003C6.66664 7.25777 6.87984 7.4667 7.14283 7.4667ZM16.1904 8.8667V9.33337L15.7822 9.73345C15.5832 9.92849 15.7213 10.2667 15.9999 10.2667C16.1169 10.2667 16.2239 10.2011 16.277 10.097L16.6666 9.33337L16.1904 8.8667ZM16.1904 8.8667L16.4486 8.74023C16.6191 8.65666 16.5596 8.40003 16.3697 8.40003C16.2707 8.40003 16.1904 8.48028 16.1904 8.57927V8.8667Z" fill="white"/>
</g>
</svg>
