<svg width="20" height="14" viewBox="0 0 20 14" fill="none" xmlns="http://www.w3.org/2000/svg">
<rect width="20" height="14" rx="2" fill="white"/>
<mask id="mask0_11425_87610" style="mask-type:luminance" maskUnits="userSpaceOnUse" x="0" y="0" width="20" height="14">
<rect width="20" height="14" rx="2" fill="white"/>
</mask>
<g mask="url(#mask0_11425_87610)">
<rect width="20" height="14" fill="#19BFBF"/>
<path fill-rule="evenodd" clip-rule="evenodd" d="M12.1476 12.3714L11.4853 11.7223C11.448 11.6857 11.4198 11.641 11.403 11.5915L11.0072 10.4279C10.9744 10.3315 10.8839 10.2667 10.7821 10.2667C10.627 10.2667 10.5135 10.4129 10.5518 10.5632L10.9049 11.9473C10.9343 12.0625 10.9001 12.1846 10.8152 12.2678L10.7095 12.3714C10.5799 12.4984 10.3725 12.4984 10.2429 12.3714L10.1 12.2314C10.036 12.1687 10 12.0829 10 11.9933V11.2802C10 11.2275 9.98752 11.1756 9.96358 11.1287L9.61658 10.4485C9.55965 10.3369 9.44494 10.2667 9.31966 10.2667H8.17251C8.12167 10.2667 8.0715 10.2783 8.02584 10.3007L7.26718 10.6724C7.18759 10.7114 7.12681 10.7805 7.09827 10.8644L6.71125 12.0023C6.68271 12.0862 6.62193 12.1553 6.54234 12.1943L5.86095 12.5282C5.76843 12.5735 5.66014 12.5735 5.56761 12.5282L4.94856 12.2248C4.83432 12.1688 4.7619 12.0527 4.7619 11.9255V10.6C4.7619 10.4159 4.91114 10.2667 5.09524 10.2667H5.85714C6.04123 10.2667 6.19047 10.1175 6.19047 9.93337V9.3885C6.19047 9.35199 6.19647 9.31573 6.20823 9.28116L6.5898 8.15936C6.63576 8.02424 6.76265 7.93337 6.90537 7.93337H7.54177C7.59261 7.93337 7.64278 7.92173 7.68844 7.89936L8.50203 7.5007C8.54769 7.47833 8.59786 7.4667 8.6487 7.4667H9.1952C9.37669 7.4667 9.52381 7.31958 9.52381 7.13809C9.52381 7.04979 9.55935 6.9652 9.62241 6.9034L9.67596 6.85092C9.83664 6.69346 10.1039 6.73711 10.2062 6.9375L10.3834 7.28486C10.4403 7.39645 10.555 7.4667 10.6803 7.4667H11.666C11.8088 7.4667 11.9357 7.37583 11.9816 7.24071L12.3041 6.29269C12.35 6.15757 12.4769 6.0667 12.6197 6.0667H13.1C13.2289 6.0667 13.3333 5.96223 13.3333 5.83337C13.3333 5.7045 13.2289 5.60003 13.1 5.60003H12.7143C12.5302 5.60003 12.3809 5.45079 12.3809 5.2667V4.74682C12.3809 4.69416 12.3934 4.64224 12.4174 4.59533L12.7458 3.95151C12.8121 3.82171 12.7863 3.66394 12.6822 3.56195L12.6143 3.49534C12.4847 3.36833 12.2772 3.36833 12.1476 3.49534L11.5286 4.10201C11.4646 4.1647 11.4286 4.25051 11.4286 4.34008V5.07823C11.4286 5.11474 11.4226 5.151 11.4108 5.18557L11.0292 6.30737C10.9833 6.4425 10.8564 6.53337 10.7137 6.53337H10.6123C10.5251 6.53337 10.4413 6.49916 10.379 6.4381L10.0692 6.13451C10.0249 6.09114 10 6.03178 10 5.96982C10 5.7992 9.82114 5.68767 9.66794 5.76274L9.25926 5.96299C9.13242 6.02515 8.98017 6.0006 8.87928 5.90173L8.67145 5.69806C8.60748 5.63536 8.57143 5.54956 8.57143 5.45999V4.80675C8.57143 4.71717 8.60748 4.63137 8.67145 4.56868L9.52381 3.73337L10.8967 2.38794C10.9333 2.35204 10.9777 2.32508 11.0265 2.30915L12.3305 1.88318C12.3639 1.87226 12.3989 1.8667 12.434 1.8667H13.1292C13.2545 1.8667 13.3692 1.93695 13.4261 2.04854L13.7731 2.72866C13.797 2.77557 13.8095 2.82749 13.8095 2.88015V4.05998C13.8095 4.14956 13.8456 4.23536 13.9095 4.29806L14.1359 4.51988C14.2275 4.60961 14.2594 4.74391 14.2182 4.86529L13.8928 5.82179C13.8438 5.96591 13.8986 6.12493 14.0261 6.20819L15.2381 7.00003L15.8454 7.29761C16.0275 7.38686 16.0884 7.61672 15.9743 7.78443L15.2958 8.78184C15.2582 8.83713 15.2381 8.90246 15.2381 8.96933V10.0249C15.2381 10.1691 15.1454 10.297 15.0083 10.3418L13.9404 10.6906C13.8566 10.718 13.787 10.7775 13.747 10.856L13.3581 11.6182C13.3417 11.6503 13.3202 11.6796 13.2945 11.7048L12.6143 12.3714C12.4847 12.4984 12.2772 12.4984 12.1476 12.3714ZM8.09523 12.1334C8.35823 12.1334 8.57143 11.9244 8.57143 11.6667C8.57143 11.409 8.35823 11.2 8.09523 11.2C7.83224 11.2 7.61904 11.409 7.61904 11.6667C7.61904 11.9244 7.83224 12.1334 8.09523 12.1334ZM6.66666 6.0667C6.66666 6.32443 6.45347 6.53337 6.19047 6.53337C5.92748 6.53337 5.71428 6.32443 5.71428 6.0667C5.71428 5.80897 5.92748 5.60003 6.19047 5.60003C6.45347 5.60003 6.66666 5.80897 6.66666 6.0667Z" fill="white"/>
<path fill-rule="evenodd" clip-rule="evenodd" d="M7.10646 6.13799C7.1304 6.09108 7.14288 6.03917 7.14288 5.9865V5.68008C7.14288 5.62742 7.1304 5.5755 7.10646 5.52859L6.91405 5.15145C6.80089 4.92967 6.96199 4.66663 7.21097 4.66663H7.28573C7.46983 4.66663 7.61907 4.81586 7.61907 4.99996V5.9865C7.61907 6.03917 7.63155 6.09108 7.65548 6.13799L7.8479 6.51514C7.96105 6.73692 7.79996 6.99996 7.55098 6.99996H7.21097C6.96199 6.99996 6.80089 6.73692 6.91405 6.51513L7.10646 6.13799Z" fill="white"/>
</g>
</svg>
