<svg width="20" height="14" viewBox="0 0 20 14" fill="none" xmlns="http://www.w3.org/2000/svg">
<rect width="20" height="14" rx="2" fill="white"/>
<mask id="mask0_11425_87685" style="mask-type:luminance" maskUnits="userSpaceOnUse" x="0" y="0" width="20" height="14">
<rect width="20" height="14" rx="2" fill="white"/>
</mask>
<g mask="url(#mask0_11425_87685)">
<rect width="20" height="14" fill="#F1361D"/>
<path fill-rule="evenodd" clip-rule="evenodd" d="M7.1947 2.17048L7.88645 2.28605L8.40526 2.7491L8.52319 2.07119L8.99569 1.56275L8.30394 1.44718L7.78513 0.984131L7.6672 1.66204L7.1947 2.17048ZM9.04758 4.54157L9.64701 4.18405L10.3486 4.19995L9.98373 3.6125L9.99996 2.92499L9.40052 3.28252L8.69898 3.26661L9.0638 3.85406L9.04758 4.54157ZM8.23442 8.37956L7.64808 8.75737L7.63981 8.06972L7.25429 7.49511L7.95597 7.48701L8.54231 7.1092L8.55058 7.79684L8.9361 8.37145L8.23442 8.37956ZM8.74362 6.60195L9.44108 6.52619L10.07 6.83116L9.99272 6.14765L10.3039 5.53128L9.60646 5.60704L8.97751 5.30207L9.05481 5.98558L8.74362 6.60195Z" fill="#FFDC42"/>
<path fill-rule="evenodd" clip-rule="evenodd" d="M4.76193 5.7587L3.08254 6.93195L3.70218 5.00415L2.04462 3.80145L4.10697 3.78325L4.76193 1.8667L5.41689 3.78325L7.47923 3.80145L5.82168 5.00415L6.44131 6.93195L4.76193 5.7587Z" fill="#FFDC42"/>
</g>
</svg>
