<svg width="20" height="14" viewBox="0 0 20 14" fill="none" xmlns="http://www.w3.org/2000/svg">
<rect width="20" height="14" rx="2" fill="white"/>
<mask id="mask0_11425_87607" style="mask-type:luminance" maskUnits="userSpaceOnUse" x="0" y="0" width="20" height="14">
<rect width="20" height="14" rx="2" fill="white"/>
</mask>
<g mask="url(#mask0_11425_87607)">
<rect width="20" height="14" fill="#19BFBF"/>
<path fill-rule="evenodd" clip-rule="evenodd" d="M9.52378 10.2667L9.14037 9.51521C9.08343 9.40361 8.96873 9.33337 8.84345 9.33337H8.70751C8.62027 9.33337 8.5365 9.29916 8.4742 9.2381L6.76666 7.56472C6.70269 7.50203 6.66664 7.41622 6.66664 7.32665V6.67341C6.66664 6.58384 6.63059 6.49804 6.56662 6.43534L5.78088 5.66532C5.7373 5.62262 5.70628 5.56877 5.6912 5.50965L5.28336 3.91093C5.25516 3.80036 5.17235 3.7119 5.06388 3.67646L3.8095 3.2667L3.04378 2.8915C2.92953 2.83552 2.85712 2.71939 2.85712 2.59217V2.20003C2.85712 2.01594 3.00636 1.8667 3.19045 1.8667H3.67339C3.76063 1.8667 3.8444 1.9009 3.9067 1.96196L4.18848 2.2381C4.25079 2.29916 4.33455 2.33337 4.42179 2.33337H5.10197C5.18921 2.33337 5.27297 2.29916 5.33528 2.2381L5.61705 1.96196C5.67936 1.9009 5.76312 1.8667 5.85036 1.8667H7.54174C7.59259 1.8667 7.64276 1.87833 7.68842 1.9007L8.50201 2.29936C8.54767 2.32173 8.59784 2.33337 8.64868 2.33337H9.44651C9.49735 2.33337 9.54752 2.32173 9.59318 2.29936L10.4068 1.9007C10.4524 1.87833 10.5026 1.8667 10.5534 1.8667H12.0476C12.2317 1.8667 12.3809 2.01594 12.3809 2.20003V2.4667C12.3809 2.65079 12.2317 2.80003 12.0476 2.80003H11.7619C11.5778 2.80003 11.4285 2.94927 11.4285 3.13337V3.99217C11.4285 4.11939 11.501 4.23552 11.6152 4.2915L11.9009 4.4315C12.1224 4.54002 12.3809 4.37879 12.3809 4.13217V3.60003C12.3809 3.41594 12.5302 3.2667 12.7143 3.2667H13.5762C13.705 3.2667 13.8095 3.37117 13.8095 3.50003C13.8095 3.6289 13.914 3.73337 14.0428 3.73337H14.9047C15.0888 3.73337 15.2381 3.8826 15.2381 4.0667V4.61156C15.2381 4.64807 15.2321 4.68433 15.2203 4.7189L14.7874 5.99154C14.7706 6.04095 14.7425 6.08573 14.7052 6.12227L13.3722 7.4286C13.3464 7.45383 13.325 7.48307 13.3086 7.51518L12.8935 8.32866C12.8696 8.37557 12.8571 8.42749 12.8571 8.48015V9.03804C12.8571 9.20114 12.7249 9.33337 12.5618 9.33337C12.4508 9.33337 12.3492 9.27113 12.2987 9.17226L11.9975 8.58188C11.9406 8.47028 11.8259 8.40003 11.7006 8.40003H10.6803C10.555 8.40003 10.4403 8.47028 10.3834 8.58188L10.0773 9.18188C10.0287 9.27703 10.0287 9.3897 10.0773 9.48486L10.3834 10.0849C10.4403 10.1965 10.555 10.2667 10.6803 10.2667H11.2924C11.3797 10.2667 11.4634 10.3009 11.5258 10.362L12.2809 11.102C12.3449 11.1647 12.3809 11.2505 12.3809 11.3401V11.8C12.3809 11.9841 12.2317 12.1334 12.0476 12.1334H11.6327C11.5074 12.1334 11.3927 12.0631 11.3358 11.9515L11.0451 11.3819C10.9882 11.2703 10.8735 11.2 10.7482 11.2H10.2041C10.0788 11.2 9.96413 11.1298 9.9072 11.0182L9.52378 10.2667Z" fill="white"/>
</g>
</svg>
