<svg width="20" height="14" viewBox="0 0 20 14" fill="none" xmlns="http://www.w3.org/2000/svg">
<rect width="20" height="14" rx="2" fill="white"/>
<mask id="mask0_11425_87612" style="mask-type:luminance" maskUnits="userSpaceOnUse" x="0" y="0" width="20" height="14">
<rect width="20" height="14" rx="2" fill="white"/>
</mask>
<g mask="url(#mask0_11425_87612)">
<rect width="20" height="14" fill="url(#paint0_linear_11425_87612)"/>
<path fill-rule="evenodd" clip-rule="evenodd" d="M9.63311 2.33337C9.56209 2.33337 9.49292 2.35605 9.4357 2.39811L7.67257 3.69401C7.63722 3.71999 7.59709 3.73874 7.55448 3.74918L5.74926 4.19146C5.726 4.19716 5.70342 4.20535 5.68191 4.21589L3.90926 5.08448C3.84451 5.11621 3.79179 5.16809 3.75901 5.23232L2.94681 6.82423C2.8915 6.93264 2.89967 7.06258 2.96813 7.16321L3.75178 8.31518C3.78939 8.37047 3.8095 8.43579 3.8095 8.50266V9.65998C3.8095 9.74956 3.84555 9.83536 3.90953 9.89806L4.59355 10.5684C4.69444 10.6673 4.84668 10.6918 4.97353 10.6297L7.54963 9.36737C7.59529 9.345 7.64546 9.33337 7.6963 9.33337H9.40497C9.48181 9.33337 9.5563 9.35992 9.61581 9.40852L12.2889 11.5915C12.3484 11.6401 12.4229 11.6667 12.4997 11.6667H14.1093C14.2196 11.6667 14.3228 11.6121 14.3849 11.5209L16.1327 8.95156C16.1703 8.89627 16.1905 8.83094 16.1905 8.76407V7.10266C16.1905 7.03579 16.1703 6.97047 16.1327 6.91518L14.2857 4.20003L12.9497 2.01792C12.8922 1.92398 12.79 1.8667 12.6798 1.8667H12.4176C12.23 1.8667 12.1371 2.09438 12.271 2.22568C12.3364 2.28975 12.3526 2.38887 12.311 2.47042L11.9975 3.08486C11.9406 3.19645 11.8259 3.2667 11.7006 3.2667H10.6803C10.555 3.2667 10.4403 3.19645 10.3834 3.08486L10.0928 2.51521C10.0358 2.40361 9.92112 2.33337 9.79583 2.33337H9.63311ZM13.8095 12.1334H12.8571L13.1 12.3714C13.2296 12.4984 13.437 12.4984 13.5666 12.3714L13.8095 12.1334Z" fill="white"/>
</g>
<defs>
<linearGradient id="paint0_linear_11425_87612" x1="0" y1="0" x2="0" y2="14" gradientUnits="userSpaceOnUse">
<stop stop-color="#19BFBF"/>
<stop offset="1" stop-color="#10ACAC"/>
</linearGradient>
</defs>
</svg>
