<svg width="20" height="14" viewBox="0 0 20 14" fill="none" xmlns="http://www.w3.org/2000/svg">
<rect width="20" height="14" rx="2" fill="white"/>
<mask id="mask0_11425_87608" style="mask-type:luminance" maskUnits="userSpaceOnUse" x="0" y="0" width="20" height="14">
<rect width="20" height="14" rx="2" fill="white"/>
</mask>
<g mask="url(#mask0_11425_87608)">
<rect width="20" height="14" fill="#19BFBF"/>
<path fill-rule="evenodd" clip-rule="evenodd" d="M7.14288 11.2419C7.14288 11.2141 7.14635 11.1864 7.15322 11.1595L7.61907 9.33337L8.07078 7.56267C8.08675 7.50004 8.08418 7.43412 8.06337 7.37293L7.66365 6.19777C7.63511 6.11386 7.57433 6.04478 7.49474 6.00578L6.85335 5.6915C6.7391 5.63552 6.66669 5.51939 6.66669 5.39217V3.81349C6.66669 3.76082 6.67917 3.70891 6.7031 3.662L7.14288 2.80003L7.52629 2.04854C7.58323 1.93695 7.69793 1.8667 7.82321 1.8667H10.1429C10.327 1.8667 10.4762 2.01594 10.4762 2.20003V2.4667C10.4762 2.65079 10.6254 2.80003 10.8095 2.80003H11.0953C11.2794 2.80003 11.4286 2.94927 11.4286 3.13337V3.5255C11.4286 3.65272 11.501 3.76885 11.6153 3.82483L13.1467 4.57524C13.2609 4.63121 13.3334 4.74734 13.3334 4.87457V5.51991C13.3334 5.57258 13.3209 5.62449 13.2969 5.6714L12.8975 6.45433C12.8711 6.50612 12.8316 6.5501 12.7829 6.5819L11.5029 7.41817C11.4542 7.44997 11.4147 7.49395 11.3883 7.54573L10.5165 9.25433C10.4901 9.30612 10.4506 9.3501 10.4019 9.3819L9.12192 10.2182C9.07325 10.25 9.03374 10.2939 9.00731 10.3457L8.18804 11.9515C8.1311 12.0631 8.0164 12.1334 7.89111 12.1334H7.47621C7.29212 12.1334 7.14288 11.9841 7.14288 11.8V11.2419Z" fill="white"/>
</g>
</svg>
