<svg width="20" height="14" viewBox="0 0 20 14" fill="none" xmlns="http://www.w3.org/2000/svg">
<rect x="0.25" y="0.25" width="19.5" height="13.5" rx="1.75" fill="white" stroke="#F5F5F5" stroke-width="0.5"/>
<mask id="mask0_11425_87693" style="mask-type:luminance" maskUnits="userSpaceOnUse" x="0" y="0" width="20" height="14">
<rect x="0.25" y="0.25" width="19.5" height="13.5" rx="1.75" fill="white" stroke="white" stroke-width="0.5"/>
</mask>
<g mask="url(#mask0_11425_87693)">
<path fill-rule="evenodd" clip-rule="evenodd" d="M0 2.8H20V0H0V2.8Z" fill="#0B389F"/>
<path fill-rule="evenodd" clip-rule="evenodd" d="M0 8.39998H20V5.59998H0V8.39998Z" fill="#0B389F"/>
<path fill-rule="evenodd" clip-rule="evenodd" d="M0 14H20V11.2H0V14Z" fill="#0B389F"/>
<path fill-rule="evenodd" clip-rule="evenodd" d="M0 0L9.52381 7L0 14V0Z" fill="#E12A43"/>
<path fill-rule="evenodd" clip-rule="evenodd" d="M3.33335 7.71585L2.21376 8.51013L2.63861 7.22119L1.52181 6.42314L2.90398 6.42081L3.33335 5.1333L3.76272 6.42081L5.14489 6.42314L4.02809 7.22119L4.45294 8.51013L3.33335 7.71585Z" fill="white"/>
</g>
</svg>
