<svg width="20" height="14" viewBox="0 0 20 14" fill="none" xmlns="http://www.w3.org/2000/svg">
<rect x="0.25" y="0.25" width="19.5" height="13.5" rx="1.75" fill="white" stroke="#F5F5F5" stroke-width="0.5"/>
<mask id="mask0_11425_87694" style="mask-type:luminance" maskUnits="userSpaceOnUse" x="0" y="0" width="20" height="14">
<rect x="0.25" y="0.25" width="19.5" height="13.5" rx="1.75" fill="white" stroke="white" stroke-width="0.5"/>
</mask>
<g mask="url(#mask0_11425_87694)">
<path fill-rule="evenodd" clip-rule="evenodd" d="M14.2857 2.33337C14.5446 2.20653 14.8037 2.50527 14.6416 2.7436L14.3336 3.19628C14.302 3.24277 14.2615 3.28253 14.2144 3.31328L12.9063 4.1679C12.8736 4.18927 12.8431 4.21381 12.8152 4.24116C12.5768 4.47477 12.5768 4.85863 12.8152 5.09224L12.8571 5.13337C13.1186 5.38956 13.1186 5.81051 12.8571 6.0667L12.6977 6.22298C12.5079 6.409 12.2214 6.45518 11.9827 6.33824C11.6752 6.18757 11.3037 6.31138 11.1481 6.6164L11.0775 6.75479C10.9974 6.91185 10.8583 7.03077 10.6907 7.08552L9.6247 7.43374C9.55786 7.45558 9.48799 7.4667 9.41768 7.4667H8.9734C8.72671 7.4667 8.50086 7.60502 8.38875 7.82476C8.22589 8.14397 7.8371 8.27354 7.5153 8.11586L6.28699 7.51399C6.22306 7.48267 6.16456 7.4413 6.11372 7.39147L5.43531 6.72663C5.30918 6.60302 5.2381 6.43385 5.2381 6.25724V5.93816C5.2381 5.75142 5.38948 5.60003 5.57623 5.60003C5.66472 5.60003 5.74969 5.56534 5.81289 5.5034L6.47226 4.85722C6.59687 4.7351 6.7644 4.6667 6.93888 4.6667H7.14163C7.42709 4.6667 7.68087 4.48496 7.77279 4.21471L7.90762 3.81831C8.01507 3.50239 8.33955 3.31458 8.667 3.37876L10.332 3.70511C10.427 3.72372 10.5249 3.72144 10.6189 3.69841L12.311 3.28385C12.3575 3.27245 12.4027 3.25607 12.4457 3.23499L13.3333 2.80003L14.2857 2.33337Z" fill="#E7832C"/>
<path fill-rule="evenodd" clip-rule="evenodd" d="M9.99999 11.2001C10.263 11.2001 10.4762 10.9911 10.4762 10.7334C10.4762 10.4757 10.263 10.2667 9.99999 10.2667C9.737 10.2667 9.5238 10.4757 9.5238 10.7334C9.5238 10.9911 9.737 11.2001 9.99999 11.2001Z" fill="#445128"/>
<path opacity="0.75" d="M11.4286 10.2667C11.4286 10.2667 12.8572 9.80003 13.3334 8.8667" stroke="#445128" stroke-width="1.33333" stroke-linecap="round"/>
<path opacity="0.75" d="M8.57141 10.2667C8.57141 10.2667 7.14284 9.80003 6.66665 8.8667" stroke="#445128" stroke-width="1.33333" stroke-linecap="round"/>
</g>
</svg>
