<svg width="20" height="14" viewBox="0 0 20 14" fill="none" xmlns="http://www.w3.org/2000/svg">
<rect x="0.25" y="0.25" width="19.5" height="13.5" rx="1.75" fill="white" stroke="#F5F5F5" stroke-width="0.5"/>
<mask id="mask0_11425_87703" style="mask-type:luminance" maskUnits="userSpaceOnUse" x="0" y="0" width="20" height="14">
<rect x="0.25" y="0.25" width="19.5" height="13.5" rx="1.75" fill="white" stroke="white" stroke-width="0.5"/>
</mask>
<g mask="url(#mask0_11425_87703)">
<path fill-rule="evenodd" clip-rule="evenodd" d="M0 4.66667H20V0H0V4.66667Z" fill="#E41D33"/>
<path fill-rule="evenodd" clip-rule="evenodd" d="M0 14H20V9.33337H0V14Z" fill="#262626"/>
<path d="M8.75067 6.6848L8.9795 7.13331H8.94835L8.86527 7.18759L8.468 7.44714C8.24629 7.59199 7.95235 7.43291 7.95235 7.16808V6.26664C7.95235 6.08255 8.10159 5.93331 8.28569 5.93331H8.36726L8.75067 6.6848ZM9.52378 7.13331H9.09339L9.33823 6.69653L9.33827 6.69645L9.33829 6.69643L9.33831 6.69639L9.33836 6.6963L9.33895 6.69525L9.34243 6.68917L9.35757 6.66331C9.37116 6.6404 9.39142 6.60698 9.41716 6.5666C9.46902 6.48521 9.54123 6.37847 9.62433 6.27335C9.70893 6.16632 9.79669 6.07138 9.87829 6.00613C9.95327 5.94615 9.9927 5.93556 9.99962 5.9337C10.001 5.93334 10.0011 5.93331 9.99997 5.93331C10.0118 5.93331 10.0588 5.94137 10.144 6.00813C10.2248 6.0715 10.3095 6.16402 10.39 6.26923C10.4691 6.37256 10.5363 6.47768 10.5841 6.55797C10.6078 6.59777 10.6262 6.63065 10.6385 6.65309L10.652 6.67828L10.655 6.68405L10.6554 6.6848L10.6555 6.68491L10.6555 6.68499L10.6556 6.68507L10.6556 6.6851L10.8843 7.13331H10.4762H10.1428V7.46664V7.92379C10.1428 8.00268 10.0789 8.06664 9.99997 8.06664C9.92107 8.06664 9.85711 8.00268 9.85711 7.92379V7.46664V7.13331H9.52378ZM11.0516 7.13331H11.0204L11.2493 6.6848L11.6327 5.93331L11.7143 5.93331C11.8984 5.93331 12.0476 6.08255 12.0476 6.26664V7.16808C12.0476 7.43291 11.7536 7.59199 11.5319 7.44714L11.1347 7.18759L11.0516 7.13331Z" fill="#F4B32E" fill-opacity="0.25" stroke="#C6A846" stroke-width="0.666667"/>
</g>
</svg>
