<svg width="20" height="14" viewBox="0 0 20 14" fill="none" xmlns="http://www.w3.org/2000/svg">
<rect width="20" height="14" rx="2" fill="white"/>
<mask id="mask0_11425_87704" style="mask-type:luminance" maskUnits="userSpaceOnUse" x="0" y="0" width="20" height="14">
<rect width="20" height="14" rx="2" fill="white"/>
</mask>
<g mask="url(#mask0_11425_87704)">
<path fill-rule="evenodd" clip-rule="evenodd" d="M20 0V7H0V0H20Z" fill="#29C53F"/>
<path fill-rule="evenodd" clip-rule="evenodd" d="M20 7V14.4667H0V7H20Z" fill="#579DED"/>
<path fill-rule="evenodd" clip-rule="evenodd" d="M0 14L20 7L0 0V14Z" fill="#F42D56"/>
<path d="M8.85718 6.99994C8.85718 8.42325 7.67603 9.59994 6.19051 9.59994C4.70499 9.59994 3.52384 8.42325 3.52384 6.99994C3.52384 5.57664 4.70499 4.39994 6.19051 4.39994C7.67603 4.39994 8.85718 5.57664 8.85718 6.99994Z" stroke="#FFC63C" stroke-width="1.33333"/>
<path fill-rule="evenodd" clip-rule="evenodd" d="M5.71423 6.53331C5.97722 6.53331 6.19042 6.32438 6.19042 6.06664C6.19042 5.80891 5.97722 5.59998 5.71423 5.59998C5.45123 5.59998 5.23804 5.80891 5.23804 6.06664C5.23804 6.32438 5.45123 6.53331 5.71423 6.53331Z" fill="#FFC63C"/>
<path fill-rule="evenodd" clip-rule="evenodd" d="M6.66662 6.99998C6.92961 6.99998 7.14281 6.79105 7.14281 6.53332C7.14281 6.27558 6.92961 6.06665 6.66662 6.06665C6.40363 6.06665 6.19043 6.27558 6.19043 6.53332C6.19043 6.79105 6.40363 6.99998 6.66662 6.99998Z" fill="#FFC63C"/>
<path fill-rule="evenodd" clip-rule="evenodd" d="M6.19042 6.06663C6.45342 6.06663 6.66661 5.8577 6.66661 5.59997C6.66661 5.34223 6.45342 5.1333 6.19042 5.1333C5.92743 5.1333 5.71423 5.34223 5.71423 5.59997C5.71423 5.8577 5.92743 6.06663 6.19042 6.06663Z" fill="#FFC63C"/>
<path fill-rule="evenodd" clip-rule="evenodd" d="M5.71423 7.46666C5.97722 7.46666 6.19042 7.25773 6.19042 6.99999C6.19042 6.74226 5.97722 6.53333 5.71423 6.53333C5.45123 6.53333 5.23804 6.74226 5.23804 6.99999C5.23804 7.25773 5.45123 7.46666 5.71423 7.46666Z" fill="#FFC63C"/>
<path fill-rule="evenodd" clip-rule="evenodd" d="M6.66662 7.93333C6.92961 7.93333 7.14281 7.7244 7.14281 7.46667C7.14281 7.20893 6.92961 7 6.66662 7C6.40363 7 6.19043 7.20893 6.19043 7.46667C6.19043 7.7244 6.40363 7.93333 6.66662 7.93333Z" fill="#FFC63C"/>
<path fill-rule="evenodd" clip-rule="evenodd" d="M5.71423 8.40001C5.97722 8.40001 6.19042 8.19107 6.19042 7.93334C6.19042 7.67561 5.97722 7.46667 5.71423 7.46667C5.45123 7.46667 5.23804 7.67561 5.23804 7.93334C5.23804 8.19107 5.45123 8.40001 5.71423 8.40001Z" fill="#FFC63C"/>
<path fill-rule="evenodd" clip-rule="evenodd" d="M6.66662 8.86668C6.92961 8.86668 7.14281 8.65775 7.14281 8.40002C7.14281 8.14228 6.92961 7.93335 6.66662 7.93335C6.40363 7.93335 6.19043 8.14228 6.19043 8.40002C6.19043 8.65775 6.40363 8.86668 6.66662 8.86668Z" fill="#FFC63C"/>
</g>
</svg>
