<svg width="20" height="14" viewBox="0 0 20 14" fill="none" xmlns="http://www.w3.org/2000/svg">
<rect width="20" height="14" rx="2" fill="white"/>
<mask id="mask0_11425_87605" style="mask-type:luminance" maskUnits="userSpaceOnUse" x="0" y="0" width="20" height="14">
<rect width="20" height="14" rx="2" fill="white"/>
</mask>
<g mask="url(#mask0_11425_87605)">
<rect width="20" height="14" fill="#043CAE"/>
<path fill-rule="evenodd" clip-rule="evenodd" d="M9.3266 2.99327L10 2.79997L10.6735 2.99327L10.4762 2.33331L10.6735 1.67334L10 1.86664L9.3266 1.67334L9.52385 2.33331L9.3266 2.99327ZM9.3266 12.3266L10 12.1333L10.6735 12.3266L10.4762 11.6666L10.6735 11.0067L10 11.2L9.3266 11.0067L9.52385 11.6666L9.3266 12.3266ZM14.7619 7.46664L14.0885 7.65994L14.2858 6.99997L14.0885 6.34001L14.7619 6.53331L15.4354 6.34001L15.2381 6.99997L15.4354 7.65994L14.7619 7.46664ZM4.5647 7.65994L5.23813 7.46664L5.91157 7.65994L5.71432 6.99997L5.91157 6.34001L5.23813 6.53331L4.5647 6.34001L4.76194 6.99997L4.5647 7.65994ZM14.124 5.13331L13.4505 5.32661L13.6478 4.66664L13.4505 4.00667L14.124 4.19997L14.7974 4.00667L14.6002 4.66664L14.7974 5.32661L14.124 5.13331ZM5.20267 9.99327L5.87611 9.79997L6.54954 9.99327L6.3523 9.33331L6.54954 8.67334L5.87611 8.86664L5.20267 8.67334L5.39992 9.33331L5.20267 9.99327ZM12.381 3.42519L11.7076 3.61849L11.9048 2.95852L11.7076 2.29855L12.381 2.49185L13.0544 2.29855L12.8572 2.95852L13.0544 3.61849L12.381 3.42519ZM6.94565 11.7014L7.61908 11.5081L8.29252 11.7014L8.09527 11.0414L8.29252 10.3815L7.61908 10.5748L6.94565 10.3815L7.14289 11.0414L6.94565 11.7014ZM14.124 9.79997L13.4505 9.99327L13.6478 9.33331L13.4505 8.67334L14.124 8.86664L14.7974 8.67334L14.6002 9.33331L14.7974 9.99327L14.124 9.79997ZM5.20267 5.32661L5.87611 5.13331L6.54954 5.32661L6.3523 4.66664L6.54954 4.00667L5.87611 4.19997L5.20267 4.00667L5.39992 4.66664L5.20267 5.32661ZM12.381 11.5081L11.7076 11.7014L11.9048 11.0414L11.7076 10.3815L12.381 10.5748L13.0544 10.3815L12.8572 11.0414L13.0544 11.7014L12.381 11.5081ZM6.94565 3.61849L7.61908 3.42519L8.29252 3.61849L8.09527 2.95852L8.29252 2.29855L7.61908 2.49185L6.94565 2.29855L7.14289 2.95852L6.94565 3.61849Z" fill="#FFD429"/>
</g>
</svg>
