<svg width="20" height="14" viewBox="0 0 20 14" fill="none" xmlns="http://www.w3.org/2000/svg">
<rect width="20" height="14" rx="2" fill="white"/>
<mask id="mask0_11425_87712" style="mask-type:luminance" maskUnits="userSpaceOnUse" x="0" y="0" width="20" height="14">
<rect width="20" height="14" rx="2" fill="white"/>
</mask>
<g mask="url(#mask0_11425_87712)">
<rect width="20" height="14" fill="#79CFF6"/>
<rect width="8.57143" height="6.53333" fill="url(#paint0_linear_11425_87712)"/>
<path fill-rule="evenodd" clip-rule="evenodd" d="M12.381 6.99994C12.381 5.59994 12.381 3.73328 12.381 3.73328H17.1429C17.1429 3.73328 17.1429 5.59994 17.1429 6.99994C17.1429 9.33328 14.7619 10.2666 14.7619 10.2666C14.7619 10.2666 12.381 9.33328 12.381 6.99994Z" fill="white"/>
<mask id="mask1_11425_87712" style="mask-type:luminance" maskUnits="userSpaceOnUse" x="12" y="3" width="6" height="8">
<path fill-rule="evenodd" clip-rule="evenodd" d="M12.381 6.99994C12.381 5.59994 12.381 3.73328 12.381 3.73328H17.1429C17.1429 3.73328 17.1429 5.59994 17.1429 6.99994C17.1429 9.33328 14.7619 10.2666 14.7619 10.2666C14.7619 10.2666 12.381 9.33328 12.381 6.99994Z" fill="white"/>
</mask>
<g mask="url(#mask1_11425_87712)">
<path fill-rule="evenodd" clip-rule="evenodd" d="M13.8096 5.59997C13.8096 5.8577 13.5964 6.06663 13.3334 6.06663C13.0704 6.06663 12.8572 5.8577 12.8572 5.59997C12.8572 5.34223 13.0704 5.1333 13.3334 5.1333C13.5964 5.1333 13.8096 5.34223 13.8096 5.59997ZM16.6667 5.59997C16.6667 5.8577 16.4535 6.06663 16.1905 6.06663C15.9275 6.06663 15.7143 5.8577 15.7143 5.59997C15.7143 5.34223 15.9275 5.1333 16.1905 5.1333C16.4535 5.1333 16.6667 5.34223 16.6667 5.59997Z" fill="#2A915C"/>
<path fill-rule="evenodd" clip-rule="evenodd" d="M12.381 3.73328H17.1429V4.66661H15.2381V6.53328H17.1429V7.46661H15.2381V10.2666H14.2857V7.46661H12.381V6.53328H14.2857V4.66661H12.381V3.73328Z" fill="#EB1D43"/>
</g>
<path d="M-0.915074 -0.333333H0H0.47619H0.581265L0.667345 -0.273077L3.9146 2H4.66793L8.39732 -0.284251L8.90476 -0.595057V0V0.293115C8.90476 0.510658 8.79862 0.714517 8.6204 0.839269L5.57143 2.97355V3.578L8.45876 6.00336C8.80818 6.29688 8.60063 6.86667 8.14428 6.86667C8.04397 6.86667 7.94608 6.83581 7.8639 6.77828M-0.915074 -0.333333L7.8639 6.77828M-0.915074 -0.333333L-0.214397 0.255235L3 2.95533V3.55978L-0.191154 5.79359L-0.333333 5.89311V6.06667V6.53333V7.12839L0.174104 6.81758L3.90349 4.53333H4.65683L7.8639 6.77828M-0.915074 -0.333333L7.8639 6.77828" fill="#DB1E36" stroke="white" stroke-width="0.666667"/>
<path fill-rule="evenodd" clip-rule="evenodd" d="M0 2.33333V4.2H3.33333V6.33333C3.33333 6.70152 3.63181 7 4 7H4.57143C4.93962 7 5.23809 6.70152 5.23809 6.33333V4.2H8.38095C8.74914 4.2 9.04762 3.90152 9.04762 3.53333V3C9.04762 2.63181 8.74914 2.33333 8.38095 2.33333H5.23809V0H3.33333V2.33333H0Z" fill="url(#paint1_linear_11425_87712)"/>
<path fill-rule="evenodd" clip-rule="evenodd" d="M0 2.8H3.80952V2.33333V0H4.7619V2.33333V2.8H8.57143V3.73333H4.7619V4.2V6.53333H3.80952V4.2V3.73333H0V2.8Z" fill="#DB1E36"/>
</g>
<defs>
<linearGradient id="paint0_linear_11425_87712" x1="0" y1="0" x2="0" y2="6.53333" gradientUnits="userSpaceOnUse">
<stop stop-color="#042C90"/>
<stop offset="1" stop-color="#00247E"/>
</linearGradient>
<linearGradient id="paint1_linear_11425_87712" x1="0" y1="0" x2="0" y2="7" gradientUnits="userSpaceOnUse">
<stop stop-color="white"/>
<stop offset="1" stop-color="#F0F0F0"/>
</linearGradient>
</defs>
</svg>
