<svg width="20" height="14" viewBox="0 0 20 14" fill="none" xmlns="http://www.w3.org/2000/svg">
<rect width="20" height="14" rx="2" fill="white"/>
<mask id="mask0_11425_87713" style="mask-type:luminance" maskUnits="userSpaceOnUse" x="0" y="0" width="20" height="14">
<rect width="20" height="14" rx="2" fill="white"/>
</mask>
<g mask="url(#mask0_11425_87713)">
<rect width="20" height="14" fill="#07319C"/>
<path fill-rule="evenodd" clip-rule="evenodd" d="M12.381 6.99994C12.381 6.37936 12.381 5.66709 12.381 5.06635C12.381 4.32997 12.9779 3.73328 13.7143 3.73328H15.8096C16.5459 3.73328 17.1429 4.32997 17.1429 5.06635C17.1429 5.66709 17.1429 6.37936 17.1429 6.99994C17.1429 9.33328 14.7619 10.2666 14.7619 10.2666C14.7619 10.2666 12.381 9.33328 12.381 6.99994Z" fill="#0072C4"/>
<mask id="mask1_11425_87713" style="mask-type:luminance" maskUnits="userSpaceOnUse" x="12" y="3" width="6" height="8">
<path fill-rule="evenodd" clip-rule="evenodd" d="M12.381 6.99994C12.381 6.37936 12.381 5.66709 12.381 5.06635C12.381 4.32997 12.9779 3.73328 13.7143 3.73328H15.8096C16.5459 3.73328 17.1429 4.32997 17.1429 5.06635C17.1429 5.66709 17.1429 6.37936 17.1429 6.99994C17.1429 9.33328 14.7619 10.2666 14.7619 10.2666C14.7619 10.2666 12.381 9.33328 12.381 6.99994Z" fill="white"/>
</mask>
<g mask="url(#mask1_11425_87713)">
<path fill-rule="evenodd" clip-rule="evenodd" d="M13.478 6.48739C12.99 6.97043 13.9464 6.90917 13.9464 6.90917L14.6275 6.69544C14.6275 6.69544 14.9338 6.73175 15.1405 6.79281C15.2774 6.83327 15.6585 7 15.6585 7C15.6585 7 16.4633 6.84255 16.1803 6.48739C15.8973 6.13222 13.966 6.00434 13.478 6.48739Z" fill="#005121"/>
<path fill-rule="evenodd" clip-rule="evenodd" d="M15.5071 5.98557C15.5267 5.98122 15.5724 5.98219 15.5895 6.00255C15.6162 6.03437 15.671 6.02379 15.6978 6.05446C15.7245 6.08522 15.7555 6.11357 15.7555 6.1573C15.7555 6.20104 15.7503 6.30948 15.7513 6.3333C15.7526 6.37002 15.7591 6.3757 15.7976 6.37473C15.8441 6.37357 15.9082 6.37002 15.9102 6.2885C15.9116 6.2317 15.8539 6.19624 15.8371 5.99419C15.8624 5.97295 15.8849 5.95402 15.8764 5.92575C15.868 5.89739 15.9243 5.88317 15.9187 5.84059C15.913 5.7981 15.9749 5.77206 15.9496 5.72486C15.9243 5.67757 15.9805 5.67526 15.958 5.63739C15.9355 5.59962 15.9945 5.56646 15.9693 5.53348C15.944 5.50033 16.003 5.46966 15.9721 5.42948C15.9411 5.3893 15.9889 5.36566 15.958 5.3349C15.9777 5.30424 15.9608 5.21677 15.8989 5.16717C15.8371 5.11748 15.7499 5.09153 15.6992 5.07259C15.6049 5.03739 15.4291 5.05366 15.3053 5.06788C15.1815 5.08202 14.9508 5.09624 14.8805 5.08682C14.8102 5.07739 14.6443 5.06788 14.5134 5.08913C14.4686 5.09642 14.4177 5.08326 14.391 5.05846C14.3697 5.03864 14.3573 5.04077 14.3376 5.04193C14.3179 5.04308 14.3066 5.03713 14.2968 5.01348C14.2794 4.97188 14.2406 5.0005 14.2223 4.9485C14.21 4.91375 14.1462 4.94379 14.1266 4.91428C14.1068 4.88477 14.083 4.88122 14.0295 4.88477C14.0267 4.86699 13.9972 4.85402 13.9704 4.85873C13.9746 4.82922 13.9451 4.80557 13.8959 4.80673C13.9015 4.7701 13.8326 4.74175 13.7974 4.76424C13.775 4.73704 13.7299 4.7429 13.7187 4.76424C13.6948 4.73704 13.6188 4.7453 13.6005 4.77482C13.5682 4.75713 13.5053 4.80059 13.5105 4.86939C13.5119 4.88833 13.5132 4.90797 13.4809 4.91428C13.4205 4.9261 13.3853 4.99224 13.3332 5.00166C13.2812 5.01117 13.2291 5.0277 13.2193 5.05606C13.2095 5.08442 13.2278 5.11402 13.2081 5.12815C13.1884 5.14237 13.2207 5.15535 13.2305 5.16237C13.2404 5.16948 13.2558 5.1813 13.2587 5.19784C13.2627 5.2213 13.3022 5.22833 13.3431 5.20255C13.3599 5.19197 13.3895 5.22388 13.4373 5.20139C13.4851 5.17899 13.5531 5.19082 13.5414 5.22744C13.5358 5.24513 13.5484 5.26406 13.564 5.28175C13.5794 5.29944 13.6026 5.35286 13.5892 5.38335C13.5696 5.42824 13.6089 5.45313 13.5991 5.49322C13.5892 5.53348 13.6047 5.5701 13.5836 5.62442C13.5625 5.67873 13.5622 5.74673 13.5935 5.76619C13.6371 5.79339 13.6107 5.84726 13.6483 5.87019C13.6792 5.88904 13.661 5.93517 13.7187 5.9493C13.7763 5.96353 13.7426 6.0013 13.803 6.00957C13.8635 6.01784 13.8846 6.06042 13.9479 6.0509C13.9945 6.04397 14.0191 6.05508 14.0463 6.06557C14.0519 6.10344 14.0394 6.24237 14.0366 6.27784C14.034 6.30922 14.0169 6.35926 14.0169 6.3901C14.0169 6.40895 14.0562 6.41366 14.1013 6.41366C14.1462 6.41366 14.166 6.39597 14.1546 6.34637C14.1434 6.29668 14.1407 6.1757 14.1435 6.10006C14.1826 6.11846 14.2197 6.14424 14.218 6.17268C14.2152 6.21873 14.2159 6.30139 14.2081 6.34397C14.2026 6.37473 14.2109 6.42317 14.2138 6.45508C14.2167 6.46682 14.2925 6.46566 14.3235 6.45508C14.3544 6.44442 14.3544 6.41606 14.3516 6.28726C14.3502 6.22353 14.2812 6.15837 14.3685 6.12655C14.4107 6.11117 14.4698 6.0757 14.4923 6.04273C14.5148 6.00957 14.5641 6.02255 14.5992 6.03917C14.6343 6.0557 14.6906 6.08095 14.7259 6.06984C14.7708 6.0557 14.8187 6.09108 14.858 6.06984C14.8974 6.04859 14.9481 6.08522 14.9804 6.05926C15.0127 6.03322 15.069 6.05802 15.093 6.03322C15.1169 6.00842 15.2153 6.04744 15.2505 6.01437C15.2857 5.98122 15.3335 6.02379 15.3659 5.99899C15.3743 5.99242 15.3844 5.99099 15.3954 5.99179C15.3941 6.0477 15.3834 6.13668 15.3813 6.16442C15.3788 6.19588 15.3616 6.24584 15.3616 6.27659C15.3616 6.29553 15.401 6.30024 15.446 6.30024C15.491 6.30024 15.5107 6.28255 15.4995 6.23295C15.4882 6.18335 15.5044 6.0613 15.5071 5.98557Z" fill="#A3A3A3"/>
<path fill-rule="evenodd" clip-rule="evenodd" d="M13.2309 5.12396C13.2498 5.11054 13.2323 5.08263 13.2417 5.05578C13.2511 5.02903 13.301 5.01338 13.3508 5.00449C13.4007 4.99551 13.4343 4.93303 13.4923 4.92183C13.5232 4.91587 13.5219 4.89729 13.5206 4.87943C13.5157 4.81445 13.5758 4.77338 13.6068 4.79018C13.6243 4.76218 13.6971 4.75436 13.7199 4.78005C13.7307 4.75996 13.7738 4.75436 13.7954 4.78005C13.829 4.75889 13.8951 4.78565 13.8897 4.82023C13.9369 4.81916 13.9651 4.84147 13.9611 4.86938C13.9867 4.86494 14.0149 4.8772 14.0177 4.89391C14.0134 4.92138 14.0774 4.9284 14.0478 4.94618C14.0218 4.96174 13.9972 4.9556 13.9676 4.93436C13.9381 4.91303 13.8396 4.93196 13.8255 4.94263C13.8115 4.95329 13.796 4.958 13.7847 4.94974C13.7735 4.94147 13.7468 4.9284 13.7341 4.92965C13.7214 4.9308 13.6947 4.9308 13.6792 4.906C13.6637 4.8812 13.6244 4.87765 13.6174 4.88707C13.6104 4.89649 13.6328 4.9308 13.6554 4.94378C13.6778 4.95685 13.6666 4.98165 13.6934 4.99578C13.7108 5.00511 13.6947 5.03711 13.6849 5.05605C13.6751 5.07498 13.6371 5.06903 13.6342 5.05489C13.6315 5.04076 13.6215 5.03125 13.5991 5.05249C13.5765 5.07383 13.5288 5.06787 13.5175 5.062C13.5063 5.05605 13.4753 5.04547 13.4542 5.05134C13.433 5.05729 13.464 5.06671 13.4669 5.07498C13.4697 5.08325 13.433 5.0868 13.412 5.0868C13.3909 5.0868 13.3838 5.09854 13.3965 5.10094C13.4092 5.10334 13.4583 5.10574 13.4781 5.09623C13.4978 5.0868 13.5582 5.09623 13.5639 5.114C13.5695 5.13169 13.5288 5.1388 13.5048 5.1364C13.4694 5.13294 13.4176 5.15178 13.3923 5.15765C13.367 5.1636 13.2995 5.14823 13.2727 5.15534C13.2461 5.16236 13.2197 5.13454 13.2309 5.12396Z" fill="#A3A3A3"/>
<path fill-rule="evenodd" clip-rule="evenodd" d="M13.6834 5.26882C13.6581 5.27825 13.6666 5.3066 13.6891 5.31842C13.7117 5.33025 13.7622 5.33496 13.7946 5.32909C13.8269 5.32314 13.834 5.33265 13.8129 5.34447C13.7918 5.3562 13.8452 5.3586 13.841 5.37754C13.8368 5.39638 13.8607 5.39282 13.8832 5.39167C13.9057 5.39051 13.9353 5.37629 13.9606 5.36331C13.9858 5.35034 14.0042 5.35976 13.9802 5.38225C13.9564 5.40465 13.8762 5.43309 13.8129 5.42954C13.7495 5.42598 13.7158 5.44011 13.7299 5.4602C13.7439 5.48029 13.8115 5.48385 13.8466 5.47318C13.8818 5.4626 13.8762 5.48154 13.8494 5.49442C13.8227 5.50749 13.7847 5.50865 13.7524 5.50749C13.72 5.50634 13.6919 5.53354 13.7341 5.54882C13.7763 5.5642 13.8326 5.55478 13.8537 5.56776C13.8748 5.58074 13.9395 5.56065 13.9409 5.58314C13.9422 5.60554 13.9226 5.6138 13.8846 5.61149C13.8466 5.60909 13.8578 5.62589 13.8861 5.63505C13.9113 5.6434 13.9564 5.6434 13.9802 5.641C14.0042 5.63869 13.9972 5.66225 13.9733 5.67051C13.9493 5.67878 13.872 5.6906 13.834 5.68945C13.796 5.68829 13.8142 5.71194 13.8635 5.71194C14.014 5.71194 14.0647 5.64216 14.1027 5.59371C14.1213 5.56998 14.1575 5.55709 14.166 5.57131C14.1744 5.58545 14.1758 5.589 14.159 5.60082C14.142 5.61265 14.1462 5.61976 14.1772 5.62091C14.2081 5.62207 14.2531 5.6138 14.2799 5.60678C14.3066 5.59967 14.3853 5.64438 14.3207 5.64571C14.2067 5.64811 14.0661 5.68829 14.0197 5.70482C13.9733 5.72136 13.8958 5.75247 13.8481 5.75087C13.8129 5.74971 13.7988 5.76269 13.8129 5.77807C13.8269 5.79345 13.872 5.79345 13.8973 5.78634C13.9226 5.77922 13.9282 5.78634 13.9113 5.80047C13.8945 5.81469 13.8523 5.82056 13.8227 5.82536C13.7933 5.83007 13.7786 5.84856 13.8016 5.85602C13.8452 5.87025 13.8058 5.88322 13.8368 5.89034C13.8677 5.89745 13.834 5.91985 13.8677 5.92696C13.9015 5.93407 13.9212 5.93051 13.9465 5.91398C13.9719 5.89745 13.9858 5.88794 14.0126 5.89034C14.0394 5.89274 14.0577 5.88082 14.0731 5.86314C14.0886 5.84545 14.1407 5.81354 14.1575 5.82891C14.1744 5.84429 14.2095 5.81585 14.2166 5.83122C14.2236 5.8466 14.2531 5.83718 14.2602 5.85842C14.268 5.88207 14.301 5.88678 14.3235 5.87851C14.346 5.87025 14.3643 5.85016 14.3643 5.82056C14.3643 5.79105 14.3727 5.77922 14.3812 5.81114C14.3895 5.84305 14.4206 5.85247 14.436 5.83718C14.4515 5.8218 14.4571 5.76865 14.4458 5.74385C14.4346 5.71896 14.4331 5.68705 14.4445 5.68118C14.4557 5.67531 14.4825 5.72962 14.4937 5.75327C14.505 5.77691 14.5344 5.7698 14.5359 5.74616C14.5373 5.72251 14.564 5.71069 14.5837 5.72847C14.6034 5.74616 14.5922 5.80527 14.5978 5.83362C14.6034 5.86198 14.6582 5.82651 14.6639 5.83594C14.6695 5.84545 14.6906 5.84776 14.6991 5.82767C14.7075 5.80758 14.7272 5.78989 14.7384 5.80171C14.7498 5.81354 14.7666 5.83362 14.7736 5.85602C14.7807 5.87851 14.8059 5.89034 14.8214 5.86669C14.8368 5.84305 14.8482 5.797 14.8426 5.765C14.8368 5.73318 14.8468 5.71309 14.8608 5.72962C14.8748 5.74616 14.8735 5.79105 14.8748 5.82767C14.8763 5.86429 14.9227 5.86082 14.9227 5.80642C14.9227 5.78162 14.9367 5.77691 14.941 5.79105C14.9452 5.80527 14.9452 5.82891 14.9494 5.83949C14.9598 5.86571 14.9959 5.85131 15 5.83362C15.0043 5.81585 14.9973 5.75202 14.9888 5.72376C14.9803 5.69531 14.9973 5.67531 15.0113 5.6906C15.0254 5.70598 15.0282 5.74616 15.031 5.79105C15.0338 5.83594 15.0633 5.83834 15.0789 5.82536C15.0943 5.81229 15.0943 5.77451 15.0873 5.74731C15.0802 5.7202 15.1028 5.7202 15.1126 5.73674C15.1225 5.75327 15.1394 5.7426 15.1365 5.72962C15.1338 5.71665 15.1477 5.70482 15.1618 5.72251C15.1759 5.74029 15.1717 5.78047 15.1647 5.81229C15.1576 5.84429 15.1998 5.84065 15.2195 5.81354C15.2392 5.78634 15.2293 5.71194 15.2125 5.68829C15.1956 5.66465 15.1971 5.63389 15.2068 5.60678C15.2167 5.57958 15.2351 5.57834 15.2364 5.59025C15.2378 5.60198 15.2463 5.62207 15.2617 5.63745C15.2772 5.65282 15.2856 5.65522 15.2884 5.63149C15.2912 5.60794 15.3053 5.6138 15.3109 5.63149C15.3166 5.64927 15.3264 5.6634 15.3404 5.64811C15.3545 5.63274 15.3728 5.64456 15.3616 5.6682C15.3503 5.69185 15.3503 5.71309 15.3588 5.73674C15.3672 5.76038 15.3967 5.75682 15.3996 5.72962C15.4054 5.67309 15.4137 5.71069 15.4207 5.73549C15.4276 5.76038 15.4488 5.75914 15.453 5.745C15.4573 5.73078 15.4615 5.72731 15.4615 5.7426C15.4615 5.75798 15.4685 5.77096 15.4868 5.77096C15.5051 5.77096 15.5009 5.74029 15.5092 5.72136C15.5177 5.70242 15.5331 5.72847 15.5543 5.77211C15.5754 5.81585 15.5908 5.77451 15.6401 5.8738C15.6602 5.91425 15.6893 5.87967 15.688 5.86554C15.6865 5.85131 15.6907 5.84189 15.7146 5.84189C15.7385 5.84189 15.7582 5.83718 15.7499 5.8218C15.7414 5.80642 15.747 5.77807 15.7456 5.74616C15.7443 5.71425 15.7484 5.69656 15.7526 5.71425C15.7568 5.73194 15.7709 5.75682 15.7934 5.7698C15.8159 5.78278 15.8313 5.74731 15.813 5.72491C15.7948 5.70242 15.7695 5.64927 15.7709 5.60438C15.772 5.57131 15.7877 5.58189 15.7877 5.60554C15.7877 5.62918 15.8018 5.67176 15.823 5.68118C15.844 5.6906 15.8525 5.64687 15.8427 5.62447C15.8328 5.60198 15.8272 5.57131 15.8483 5.56536C15.8693 5.55949 15.8427 5.53469 15.8244 5.51691C15.8061 5.49922 15.7948 5.48154 15.8272 5.48269C15.8595 5.48385 15.8328 5.46376 15.8173 5.45078C15.8018 5.4378 15.7752 5.41176 15.8173 5.41531C15.8595 5.41887 15.8455 5.39762 15.8286 5.3858C15.8117 5.37398 15.8018 5.35149 15.8313 5.35274C15.861 5.35389 15.8792 5.33967 15.8764 5.32909C15.8656 5.28811 15.7948 5.24047 15.7512 5.20385C15.7076 5.16722 15.6373 5.1306 15.5993 5.12465C15.5613 5.11869 15.5599 5.14242 15.5698 5.15656C15.5796 5.17069 15.5993 5.1802 15.6021 5.16598C15.6049 5.15185 15.6344 5.16722 15.6485 5.18607C15.6626 5.205 15.7104 5.22865 15.74 5.24989C15.7695 5.27114 15.7006 5.26056 15.6668 5.2322C15.6475 5.21594 15.6499 5.23567 15.6753 5.25816C15.7006 5.28065 15.6682 5.29007 15.6415 5.27114C15.6147 5.25229 15.5458 5.19914 15.5022 5.16482C15.4586 5.1306 15.4516 5.13887 15.4502 5.16127C15.4488 5.18376 15.4643 5.19914 15.4924 5.21798C15.5206 5.23691 15.5557 5.26642 15.5825 5.28651C15.6091 5.3066 15.5867 5.31958 15.5698 5.30536C15.5528 5.29122 15.4953 5.25229 15.4615 5.22509C15.4276 5.19789 15.3967 5.18491 15.3757 5.18847C15.3545 5.19202 15.356 5.21211 15.3813 5.23336C15.4066 5.2546 15.4376 5.29478 15.4376 5.31842C15.4376 5.34207 15.4151 5.3586 15.4037 5.31611C15.3925 5.27354 15.3391 5.22394 15.2997 5.18607C15.2603 5.14829 15.2209 5.14118 15.1913 5.14358C15.1618 5.14589 15.1632 5.17425 15.1632 5.19674C15.1632 5.21914 15.1435 5.20616 15.1421 5.18962C15.1408 5.17309 15.1182 5.15896 15.1055 5.16011C15.0929 5.16127 15.0972 5.19558 15.0929 5.21096C15.0887 5.22625 15.069 5.24047 15.069 5.205C15.069 5.16954 15.0226 5.15185 15.0029 5.1506C14.9832 5.14945 14.9649 5.15656 14.9747 5.17194C14.9846 5.18722 14.9803 5.22865 14.9734 5.25229C14.9663 5.27585 14.9452 5.23451 14.941 5.19078C14.9367 5.14714 14.8707 5.11638 14.8243 5.12936C14.7778 5.14242 14.813 5.17069 14.8046 5.19789C14.7961 5.22509 14.7834 5.20029 14.7792 5.17194C14.7751 5.14358 14.7525 5.1258 14.7216 5.13291C14.6906 5.14002 14.6695 5.15416 14.6709 5.17309C14.6723 5.19202 14.6723 5.20856 14.6653 5.23922C14.6582 5.26998 14.6456 5.2546 14.647 5.23451C14.6485 5.21442 14.6414 5.18136 14.6343 5.16242C14.6273 5.14358 14.616 5.16127 14.6189 5.18491C14.6217 5.20856 14.6146 5.26287 14.6034 5.29602C14.5922 5.32909 14.5753 5.33025 14.5837 5.28536C14.5922 5.24047 14.571 5.17425 14.55 5.14358C14.5348 5.12162 14.5008 5.11407 14.5008 5.14474C14.5008 5.17549 14.5106 5.19789 14.5359 5.22038C14.5612 5.24278 14.5415 5.29834 14.5162 5.32794C14.4908 5.35745 14.4923 5.31487 14.5008 5.28296C14.5091 5.25105 14.4628 5.24047 14.4445 5.23451C14.4262 5.22865 14.4642 5.19674 14.4726 5.15416C14.4767 5.13318 14.4711 5.11994 14.4543 5.11869C14.4374 5.11754 14.3924 5.15771 14.3727 5.18722C14.3783 5.15656 14.3727 5.12936 14.3558 5.12936C14.339 5.12936 14.3207 5.15896 14.3081 5.1802C14.2954 5.20145 14.2827 5.18962 14.2954 5.16722C14.3081 5.14474 14.3276 5.08447 14.3024 5.07149C14.2771 5.05851 14.2545 5.11167 14.2279 5.10216C14.2127 5.09682 14.2335 5.06322 14.2419 5.04785C14.2503 5.03247 14.2335 5.02065 14.1955 5.049C14.1575 5.07745 14.1407 5.12349 14.1307 5.15185C14.121 5.1802 14.0535 5.22625 14.0168 5.25105C13.9802 5.27585 13.9648 5.26642 13.9831 5.25576C14.0014 5.24518 14.0379 5.21211 14.0562 5.19914C14.0745 5.18607 14.0661 5.17842 14.0309 5.20082C13.9958 5.22331 13.9318 5.26411 13.8663 5.27825C13.8279 5.2866 13.8227 5.27949 13.8607 5.26882C13.8986 5.25816 13.9858 5.20731 14.007 5.18376C14.0202 5.16891 13.9858 5.18136 13.969 5.18491C13.9522 5.18847 13.9381 5.18376 13.9719 5.17194C14.0055 5.16011 14.1125 5.06678 14.1351 5.03247C14.1575 4.99825 14.1378 4.98518 14.1237 4.98642C14.1097 4.98758 14.09 4.99585 14.0942 4.98171C14.0984 4.96749 14.0886 4.94856 14.0703 4.95451C14.052 4.96038 14.0535 4.99469 14.0464 5.01354C14.0394 5.03247 13.9999 5.05736 13.9746 5.05736C13.9493 5.05736 13.9142 5.06207 13.8874 5.07976C13.8607 5.09745 13.8481 5.08091 13.8607 5.06678C13.8734 5.05256 13.9015 5.049 13.9297 5.04785C13.9578 5.04669 13.9887 5.04314 14.0126 5.02065C14.0365 4.99825 14.0379 4.98047 14.0197 4.97931C14.0014 4.97816 13.9704 4.95807 13.9606 4.9498C13.9106 4.90776 13.8191 4.96634 13.7833 5.00056C13.7636 5.01949 13.6961 5.07389 13.6751 5.08802C13.6539 5.10216 13.6624 5.12225 13.6975 5.09514C13.7327 5.06794 13.7439 5.08687 13.7117 5.10696C13.6792 5.12705 13.6554 5.15656 13.6666 5.16722C13.6778 5.1778 13.7214 5.16482 13.7453 5.15185C13.7692 5.13887 13.7806 5.17069 13.7214 5.18136C13.6817 5.18856 13.6679 5.20225 13.699 5.20385C13.7229 5.205 13.7594 5.19558 13.7933 5.17905C13.8269 5.16242 13.8537 5.17194 13.8255 5.18847C13.7974 5.205 13.7355 5.22749 13.7046 5.22749C13.6786 5.22749 13.7088 5.2594 13.6834 5.26882Z" fill="white"/>
<path fill-rule="evenodd" clip-rule="evenodd" d="M13.8466 5.00463C13.8805 4.9701 13.91 4.95498 13.9409 4.97981C13.9689 5.0023 13.9719 5.0121 13.9367 5.00463C13.9015 4.99717 13.8776 5.00463 13.8566 5.02694C13.8354 5.04934 13.8115 5.04057 13.8466 5.00463Z" fill="#A3A3A3"/>
<path fill-rule="evenodd" clip-rule="evenodd" d="M13.2897 5.09241C13.315 5.06758 13.3557 5.06758 13.374 5.04033C13.3923 5.01298 13.412 5.02297 13.3895 5.04901C13.367 5.07505 13.3234 5.08009 13.3051 5.09866C13.2868 5.11723 13.277 5.10482 13.2897 5.09241Z" fill="#A3A3A3"/>
<path fill-rule="evenodd" clip-rule="evenodd" d="M13.4472 4.99757C13.4625 4.99551 13.4922 4.97769 13.5105 4.95659C13.5288 4.9355 13.5682 4.92803 13.592 4.95286C13.6159 4.97769 13.6286 4.98637 13.6413 4.99141C13.6539 4.99635 13.6539 5.0125 13.6342 5.01735C13.6146 5.02239 13.5879 5.02613 13.5738 5.01987C13.5597 5.01371 13.5386 5.00877 13.5217 5.0125C13.5048 5.01614 13.4978 5.00877 13.5119 5.00251C13.526 4.99635 13.5428 4.97769 13.5513 4.97022C13.5597 4.96285 13.5822 4.96901 13.5696 4.97647C13.5569 4.98394 13.5625 4.99999 13.5752 5.00625C13.5879 5.0125 13.6132 5.0125 13.6244 5.0013C13.6076 4.98515 13.5794 4.96406 13.5682 4.9579C13.5569 4.95165 13.547 4.94913 13.533 4.96406C13.5189 4.97899 13.4851 5.01493 13.4529 5.01371C13.4205 5.0125 13.4289 4.99999 13.4472 4.99757Z" fill="#A3A3A3"/>
<path fill-rule="evenodd" clip-rule="evenodd" d="M14.3361 5.22018C14.3236 5.23726 14.3122 5.25928 14.3108 5.27664C14.3094 5.294 14.3256 5.30586 14.3276 5.28411C14.3298 5.26236 14.3319 5.24939 14.3494 5.23324C14.3671 5.2171 14.3502 5.20095 14.3361 5.22018Z" fill="#A3A3A3"/>
<path fill-rule="evenodd" clip-rule="evenodd" d="M14.1639 5.21974C14.1785 5.21395 14.2032 5.20051 14.2152 5.1881C14.2271 5.17578 14.2349 5.18381 14.2229 5.19743C14.2109 5.21106 14.1835 5.22721 14.1708 5.23094C14.1582 5.23467 14.1484 5.22599 14.1639 5.21974Z" fill="#A3A3A3"/>
<path fill-rule="evenodd" clip-rule="evenodd" d="M14.1857 5.28877C14.1655 5.31259 14.0858 5.36921 14.0619 5.37979C14.0379 5.39046 14.0464 5.40583 14.0732 5.39757C14.0535 5.41286 14.0098 5.43775 13.9818 5.44477C13.9536 5.45188 13.9479 5.47312 13.9901 5.46015C14.0323 5.44717 14.0914 5.41286 14.1068 5.39757C14.1224 5.38219 14.1027 5.37508 14.1266 5.35855C14.1505 5.34201 14.1948 5.31179 14.2011 5.29943C14.211 5.28059 14.1997 5.27223 14.1857 5.28877Z" fill="#A3A3A3"/>
<path fill-rule="evenodd" clip-rule="evenodd" d="M14.0984 5.48153C14.1286 5.46713 14.1849 5.4162 14.2011 5.38695C14.2109 5.36926 14.2306 5.37157 14.2152 5.39877C14.1997 5.42597 14.142 5.47442 14.1223 5.4874C14.1027 5.50037 14.0661 5.49682 14.0984 5.48153Z" fill="#A3A3A3"/>
<path fill-rule="evenodd" clip-rule="evenodd" d="M14.7385 5.20135C14.7302 5.21797 14.7286 5.25691 14.7315 5.27575C14.7342 5.29468 14.7512 5.30891 14.7483 5.28055C14.7455 5.2522 14.7455 5.22384 14.7553 5.21557C14.7652 5.20722 14.7525 5.173 14.7385 5.20135Z" fill="#A3A3A3"/>
<path fill-rule="evenodd" clip-rule="evenodd" d="M14.9101 5.27106C14.9244 5.28395 14.9311 5.34439 14.9298 5.36679C14.9284 5.38928 14.9523 5.38928 14.9508 5.35737C14.9494 5.32546 14.9466 5.28528 14.934 5.26404C14.9213 5.2427 14.8904 5.25337 14.9101 5.27106Z" fill="#A3A3A3"/>
<path fill-rule="evenodd" clip-rule="evenodd" d="M15.0605 5.31015C15.0692 5.32562 15.0802 5.35504 15.0802 5.37628C15.0802 5.39762 15.0985 5.3881 15.0999 5.3633C15.1013 5.3385 15.0972 5.31726 15.0873 5.30073C15.0775 5.28419 15.0478 5.28766 15.0605 5.31015Z" fill="#A3A3A3"/>
<path fill-rule="evenodd" clip-rule="evenodd" d="M15.1535 5.29157C15.1458 5.27253 15.1338 5.25554 15.1252 5.25806C15.1169 5.26058 15.1225 5.27794 15.1338 5.29651C15.1449 5.31518 15.1618 5.31266 15.1535 5.29157Z" fill="#A3A3A3"/>
<path fill-rule="evenodd" clip-rule="evenodd" d="M14.5655 5.42357C14.5612 5.47308 14.5345 5.51691 14.5022 5.53228C14.4698 5.54766 14.4754 5.57246 14.5148 5.54766C14.5542 5.52286 14.5838 5.48028 14.5922 5.44251C14.6006 5.40464 14.5683 5.39051 14.5655 5.42357Z" fill="#A3A3A3"/>
<path fill-rule="evenodd" clip-rule="evenodd" d="M14.4951 5.4011C14.4782 5.41764 14.4684 5.4531 14.4684 5.48021C14.4684 5.50741 14.4796 5.48732 14.4825 5.47195C14.4853 5.45657 14.4908 5.43532 14.505 5.42821C14.519 5.4211 14.512 5.38457 14.4951 5.4011Z" fill="#A3A3A3"/>
<path fill-rule="evenodd" clip-rule="evenodd" d="M15.7133 5.43535C15.7281 5.45926 15.7499 5.49802 15.7569 5.52042C15.764 5.54291 15.747 5.54877 15.7414 5.52868C15.7357 5.50859 15.7091 5.46371 15.6992 5.44833C15.6894 5.43304 15.6964 5.40815 15.7133 5.43535Z" fill="#A3A3A3"/>
<path d="M11.4286 6.53331C11.4286 6.53331 13.0485 7.00497 13.322 7.00497C13.3988 7.00497 14.4481 6.76914 14.7627 6.76914C14.8803 6.76914 15.9665 6.93068 16.25 7.00497C16.5336 7.07925 18.0968 6.53331 18.0968 6.53331" stroke="white" stroke-width="0.666667" stroke-linecap="round" stroke-linejoin="round"/>
<path d="M11.4286 7.46666C11.4286 7.46666 13.0485 7.93832 13.322 7.93832C13.3988 7.93832 14.4481 7.70249 14.7627 7.70249C14.8803 7.70249 15.9665 7.86403 16.25 7.93832C16.5336 8.0126 18.0968 7.46666 18.0968 7.46666" stroke="white" stroke-width="0.666667" stroke-linecap="round" stroke-linejoin="round"/>
<path d="M11.4286 9.33324C11.4286 9.33324 13.0485 9.80489 13.322 9.80489C13.3988 9.80489 14.0243 9.42324 14.7627 9.42324C15.501 9.42324 15.9665 9.73061 16.25 9.80489C16.5336 9.87918 18.0968 9.33324 18.0968 9.33324L23.2234 10.1368" stroke="white" stroke-width="1.33333" stroke-linecap="round" stroke-linejoin="round"/>
</g>
<path d="M12.7143 6.99994V6.9415V6.88256V6.82315V6.76332V6.70311V6.64254V6.58165V6.52049V6.45909V6.39749V6.33572V6.27383V6.21184V6.1498V6.14204V6.13816V6.13429V6.11877V6.11489V6.11101V6.10714V6.10326V6.09938V6.0955V6.09162V6.08774V6.08387V6.07999V6.07611V6.07223V6.06835V6.06448V6.0606V6.05672V6.05284V6.04897V6.04509V6.04121V6.03734V6.03346V6.02958V6.02571V6.02183V6.01796V6.01408V6.01021V6.00633V6.00246V5.99858V5.99471V5.99084V5.98696V5.98309V5.97922V5.97535V5.97147V5.9676V5.96373V5.95986V5.95599V5.95212V5.94825V5.94438V5.94051V5.93664V5.93278V5.92891V5.92504V5.92118V5.91731V5.91344V5.90958V5.90571V5.90185V5.89799V5.89412V5.89026V5.8864V5.88254V5.87868V5.87482V5.87096V5.8671V5.86324V5.85938V5.85552V5.85167V5.84781V5.84395V5.8401V5.83625V5.83239V5.82854V5.82469V5.82084V5.81699V5.81314V5.80929V5.80544V5.80159V5.79774V5.7939V5.79005V5.78621V5.78236V5.77852V5.77468V5.77084V5.767V5.76316V5.75932V5.75548V5.75164V5.74781V5.74397V5.74014V5.7363V5.73247V5.72864V5.72481V5.72098V5.71715V5.71332V5.70949V5.70567V5.70184V5.69802V5.69419V5.69037V5.68655V5.68273V5.67891V5.67509V5.67128V5.66746V5.66365V5.65983V5.65602V5.65221V5.6484V5.64459V5.64078V5.63697V5.63317V5.62936V5.62556V5.62176V5.61795V5.61415V5.61036V5.60656V5.60276V5.59897V5.59517V5.59138V5.58759V5.5838V5.58001V5.57622V5.57244V5.56865V5.56487V5.56108V5.5573V5.55352V5.54974V5.54597V5.54219V5.53842V5.53464V5.53087V5.5271V5.51957V5.50451V5.47447V5.41469V5.35534V5.29646V5.23808V5.18025V5.12299V5.06635C12.7143 4.51415 13.1619 4.06661 13.7143 4.06661H15.8096C16.3619 4.06661 16.8096 4.51415 16.8096 5.06635V5.06987V5.0734V5.07692V5.08045V5.08398V5.08752V5.09105V5.09459V5.09813V5.10168V5.10522V5.10877V5.11232V5.11588V5.11943V5.12299V5.12655V5.13012V5.13368V5.13725V5.14082V5.14439V5.14797V5.15155V5.15513V5.15871V5.16229V5.16588V5.16947V5.17306V5.17665V5.18025V5.18385V5.18745V5.19105V5.19465V5.19826V5.20187V5.20548V5.2091V5.21271V5.21633V5.21995V5.22357V5.2272V5.23082V5.23445V5.23808V5.24172V5.24535V5.24899V5.25263V5.25627V5.25991V5.26356V5.26721V5.27086V5.27451V5.27816V5.28182V5.28548V5.28914V5.2928V5.29646V5.30013V5.30379V5.30746V5.31114V5.31481V5.31848V5.32216V5.32584V5.32952V5.33321V5.33689V5.34058V5.34427V5.34796V5.35165V5.35534V5.35904V5.36274V5.36644V5.37014V5.37384V5.37755V5.38125V5.38496V5.38867V5.39238V5.3961V5.39981V5.40353V5.40725V5.41097V5.41469V5.41842V5.42214V5.42587V5.4296V5.43333V5.43706V5.4408V5.44453V5.44827V5.45201V5.45575V5.45949V5.46323V5.46698V5.47072V5.47447V5.47822V5.48197V5.48573V5.48948V5.49324V5.49699V5.50075V5.50451V5.50827V5.51204V5.5158V5.51957V5.52333V5.5271V5.53087V5.53464V5.53842V5.54219V5.54597V5.54974V5.55352V5.5573V5.56108V5.56487V5.56865V5.57244V5.57622V5.58001V5.5838V5.58759V5.59138V5.59517V5.59897V5.60276V5.60656V5.61036V5.61416V5.61796V5.62176V5.62556V5.62936V5.63317V5.63697V5.64078V5.64459V5.6484V5.65221V5.65602V5.65983V5.66365V5.66746V5.67128V5.67509V5.67891V5.68273V5.68655V5.69037V5.69419V5.69802V5.70184V5.70567V5.70949V5.71332V5.71715V5.72098V5.72481V5.72864V5.73247V5.7363V5.74014V5.74397V5.74781V5.75164V5.75548V5.75932V5.76316V5.767V5.77084V5.77468V5.77852V5.78236V5.78621V5.79005V5.7939V5.79774V5.80159V5.80544V5.80929V5.81314V5.81699V5.82084V5.82469V5.82854V5.83239V5.83625V5.8401V5.84396V5.84781V5.85167V5.85552V5.85938V5.86324V5.8671V5.87096V5.87482V5.87868V5.88254V5.8864V5.89026V5.89412V5.89799V5.90185V5.90571V5.90958V5.91344V5.91731V5.92118V5.92504V5.92891V5.93278V5.93664V5.94051V5.94438V5.94825V5.95212V5.95599V5.95986V5.96373V5.9676V5.97147V5.97535V5.97922V5.98309V5.98696V5.99084V5.99471V5.99858V6.00246V6.00633V6.01021V6.01408V6.01796V6.02183V6.02571V6.02958V6.03346V6.03734V6.04121V6.04509V6.04897V6.05284V6.05672V6.0606V6.06448V6.06835V6.07223V6.07611V6.07999V6.08387V6.08774V6.09162V6.0955V6.09938V6.10326V6.10714V6.11101V6.11489V6.11877V6.12265V6.12653V6.13041V6.13429V6.13816V6.14204V6.14592V6.1498V6.15368V6.15756V6.16143V6.16531V6.16919V6.17307V6.17695V6.18082V6.1847V6.18858V6.19246V6.19633V6.20021V6.20409V6.20796V6.21184V6.21572V6.21959V6.22347V6.22734V6.23122V6.23509V6.23897V6.24284V6.24672V6.25059V6.25446V6.25834V6.26221V6.26608V6.26995V6.27383V6.2777V6.28157V6.28544V6.28931V6.29318V6.29705V6.30092V6.30479V6.30866V6.31252V6.31639V6.32026V6.32412V6.32799V6.33186V6.33572V6.33959V6.34345V6.34731V6.35118V6.35504V6.3589V6.36276V6.36662V6.37048V6.37434V6.3782V6.38206V6.38592V6.38978V6.39363V6.39749V6.40134V6.4052V6.40905V6.41291V6.41676V6.42061V6.42446V6.42831V6.43216V6.43601V6.43986V6.44371V6.44756V6.4514V6.45525V6.45909V6.46294V6.46678V6.47062V6.47446V6.4783V6.48214V6.48598V6.48982V6.49366V6.49749V6.50133V6.50516V6.509V6.51283V6.51666V6.52049V6.52432V6.52815V6.53198V6.53581V6.53963V6.54346V6.54728V6.5511V6.55493V6.55875V6.56257V6.56639V6.5702V6.57402V6.57784V6.58165V6.58547V6.58928V6.59309V6.5969V6.60071V6.60452V6.60833V6.61213V6.61594V6.61974V6.62354V6.62734V6.63114V6.63494V6.63874V6.64254V6.64633V6.65013V6.65392V6.65771V6.6615V6.66529V6.66908V6.67286V6.67665V6.68043V6.68421V6.688V6.69178V6.69555V6.69933V6.70311V6.70688V6.71065V6.71443V6.7182V6.72196V6.72573V6.7295V6.73326V6.73702V6.74079V6.74455V6.74831V6.75206V6.75582V6.75957V6.76332V6.76708V6.77083V6.77457V6.77832V6.78207V6.78581V6.78955V6.79329V6.79703V6.80077V6.8045V6.80824V6.81197V6.8157V6.81943V6.82315V6.82688V6.8306V6.83433V6.83805V6.84177V6.84548V6.8492V6.85291V6.85662V6.86034V6.86404V6.86775V6.87146V6.87516V6.87886V6.88256V6.88626V6.88995V6.89365V6.89734V6.90103V6.90472V6.90841V6.91209V6.91577V6.91945V6.92313V6.92681V6.93049V6.93416V6.93783V6.9415V6.94517V6.94883V6.9525V6.95616V6.95982V6.96348V6.96713V6.97079V6.97444V6.97809V6.98174V6.98538V6.98902V6.99267V6.99631V6.99994C16.8096 8.03996 16.2825 8.77268 15.7319 9.25829C15.4566 9.50114 15.18 9.67747 14.9721 9.7929C14.8889 9.83915 14.8172 9.87528 14.7619 9.90172C14.7066 9.87528 14.635 9.83915 14.5517 9.7929C14.3439 9.67747 14.0673 9.50114 13.7919 9.25829C13.2414 8.77268 12.7143 8.03996 12.7143 6.99994Z" stroke="white" stroke-width="0.666667"/>
<mask id="mask2_11425_87713" style="mask-type:luminance" maskUnits="userSpaceOnUse" x="12" y="3" width="6" height="8">
<path d="M12.7143 6.99994V6.9415V6.88256V6.82315V6.76332V6.70311V6.64254V6.58165V6.52049V6.45909V6.39749V6.33572V6.27383V6.21184V6.1498V6.14204V6.13816V6.13429V6.11877V6.11489V6.11101V6.10714V6.10326V6.09938V6.0955V6.09162V6.08774V6.08387V6.07999V6.07611V6.07223V6.06835V6.06448V6.0606V6.05672V6.05284V6.04897V6.04509V6.04121V6.03734V6.03346V6.02958V6.02571V6.02183V6.01796V6.01408V6.01021V6.00633V6.00246V5.99858V5.99471V5.99084V5.98696V5.98309V5.97922V5.97535V5.97147V5.9676V5.96373V5.95986V5.95599V5.95212V5.94825V5.94438V5.94051V5.93664V5.93278V5.92891V5.92504V5.92118V5.91731V5.91344V5.90958V5.90571V5.90185V5.89799V5.89412V5.89026V5.8864V5.88254V5.87868V5.87482V5.87096V5.8671V5.86324V5.85938V5.85552V5.85167V5.84781V5.84395V5.8401V5.83625V5.83239V5.82854V5.82469V5.82084V5.81699V5.81314V5.80929V5.80544V5.80159V5.79774V5.7939V5.79005V5.78621V5.78236V5.77852V5.77468V5.77084V5.767V5.76316V5.75932V5.75548V5.75164V5.74781V5.74397V5.74014V5.7363V5.73247V5.72864V5.72481V5.72098V5.71715V5.71332V5.70949V5.70567V5.70184V5.69802V5.69419V5.69037V5.68655V5.68273V5.67891V5.67509V5.67128V5.66746V5.66365V5.65983V5.65602V5.65221V5.6484V5.64459V5.64078V5.63697V5.63317V5.62936V5.62556V5.62176V5.61795V5.61415V5.61036V5.60656V5.60276V5.59897V5.59517V5.59138V5.58759V5.5838V5.58001V5.57622V5.57244V5.56865V5.56487V5.56108V5.5573V5.55352V5.54974V5.54597V5.54219V5.53842V5.53464V5.53087V5.5271V5.51957V5.50451V5.47447V5.41469V5.35534V5.29646V5.23808V5.18025V5.12299V5.06635C12.7143 4.51415 13.1619 4.06661 13.7143 4.06661H15.8096C16.3619 4.06661 16.8096 4.51415 16.8096 5.06635V5.06987V5.0734V5.07692V5.08045V5.08398V5.08752V5.09105V5.09459V5.09813V5.10168V5.10522V5.10877V5.11232V5.11588V5.11943V5.12299V5.12655V5.13012V5.13368V5.13725V5.14082V5.14439V5.14797V5.15155V5.15513V5.15871V5.16229V5.16588V5.16947V5.17306V5.17665V5.18025V5.18385V5.18745V5.19105V5.19465V5.19826V5.20187V5.20548V5.2091V5.21271V5.21633V5.21995V5.22357V5.2272V5.23082V5.23445V5.23808V5.24172V5.24535V5.24899V5.25263V5.25627V5.25991V5.26356V5.26721V5.27086V5.27451V5.27816V5.28182V5.28548V5.28914V5.2928V5.29646V5.30013V5.30379V5.30746V5.31114V5.31481V5.31848V5.32216V5.32584V5.32952V5.33321V5.33689V5.34058V5.34427V5.34796V5.35165V5.35534V5.35904V5.36274V5.36644V5.37014V5.37384V5.37755V5.38125V5.38496V5.38867V5.39238V5.3961V5.39981V5.40353V5.40725V5.41097V5.41469V5.41842V5.42214V5.42587V5.4296V5.43333V5.43706V5.4408V5.44453V5.44827V5.45201V5.45575V5.45949V5.46323V5.46698V5.47072V5.47447V5.47822V5.48197V5.48573V5.48948V5.49324V5.49699V5.50075V5.50451V5.50827V5.51204V5.5158V5.51957V5.52333V5.5271V5.53087V5.53464V5.53842V5.54219V5.54597V5.54974V5.55352V5.5573V5.56108V5.56487V5.56865V5.57244V5.57622V5.58001V5.5838V5.58759V5.59138V5.59517V5.59897V5.60276V5.60656V5.61036V5.61416V5.61796V5.62176V5.62556V5.62936V5.63317V5.63697V5.64078V5.64459V5.6484V5.65221V5.65602V5.65983V5.66365V5.66746V5.67128V5.67509V5.67891V5.68273V5.68655V5.69037V5.69419V5.69802V5.70184V5.70567V5.70949V5.71332V5.71715V5.72098V5.72481V5.72864V5.73247V5.7363V5.74014V5.74397V5.74781V5.75164V5.75548V5.75932V5.76316V5.767V5.77084V5.77468V5.77852V5.78236V5.78621V5.79005V5.7939V5.79774V5.80159V5.80544V5.80929V5.81314V5.81699V5.82084V5.82469V5.82854V5.83239V5.83625V5.8401V5.84396V5.84781V5.85167V5.85552V5.85938V5.86324V5.8671V5.87096V5.87482V5.87868V5.88254V5.8864V5.89026V5.89412V5.89799V5.90185V5.90571V5.90958V5.91344V5.91731V5.92118V5.92504V5.92891V5.93278V5.93664V5.94051V5.94438V5.94825V5.95212V5.95599V5.95986V5.96373V5.9676V5.97147V5.97535V5.97922V5.98309V5.98696V5.99084V5.99471V5.99858V6.00246V6.00633V6.01021V6.01408V6.01796V6.02183V6.02571V6.02958V6.03346V6.03734V6.04121V6.04509V6.04897V6.05284V6.05672V6.0606V6.06448V6.06835V6.07223V6.07611V6.07999V6.08387V6.08774V6.09162V6.0955V6.09938V6.10326V6.10714V6.11101V6.11489V6.11877V6.12265V6.12653V6.13041V6.13429V6.13816V6.14204V6.14592V6.1498V6.15368V6.15756V6.16143V6.16531V6.16919V6.17307V6.17695V6.18082V6.1847V6.18858V6.19246V6.19633V6.20021V6.20409V6.20796V6.21184V6.21572V6.21959V6.22347V6.22734V6.23122V6.23509V6.23897V6.24284V6.24672V6.25059V6.25446V6.25834V6.26221V6.26608V6.26995V6.27383V6.2777V6.28157V6.28544V6.28931V6.29318V6.29705V6.30092V6.30479V6.30866V6.31252V6.31639V6.32026V6.32412V6.32799V6.33186V6.33572V6.33959V6.34345V6.34731V6.35118V6.35504V6.3589V6.36276V6.36662V6.37048V6.37434V6.3782V6.38206V6.38592V6.38978V6.39363V6.39749V6.40134V6.4052V6.40905V6.41291V6.41676V6.42061V6.42446V6.42831V6.43216V6.43601V6.43986V6.44371V6.44756V6.4514V6.45525V6.45909V6.46294V6.46678V6.47062V6.47446V6.4783V6.48214V6.48598V6.48982V6.49366V6.49749V6.50133V6.50516V6.509V6.51283V6.51666V6.52049V6.52432V6.52815V6.53198V6.53581V6.53963V6.54346V6.54728V6.5511V6.55493V6.55875V6.56257V6.56639V6.5702V6.57402V6.57784V6.58165V6.58547V6.58928V6.59309V6.5969V6.60071V6.60452V6.60833V6.61213V6.61594V6.61974V6.62354V6.62734V6.63114V6.63494V6.63874V6.64254V6.64633V6.65013V6.65392V6.65771V6.6615V6.66529V6.66908V6.67286V6.67665V6.68043V6.68421V6.688V6.69178V6.69555V6.69933V6.70311V6.70688V6.71065V6.71443V6.7182V6.72196V6.72573V6.7295V6.73326V6.73702V6.74079V6.74455V6.74831V6.75206V6.75582V6.75957V6.76332V6.76708V6.77083V6.77457V6.77832V6.78207V6.78581V6.78955V6.79329V6.79703V6.80077V6.8045V6.80824V6.81197V6.8157V6.81943V6.82315V6.82688V6.8306V6.83433V6.83805V6.84177V6.84548V6.8492V6.85291V6.85662V6.86034V6.86404V6.86775V6.87146V6.87516V6.87886V6.88256V6.88626V6.88995V6.89365V6.89734V6.90103V6.90472V6.90841V6.91209V6.91577V6.91945V6.92313V6.92681V6.93049V6.93416V6.93783V6.9415V6.94517V6.94883V6.9525V6.95616V6.95982V6.96348V6.96713V6.97079V6.97444V6.97809V6.98174V6.98538V6.98902V6.99267V6.99631V6.99994C16.8096 8.03996 16.2825 8.77268 15.7319 9.25829C15.4566 9.50114 15.18 9.67747 14.9721 9.7929C14.8889 9.83915 14.8172 9.87528 14.7619 9.90172C14.7066 9.87528 14.635 9.83915 14.5517 9.7929C14.3439 9.67747 14.0673 9.50114 13.7919 9.25829C13.2414 8.77268 12.7143 8.03996 12.7143 6.99994Z" fill="white" stroke="white" stroke-width="0.666667"/>
</mask>
<g mask="url(#mask2_11425_87713)">
</g>
<path d="M-0.915074 -0.333333H0H0.47619H0.581265L0.667345 -0.273077L3.9146 2H4.66793L8.39732 -0.284251L8.90476 -0.595057V0V0.293115C8.90476 0.510658 8.79862 0.714517 8.6204 0.839269L5.57143 2.97355V3.578L8.45876 6.00336C8.80818 6.29688 8.60063 6.86667 8.14428 6.86667C8.04397 6.86667 7.94608 6.83581 7.8639 6.77828M-0.915074 -0.333333L7.8639 6.77828M-0.915074 -0.333333L-0.214397 0.255235L3 2.95533V3.55978L-0.191154 5.79359L-0.333333 5.89311V6.06667V6.53333V7.12839L0.174104 6.81758L3.90349 4.53333H4.65683L7.8639 6.77828M-0.915074 -0.333333L7.8639 6.77828" fill="#DB1E36" stroke="white" stroke-width="0.666667"/>
<path fill-rule="evenodd" clip-rule="evenodd" d="M0 2.33333V4.2H3.33333V6.33333C3.33333 6.70152 3.63181 7 4 7H4.57143C4.93962 7 5.23809 6.70152 5.23809 6.33333V4.2H8.38095C8.74914 4.2 9.04762 3.90152 9.04762 3.53333V3C9.04762 2.63181 8.74914 2.33333 8.38095 2.33333H5.23809V0H3.33333V2.33333H0Z" fill="white"/>
<path fill-rule="evenodd" clip-rule="evenodd" d="M0 2.8H3.80952V2.33333V0H4.7619V2.33333V2.8H8.57143V3.73333H4.7619V4.2V6.53333H3.80952V4.2V3.73333H0V2.8Z" fill="#DB1E36"/>
</g>
</svg>
