<svg width="20" height="14" viewBox="0 0 20 14" fill="none" xmlns="http://www.w3.org/2000/svg">
<rect width="20" height="14" rx="2" fill="white"/>
<mask id="mask0_11425_87711" style="mask-type:luminance" maskUnits="userSpaceOnUse" x="0" y="0" width="20" height="14">
<rect width="20" height="14" rx="2" fill="white"/>
</mask>
<g mask="url(#mask0_11425_87711)">
<rect width="20" height="14" fill="#95CEF5"/>
<path fill-rule="evenodd" clip-rule="evenodd" d="M8.88044 4.77686L10 4.03202L11.1196 4.77686L10.7428 3.50319L11.8116 2.68986L10.4591 2.64752L10 1.40002L9.541 2.64752L8.18849 2.68986L9.2573 3.50319L8.88044 4.77686ZM8.88044 12.2435L10 11.4987L11.1196 12.2435L10.7428 10.9699L11.8116 10.1565L10.4591 10.1142L10 8.86669L9.541 10.1142L8.18849 10.1565L9.2573 10.9699L8.88044 12.2435ZM13.8096 7.76536L12.69 8.51019L13.0668 7.23653L11.998 6.42319L13.3505 6.38086L13.8096 5.13336L14.2686 6.38086L15.6211 6.42319L14.5523 7.23653L14.9291 8.51019L13.8096 7.76536ZM5.07091 8.51019L6.1905 7.76536L7.31009 8.51019L6.93323 7.23653L8.00204 6.42319L6.64954 6.38086L6.1905 5.13336L5.73147 6.38086L4.37897 6.42319L5.44777 7.23653L5.07091 8.51019Z" fill="white"/>
</g>
</svg>
