<svg width="20" height="14" viewBox="0 0 20 14" fill="none" xmlns="http://www.w3.org/2000/svg">
<rect x="0.25" y="0.25" width="19.5" height="13.5" rx="1.75" fill="white" stroke="#F5F5F5" stroke-width="0.5"/>
<mask id="mask0_11425_87722" style="mask-type:luminance" maskUnits="userSpaceOnUse" x="0" y="0" width="20" height="14">
<rect x="0.25" y="0.25" width="19.5" height="13.5" rx="1.75" fill="white" stroke="white" stroke-width="0.5"/>
</mask>
<g mask="url(#mask0_11425_87722)">
<rect x="13.3334" width="6.66667" height="14" fill="#63AEE3"/>
<path fill-rule="evenodd" clip-rule="evenodd" d="M0 14H6.66667V0H0V14Z" fill="#63AEE3"/>
<path d="M8.76188 6.53333C8.76188 6.16514 8.4634 5.86666 8.09521 5.86666C7.72703 5.86666 7.42855 6.16514 7.42855 6.53333H8.76188ZM8.71588 8.72855C9.03594 8.91055 9.44294 8.79863 9.62494 8.47856C9.80694 8.1585 9.69501 7.7515 9.37495 7.5695L8.71588 8.72855ZM10.6708 7.54214C10.3588 7.73768 10.2645 8.1491 10.46 8.46107C10.6555 8.77305 11.067 8.86744 11.3789 8.6719L10.6708 7.54214ZM12.5714 6.53333C12.5714 6.16514 12.2729 5.86666 11.9047 5.86666C11.5365 5.86666 11.2381 6.16514 11.2381 6.53333H12.5714ZM7.42855 6.53333C7.42855 7.4773 7.95198 8.29417 8.71588 8.72855L9.37495 7.5695C9.00259 7.35776 8.76188 6.96944 8.76188 6.53333H7.42855ZM11.3789 8.6719C12.0908 8.22572 12.5714 7.43759 12.5714 6.53333H11.2381C11.2381 6.9514 11.0172 7.32505 10.6708 7.54214L11.3789 8.6719Z" fill="#628A40"/>
<path fill-rule="evenodd" clip-rule="evenodd" d="M9.99999 7.46664C10.526 7.46664 10.9524 7.04878 10.9524 6.53331C10.9524 6.01784 10.526 5.59998 9.99999 5.59998C9.474 5.59998 9.04761 6.01784 9.04761 6.53331C9.04761 7.04878 9.474 7.46664 9.99999 7.46664Z" fill="#DCC26D"/>
</g>
</svg>
