<svg width="20" height="14" viewBox="0 0 20 14" fill="none" xmlns="http://www.w3.org/2000/svg">
<rect width="20" height="14" rx="2" fill="white"/>
<mask id="mask0_11425_87729" style="mask-type:luminance" maskUnits="userSpaceOnUse" x="0" y="0" width="20" height="14">
<rect width="20" height="14" rx="2" fill="white"/>
</mask>
<g mask="url(#mask0_11425_87729)">
<path fill-rule="evenodd" clip-rule="evenodd" d="M0 14H20V0H0V14Z" fill="#F0371D"/>
<path fill-rule="evenodd" clip-rule="evenodd" d="M9.98852 5.70203C10.6762 5.13791 10.7181 5.01176 10.8829 4.51476C10.9379 4.34887 10.8991 4.21262 10.8532 4.05171C10.7872 3.8197 10.7065 3.53641 10.8714 3.03907C10.1211 2.80014 9.24924 3.40128 8.92417 4.38175C8.59909 5.36223 8.94385 6.35075 9.69422 6.58968C9.82854 6.63245 9.81348 6.60153 9.77271 6.51779C9.70117 6.37086 9.55046 6.06135 9.98852 5.70203ZM8.56431 6.73236C8.22938 5.91705 8.11987 5.83908 7.68847 5.53192C7.54448 5.42939 7.40026 5.42345 7.22995 5.41642C6.98437 5.4063 6.68453 5.39393 6.25283 5.08656C5.78909 5.71209 6.10306 6.71042 6.95413 7.31638C7.80519 7.92235 8.87105 7.90649 9.3348 7.28096C9.41782 7.16898 9.38316 7.17345 9.28929 7.18558C9.12459 7.20686 8.77765 7.25168 8.56431 6.73236ZM12.8571 7.17772C12.3239 7.17772 12.1885 7.17772 11.4285 6.71105C10.9444 6.4138 10.6906 6.64991 10.5702 6.76199C10.5015 6.82587 10.4761 6.84946 10.4761 6.71105C10.4761 5.93785 11.3289 5.31105 12.3809 5.31105C13.4329 5.31105 14.2857 5.93785 14.2857 6.71105C13.7521 6.71105 13.5021 6.87376 13.2973 7.00703C13.1553 7.09946 13.0351 7.17772 12.8571 7.17772ZM12.8571 6.30003C12.8571 6.42889 12.7505 6.53336 12.619 6.53336C12.4875 6.53336 12.3809 6.42889 12.3809 6.30003C12.3809 6.17116 12.4875 6.06669 12.619 6.06669C12.7505 6.06669 12.8571 6.17116 12.8571 6.30003ZM10.8943 8.36499C10.6762 9.21752 10.7181 9.34368 10.8829 9.84067C10.9379 10.0066 11.051 10.0944 11.1845 10.1982C11.3771 10.3479 11.6123 10.5306 11.7772 11.0279C12.5276 10.789 12.8723 9.80049 12.5472 8.82002C12.2222 7.83954 11.3503 7.2384 10.6 7.47733C10.4657 7.52011 10.4964 7.53645 10.5796 7.58071C10.7256 7.65837 11.0332 7.82196 10.8943 8.36499ZM11.7346 9.56945C11.6096 9.60928 11.4752 9.5422 11.4346 9.41964C11.394 9.29709 11.4624 9.16545 11.5875 9.12563C11.7125 9.0858 11.8469 9.15288 11.8875 9.27544C11.9281 9.398 11.8597 9.52963 11.7346 9.56945ZM9.12411 8.37816C8.22938 8.43838 8.11987 8.51635 7.68847 8.82351C7.54448 8.92604 7.49414 9.05861 7.4347 9.21518C7.34898 9.44094 7.24433 9.71658 6.81263 10.024C7.27638 10.6495 8.34225 10.6653 9.19331 10.0594C10.0444 9.45341 10.3583 8.45509 9.8946 7.82956C9.81158 7.71758 9.80521 7.75127 9.78798 7.84251C9.75773 8.00258 9.69401 8.33979 9.12411 8.37816ZM8.21489 9.53358C8.1376 9.42932 8.16118 9.2834 8.26757 9.20766C8.37395 9.13191 8.52285 9.15503 8.60014 9.25928C8.67743 9.36353 8.65385 9.50945 8.54746 9.5852C8.44108 9.66095 8.29218 9.63784 8.21489 9.53358ZM7.16205 6.24198C7.23934 6.13773 7.38824 6.11462 7.49462 6.19036C7.601 6.26611 7.62459 6.41203 7.5473 6.51628C7.47 6.62054 7.32111 6.64365 7.21472 6.5679C7.10834 6.49216 7.08476 6.34624 7.16205 6.24198ZM10.0311 4.24354C10.1561 4.28336 10.2246 4.415 10.184 4.53755C10.1433 4.66011 10.009 4.72719 9.88394 4.68736C9.75888 4.64754 9.69043 4.51591 9.73107 4.39335C9.7717 4.27079 9.90603 4.20372 10.0311 4.24354Z" fill="white"/>
</g>
</svg>
