<svg width="20" height="14" viewBox="0 0 20 14" fill="none" xmlns="http://www.w3.org/2000/svg">
<rect x="0.25" y="0.25" width="19.5" height="13.5" rx="1.75" fill="white" stroke="#F5F5F5" stroke-width="0.5"/>
<mask id="mask0_11425_87730" style="mask-type:luminance" maskUnits="userSpaceOnUse" x="0" y="0" width="20" height="14">
<rect x="0.25" y="0.25" width="19.5" height="13.5" rx="1.75" fill="white" stroke="white" stroke-width="0.5"/>
</mask>
<g mask="url(#mask0_11425_87730)">
<path fill-rule="evenodd" clip-rule="evenodd" d="M0 4.66667H20V0H0V4.66667Z" fill="#0884E6"/>
<path fill-rule="evenodd" clip-rule="evenodd" d="M0 14H20V9.33337H0V14Z" fill="#0884E6"/>
<path fill-rule="evenodd" clip-rule="evenodd" d="M9.99999 7.46665L9.32655 7.65995L9.5238 6.99998L9.32655 6.34002L9.99999 6.53332L10.6734 6.34002L10.4762 6.99998L10.6734 7.65995L9.99999 7.46665Z" fill="#0E88E9"/>
<path fill-rule="evenodd" clip-rule="evenodd" d="M13.8096 6.5333L13.1361 6.7266L13.3334 6.06663L13.1361 5.40667L13.8096 5.59997L14.483 5.40667L14.2858 6.06663L14.483 6.7266L13.8096 6.5333Z" fill="#0E88E9"/>
<path fill-rule="evenodd" clip-rule="evenodd" d="M13.8096 8.4L13.1361 8.5933L13.3334 7.93333L13.1361 7.27337L13.8096 7.46667L14.483 7.27337L14.2858 7.93333L14.483 8.5933L13.8096 8.4Z" fill="#0E88E9"/>
<path fill-rule="evenodd" clip-rule="evenodd" d="M6.19042 8.4L5.51698 8.5933L5.71423 7.93333L5.51698 7.27337L6.19042 7.46667L6.86385 7.27337L6.66661 7.93333L6.86385 8.5933L6.19042 8.4Z" fill="#0E88E9"/>
<path fill-rule="evenodd" clip-rule="evenodd" d="M6.19042 6.5333L5.51698 6.7266L5.71423 6.06663L5.51698 5.40667L6.19042 5.59997L6.86385 5.40667L6.66661 6.06663L6.86385 6.7266L6.19042 6.5333Z" fill="#0E88E9"/>
</g>
</svg>
