<svg width="20" height="14" viewBox="0 0 20 14" fill="none" xmlns="http://www.w3.org/2000/svg">
<rect width="20" height="14" rx="2" fill="#D01129"/>
<mask id="mask0_11425_87741" style="mask-type:luminance" maskUnits="userSpaceOnUse" x="0" y="0" width="20" height="14">
<rect width="20" height="14" rx="2" fill="white"/>
</mask>
<g mask="url(#mask0_11425_87741)">
<path fill-rule="evenodd" clip-rule="evenodd" d="M9.92004 7.02869C10.3921 7.02869 10.7748 6.63489 10.7748 6.14921C10.7748 5.66345 10.3921 5.26965 9.92004 5.26965C9.44794 5.26965 9.06531 5.66345 9.06531 6.14921C9.06531 6.63489 9.44794 7.02869 9.92004 7.02869Z" fill="#FFF101"/>
<path fill-rule="evenodd" clip-rule="evenodd" d="M9.14092 5.79546C9.383 5.716 9.69706 5.80848 9.90369 6.01253C10.1231 5.97143 10.343 5.688 10.4112 5.43566C10.3363 4.59711 9.80317 3.96185 9.64106 3.52592C9.5898 3.38815 9.35213 3.17151 9.10497 3.27238C8.90175 3.35535 8.79898 3.29079 8.11643 3.64109C7.74736 3.8305 7.4367 4.02504 7.27301 4.05895C7.10924 4.09286 6.93648 4.12308 6.8055 4.01751C6.62533 3.87228 6.42328 3.83212 6.30428 3.72269C6.15848 3.5886 6.06494 3.48739 5.96633 3.44637C5.86772 3.40527 5.70078 3.49655 5.77127 3.71379C5.9303 4.20443 6.30519 4.28389 6.46614 4.74251C6.54211 4.95932 6.65013 5.12226 6.89154 4.95795C7.13296 4.79363 7.47415 4.57536 8.05584 4.55242C8.44647 4.53692 8.85016 4.38913 9.03565 4.14663C9.03382 4.35642 9.10572 4.52836 9.08675 4.80125C9.06785 5.07423 9.07085 5.41374 9.14092 5.79546Z" fill="white"/>
<path fill-rule="evenodd" clip-rule="evenodd" d="M9.59857 5.81854C9.52683 5.40573 9.6569 5.34622 9.50162 4.86235C9.40825 4.57138 9.34858 4.2067 9.34708 4.03699L9.28467 4.05565C9.28617 4.22537 9.34592 4.59014 9.4392 4.8811C9.58941 5.34896 9.47266 5.42003 9.52974 5.79756C9.54739 5.80124 9.58442 5.8134 9.59857 5.81854Z" fill="#FFF101"/>
<path fill-rule="evenodd" clip-rule="evenodd" d="M9.23107 5.7733C9.23157 5.72081 9.22833 5.66601 9.22042 5.61891C9.33019 5.59177 9.51817 5.69615 9.51293 5.61857C9.51135 5.59399 9.51376 5.51453 9.51526 5.4724C9.51285 5.53825 9.25146 5.42711 9.20644 5.45579C9.15809 5.21561 9.21801 4.96849 9.17965 4.8177C9.26694 4.79313 9.42738 4.84673 9.40774 4.77634C9.39659 4.74029 9.37529 4.65064 9.36123 4.59456C9.37496 4.6533 9.24755 4.60466 9.20444 4.63823C9.18206 4.50799 9.14935 4.26087 9.15002 4.14793L9.03568 4.14673C9.03385 4.35651 9.10575 4.52845 9.08677 4.80135C9.06788 5.07432 9.07088 5.41383 9.14095 5.79556C9.166 5.78802 9.20727 5.77835 9.23107 5.7733Z" fill="#FFF101"/>
<path fill-rule="evenodd" clip-rule="evenodd" d="M8.94228 3.8557C8.77185 4.10889 8.36475 4.28366 7.98835 4.32228C7.5478 4.36749 7.25204 4.51836 7.03426 4.66607C7.01554 4.63139 6.98175 4.61272 6.95188 4.58986C6.63324 4.34702 6.76422 4.01796 6.88489 4.06497C6.83937 4.04681 6.8129 4.02233 6.78802 4.00392C6.74591 3.97181 6.62442 4.09485 6.63964 4.29025C6.64614 4.37348 6.71537 4.49627 6.77171 4.56135C6.66885 4.54208 6.61959 4.51502 6.55917 4.43993C6.59313 4.41818 6.63706 4.40585 6.67252 4.40302C6.66045 4.37322 6.64364 4.34017 6.63964 4.29025C6.5893 4.28982 6.52788 4.30789 6.47521 4.34471C6.3488 4.21516 6.21865 4.11181 6.14317 3.95888C6.02242 3.7139 6.14525 3.55926 6.30428 3.7228C6.15848 3.58871 6.06494 3.4875 5.96633 3.44648C5.86772 3.40538 5.70078 3.49666 5.77127 3.7139C5.9303 4.20454 6.30519 4.284 6.46614 4.74262C6.54211 4.95943 6.65412 5.12837 6.89154 4.95806C6.92283 4.93562 6.93116 4.93031 6.95837 4.91045C7.03368 4.86567 7.15301 4.94085 7.14028 5.10431C7.20128 4.9542 7.16234 4.90822 7.11057 4.81823C7.07229 4.83921 7.07537 4.71633 7.05174 4.70015C7.18722 4.61349 7.35199 4.52658 7.55987 4.46467C7.56752 4.53806 7.58716 4.61598 7.65282 4.60467C7.68802 4.59663 7.72372 4.58935 7.76125 4.58293C7.69559 4.59423 7.67712 4.50894 7.66955 4.43565C7.76808 4.41236 7.87576 4.39472 7.99376 4.38478C8.12974 4.37331 8.2703 4.34488 8.40228 4.30078C8.42192 4.37117 8.46253 4.48976 8.53018 4.46647C8.59018 4.44669 8.64852 4.42434 8.70328 4.3984C8.60916 4.44455 8.57213 4.31277 8.54949 4.24307C8.7215 4.16609 8.86805 4.06111 8.95568 3.93584L8.94228 3.8557Z" fill="#FFF101"/>
<path fill-rule="evenodd" clip-rule="evenodd" d="M9.6951 3.98135C9.77815 3.91508 9.84947 3.88374 9.77782 3.74339C9.66065 3.51391 9.73345 3.51313 9.47689 3.36713C9.21558 3.21865 9.24862 3.20701 8.90285 3.33245C8.8178 3.36328 8.83678 3.39479 8.85167 3.52169C8.88371 3.79518 8.94462 4.01542 9.00029 4.24045C9.21766 4.21125 9.55205 4.09566 9.6951 3.98135Z" fill="#FFF101"/>
<path fill-rule="evenodd" clip-rule="evenodd" d="M8.88398 3.91912C8.83837 3.78485 8.85061 3.80309 9.01588 3.84402C9.06997 3.66703 9.14468 3.51765 9.18653 3.37439C9.2333 3.21402 9.24795 3.18516 9.31677 3.22446C9.40481 3.27464 9.50151 3.32764 9.56451 3.3595C9.67452 3.41498 9.6583 3.43442 9.60578 3.52261C9.55327 3.61081 9.38153 3.78956 9.2756 3.97606C9.41532 4.07727 9.46018 4.08643 9.3609 4.13002C9.2498 4.17874 9.06522 4.2391 8.9875 4.2534C8.97327 4.16529 8.92733 4.04644 8.88398 3.91912Z" fill="#FFF101"/>
<path fill-rule="evenodd" clip-rule="evenodd" d="M7.24353 5.18169L7.23254 5.31981L7.13359 5.22733L7.02292 5.30465L7.03024 5.1668L6.90283 5.12715L7.01168 5.04683L6.96366 4.91873L7.0914 4.95709L7.15889 4.8385L7.21016 4.96514L7.34197 4.94468L7.27739 5.0655L7.37459 5.15883L7.24353 5.18169Z" fill="#FFF101"/>
<path fill-rule="evenodd" clip-rule="evenodd" d="M10.0121 7.02037C9.82409 6.84432 9.74487 6.51825 9.81336 6.23209C9.66906 6.05724 9.32054 6.00287 9.07405 6.06828C8.40573 6.55439 8.1376 7.34704 7.85175 7.7095C7.76137 7.82406 7.69788 8.14405 7.90642 8.31394C8.07785 8.45351 8.07494 8.57732 8.71097 9.01042C9.05491 9.24461 9.37397 9.42417 9.4844 9.55313C9.59491 9.68208 9.70667 9.82097 9.68329 9.99042C9.65117 10.2236 9.71832 10.4238 9.68579 10.5844C9.64576 10.7814 9.60739 10.9154 9.62212 11.0238C9.63694 11.1322 9.79713 11.2353 9.94476 11.0638C10.2781 10.6768 10.1576 10.303 10.4632 9.93031C10.6076 9.75418 10.6908 9.57642 10.4318 9.44344C10.1728 9.31055 9.81852 9.11557 9.50828 8.60883C9.29999 8.26847 8.97377 7.98256 8.67685 7.93855C8.85436 7.83537 8.96321 7.68526 9.20237 7.56564C9.44154 7.44602 9.72581 7.27374 10.0121 7.02037Z" fill="white"/>
<path fill-rule="evenodd" clip-rule="evenodd" d="M9.80263 6.60095C9.49115 6.87128 9.37597 6.78505 9.04635 7.1654C8.84821 7.39411 8.57109 7.62967 8.42896 7.71581L8.47589 7.76205C8.61803 7.67591 8.89514 7.44035 9.09337 7.21164C9.41209 6.84388 9.53026 6.91238 9.81952 6.67271C9.81378 6.65524 9.80538 6.61611 9.80263 6.60095Z" fill="#FFF101"/>
<path fill-rule="evenodd" clip-rule="evenodd" d="M9.94822 6.95113C9.90386 6.9769 9.85934 7.00721 9.82364 7.03778C9.74592 6.95352 9.73976 6.73381 9.67718 6.77739C9.6572 6.79092 9.58913 6.82859 9.55285 6.84829C9.6096 6.81755 9.64664 7.10603 9.69332 7.1318C9.51532 7.295 9.2774 7.36513 9.16972 7.47474C9.10539 7.40915 9.07027 7.23952 9.02084 7.29218C8.99612 7.32009 8.9313 7.38389 8.8911 7.42447C8.93371 7.38286 8.95643 7.52072 9.00619 7.5423C8.90783 7.62741 8.71618 7.78008 8.62073 7.836L8.6769 7.93849C8.8544 7.83531 8.96325 7.68521 9.20242 7.56559C9.44159 7.44596 9.72586 7.27368 10.0121 7.02031C9.99324 7.00173 9.96436 6.96979 9.94822 6.95113Z" fill="#FFF101"/>
<path fill-rule="evenodd" clip-rule="evenodd" d="M8.47864 8.1672C8.77697 8.19246 9.12757 8.46783 9.34826 8.78397C9.60657 9.15396 9.88152 9.342 10.1147 9.46222C10.0949 9.4963 10.0961 9.53569 10.0918 9.57379C10.0467 9.97915 9.70427 10.0269 9.68346 9.89592C9.69095 9.94558 9.68355 9.98138 9.68055 10.0128C9.67456 10.0664 9.83892 10.1131 9.9957 10.0018C10.0625 9.9544 10.1312 9.83136 10.1579 9.74864C10.193 9.84985 10.1948 9.90731 10.162 9.99867C10.1266 9.97932 10.0943 9.94627 10.0742 9.91621C10.0551 9.94182 10.0357 9.97333 9.9957 10.0018C10.0205 10.047 10.0664 10.0926 10.1238 10.1211C10.0779 10.2985 10.056 10.4662 9.96499 10.6099C9.81928 10.84 9.62763 10.8078 9.68579 10.5844C9.64577 10.7813 9.6074 10.9153 9.62213 11.0237C9.63695 11.1321 9.79714 11.2352 9.94477 11.0638C10.2781 10.6768 10.1576 10.303 10.4632 9.93026C10.6076 9.75412 10.6939 9.56985 10.4318 9.44338C10.3972 9.42677 10.3887 9.42206 10.3584 9.40768C10.283 9.36298 10.2866 9.21904 10.4305 9.14865C10.2737 9.16938 10.2545 9.22709 10.2047 9.3182C10.2414 9.34174 10.1364 9.40048 10.1346 9.42968C9.99395 9.35227 9.8385 9.24892 9.68238 9.09454C9.74039 9.05113 9.79614 8.99461 9.7537 8.94178C9.72932 8.91446 9.70535 8.88621 9.68113 8.85598C9.72358 8.9089 9.66108 8.9679 9.60308 9.01139C9.53426 8.93527 9.4656 8.8481 9.39819 8.74792C9.32055 8.63241 9.22635 8.52144 9.12324 8.42588C9.17267 8.37313 9.25215 8.27774 9.19872 8.22902C9.15212 8.18544 9.1041 8.14459 9.05492 8.10889C9.1408 8.16968 9.04835 8.26858 9.00108 8.32355C8.85021 8.20881 8.6886 8.13064 8.53939 8.11531L8.47864 8.1672Z" fill="#FFF101"/>
<path fill-rule="evenodd" clip-rule="evenodd" d="M8.08693 7.4884C7.98957 7.44756 8.03761 7.39235 7.95531 7.52635C7.82074 7.74547 7.79474 7.69501 7.80023 7.99668C7.80581 8.30365 7.86374 8.25467 8.14227 8.50008C8.35639 8.33491 8.61195 8.08522 8.77348 7.92304C8.64025 7.744 8.25462 7.55887 8.08693 7.4884Z" fill="#FFF101"/>
<path fill-rule="evenodd" clip-rule="evenodd" d="M8.56135 8.18742C8.47114 8.29522 8.48038 8.27527 8.43219 8.10744C8.25619 8.14769 8.12042 8.19418 7.97904 8.22852C7.82059 8.26697 7.78905 8.26834 7.78764 8.18742C7.78589 8.08381 7.78223 7.97121 7.77748 7.89911C7.76924 7.77341 7.79363 7.77804 7.89415 7.78078C7.99468 7.78343 8.20351 7.80886 8.41347 7.80997C8.42878 7.63487 8.41405 7.59034 8.50043 7.65705C8.59688 7.73163 8.74002 7.86597 8.79095 7.92805C8.72387 7.98474 8.64689 8.08518 8.56135 8.18742Z" fill="#FFF101"/>
<path fill-rule="evenodd" clip-rule="evenodd" d="M10.4442 9.01813L10.5659 8.95879L10.5375 9.09314L10.658 9.15316L10.5383 9.2155L10.5686 9.3489L10.4465 9.29205L10.3627 9.39891L10.3312 9.26584L10.1976 9.26499L10.2787 9.15607L10.1954 9.04887L10.3295 9.04595L10.3595 8.91272L10.4442 9.01813Z" fill="#FFF101"/>
<path fill-rule="evenodd" clip-rule="evenodd" d="M10.6073 5.63166C10.5532 5.88708 10.3182 6.12076 10.0432 6.20287C9.96814 6.41883 10.0966 6.75645 10.275 6.94355C11.0182 7.29599 11.8195 7.13861 12.2674 7.21207C12.4091 7.23528 12.7102 7.13184 12.7489 6.86117C12.7807 6.63863 12.8863 6.57938 12.9328 5.79598C12.9579 5.37238 12.9495 4.99828 13.0028 4.83541C13.0562 4.67255 13.1172 4.50344 13.2715 4.43956C13.4838 4.35162 13.6187 4.19159 13.7703 4.14029C13.9559 4.07744 14.0879 4.04465 14.1717 3.97735C14.2556 3.91004 14.2623 3.71567 14.0442 3.66986C13.5517 3.56625 13.2974 3.86055 12.8309 3.77458C12.6105 3.734 12.4192 3.74864 12.4369 4.04602C12.4545 4.34332 12.4676 4.75647 12.1961 5.28624C12.0138 5.6421 11.9363 6.07572 12.0477 6.36231C11.8721 6.25571 11.6913 6.23379 11.4711 6.08051C11.2509 5.92716 10.9637 5.7601 10.6073 5.63166Z" fill="white"/>
<path fill-rule="evenodd" clip-rule="evenodd" d="M10.3591 6.02788C10.7424 6.17027 10.7275 6.31601 11.2124 6.41962C11.504 6.48187 11.8407 6.611 11.9844 6.69457L11.9998 6.62958C11.8562 6.54601 11.5194 6.41697 11.2278 6.35463C10.7589 6.25445 10.7575 6.11487 10.4111 5.97693C10.3993 5.99089 10.3705 6.01786 10.3591 6.02788Z" fill="#FFF101"/>
<path fill-rule="evenodd" clip-rule="evenodd" d="M10.581 5.72304C10.625 5.74967 10.6727 5.77416 10.7163 5.79077C10.6843 5.90209 10.5024 6.01751 10.5704 6.05151C10.5918 6.06255 10.6574 6.10434 10.6921 6.12677C10.638 6.09158 10.8622 5.91433 10.8606 5.85979C11.087 5.93685 11.2649 6.11384 11.4111 6.15503C11.3881 6.24511 11.2628 6.36122 11.3318 6.37894C11.3677 6.38699 11.4538 6.41285 11.5081 6.42835C11.4517 6.41123 11.5564 6.322 11.5497 6.26694C11.6705 6.31198 11.8948 6.40643 11.9896 6.46354L12.0478 6.36225C11.8722 6.25564 11.6914 6.23372 11.4712 6.08045C11.2509 5.92709 10.9638 5.76003 10.6073 5.63159C10.6012 5.65762 10.5887 5.69932 10.581 5.72304Z" fill="#FFF101"/>
<path fill-rule="evenodd" clip-rule="evenodd" d="M12.3393 6.42456C12.2114 6.14611 12.2679 5.69596 12.4237 5.34121C12.6059 4.92601 12.6267 4.58701 12.6112 4.31917C12.6498 4.31985 12.6824 4.29905 12.7167 4.28381C13.0803 4.12137 13.2918 4.40257 13.1918 4.48657C13.23 4.45506 13.2638 4.44384 13.2917 4.43083C13.3398 4.40925 13.2969 4.23954 13.1249 4.15545C13.0516 4.11957 12.9137 4.11992 12.8307 4.13747C12.8984 4.05552 12.9458 4.02521 13.0391 4.00886C13.0406 4.05004 13.0289 4.09534 13.0136 4.12831C13.0447 4.13242 13.0809 4.13396 13.1249 4.15545C13.1505 4.11075 13.166 4.04705 13.1613 3.98163C13.3336 3.93385 13.4856 3.86954 13.652 3.87879C13.9186 3.8936 13.9874 4.08044 13.7703 4.14029C13.9559 4.07744 14.0879 4.04465 14.1717 3.97735C14.2556 3.91004 14.2623 3.71567 14.0442 3.66986C13.5518 3.56625 13.2974 3.86055 12.8309 3.77458C12.6105 3.734 12.4123 3.74924 12.4369 4.04602C12.4401 4.08515 12.4405 4.09517 12.4435 4.12933C12.4435 4.2189 12.3206 4.28757 12.1895 4.1945C12.2853 4.32396 12.3434 4.31223 12.445 4.31112C12.4465 4.26651 12.5484 4.33064 12.5739 4.31771C12.5791 4.48178 12.5698 4.67204 12.5179 4.88825C12.4524 4.85836 12.3771 4.83687 12.3537 4.90109C12.3429 4.93645 12.3311 4.9719 12.3178 5.00855C12.3411 4.94433 12.4221 4.97062 12.4876 5.0005C12.4579 5.09992 12.4189 5.20472 12.3683 5.31484C12.3099 5.44174 12.2636 5.58114 12.2348 5.72088C12.1657 5.70316 12.0456 5.68004 12.0313 5.75205C12.018 5.81533 12.0076 5.87852 12.0021 5.94026C12.0103 5.83331 12.1397 5.86619 12.2097 5.88083C12.1886 6.07264 12.2035 6.25571 12.2652 6.39648L12.3393 6.42456Z" fill="#FFF101"/>
<path fill-rule="evenodd" clip-rule="evenodd" d="M11.8275 7.00659C11.8419 7.11379 11.8325 7.193 11.9865 7.19925C12.2382 7.20961 12.2178 7.24155 12.4689 7.08588C12.7245 6.92738 12.7313 6.95868 12.7986 6.58783C12.8152 6.49664 12.7791 6.49775 12.6649 6.44757C12.4188 6.33934 12.2037 6.34673 11.9865 6.2838C11.9024 6.49213 11.8029 6.82198 11.8275 7.00659Z" fill="#FFF101"/>
<path fill-rule="evenodd" clip-rule="evenodd" d="M12.315 6.34091C12.4509 6.36729 12.4294 6.36909 12.3123 6.49599C12.4342 6.63265 12.5275 6.7288 12.6272 6.83771C12.7388 6.95965 12.7557 6.98705 12.6883 7.02875C12.602 7.08209 12.5092 7.14169 12.4508 7.18202C12.349 7.25223 12.3408 7.22809 12.2928 7.13715C12.2448 7.0463 12.1753 6.84894 12.0713 6.66142C11.9162 6.73523 11.8861 6.77068 11.8991 6.66039C11.9136 6.53709 11.9551 6.34237 11.9819 6.26599C12.0632 6.29733 12.1862 6.31574 12.315 6.34091Z" fill="#FFF101"/>
<path fill-rule="evenodd" clip-rule="evenodd" d="M12.0727 4.24775L11.9619 4.16889L12.0892 4.12693L12.0794 3.98959L12.1918 4.06511L12.289 3.97144L12.3021 4.10861L12.4339 4.12985L12.3377 4.22455L12.4038 4.34391L12.2716 4.32619L12.2229 4.45394L12.1535 4.33595L12.0263 4.37594L12.0727 4.24775Z" fill="#FFF101"/>
<path fill-rule="evenodd" clip-rule="evenodd" d="M9.90008 6.01644C9.69319 5.81214 9.38087 5.72237 9.14248 5.80061L9.13579 5.79651C9.07317 5.45538 9.05905 5.1259 9.08154 4.80092C9.09028 4.6752 9.08275 4.58319 9.05762 4.41912C9.0472 4.35107 9.04578 4.34155 9.04209 4.31338C9.03468 4.25687 9.03078 4.20903 9.03042 4.16184C8.84735 4.38931 8.46012 4.54179 8.05603 4.55782C7.57799 4.57668 7.27946 4.70037 6.8944 4.96246C6.68047 5.10807 6.55831 5.02142 6.46123 4.74438C6.39694 4.5612 6.31855 4.45546 6.13053 4.26081L6.11606 4.24583C5.91915 4.0419 5.83354 3.92294 5.76632 3.71554C5.70354 3.52205 5.83917 3.38766 5.96826 3.44147C5.97705 3.44512 5.98587 3.44928 5.99479 3.45395C6.03636 3.47574 6.07902 3.50796 6.13547 3.55845C6.15481 3.57574 6.21148 3.62879 6.25535 3.66986L6.25535 3.66986L6.30773 3.71876C6.31416 3.72467 6.3208 3.73038 6.32774 3.73598C6.31789 3.72961 6.30765 3.72545 6.29716 3.72334L6.2482 3.67764L6.2482 3.67763C6.20436 3.63659 6.14788 3.58373 6.12865 3.56653C6.07278 3.51656 6.03073 3.4848 5.99006 3.46349C5.98142 3.45895 5.97287 3.45493 5.96436 3.45139C5.84357 3.40104 5.71619 3.52725 5.77619 3.71215C5.84278 3.91761 5.92757 4.03543 6.12344 4.23829L6.13791 4.25326C6.32692 4.44894 6.40608 4.55571 6.47101 4.74075C6.56614 5.01221 6.68186 5.09429 6.88866 4.95354C7.27517 4.69046 7.57538 4.56607 8.05563 4.54712C8.46392 4.53092 8.85471 4.37456 9.03155 4.14337L9.04083 4.14673C9.04038 4.19837 9.04426 4.24984 9.0524 4.31195C9.05608 4.34 9.05749 4.3495 9.0679 4.41745C9.09313 4.58227 9.10073 4.67497 9.09192 4.80168C9.06962 5.12391 9.08341 5.45054 9.14493 5.78861L9.13932 5.79042L9.14601 5.79452L9.14493 5.78861C9.38639 5.71232 9.69934 5.8034 9.90275 6.00732C10.1082 5.96882 10.3338 5.70194 10.406 5.4362C10.3703 5.03737 10.2389 4.67673 10.0026 4.23373C9.96615 4.16541 9.86667 3.98621 9.81832 3.89912L9.81828 3.89905L9.81824 3.89897L9.79171 3.85112C9.71638 3.71304 9.66885 3.61573 9.63618 3.52789C9.56851 3.34601 9.3155 3.19227 9.10687 3.27741C9.07849 3.289 9.05089 3.29823 9.02065 3.30652C9.00128 3.31183 8.98155 3.31661 8.95459 3.32266C8.67681 3.38497 8.52305 3.43843 8.11873 3.64593L8.08461 3.66354C8.00689 3.70386 7.81967 3.80514 7.70314 3.86818C7.65365 3.89495 7.6169 3.91483 7.60672 3.92021C7.44664 4.00474 7.34638 4.04926 7.27402 4.06425C7.03477 4.11379 6.9138 4.11167 6.80227 4.02177C6.76715 3.99346 6.72961 3.96786 6.68826 3.94347C6.67759 3.93717 6.66676 3.93101 6.65559 3.92485L6.6589 3.92084L6.65745 3.91375C6.6698 3.9205 6.6817 3.92726 6.69343 3.93418C6.7352 3.95882 6.77315 3.9847 6.80869 4.01335C6.91696 4.10062 7.03561 4.10269 7.27197 4.05376C7.34306 4.03903 7.44275 3.99476 7.60197 3.91068C7.61212 3.90533 7.64876 3.8855 7.69816 3.85878C7.81466 3.79576 8.00209 3.69437 8.07992 3.65398L8.11409 3.63635C8.51922 3.42843 8.67379 3.37469 8.95237 3.3122C8.97919 3.30618 8.99878 3.30144 9.01797 3.29618C9.04784 3.28799 9.07505 3.27889 9.10304 3.26746C9.31763 3.17988 9.57633 3.33708 9.6459 3.52406C9.67834 3.6113 9.72568 3.70823 9.80078 3.84588L9.82717 3.89348C9.87543 3.98041 9.97518 4.16008 10.0117 4.22858C10.2486 4.67276 10.3805 5.03465 10.4162 5.43715C10.3429 5.7084 10.1145 5.97852 9.90008 6.01644ZM6.64631 3.90772L6.65745 3.91375L6.65721 3.91256C6.65358 3.91075 6.64995 3.90913 6.64631 3.90772ZM6.60867 3.9001C6.62116 3.9003 6.63374 3.90282 6.64631 3.90772C6.62725 3.89751 6.60701 3.8872 6.58469 3.87624L6.52744 3.84869L6.52718 3.84648C6.51833 3.84236 6.50969 3.8389 6.50122 3.83613L6.48109 3.82648C6.41568 3.79467 6.371 3.76941 6.33492 3.74163L6.33493 3.74107C6.33256 3.73924 6.33016 3.73754 6.32774 3.73598L6.33492 3.74163L6.33469 3.74981L6.33125 3.75216C6.32827 3.7499 6.32534 3.74762 6.32247 3.74532L6.32254 3.74527C6.32461 3.74661 6.32666 3.74806 6.32868 3.74963L6.32892 3.7409L6.32254 3.74527C6.32231 3.74512 6.32209 3.74498 6.32186 3.74483C6.31455 3.73897 6.30756 3.73296 6.30079 3.72674L6.29716 3.72334C6.23032 3.70988 6.15387 3.77957 6.11044 3.89176L6.11816 3.8982L6.33125 3.75216C6.36443 3.77733 6.4046 3.80049 6.46053 3.82824C6.37917 3.82436 6.31082 3.89879 6.2235 4.08926L6.23141 4.09575L6.52412 3.85891L6.58021 3.8859L6.60867 3.9001ZM6.64219 3.91758C6.63145 3.91182 6.62033 3.90602 6.60867 3.9001C6.5159 3.89859 6.42761 4.02468 6.37468 4.24912L6.3837 4.25385L6.65559 3.92485L6.64617 3.91972L6.6465 3.91932L6.65267 3.92219L6.65098 3.91391L6.6465 3.91932L6.64219 3.91758ZM6.39023 4.22942C6.44956 3.99559 6.54721 3.88137 6.64219 3.91758L6.64617 3.91972L6.39023 4.22942ZM6.39023 4.22942L6.38479 4.25164L6.37578 4.24691L6.39023 4.22942ZM6.51355 3.85385L6.52412 3.85891L6.52825 3.85556L6.52744 3.84869L6.5136 3.84207L6.51358 3.84206L6.50122 3.83613C6.48722 3.83155 6.47371 3.82887 6.46053 3.82824L6.47665 3.83616L6.49759 3.8462C6.40641 3.81684 6.3368 3.87347 6.24252 4.07314L6.22498 4.08733L6.2329 4.09382L6.24252 4.07314L6.51355 3.85385ZM6.51496 3.8527C6.50908 3.85021 6.50329 3.84804 6.49759 3.8462L6.50928 3.8518L6.51355 3.85385L6.51496 3.8527ZM6.51496 3.8527L6.52289 3.85623L6.52182 3.84715L6.51496 3.8527ZM6.12678 3.87943L6.32247 3.74532C6.32226 3.74516 6.32206 3.745 6.32186 3.74483C6.25926 3.70509 6.17601 3.76564 6.12678 3.87943ZM6.12678 3.87943L6.11239 3.88929L6.1201 3.89572C6.12225 3.89018 6.12448 3.88474 6.12678 3.87943Z" fill="black"/>
<path fill-rule="evenodd" clip-rule="evenodd" d="M9.58379 5.43243C9.57638 5.59066 9.57895 5.6758 9.6036 5.81765L9.59675 5.82364C9.58889 5.82078 9.57873 5.81737 9.56817 5.81382C9.5524 5.80851 9.53574 5.80291 9.52452 5.79843C9.50571 5.67405 9.50416 5.5966 9.511 5.45055L9.51239 5.42021C9.52063 5.23255 9.50611 5.10687 9.43418 4.88282C9.34748 4.61243 9.28104 4.24335 9.28313 4.05056L9.3522 4.03699C9.35384 4.22356 9.42006 4.59145 9.50647 4.86072C9.57881 5.08613 9.59348 5.21313 9.58518 5.40205L9.58379 5.43243ZM9.60021 5.81354L9.59336 5.81953C9.59283 5.81652 9.59232 5.81354 9.59182 5.81058C9.59481 5.81161 9.59763 5.81261 9.60021 5.81354ZM9.53069 5.79237C9.54395 5.79513 9.57167 5.80363 9.59182 5.81058C9.56844 5.6731 9.56611 5.58753 9.57339 5.43192L9.57479 5.40156C9.58303 5.21389 9.56851 5.08818 9.49659 4.86407C9.40986 4.59381 9.34345 4.22484 9.34845 4.04218L9.28978 4.05565C9.29143 4.24207 9.35768 4.61007 9.44405 4.87947C9.5164 5.10482 9.53108 5.23179 9.52278 5.42069L9.52139 5.45106C9.51458 5.59645 9.51612 5.67326 9.53069 5.79237Z" fill="black"/>
<path fill-rule="evenodd" clip-rule="evenodd" d="M8.37048 3.50745C8.3122 3.53317 8.31265 3.62432 8.35976 3.76632C8.39744 3.87987 8.46418 4.02253 8.54442 4.16825L8.55396 4.16418L8.37754 3.51093L8.37048 3.50745ZM9.22556 5.61796C9.23319 5.66345 9.23681 5.71791 9.23629 5.77331L9.23214 5.7785L9.21434 5.78237C9.1883 5.78808 9.15878 5.79456 9.13585 5.79651C9.07323 5.45538 9.05911 5.12591 9.0816 4.80092C9.09034 4.67521 9.0828 4.5832 9.05768 4.41912C9.04726 4.35107 9.04584 4.34155 9.04215 4.31338C9.03395 4.2508 9.03003 4.19885 9.03574 4.14134L9.15523 4.14792C9.15466 4.24474 9.18078 4.4674 9.20824 4.62939C9.22303 4.62133 9.2438 4.61914 9.27648 4.61975L9.28984 4.62008C9.32034 4.62094 9.33205 4.62063 9.34273 4.61772C9.35501 4.61437 9.35911 4.6083 9.35618 4.59577L9.36627 4.59318C9.36991 4.60768 9.38585 4.67237 9.38489 4.66849L9.38635 4.6744C9.39889 4.72502 9.40708 4.75646 9.41276 4.77483C9.41934 4.79841 9.40836 4.81217 9.38331 4.81716C9.36561 4.82069 9.34839 4.82052 9.29883 4.81788C9.28436 4.81711 9.27628 4.81672 9.26734 4.81641C9.24395 4.81561 9.22473 4.81592 9.20921 4.81618H9.20921H9.2092H9.2092H9.2092H9.20919H9.20919H9.20919C9.19966 4.81634 9.19152 4.81647 9.18469 4.81631C9.20012 4.87696 9.20107 4.9321 9.19511 5.08743C9.18933 5.23832 9.19011 5.31542 9.20326 5.40651C9.20529 5.42057 9.20761 5.43438 9.21023 5.44798C9.22976 5.44072 9.26449 5.44669 9.35277 5.46702L9.35872 5.46839C9.41274 5.4808 9.44096 5.48623 9.46559 5.48784C9.49521 5.48977 9.50952 5.48458 9.51007 5.4723L9.50939 5.49226C9.50004 5.49801 9.48498 5.49983 9.46493 5.49852C9.43956 5.49686 9.41104 5.49138 9.35646 5.47884L9.3505 5.47747C9.25722 5.45599 9.22382 5.45098 9.20919 5.4603L9.20136 5.45684C9.19815 5.44089 9.19536 5.42465 9.19297 5.40808C9.17969 5.31612 9.17891 5.23854 9.18472 5.087C9.19063 4.93291 9.18968 4.87821 9.17828 4.8125C9.20117 4.80606 9.22895 4.80438 9.26769 4.80571C9.27671 4.80602 9.28484 4.80641 9.29937 4.80719C9.34785 4.80978 9.36484 4.80994 9.38133 4.80665C9.40093 4.80275 9.40745 4.79459 9.4028 4.77793C9.39708 4.75943 9.38887 4.72789 9.37627 4.67704L9.3748 4.67112C9.37549 4.67387 9.36776 4.64252 9.36188 4.61872C9.3672 4.61263 9.36884 4.60416 9.36629 4.59327L9.3562 4.59585L9.36188 4.61872C9.35814 4.623 9.35259 4.6261 9.3454 4.62807C9.33333 4.63136 9.32126 4.63168 9.28956 4.63078L9.27629 4.63045C9.24055 4.62978 9.22016 4.63267 9.20759 4.64245L9.19933 4.63912C9.17129 4.47595 9.14425 4.24707 9.14998 4.15324L9.04089 4.14674C9.04044 4.19837 9.04432 4.24984 9.05246 4.31195C9.05613 4.34001 9.05755 4.34951 9.06795 4.41746C9.09319 4.58227 9.10078 4.67497 9.09197 4.80169C9.06955 5.12579 9.08363 5.45435 9.1395 5.79038C9.16061 5.78403 9.19682 5.77518 9.22592 5.7689L9.22588 5.77321L9.23003 5.76802L9.22592 5.7689C9.22622 5.7156 9.22273 5.66325 9.21922 5.61367C9.24843 5.60645 9.28379 5.60763 9.32917 5.61539C9.34439 5.61799 9.35958 5.62109 9.38094 5.62578C9.44645 5.64017 9.45615 5.64203 9.47542 5.64241C9.49928 5.64287 9.50892 5.63617 9.50775 5.61888C9.50657 5.60044 9.50744 5.55141 9.50939 5.49226C9.51635 5.48798 9.52014 5.48152 9.52047 5.47257L9.51008 5.47217L9.51008 5.47216L9.52047 5.47256C9.51808 5.53997 9.51685 5.59823 9.51813 5.61816C9.51981 5.64299 9.50443 5.65368 9.47522 5.65311C9.45494 5.65272 9.44534 5.65087 9.37877 5.63624C9.35755 5.63158 9.3425 5.62852 9.32746 5.62595C9.28334 5.6184 9.24921 5.61726 9.22556 5.61796ZM8.36919 3.52001L8.36752 3.5138L8.37458 3.51728C8.37271 3.51811 8.37092 3.51901 8.36919 3.52001ZM8.53233 4.12406C8.46185 3.99257 8.40368 3.86557 8.36961 3.76286C8.32588 3.63105 8.32387 3.5461 8.36919 3.52001L8.53233 4.12406ZM8.53233 4.12406L8.55347 4.16297L8.54394 4.16705L8.53233 4.12406ZM8.40079 4.30392L8.40071 4.30395L8.40071 4.30396L8.40047 4.30407L8.40393 4.31561C8.45313 4.29675 8.50236 4.27459 8.55161 4.24936L8.54768 4.23802L8.54746 4.23812L8.54746 4.23811L8.54736 4.23816L8.40079 4.30392ZM8.40079 4.30392C8.44961 4.2852 8.49847 4.26321 8.54736 4.23816L8.54746 4.23812L8.55138 4.24945L8.40417 4.3155L8.40071 4.30396L8.40079 4.30392ZM7.55861 4.46363C7.55856 4.46365 7.55852 4.46367 7.55847 4.46368L7.5612 4.4755L7.67088 4.44228L7.66843 4.43038C7.66838 4.43039 7.66834 4.4304 7.66829 4.43041L7.66829 4.43041L7.66821 4.43044C7.63077 4.44052 7.59436 4.45155 7.55868 4.46361L7.55861 4.46363L7.55861 4.46363ZM7.55861 4.46363L7.56134 4.47545C7.59698 4.4634 7.63335 4.45238 7.67075 4.44231L7.66829 4.43041C7.66826 4.43042 7.66824 4.43043 7.66821 4.43044L7.55868 4.46361C7.55866 4.46362 7.55863 4.46363 7.55861 4.46363Z" fill="black"/>
<path fill-rule="evenodd" clip-rule="evenodd" d="M7.98782 4.31694C8.38599 4.27609 8.77697 4.09185 8.93799 3.85264L8.94739 3.85478L8.95988 3.93896C8.8748 4.06059 8.73158 4.1674 8.55441 4.24136C8.55399 4.24008 8.56162 4.26381 8.564 4.27097C8.56802 4.28313 8.57169 4.29355 8.57551 4.30348C8.60675 4.38484 8.64361 4.41961 8.69775 4.3951C8.68451 4.40132 8.67093 4.4074 8.657 4.41334C8.61905 4.40874 8.59019 4.37083 8.56583 4.30742C8.56195 4.29731 8.55822 4.28673 8.55415 4.27442C8.55176 4.26721 8.54411 4.24343 8.5474 4.23815C8.72585 4.15829 8.86757 4.0526 8.95054 3.93674L8.93926 3.86929C8.94174 3.86578 8.94416 3.86226 8.94654 3.85873L8.93714 3.85659L8.93926 3.86929C8.77204 4.1063 8.38393 4.28705 7.98885 4.32759C7.60687 4.36679 7.31409 4.48267 7.0297 4.66866C7.01785 4.6467 7.00362 4.63377 6.96783 4.60812L6.9677 4.60802C6.95822 4.60123 6.95395 4.59812 6.94877 4.59415C6.80475 4.48439 6.73886 4.3462 6.74844 4.2183C6.75514 4.12892 6.80036 4.06223 6.85245 4.05555C6.86214 4.06088 6.87218 4.06564 6.88299 4.06995L6.88671 4.05995C6.87518 4.05546 6.86366 4.05412 6.85245 4.05555C6.84304 4.05038 6.83396 4.04467 6.82482 4.03829C6.81622 4.03228 6.79343 4.01475 6.78676 4.00962C6.78566 4.00878 6.785 4.00827 6.78491 4.0082C6.7346 3.96984 6.632 4.12547 6.64481 4.28981C6.65062 4.36421 6.71201 4.48435 6.77558 4.55777L6.77076 4.5666C6.66558 4.5469 6.61573 4.51862 6.55641 4.43537C6.58696 4.4158 6.62752 4.4025 6.6649 4.39836L6.6677 4.40507L6.66787 4.40478L6.6721 4.39767C6.66976 4.39786 6.66741 4.39808 6.66505 4.39834C6.665 4.39835 6.66495 4.39836 6.6649 4.39836L6.65724 4.37996C6.64981 4.36184 6.64433 4.34592 6.64142 4.33066C6.63916 4.31882 6.63845 4.30737 6.63959 4.29559C6.63803 4.29558 6.63647 4.29558 6.6349 4.2956C6.5842 4.29632 6.52605 4.31546 6.47152 4.34849L6.44723 4.32393C6.43264 4.30936 6.39482 4.27246 6.36832 4.24661C6.35526 4.23386 6.34494 4.2238 6.34154 4.22044C6.23959 4.11976 6.18178 4.04896 6.13851 3.96128C6.08133 3.84526 6.07454 3.73959 6.11462 3.68442C6.14134 3.64766 6.18362 3.64005 6.23142 3.66197C6.23714 3.66733 6.24277 3.6726 6.2482 3.67768C6.25785 3.68671 6.26688 3.69517 6.27478 3.70255C6.21171 3.64997 6.15456 3.64734 6.12295 3.69083C6.08568 3.74212 6.09221 3.84367 6.14779 3.95644C6.19041 4.04279 6.24757 4.1128 6.34874 4.21272C6.35212 4.21606 6.36238 4.22607 6.3754 4.23877C6.4019 4.26462 6.43983 4.30162 6.45447 4.31625C6.46298 4.32474 6.47106 4.33291 6.47227 4.34027C6.52059 4.3065 6.57845 4.28684 6.63433 4.28911C6.62172 4.11799 6.7305 3.95339 6.79104 3.99956C6.79116 3.99965 6.79196 4.00026 6.79325 4.00125C6.80034 4.0067 6.8224 4.02366 6.83067 4.02943C6.84859 4.04195 6.86623 4.05178 6.88675 4.05997L6.88303 4.06996C6.82608 4.04777 6.76649 4.1166 6.75881 4.21912C6.74951 4.34324 6.81373 4.47792 6.95497 4.58555C6.96005 4.58944 6.96425 4.59251 6.97364 4.59924L6.97378 4.59934C7.01085 4.6259 7.02591 4.6396 7.03138 4.66159C7.3097 4.47282 7.60406 4.35632 7.98782 4.31694ZM6.6696 4.40863C6.63274 4.41212 6.59207 4.42493 6.56316 4.4365C6.61925 4.50621 6.66511 4.53407 6.75802 4.5532C6.72467 4.51211 6.69272 4.45969 6.6696 4.40863ZM6.28195 3.69479C6.26473 3.6804 6.24775 3.66946 6.23142 3.66197C6.19094 3.62409 6.1455 3.58164 6.12865 3.56657C6.07278 3.5166 6.03073 3.48485 5.99006 3.46353C5.98142 3.459 5.97287 3.45497 5.96436 3.45143C5.84357 3.40109 5.71619 3.5273 5.77619 3.71219C5.84278 3.91766 5.92757 4.03547 6.12344 4.23833L6.13791 4.25331C6.32692 4.44898 6.40608 4.55575 6.47101 4.74079C6.51503 4.8664 6.56194 4.94868 6.62125 4.9911C6.69182 5.04157 6.77868 5.03247 6.88856 4.95365L6.92581 4.92726L6.92626 4.92693L6.95575 4.9058C7.03952 4.85599 7.14214 4.9391 7.1462 5.07411C7.14302 5.08309 7.13944 5.09244 7.13547 5.10223L7.14545 5.10472C7.14627 5.09426 7.1465 5.08405 7.1462 5.07411C7.17383 4.9962 7.17189 4.9469 7.14634 4.893C7.14151 4.88282 7.13584 4.87225 7.12801 4.85862C7.12787 4.85837 7.12771 4.85809 7.12754 4.85779C7.12345 4.85069 7.1101 4.82751 7.113 4.82294C7.09978 4.83019 7.08909 4.82436 7.08156 4.80906C7.0764 4.79856 7.073 4.78599 7.06756 4.76066L7.06624 4.75449C7.05934 4.72232 7.05492 4.70876 7.04884 4.70459L7.04898 4.69559C7.20966 4.59281 7.37202 4.51503 7.56502 4.46409C7.57499 4.55965 7.60013 4.6083 7.65168 4.59944C7.67626 4.59382 7.70028 4.58875 7.72427 4.58417C7.73507 4.58929 7.74761 4.59068 7.76209 4.58819C7.72611 4.59435 7.69067 4.60149 7.65366 4.60994C7.5931 4.62037 7.56524 4.56644 7.5613 4.4698C7.37808 4.52436 7.21822 4.60056 7.06015 4.70106C7.06624 4.70917 7.0703 4.72373 7.0764 4.75218L7.07772 4.75835C7.08295 4.78274 7.08623 4.79484 7.09085 4.80423C7.09603 4.81477 7.10092 4.81744 7.11503 4.81549L7.13697 4.85317C7.14492 4.86703 7.15072 4.87782 7.15569 4.88831C7.18557 4.95136 7.18466 5.00893 7.14506 5.10636L7.13508 5.10387C7.14637 4.95897 7.04275 4.86643 6.96136 4.9148C6.95047 4.92275 6.9424 4.92853 6.93215 4.93576L6.93169 4.93609L6.8945 4.96243C6.78134 5.04361 6.68985 5.0532 6.61531 4.99989C6.55375 4.95586 6.50592 4.87196 6.46123 4.74442C6.39694 4.56124 6.31855 4.4555 6.13053 4.26085L6.11606 4.24588C5.91915 4.04194 5.83354 3.92298 5.76632 3.71558C5.70354 3.5221 5.83917 3.38771 5.96826 3.44151C5.97705 3.44517 5.98587 3.44932 5.99479 3.45399C6.03636 3.47579 6.07902 3.508 6.13547 3.55849C6.15481 3.57579 6.21147 3.62883 6.25535 3.6699C6.26501 3.67895 6.27406 3.68742 6.28195 3.69479ZM7.76038 4.57763L7.76209 4.58819L7.76038 4.57763C7.76038 4.57763 7.76038 4.57763 7.76038 4.57763ZM7.76038 4.57763C7.70938 4.58641 7.68503 4.53501 7.6747 4.43507C7.77258 4.41677 7.88018 4.3997 7.99417 4.39011C8.13201 4.37847 8.27286 4.34963 8.40387 4.30586C8.43103 4.42327 8.47188 4.49217 8.53182 4.47153C8.59412 4.451 8.6505 4.42906 8.70183 4.40495C8.70304 4.4044 8.70427 4.40382 8.7055 4.40322L8.70109 4.39353C8.69998 4.39405 8.69886 4.39458 8.69775 4.3951C8.69883 4.39461 8.69992 4.39409 8.70103 4.39356L8.70544 4.40325C8.70424 4.40382 8.70303 4.40438 8.70183 4.40495C8.68556 4.41233 8.67069 4.415 8.657 4.41334C8.61724 4.4303 8.57456 4.44621 8.52858 4.46136C8.47781 4.47884 8.43918 4.41367 8.40726 4.29929C8.27042 4.3392 8.13036 4.36787 7.99332 4.37944C7.87883 4.38907 7.77074 4.40622 7.66837 4.43042C7.67362 4.51513 7.6903 4.56807 7.72427 4.58417C7.73629 4.58188 7.74831 4.5797 7.76038 4.57763ZM6.28195 3.69479C6.29057 3.702 6.29925 3.71007 6.30794 3.719L6.30079 3.72678C6.2959 3.72228 6.28662 3.71363 6.27478 3.70255C6.28329 3.70965 6.29191 3.71765 6.30058 3.72658L6.30773 3.7188C6.30288 3.71434 6.29369 3.70577 6.28195 3.69479Z" fill="black"/>
<path fill-rule="evenodd" clip-rule="evenodd" d="M9.81845 6.23334C9.74988 6.51984 9.83049 6.84301 10.0156 7.01639L10.0155 7.0244C9.75981 7.25071 9.48974 7.42786 9.20469 7.57043C9.12093 7.61232 9.04951 7.65929 8.97149 7.72064C8.95215 7.73585 8.933 7.75143 8.90824 7.77195C8.91049 7.77008 8.86115 7.81113 8.84753 7.82232C8.7866 7.87237 8.74119 7.90608 8.69227 7.93559C8.9753 7.98496 9.29723 8.25383 9.51272 8.60596C9.76772 9.02246 10.0214 9.22687 10.4342 9.43863C10.6637 9.55645 10.6518 9.70859 10.4672 9.93374C10.3443 10.0836 10.2955 10.2048 10.2242 10.4752C10.1465 10.7699 10.0924 10.9005 9.94869 11.0674C9.81721 11.22 9.63641 11.1664 9.61701 11.0245C9.61011 10.9737 9.61411 10.9163 9.62834 10.8363C9.63472 10.8005 9.66076 10.6777 9.67363 10.6169L9.67365 10.6169L9.67365 10.6168L9.68073 10.5833C9.68245 10.5748 9.68393 10.5666 9.68517 10.5583C9.6849 10.5697 9.68653 10.5805 9.68986 10.5905L9.68375 10.6194L9.68374 10.6195C9.67084 10.6803 9.64491 10.8026 9.63857 10.8382C9.62453 10.9172 9.6206 10.9736 9.62731 11.023C9.64546 11.1558 9.81526 11.2062 9.9409 11.0603C10.0833 10.895 10.1369 10.7656 10.2141 10.4724C10.2858 10.2006 10.3351 10.0783 10.4593 9.92684C10.6401 9.70622 10.6514 9.5621 10.4295 9.4482C10.0152 9.23565 9.76009 9.0301 9.50392 8.61166C9.28618 8.25586 8.95919 7.98577 8.67615 7.94382L8.67433 7.93386C8.72773 7.90282 8.77522 7.86802 8.84104 7.81395C8.85463 7.80279 8.90395 7.76177 8.90172 7.76361C8.92653 7.74304 8.94576 7.72741 8.96518 7.71214C9.04371 7.65038 9.1157 7.60303 9.20014 7.5608C9.48278 7.41944 9.75063 7.24401 10.0043 7.02021L10.0086 7.0243L10.0087 7.01629L10.0043 7.02021C9.81928 6.84312 9.73945 6.51873 9.80943 6.23553C9.67427 6.07175 9.33678 6.00407 9.07709 6.07263C8.82727 6.25434 8.61926 6.4871 8.4219 6.7842C8.36755 6.86601 8.25764 7.05343 8.15066 7.23586C8.0395 7.4254 7.93151 7.60956 7.89228 7.66426C7.87994 7.68147 7.86781 7.69764 7.85583 7.71284C7.73654 7.86407 7.73365 8.16631 7.90969 8.30971C7.91791 8.31641 7.92587 8.32318 7.93365 8.33008C7.95745 8.3512 7.97906 8.37302 8.00449 8.40105L8.03448 8.43483L8.03449 8.43484L8.03452 8.43488C8.05455 8.45752 8.07864 8.48475 8.08963 8.4968C8.12781 8.53869 8.16588 8.57733 8.21144 8.6195C8.32903 8.72836 8.48818 8.85225 8.71388 9.00594C8.82872 9.08413 9.18991 9.31791 9.1881 9.31671C9.34775 9.42226 9.4382 9.49101 9.48834 9.54956C9.64955 9.73767 9.70839 9.84682 9.68848 9.99115C9.68025 10.0509 9.67781 10.1039 9.68018 10.1703L9.67519 10.1694L9.66991 10.1743C9.6673 10.1056 9.6697 10.0512 9.67818 9.98965C9.69751 9.84953 9.63979 9.74247 9.48054 9.55664C9.43126 9.4991 9.34129 9.43071 9.18248 9.32572C9.18438 9.32697 8.8231 9.09314 8.70814 9.01486C8.48204 8.8609 8.32249 8.7367 8.20448 8.62746C8.15869 8.58507 8.12042 8.54622 8.08204 8.50412C8.07098 8.49199 8.04676 8.46461 8.02671 8.44194L8.02668 8.44191L7.99688 8.40835C7.97169 8.38058 7.95034 8.35902 7.92686 8.33818C7.91919 8.33138 7.91134 8.32471 7.90323 8.31811C7.72216 8.1706 7.72511 7.86157 7.84775 7.7061C7.85963 7.69103 7.87166 7.67499 7.88391 7.65791C7.92284 7.60361 8.03032 7.42033 8.14119 7.23127L8.14119 7.23127L8.1412 7.23126L8.1412 7.23125L8.14121 7.23125L8.14121 7.23124L8.14122 7.23123C8.24837 7.0485 8.35869 6.86039 8.41331 6.77816C8.61132 6.48009 8.82014 6.24642 9.07279 6.06308C9.3377 5.99277 9.67928 6.06128 9.81845 6.23334ZM9.67046 10.1872L9.66991 10.1743L9.66907 10.1751C9.66936 10.1792 9.66983 10.1833 9.67046 10.1872ZM9.68295 10.2247C9.67684 10.2134 9.67264 10.2009 9.67046 10.1872C9.67216 10.2243 9.67522 10.2657 9.6795 10.3145L9.68021 10.3226L9.67848 10.3239C9.67943 10.3339 9.68083 10.3433 9.68272 10.3522C9.69081 10.4498 9.6925 10.5004 9.68664 10.5475L9.6859 10.548C9.68549 10.5515 9.68525 10.5549 9.68517 10.5583L9.68664 10.5475L9.69337 10.5438L9.69734 10.5458C9.6969 10.5496 9.69641 10.5533 9.69588 10.557L9.69563 10.5569C9.69572 10.5544 9.69592 10.5518 9.69623 10.5492L9.68876 10.5534L9.69563 10.5569C9.6956 10.5576 9.69558 10.5584 9.69557 10.5591C9.69428 10.5678 9.69273 10.5765 9.69091 10.5855L9.68986 10.5905C9.71194 10.6568 9.80887 10.6901 9.92491 10.6726L9.92647 10.6625L9.69734 10.5458C9.70204 10.5059 9.70145 10.4631 9.69629 10.3922C9.73359 10.4668 9.83047 10.4906 10.0347 10.4731L10.0362 10.4628L9.69046 10.3204L9.68986 10.3135C9.68699 10.2808 9.68468 10.2515 9.68295 10.2247ZM9.68081 10.186C9.68138 10.1983 9.68209 10.2112 9.68295 10.2247C9.72821 10.3079 9.8784 10.3235 10.0936 10.2585L10.093 10.2481L9.68018 10.1703L9.68061 10.1813L9.68012 10.1812L9.67944 10.1743L9.67332 10.1799L9.68012 10.1812L9.68081 10.186ZM10.0692 10.2545C9.84285 10.3185 9.69791 10.2886 9.68081 10.186L9.68061 10.1813L10.0692 10.2545ZM10.0692 10.2545L10.0906 10.2482L10.0912 10.2586L10.0692 10.2545ZM9.6915 10.3324L9.69046 10.3204L9.68559 10.3184L9.68021 10.3226L9.68272 10.3522C9.68584 10.3669 9.69029 10.3802 9.69629 10.3922L9.69301 10.3504C9.71381 10.4463 9.79637 10.48 10.0116 10.4642L10.0323 10.4727L10.0338 10.4624L10.0116 10.4642L9.6915 10.3324ZM9.68982 10.3317C9.69066 10.3382 9.69172 10.3444 9.69301 10.3504L9.6915 10.3324L9.68982 10.3317ZM9.68982 10.3317L9.68884 10.3229L9.68173 10.3284L9.68982 10.3317ZM9.90638 10.6642L9.69588 10.557C9.69578 10.5577 9.69568 10.5584 9.69557 10.5591C9.69458 10.6339 9.78682 10.6772 9.90638 10.6642ZM9.90638 10.6642L9.92185 10.6721L9.92341 10.662C9.91767 10.6628 9.912 10.6636 9.90638 10.6642Z" fill="black"/>
<path fill-rule="evenodd" clip-rule="evenodd" d="M9.47255 6.81374C9.62521 6.73277 9.68867 6.69287 9.79923 6.59692L9.8077 6.60003C9.80921 6.6084 9.81148 6.61935 9.81384 6.63076C9.81726 6.6473 9.82089 6.66483 9.82274 6.67694C9.72403 6.75873 9.66654 6.79405 9.52422 6.86955L9.49491 6.88521C9.34559 6.96587 9.24465 7.04513 9.0972 7.21527C8.913 7.42779 8.63562 7.67149 8.47225 7.76598L8.42627 7.71127C8.58245 7.61661 8.859 7.37362 9.04242 7.16191C9.1908 6.99069 9.29274 6.91066 9.44325 6.82939L9.47255 6.81374ZM9.79747 6.60199L9.80594 6.6051C9.80367 6.60708 9.80141 6.60902 9.79918 6.61095C9.79854 6.60775 9.79797 6.60474 9.79747 6.60199ZM9.79918 6.61095C9.692 6.70335 9.62749 6.74361 9.47731 6.82325L9.44809 6.83887C9.29865 6.91956 9.1977 6.99881 9.05018 7.16903C8.86609 7.38152 8.58873 7.62523 8.43251 7.71201L8.4732 7.7575C8.62935 7.66287 8.90592 7.41988 9.08944 7.20814C9.23774 7.03702 9.33968 6.95697 9.49008 6.87573L9.51945 6.86004C9.66119 6.78484 9.71818 6.74983 9.81455 6.67448C9.81022 6.66131 9.80339 6.63212 9.79918 6.61095Z" fill="black"/>
<path fill-rule="evenodd" clip-rule="evenodd" d="M9.82025 7.03368C9.85474 7.00415 9.8988 6.97368 9.9456 6.94648L9.95204 6.94758L9.96432 6.96164C9.98196 6.98174 10.0023 7.00491 10.0155 7.02439C9.75976 7.2507 9.48969 7.42784 9.20463 7.57041C9.12088 7.6123 9.04946 7.65928 8.97144 7.72063C8.9521 7.73584 8.93294 7.75142 8.90819 7.77193C8.91044 7.77007 8.86109 7.81112 8.84747 7.8223C8.78126 7.8767 8.73337 7.91179 8.67231 7.94114L8.61809 7.83136C8.70003 7.78336 8.87473 7.64849 8.99683 7.54336C8.98212 7.53393 8.96974 7.51581 8.95256 7.48348L8.94293 7.46523C8.93931 7.45845 8.93641 7.45323 8.93363 7.44856C8.91782 7.42202 8.90736 7.41592 8.89462 7.42837L8.8874 7.42067C8.8979 7.41006 8.94798 7.35993 8.94093 7.367L8.94225 7.36567C8.98096 7.32685 9.00403 7.30316 9.01704 7.28848C9.03473 7.26963 9.05267 7.27417 9.07053 7.29744C9.07793 7.30708 9.08551 7.31986 9.09491 7.33794C9.09837 7.3446 9.1079 7.36368 9.1143 7.37652L9.12023 7.38839C9.13564 7.41873 9.14832 7.4405 9.15791 7.45695L9.166 7.47095C9.19561 7.44081 9.23549 7.41255 9.29293 7.37917C9.30073 7.37464 9.32495 7.36132 9.35494 7.34483C9.40877 7.31523 9.48118 7.27541 9.51048 7.25789C9.57904 7.2169 9.63548 7.17687 9.68495 7.13223C9.67197 7.12021 9.65997 7.0922 9.64438 7.04363C9.64012 7.03036 9.63989 7.02959 9.62827 6.99143C9.6114 6.93603 9.60198 6.90839 9.59098 6.88541C9.58876 6.88079 9.58659 6.87664 9.58447 6.87298L9.60244 6.88522C9.61287 6.90798 9.62223 6.9358 9.6382 6.98823C9.64979 7.02631 9.65003 7.02708 9.65426 7.04027C9.67105 7.0926 9.68391 7.12058 9.69572 7.1271L9.69672 7.13581C9.64551 7.18277 9.58708 7.22448 9.51571 7.26714C9.48618 7.2848 9.4134 7.32482 9.35954 7.35444C9.32974 7.37082 9.30573 7.38402 9.29805 7.38849C9.24134 7.42144 9.20213 7.44922 9.16599 7.47855C9.1477 7.45991 9.13171 7.43413 9.11101 7.39335L9.10498 7.38128L9.10498 7.38127C9.09857 7.36844 9.08915 7.34955 9.08574 7.34299C9.07661 7.32542 9.0693 7.3131 9.06237 7.30407C9.04796 7.2853 9.03707 7.28255 9.02462 7.2958C9.01153 7.31059 8.98839 7.33434 8.94951 7.37334L8.94822 7.37463C8.95307 7.36976 8.92932 7.39354 8.91139 7.41152C8.90365 7.40963 8.89579 7.41247 8.88746 7.42061L8.89468 7.42831L8.91139 7.41152C8.92169 7.41405 8.93178 7.42497 8.9425 7.44297C8.94538 7.4478 8.94835 7.45316 8.95205 7.46008L8.96169 7.47834C8.98042 7.51361 8.99304 7.53083 9.00815 7.53738L9.00948 7.54641C8.88672 7.65263 8.70721 7.79147 8.6252 7.83338L8.67428 7.93385C8.72768 7.90281 8.77516 7.86801 8.84099 7.81394C8.85457 7.80278 8.90389 7.76175 8.90166 7.7636C8.92648 7.74303 8.9457 7.7274 8.96512 7.71213C9.04366 7.65037 9.11565 7.60302 9.20008 7.56079C9.48437 7.4186 9.75369 7.24195 10.0085 7.0242C9.99245 7.00843 9.96657 6.98031 9.94707 6.95793L9.95071 6.9558L9.94427 6.9547L9.94707 6.95793C9.90214 6.98428 9.8598 7.01357 9.81981 7.04148C9.81482 7.03608 9.81009 7.03016 9.80555 7.02366L9.82025 7.03368ZM9.57251 6.84361C9.56542 6.83954 9.55808 6.83939 9.55037 6.84357L9.55036 6.84357L9.55522 6.85304L9.58447 6.87298C9.5738 6.85458 9.56421 6.8482 9.55525 6.85302L9.57251 6.84361ZM9.57251 6.84361C9.62009 6.81756 9.66488 6.7921 9.67998 6.78188C9.6909 6.77427 9.69911 6.77579 9.70768 6.78616C9.71591 6.79611 9.72368 6.81332 9.73304 6.84087C9.73499 6.84661 9.74006 6.8626 9.74534 6.87919L9.74535 6.87924L9.74538 6.87934L9.7454 6.8794L9.7454 6.8794L9.74541 6.87941L9.74545 6.87954L9.74545 6.87954L9.74545 6.87955C9.75097 6.89693 9.75668 6.91491 9.75921 6.92242C9.77406 6.96652 9.78844 6.99918 9.80555 7.02366L9.60244 6.88522L9.60031 6.88068C9.59129 6.86183 9.58213 6.84912 9.57251 6.84361ZM8.47142 8.85087C8.52223 8.88993 8.59875 8.84395 8.69471 8.73101C8.77147 8.64066 8.8582 8.50984 8.94063 8.36559L8.93243 8.35912L8.47083 8.84283L8.47142 8.85087ZM8.48264 8.84573L8.47825 8.85033L8.47765 8.84229C8.47927 8.84354 8.48094 8.84469 8.48264 8.84573ZM8.68688 8.72396C8.59781 8.8288 8.52729 8.87306 8.48264 8.84573L8.90951 8.39842C8.83414 8.5269 8.75631 8.64224 8.68688 8.72396ZM8.90951 8.39842L8.93166 8.36016L8.93986 8.36662L8.90951 8.39842ZM8.99804 8.32794C9.04091 8.36049 9.08158 8.39448 9.11982 8.42993L9.12658 8.42181L9.1267 8.42192L9.11994 8.43004L8.99777 8.32772L9.00414 8.31926C9.04722 8.35198 9.08811 8.38615 9.12656 8.42179L9.00442 8.31948L8.99804 8.32794ZM9.12656 8.42179L9.12658 8.42181L9.12658 8.42181L9.12656 8.42179ZM9.68608 9.10529C9.68621 9.10541 9.68633 9.10553 9.68646 9.10566L9.69449 9.09745L9.6943 9.09726C9.69439 9.09735 9.69449 9.09744 9.69458 9.09753L9.68653 9.10576L9.68608 9.10529ZM9.59969 9.01613L9.68608 9.10529C9.65785 9.07776 9.62926 9.04823 9.59969 9.01613ZM9.59935 9.01576C9.59946 9.01589 9.59958 9.01601 9.59969 9.01613L9.59934 9.01577L9.59935 9.01576ZM9.6076 9.00777L9.59935 9.01576C9.59932 9.01572 9.59928 9.01569 9.59925 9.01565L9.60749 9.00766L9.6076 9.00777ZM9.60786 9.00804L9.6943 9.09726C9.66607 9.06973 9.63747 9.04018 9.60786 9.00804ZM9.60786 9.00804L9.6076 9.00777L9.6076 9.00776C9.60769 9.00785 9.60778 9.00795 9.60786 9.00804Z" fill="black"/>
<path fill-rule="evenodd" clip-rule="evenodd" d="M8.48202 8.17133L8.47913 8.16188C8.48329 8.16223 8.48748 8.16264 8.49167 8.16309L8.48202 8.17133ZM9.08979 8.14188C9.09846 8.16247 9.09691 8.18606 9.08643 8.21211C9.07689 8.23582 9.06073 8.26036 9.03749 8.28895C9.02884 8.2996 9.02028 8.30956 8.99805 8.32787C8.84137 8.20872 8.68162 8.13531 8.54277 8.11944L8.49167 8.16309C8.77477 8.1936 9.1209 8.44904 9.35255 8.78086C9.57646 9.10159 9.82031 9.30444 10.1192 9.46498C10.1066 9.48663 10.1029 9.50581 10.0992 9.55071L10.0991 9.55189C10.0982 9.56251 10.0977 9.56808 10.097 9.57442C10.0767 9.75763 9.99329 9.88543 9.88084 9.94084C9.80234 9.97951 9.72367 9.97261 9.69193 9.92965C9.69158 9.9185 9.69052 9.9074 9.68867 9.89511L9.68866 9.89511L9.67839 9.8968C9.68039 9.90937 9.68506 9.92036 9.69193 9.92965C9.69252 9.94813 9.69117 9.96675 9.68829 9.99113L9.68578 10.0134C9.67863 10.0774 9.86093 10.091 9.99281 9.99745C10.0525 9.95508 10.1228 9.84045 10.153 9.74697L10.1628 9.74686C10.1987 9.85032 10.1999 9.90891 10.1596 10.0034C10.1279 9.98606 10.0964 9.95661 10.0741 9.92529C10.0761 9.92251 10.0777 9.92034 10.0784 9.91948L10.078 9.91947L10.07 9.91927C10.0713 9.92124 10.0726 9.92321 10.074 9.92517C10.0741 9.92521 10.0741 9.92525 10.0741 9.92529C10.0736 9.92604 10.073 9.92684 10.0724 9.92767C10.0675 9.93434 10.0612 9.94304 10.0585 9.94661C10.0501 9.95782 10.0423 9.96717 10.0336 9.97616C10.0289 9.98108 10.024 9.98581 10.0189 9.98971C10.0128 9.99448 10.0065 9.99802 10.0003 9.99922C10.0011 10.0006 10.0018 10.002 10.0026 10.0034C10.0286 10.0482 10.0737 10.0904 10.1289 10.1225C10.1194 10.1589 10.1173 10.1681 10.0967 10.2572C10.0552 10.4363 10.027 10.5219 9.96941 10.6128C9.9004 10.7218 9.81486 10.7807 9.74838 10.7725C9.70402 10.7671 9.67647 10.7332 9.67106 10.6795C9.67581 10.657 9.68026 10.636 9.68375 10.6196C9.67057 10.7028 9.69694 10.7555 9.74961 10.7619C9.81142 10.7695 9.89362 10.7129 9.9607 10.607C10.0175 10.5174 10.0454 10.4327 10.0865 10.2547C10.1072 10.1655 10.1094 10.1563 10.1216 10.126C10.0689 10.0998 10.0234 10.0581 9.99746 10.0072M10.0804 9.91598C10.1019 9.94717 10.133 9.97696 10.1572 9.99685C10.1877 9.912 10.1882 9.85717 10.1579 9.76492C10.14 9.81522 10.1118 9.86988 10.0804 9.91598ZM10.4023 9.1584C10.2906 9.22952 10.272 9.36261 10.3558 9.41233L10.3881 9.42798L10.3885 9.42817C10.4122 9.43982 10.4147 9.44103 10.4297 9.44825C10.551 9.50677 10.602 9.57963 10.5948 9.66776C10.5888 9.74181 10.543 9.82472 10.4593 9.92682C10.3352 10.0782 10.2858 10.2005 10.2142 10.4724C10.1369 10.7656 10.0833 10.895 9.94094 11.0603C9.8153 11.2061 9.64549 11.1558 9.62735 11.023C9.62063 10.9736 9.62456 10.9172 9.63861 10.8382C9.64323 10.8122 9.65826 10.7402 9.67106 10.6795C9.6692 10.661 9.66997 10.6401 9.67362 10.6172C9.67536 10.6062 9.67776 10.5948 9.68083 10.583L9.69095 10.5855C9.69024 10.589 9.68757 10.6015 9.68379 10.6194M10.4023 9.1584C10.4114 9.15679 10.421 9.15533 10.4312 9.15398L10.4283 9.14384C10.4192 9.14832 10.4105 9.1532 10.4023 9.1584ZM10.4023 9.1584C10.3116 9.17447 10.2735 9.20486 10.2344 9.27446C10.2339 9.27531 10.2334 9.27637 10.2327 9.2776C10.2261 9.28949 10.2109 9.31688 10.2075 9.31367C10.2195 9.32141 10.2205 9.33318 10.2126 9.34668C10.2071 9.35616 10.1981 9.36595 10.1818 9.38135L10.1771 9.38585C10.1491 9.41213 10.1403 9.42206 10.1398 9.43004L10.1322 9.43442C9.96539 9.34261 9.81882 9.23684 9.67939 9.09022C9.7548 9.03378 9.78326 8.98691 9.74993 8.94541C9.73321 8.92668 9.71691 8.90776 9.70081 8.88837C9.69974 8.87654 9.69489 8.865 9.68605 8.85366C9.70948 8.88286 9.73308 8.91073 9.75777 8.9384C9.79694 8.98715 9.76539 9.0391 9.68605 9.09071C9.82362 9.22675 9.96759 9.33109 10.1311 9.42169C10.1348 9.4121 10.1453 9.40131 10.1701 9.37797L10.1748 9.3735C10.1903 9.3588 10.1988 9.34948 10.2037 9.34116C10.209 9.33219 10.2085 9.32698 10.2002 9.3156C10.2007 9.31465 10.2024 9.31152 10.2047 9.30728C10.2109 9.2957 10.2217 9.27581 10.2254 9.26912C10.27 9.18968 10.3147 9.1586 10.4299 9.14338L10.4328 9.15352C10.3052 9.21592 10.2792 9.35454 10.3606 9.40285L10.3926 9.41834L10.393 9.41853C10.4166 9.43016 10.4191 9.43137 10.4341 9.43857C10.559 9.49884 10.6128 9.57559 10.6052 9.66868C10.5989 9.74553 10.5522 9.83007 10.4673 9.93374C10.3444 10.0836 10.2955 10.2048 10.2242 10.4752C10.1465 10.7699 10.0924 10.9005 9.94872 11.0674C9.81725 11.22 9.63644 11.1664 9.61704 11.0245C9.61015 10.9737 9.61414 10.9163 9.62838 10.8363C9.63475 10.8005 9.66072 10.678 9.67362 10.6172C9.67364 10.617 9.67366 10.6169 9.67369 10.6168C9.67744 10.5991 9.68007 10.5867 9.68077 10.5833L9.69088 10.5858M9.67719 8.85941C9.68504 8.8692 9.6929 8.87884 9.70081 8.88837C9.70427 8.92666 9.66808 8.96792 9.59933 9.01505C9.52795 8.9361 9.45947 8.84832 9.39398 8.75098C9.31581 8.63469 9.22167 8.52426 9.11956 8.42218C9.19993 8.33641 9.23538 8.26956 9.19528 8.233C9.15925 8.19929 9.12422 8.16896 9.08979 8.14188C9.08438 8.12904 9.075 8.11736 9.06134 8.10699C9.10721 8.14054 9.15386 8.17981 9.20223 8.22505C9.24956 8.26821 9.21209 8.33888 9.12679 8.42193C9.22923 8.51688 9.32391 8.62794 9.40253 8.7449C9.46775 8.84183 9.53591 8.92921 9.60008 9.0071C9.67917 8.94778 9.71015 8.90052 9.67719 8.85942L9.67719 8.85941ZM9.05204 8.11332C9.06456 8.1224 9.07713 8.13192 9.08979 8.14188L9.05204 8.11332ZM9.05204 8.11332C9.05202 8.1133 9.052 8.11329 9.05198 8.11327L9.05793 8.10449C9.05909 8.10532 9.06023 8.10615 9.06134 8.10699C9.06022 8.10617 9.0591 8.10536 9.05798 8.10454L9.05204 8.11332ZM9.67719 8.85941C9.67719 8.85941 9.67719 8.8594 9.67718 8.8594L9.68521 8.85259C9.68549 8.85295 9.68578 8.8533 9.68605 8.85366C9.68577 8.85331 9.68549 8.85296 9.68521 8.85261L9.67719 8.85941Z" fill="black"/>
<path fill-rule="evenodd" clip-rule="evenodd" d="M10.4456 9.0115L10.3635 8.9093L10.3544 8.91151L10.3245 9.04474L10.1954 9.04351L10.1914 9.0522L10.2746 9.1594L10.1935 9.26173L10.1976 9.27033L10.3312 9.27119L10.3577 9.40017L10.3668 9.40226L10.4506 9.2954L10.5665 9.35377L10.5737 9.34768L10.5434 9.21427L10.6604 9.15793L10.6603 9.14834L10.5398 9.08831L10.571 8.95992L10.5637 8.95394L10.4456 9.0115ZM10.5586 8.96837L10.4464 9.02305L10.4402 9.02162L10.362 8.92427L10.3646 8.91401L10.3555 8.91622L10.362 8.92427L10.3296 9.05139L10.2057 9.05408L10.1995 9.04561L10.1956 9.0543L10.2057 9.05408L10.2828 9.15941L10.2079 9.26009L10.1977 9.25972L10.2018 9.26833L10.2079 9.26009L10.3363 9.26466L10.3654 9.38757L10.3587 9.39563L10.3678 9.39773L10.3654 9.38757L10.4487 9.28726L10.5615 9.3398L10.5636 9.35021L10.5708 9.34411L10.5615 9.3398L10.536 9.21081L10.6467 9.15318L10.6558 9.15806L10.6557 9.14847L10.6467 9.15318L10.5325 9.09208L10.5586 8.96837ZM10.5586 8.96837L10.5682 8.96371L10.5609 8.95774L10.5586 8.96837Z" fill="black"/>
<path fill-rule="evenodd" clip-rule="evenodd" d="M10.0418 6.19764C10.3172 6.11542 10.549 5.88194 10.6023 5.63043L10.6091 5.62651C10.9276 5.74131 11.2119 5.89345 11.4741 6.07599C11.5829 6.15171 11.6478 6.18212 11.8387 6.25789C11.9296 6.29398 11.9831 6.31803 12.0376 6.34997C11.9377 6.07304 12.003 5.65176 12.1916 5.28365C12.4147 4.84824 12.4599 4.52017 12.4318 4.04625C12.4161 3.78279 12.5501 3.71733 12.8319 3.76922C13.0158 3.8031 13.147 3.78634 13.3949 3.71897L13.4141 3.71373C13.6952 3.63718 13.8344 3.62014 14.0454 3.66452C14.2395 3.70533 14.2848 3.89336 14.175 3.98147C14.1334 4.01489 14.0798 4.04096 13.997 4.07051C13.9709 4.07981 13.8905 4.10624 13.8324 4.12535L13.772 4.14529L13.7633 4.14836C13.7718 4.14301 13.7791 4.13674 13.7852 4.12968L13.8294 4.11508C13.8875 4.09599 13.9677 4.06965 13.9936 4.0604C14.0754 4.0312 14.1281 4.00557 14.1686 3.97303C14.2714 3.89059 14.2288 3.714 14.0433 3.67501C13.8343 3.63104 13.6965 3.64792 13.4168 3.72408L13.3975 3.72932C13.1483 3.79706 13.0158 3.81398 12.8301 3.77976C12.5539 3.72891 12.427 3.79091 12.4421 4.0456C12.4704 4.52131 12.4249 4.85122 12.2008 5.28864C12.0102 5.66059 11.9464 6.087 12.0526 6.36023L12.0451 6.36683C11.9866 6.33132 11.9325 6.30659 11.8349 6.26787C11.6434 6.19182 11.5779 6.16117 11.4683 6.08485C11.2083 5.90387 10.9266 5.75284 10.6111 5.63861L10.6124 5.6327L10.6056 5.63662L10.6111 5.63861C10.5547 5.89188 10.3215 6.12527 10.0482 6.20459C9.97788 6.40684 10.0896 6.74127 10.2772 6.9386C10.3786 6.98666 10.4839 7.0266 10.5936 7.05919C10.9315 7.15959 11.2083 7.18146 11.7582 7.18279C12.0405 7.18347 12.1506 7.18739 12.2683 7.2067C12.4553 7.23733 12.7111 7.08878 12.7438 6.8603C12.7492 6.82237 12.7569 6.7876 12.7682 6.7478C12.7751 6.72318 12.8057 6.62512 12.8028 6.63476C12.8183 6.58391 12.8305 6.53944 12.8424 6.4881C12.881 6.32106 12.9093 6.10536 12.9277 5.79556C12.9347 5.67613 12.9367 5.62882 12.9459 5.37386C12.9574 5.05452 12.9681 4.92479 12.998 4.83361C13.0759 4.59571 13.1382 4.48889 13.2696 4.4345C13.3222 4.41271 13.371 4.38653 13.4245 4.35222L13.4263 4.35718L13.433 4.35943C13.3778 4.39497 13.3277 4.42198 13.2735 4.44443C13.146 4.49723 13.0848 4.60201 13.0079 4.83703C12.9785 4.92677 12.9678 5.0563 12.9563 5.37426C12.9471 5.62932 12.9451 5.67666 12.938 5.79621C12.9196 6.10659 12.8913 6.32289 12.8525 6.49057C12.8406 6.54218 12.8283 6.58689 12.8127 6.63797C12.8156 6.62848 12.7851 6.72634 12.7782 6.75079C12.767 6.79015 12.7594 6.82444 12.7541 6.86186C12.7205 7.09688 12.4589 7.24876 12.2667 7.21727C12.1497 7.19808 12.0398 7.19417 11.7581 7.19349C11.2073 7.19216 10.9299 7.17023 10.5907 7.06947C10.4805 7.03674 10.3747 6.99661 10.2713 6.9472C10.0796 6.7461 9.96656 6.40762 10.0418 6.19764ZM13.4436 4.3525L13.433 4.35943L13.4341 4.35981C13.4374 4.35748 13.4406 4.35504 13.4436 4.3525ZM13.4688 4.3228C13.4624 4.33381 13.454 4.34375 13.4436 4.3525C13.4609 4.34114 13.4788 4.32895 13.4975 4.31579C13.5079 4.30839 13.531 4.29175 13.5527 4.27613L13.5547 4.27702C13.5626 4.27118 13.5698 4.2652 13.5764 4.25903L13.5982 4.24335C13.6359 4.21657 13.665 4.19746 13.6931 4.18152C13.7096 4.17216 13.7255 4.16411 13.741 4.15732L13.743 4.1584C13.7504 4.15555 13.7571 4.15219 13.7633 4.14836C13.7559 4.15106 13.7485 4.15404 13.741 4.15732L13.7347 4.15382L13.7343 4.14863C13.7382 4.14692 13.742 4.14529 13.7457 4.14374L13.7459 4.14525C13.7434 4.14643 13.7408 4.14753 13.7381 4.14855L13.7464 4.15313L13.7459 4.14525C13.7494 4.14355 13.7528 4.14169 13.756 4.13967C13.7603 4.13806 13.7645 4.13655 13.7687 4.13512L13.7852 4.12968C13.8317 4.07576 13.8075 3.97545 13.7263 3.883L13.7157 3.88666L13.7343 4.14863C13.7193 4.15531 13.704 4.16314 13.6881 4.17215C13.6624 4.18669 13.6361 4.20376 13.6034 4.22671C13.6472 4.15616 13.6187 4.05796 13.5022 3.88498L13.4928 3.88879L13.5458 4.26805C13.5244 4.28346 13.5019 4.2997 13.4916 4.30696L13.4688 4.3228ZM13.4374 4.34389C13.4476 4.33717 13.4581 4.33015 13.4688 4.3228C13.5164 4.24087 13.4545 4.09915 13.292 3.93981L13.2835 3.94549L13.4245 4.35222L13.4336 4.34639L13.4337 4.34689L13.4282 4.35095L13.4361 4.35358L13.4337 4.34689L13.4374 4.34389ZM13.3008 3.96351C13.4679 4.13321 13.5153 4.27733 13.4374 4.34389L13.4336 4.34639L13.3008 3.96351ZM13.3008 3.96351L13.2849 3.94756L13.2933 3.94189L13.3008 3.96351ZM13.5553 4.26117L13.5458 4.26805L13.5465 4.27343L13.5527 4.27613L13.5643 4.26773L13.5764 4.25903C13.5873 4.24885 13.5963 4.23814 13.6034 4.22671L13.5923 4.23454L13.5698 4.25075C13.64 4.18423 13.6271 4.09378 13.5062 3.91L13.503 3.88727L13.4936 3.89108L13.5062 3.91L13.5553 4.26117ZM13.5556 4.26302C13.5606 4.25901 13.5654 4.25493 13.5698 4.25075L13.5583 4.25904L13.5582 4.25905L13.5581 4.25916L13.558 4.25921L13.5553 4.26117L13.5556 4.26302ZM13.5556 4.26302L13.5486 4.26832L13.5568 4.2719L13.5556 4.26302ZM13.7286 3.90372L13.7457 4.14374C13.7492 4.14232 13.7526 4.14097 13.756 4.13967C13.8196 4.09963 13.8064 3.99995 13.7286 3.90372ZM13.7286 3.90372L13.7274 3.88598L13.7168 3.88963C13.7209 3.89432 13.7248 3.89901 13.7286 3.90372Z" fill="black"/>
<path fill-rule="evenodd" clip-rule="evenodd" d="M10.4354 6.06421C10.4107 6.05349 10.3847 6.04307 10.3573 6.0329L10.3557 6.02379C10.3624 6.01792 10.3709 6.0101 10.3796 6.00203C10.3915 5.99097 10.404 5.97946 10.413 5.97192C10.4266 5.97734 10.4398 5.98283 10.4527 5.9884C10.5534 6.03179 10.5975 6.05792 10.7307 6.14585C10.8905 6.25129 11.0009 6.30068 11.2289 6.34938C11.4999 6.40734 11.8438 6.53262 12.0048 6.63083L11.9818 6.69921C11.8239 6.60738 11.4812 6.48247 11.2113 6.42485C10.982 6.37586 10.8704 6.32595 10.7096 6.21981C10.5776 6.1327 10.5343 6.107 10.4354 6.06421ZM10.3625 6.03193L10.3609 6.02283C10.3636 6.02386 10.3664 6.0249 10.3692 6.02594C10.3668 6.02808 10.3646 6.0301 10.3625 6.03193ZM10.415 5.98043C10.4061 5.99092 10.3851 6.01141 10.3692 6.02594C10.3937 6.03519 10.4171 6.04464 10.4395 6.05434C10.5391 6.09745 10.5827 6.12337 10.7152 6.2108C10.875 6.31627 10.9854 6.36566 11.2134 6.41437C11.4843 6.4722 11.8281 6.59748 11.9793 6.69329L11.9972 6.63422C11.8397 6.54252 11.4968 6.41761 11.2267 6.35985C10.9975 6.31087 10.8859 6.26097 10.7251 6.15486C10.5923 6.06725 10.5487 6.04135 10.4487 5.99827C10.448 5.99797 10.4473 5.99767 10.4466 5.99736C10.4345 5.99214 10.4223 5.98691 10.415 5.98043Z" fill="black"/>
<path fill-rule="evenodd" clip-rule="evenodd" d="M12.494 5.00198C12.5074 4.96257 12.5189 4.92537 12.5288 4.88944L12.5173 4.88672L12.5172 4.88687L12.5172 4.88687C12.5172 4.88689 12.5172 4.88691 12.5172 4.88693L12.4826 4.99876C12.4826 4.99879 12.4826 4.99882 12.4826 4.99885L12.4826 4.99885L12.4825 4.99898L12.494 5.00198ZM12.4826 4.99885L12.494 5.00185L12.5288 4.88959L12.5172 4.88687L12.5172 4.88693C12.5074 4.92262 12.4959 4.95959 12.4826 4.99876L12.4826 4.99885ZM10.7144 5.79577C10.6722 5.77969 10.6245 5.75565 10.5783 5.72763L10.576 5.72133L10.5817 5.70321C10.5899 5.67741 10.5992 5.64785 10.609 5.62652C10.9275 5.74131 11.2118 5.89346 11.474 6.07599C11.5828 6.15171 11.6477 6.18212 11.8386 6.25789C11.9366 6.29681 11.9912 6.32172 12.0521 6.36494L11.9869 6.46814C11.9054 6.41906 11.7042 6.33069 11.5551 6.27467C11.5545 6.2898 11.5477 6.30716 11.5351 6.32975C11.5322 6.33489 11.5292 6.34008 11.525 6.34714C11.5054 6.38004 11.5016 6.38708 11.4982 6.39857C11.4941 6.41227 11.497 6.4194 11.5095 6.42319L11.5066 6.43348L11.5065 6.43346L11.5094 6.42317L11.4873 6.41679C11.4854 6.41084 11.4858 6.40366 11.4882 6.39543C11.492 6.38265 11.4959 6.37558 11.5161 6.34155C11.5203 6.33458 11.5233 6.32946 11.5261 6.32443C11.54 6.29945 11.5462 6.2817 11.5444 6.26759L11.5514 6.26189C11.7017 6.31794 11.9086 6.40861 11.985 6.4608L12.045 6.36683C11.9865 6.33132 11.9324 6.30659 11.8348 6.26787C11.6433 6.19182 11.5778 6.16117 11.4682 6.08486C11.2067 5.90281 10.9232 5.75109 10.6123 5.63283C10.6071 5.65487 10.5963 5.69188 10.5872 5.72059L10.5836 5.71841L10.5859 5.7247L10.5872 5.72059C10.6318 5.74737 10.6776 5.77048 10.7212 5.79226C10.7196 5.79772 10.7177 5.80326 10.7154 5.80888C10.7022 5.84113 10.6795 5.87312 10.6419 5.91676L10.6021 5.96235C10.5882 5.97864 10.5787 5.99074 10.5719 6.00132C10.5565 6.02531 10.5564 6.03859 10.5726 6.0467C10.5887 6.05502 10.6317 6.08167 10.6782 6.11156C10.6784 6.11989 10.6819 6.1265 10.6893 6.13127C10.637 6.09751 10.5855 6.06534 10.568 6.0563C10.5447 6.04464 10.5448 6.02405 10.5632 5.99542C10.5703 5.98433 10.5801 5.97191 10.5943 5.95528L10.6341 5.90966C10.671 5.86685 10.6932 5.83561 10.7058 5.80474L10.7061 5.80392C10.7081 5.79895 10.71 5.79438 10.7144 5.79577ZM10.6893 6.13127L10.6948 6.12222L10.6782 6.11156C10.6781 6.10058 10.6838 6.08662 10.6944 6.06993C10.7081 6.04845 10.7272 6.02539 10.7635 5.98469L10.7682 5.97947C10.8353 5.90435 10.8558 5.87786 10.8553 5.85992L10.8621 5.85468C10.9461 5.88325 11.0245 5.92456 11.1263 5.98912L11.1299 5.99147L11.1299 5.99149C11.1504 6.00473 11.2505 6.06946 11.279 6.08662C11.3326 6.1189 11.3744 6.13914 11.416 6.15636C11.4114 6.17421 11.4029 6.19372 11.3903 6.21647C11.3839 6.22804 11.3768 6.23987 11.3672 6.2553L11.3667 6.2561L11.3667 6.2561L11.3667 6.25611C11.3353 6.30637 11.329 6.31635 11.3245 6.32704L11.3208 6.33618C11.3124 6.35823 11.3155 6.36924 11.3328 6.37369C11.3519 6.37798 11.3836 6.38675 11.4366 6.4021L11.4407 6.40327L11.4767 6.41375L11.4873 6.41679C11.4897 6.42458 11.496 6.43027 11.5065 6.43346L11.4739 6.42405L11.4379 6.41357L11.4338 6.4124C11.3811 6.39712 11.3494 6.38837 11.3305 6.38411C11.3058 6.37779 11.3006 6.35963 11.3112 6.33224L11.3151 6.32228C11.3198 6.31129 11.3262 6.30104 11.3577 6.2507L11.3577 6.2507L11.3585 6.24951C11.368 6.23423 11.375 6.22255 11.3813 6.21118C11.3856 6.2033 11.3895 6.19584 11.393 6.18904C11.3993 6.17684 11.4045 6.16676 11.4096 6.16017C11.3705 6.14917 11.3281 6.12857 11.2737 6.09586C11.2449 6.07851 11.1438 6.01312 11.1241 6.00038L11.1241 6.00038L11.1208 5.99823C11.0222 5.9357 10.9458 5.8952 10.8651 5.86702C10.8616 5.8881 10.8394 5.91558 10.7759 5.98671L10.7712 5.99193C10.7353 6.03218 10.7164 6.05498 10.7031 6.0758C10.6873 6.1007 10.6848 6.1157 10.6948 6.12222L10.6893 6.13128L10.6893 6.13127ZM12.9183 6.08902C12.9258 6.02423 12.8488 5.97907 12.7058 5.95006C12.5914 5.92686 12.4379 5.91501 12.2752 5.91367L12.2739 5.9242L12.9118 6.09357L12.9183 6.08902ZM12.9083 6.08159L12.9144 6.0832L12.9079 6.08775C12.9082 6.08568 12.9083 6.08363 12.9083 6.08159ZM12.3184 5.92498C12.4643 5.92791 12.6003 5.93958 12.7038 5.96056C12.8366 5.98749 12.9091 6.02817 12.9083 6.08159L12.3184 5.92498ZM12.3184 5.92498L12.2751 5.92437L12.2765 5.91383L12.3184 5.92498ZM12.2163 5.88134C12.2232 5.8267 12.2327 5.7735 12.2449 5.7219L12.2332 5.71994L12.2045 5.87989L12.2163 5.88134ZM12.2163 5.88159L12.2045 5.88014C12.2114 5.82516 12.221 5.77162 12.2333 5.71968L12.245 5.72164L12.2163 5.88159Z" fill="black"/>
<path fill-rule="evenodd" clip-rule="evenodd" d="M12.4285 5.34332C12.2637 5.71859 12.2232 6.1591 12.344 6.42218L12.3375 6.42949L12.2605 6.39858C12.2007 6.26201 12.1825 6.08109 12.2087 5.88598L12.1824 5.88043C12.1608 5.87598 12.1438 5.87308 12.1273 5.87132C12.0548 5.8636 12.0134 5.88136 12.0076 5.9374C12.009 5.9225 12.0106 5.90736 12.0126 5.89195C12.0332 5.86343 12.0731 5.85478 12.1283 5.86067C12.1453 5.86247 12.1625 5.86542 12.1845 5.86994C12.1905 5.87117 12.2092 5.87517 12.2149 5.88134C12.193 6.08053 12.211 6.25957 12.2671 6.39136L12.3294 6.41499C12.3311 6.41895 12.3328 6.42287 12.3346 6.42676L12.3411 6.41945L12.3294 6.41499C12.2135 6.14748 12.2555 5.71127 12.419 5.33892C12.577 4.97895 12.6258 4.66014 12.6114 4.31373C12.6355 4.31415 12.6539 4.30787 12.6917 4.28962L12.6935 4.28875C12.7039 4.28373 12.7087 4.28145 12.7147 4.2788C12.879 4.20539 13.0283 4.21578 13.1311 4.28827C13.2026 4.33864 13.2361 4.41173 13.2164 4.46146C13.2075 4.4671 13.1996 4.47326 13.1886 4.48231L13.1886 4.48231L13.1952 4.49062C13.205 4.48239 13.212 4.4725 13.2164 4.46146C13.2305 4.45251 13.2472 4.44486 13.2828 4.42898L13.2897 4.42583C13.3471 4.40006 13.2675 4.23093 13.1228 4.16019C13.0573 4.12815 12.9257 4.12278 12.8318 4.14262L12.8268 4.13391C12.896 4.05012 12.9447 4.01989 13.0444 4.00858C13.0457 4.04556 13.0366 4.08831 13.0214 4.12378L13.0143 4.12291L13.0145 4.12322L13.0183 4.13052C13.0193 4.12835 13.0203 4.12615 13.0213 4.12392C13.0213 4.12388 13.0213 4.12383 13.0214 4.12378L13.0251 4.12424C13.0547 4.12773 13.0742 4.13086 13.0909 4.13695C13.1013 4.14076 13.1106 4.14572 13.1205 4.15264C13.1213 4.15126 13.1221 4.14987 13.1228 4.14846C13.1476 4.10288 13.1605 4.04154 13.16 3.97637C13.1875 3.96874 13.2144 3.96077 13.2529 3.949C13.3752 3.91154 13.3962 3.90542 13.4483 3.89362C13.5226 3.87679 13.5878 3.86977 13.6524 3.87335C13.7786 3.88037 13.871 3.92715 13.8974 3.99045C13.915 4.03262 13.9003 4.07408 13.858 4.1057C13.8481 4.10894 13.8385 4.1121 13.8294 4.11508C13.8196 4.11831 13.8104 4.12134 13.8022 4.12404C13.8779 4.09416 13.9086 4.04457 13.8878 3.99467C13.8633 3.93581 13.7745 3.89086 13.6518 3.88404C13.5883 3.88051 13.5239 3.88744 13.4505 3.90407C13.3988 3.91579 13.3779 3.92189 13.2558 3.95926C13.2173 3.97105 13.1903 3.97905 13.1665 3.98114C13.1708 4.04115 13.1585 4.1025 13.1286 4.15119M13.0104 4.12283C13.0259 4.08816 13.0354 4.04556 13.0401 4.01404C12.9534 4.02922 12.9071 4.05612 12.8444 4.12927C12.8958 4.12014 12.9559 4.1179 13.0104 4.12283ZM13.805 4.13434C13.8258 4.12619 13.8435 4.11652 13.858 4.1057C13.9112 4.08817 13.9717 4.0682 13.9936 4.0604C14.0754 4.0312 14.1281 4.00557 14.1686 3.97303C14.2713 3.89059 14.2288 3.714 14.0433 3.67501C13.8343 3.63104 13.6964 3.64792 13.4168 3.72408L13.3975 3.72932C13.1483 3.79706 13.0158 3.81398 12.8301 3.77976C12.7023 3.75623 12.6096 3.75691 12.5443 3.78854C12.4665 3.82618 12.4307 3.90813 12.4421 4.04547L12.4456 4.09006L12.4458 4.09228L12.4488 4.12924C12.4488 4.22881 12.3276 4.27867 12.212 4.21482C12.206 4.20748 12.1999 4.19961 12.1937 4.19116L12.1866 4.19881C12.195 4.20478 12.2035 4.21011 12.212 4.21482C12.2462 4.25659 12.2767 4.28095 12.3086 4.2936C12.3385 4.30548 12.3612 4.30723 12.4243 4.30601C12.4345 4.30582 12.439 4.30574 12.4399 4.31084C12.4404 4.29559 12.4505 4.28893 12.4668 4.28973C12.4781 4.29028 12.4906 4.29353 12.5139 4.3011L12.517 4.30209C12.5517 4.31341 12.5648 4.31631 12.5716 4.31282L12.5791 4.31744C12.5853 4.51169 12.5696 4.69543 12.5159 4.89305C12.4305 4.85412 12.3771 4.85219 12.3587 4.9026C12.3512 4.92716 12.3434 4.9511 12.3353 4.97486C12.3257 4.98181 12.3184 4.99208 12.3132 5.0059C12.326 4.97079 12.3376 4.93579 12.3489 4.89912C12.3704 4.83989 12.4296 4.84203 12.513 4.88687C12.5587 4.69619 12.5745 4.51549 12.5689 4.32474C12.559 4.32621 12.5447 4.32234 12.5139 4.3123L12.5108 4.3113C12.4884 4.30404 12.4764 4.30091 12.4664 4.30042C12.4552 4.29987 12.4506 4.3029 12.4452 4.31638L12.4245 4.31672C12.36 4.31796 12.3364 4.31614 12.3048 4.30359C12.2653 4.2879 12.2283 4.25559 12.1854 4.19765L12.1925 4.19C12.3088 4.27252 12.4384 4.22649 12.4384 4.12974C12.4372 4.11605 12.4364 4.10603 12.4354 4.09311L12.4352 4.09089L12.4318 4.04638C12.42 3.90494 12.4577 3.81861 12.5398 3.77885C12.6077 3.74602 12.7022 3.74533 12.8319 3.76922C13.0158 3.8031 13.147 3.78634 13.3949 3.71897L13.4141 3.71373C13.6952 3.63718 13.8344 3.62014 14.0453 3.66452C14.2395 3.70533 14.2848 3.89336 14.175 3.98147C14.1334 4.01489 14.0798 4.04096 13.997 4.07051C13.9709 4.07981 13.8905 4.10624 13.8324 4.12535C13.8225 4.1286 13.8133 4.13163 13.805 4.13434ZM12.3227 5.01033C12.327 4.99851 12.3312 4.98671 12.3353 4.97486C12.3657 4.95265 12.4186 4.96429 12.4926 5.00198C12.4619 5.10509 12.4222 5.21004 12.3731 5.31704C12.3143 5.44474 12.2684 5.58382 12.2336 5.72598C12.1214 5.69719 12.0472 5.69904 12.0364 5.75309C12.0261 5.80197 12.0182 5.84806 12.0126 5.89195C12.0044 5.90331 11.9992 5.91782 11.9973 5.93583C12.0026 5.87822 12.0123 5.81704 12.0262 5.75089C12.0389 5.68709 12.1174 5.68514 12.2297 5.71968C12.2584 5.58078 12.3045 5.44091 12.3637 5.31246C12.4126 5.20593 12.4521 5.10145 12.4855 5.0053C12.3961 4.96449 12.3408 4.96047 12.3227 5.01033L12.3227 5.01033ZM12.0073 5.94059C12.0073 5.94061 12.0073 5.94063 12.0073 5.94065L11.9969 5.93974C11.9971 5.93842 11.9972 5.93711 11.9973 5.93583C11.9972 5.93711 11.9971 5.9384 11.997 5.93968L12.0073 5.94059ZM12.0073 5.94043C12.0073 5.94048 12.0073 5.94054 12.0073 5.94059L12.0073 5.94059C12.0073 5.94054 12.0073 5.94048 12.0073 5.94043ZM12.3227 5.01033C12.3227 5.01033 12.3227 5.01033 12.3227 5.01033L12.313 5.00659C12.3131 5.00636 12.3132 5.00613 12.3132 5.0059C12.3132 5.00613 12.3131 5.00636 12.313 5.00659L12.3227 5.01033ZM13.805 4.13434C13.7947 4.13841 13.7835 4.1421 13.7717 4.14537L13.7687 4.13512C13.7745 4.13315 13.7865 4.12919 13.8022 4.12404C13.7919 4.12808 13.7809 4.13176 13.769 4.13503L13.772 4.14529C13.7777 4.14335 13.7896 4.13943 13.805 4.13434Z" fill="black"/>
</g>
</svg>
