<svg width="20" height="14" viewBox="0 0 20 14" fill="none" xmlns="http://www.w3.org/2000/svg">
<rect x="0.25" y="0.25" width="19.5" height="13.5" rx="1.75" fill="white" stroke="#F5F5F5" stroke-width="0.5"/>
<mask id="mask0_11425_87734" style="mask-type:luminance" maskUnits="userSpaceOnUse" x="0" y="0" width="20" height="14">
<rect x="0.25" y="0.25" width="19.5" height="13.5" rx="1.75" fill="white" stroke="white" stroke-width="0.5"/>
</mask>
<g mask="url(#mask0_11425_87734)">
<path fill-rule="evenodd" clip-rule="evenodd" d="M0 4.66667H20V0H0V4.66667Z" fill="#FFA44A"/>
<path fill-rule="evenodd" clip-rule="evenodd" d="M0 14H20V9.33337H0V14Z" fill="#1A9F0B"/>
<path d="M9.99998 8.73331C10.9667 8.73331 11.7619 7.96359 11.7619 6.99998C11.7619 6.03637 10.9667 5.26664 9.99998 5.26664C9.03329 5.26664 8.23808 6.03637 8.23808 6.99998C8.23808 7.96359 9.03329 8.73331 9.99998 8.73331Z" fill="#181A93" fill-opacity="0.15" stroke="#181A93" stroke-width="0.666667"/>
<path fill-rule="evenodd" clip-rule="evenodd" d="M9.99999 7.46666C10.263 7.46666 10.4762 7.25773 10.4762 6.99999C10.4762 6.74226 10.263 6.53333 9.99999 6.53333C9.737 6.53333 9.5238 6.74226 9.5238 6.99999C9.5238 7.25773 9.737 7.46666 9.99999 7.46666Z" fill="#181A93"/>
</g>
</svg>
