<svg width="20" height="14" viewBox="0 0 20 14" fill="none" xmlns="http://www.w3.org/2000/svg">
<rect x="0.25" y="0.25" width="19.5" height="13.5" rx="1.75" fill="white" stroke="#F5F5F5" stroke-width="0.5"/>
<mask id="mask0_11425_87737" style="mask-type:luminance" maskUnits="userSpaceOnUse" x="0" y="0" width="20" height="14">
<rect x="0.25" y="0.25" width="19.5" height="13.5" rx="1.75" fill="white" stroke="white" stroke-width="0.5"/>
</mask>
<g mask="url(#mask0_11425_87737)">
<path fill-rule="evenodd" clip-rule="evenodd" d="M0 4.66667H20V0H0V4.66667Z" fill="#DF1E35"/>
<path fill-rule="evenodd" clip-rule="evenodd" d="M0 14H20V9.33337H0V14Z" fill="#262626"/>
<path fill-rule="evenodd" clip-rule="evenodd" d="M13.3333 6.13451C13.3333 5.88788 13.5919 5.72666 13.8133 5.83518L14.099 5.97518C14.2133 6.03116 14.2857 6.14729 14.2857 6.27451V8.06664C14.2857 8.25074 14.1365 8.39998 13.9524 8.39998H13.6666C13.4826 8.39998 13.3333 8.25074 13.3333 8.06664V6.13451Z" fill="#0F7A40"/>
<path fill-rule="evenodd" clip-rule="evenodd" d="M7.61902 6.13451C7.61902 5.88788 7.87756 5.72666 8.09902 5.83518L8.38474 5.97518C8.49898 6.03116 8.5714 6.14729 8.5714 6.27451V8.06664C8.5714 8.25074 8.42216 8.39998 8.23807 8.39998H7.95235C7.76826 8.39998 7.61902 8.25074 7.61902 8.06664V6.13451Z" fill="#0F7A40"/>
<path fill-rule="evenodd" clip-rule="evenodd" d="M11.4286 6.27451C11.4286 6.14729 11.501 6.03116 11.6153 5.97518L11.901 5.83518C12.1224 5.72666 12.381 5.88788 12.381 6.13451V8.06664C12.381 8.25074 12.2317 8.39998 12.0476 8.39998H11.7619C11.5778 8.39998 11.4286 8.25074 11.4286 8.06664V6.27451Z" fill="#0F7A40"/>
<path fill-rule="evenodd" clip-rule="evenodd" d="M9.5238 7.20784C9.5238 7.08061 9.59622 6.96449 9.71047 6.90851L9.99618 6.76851C10.2176 6.65999 10.4762 6.82121 10.4762 7.06784V7.50844H11.9048V8.39997H10.4762H9.85714C9.67304 8.39997 9.5238 8.25073 9.5238 8.06664V7.20784Z" fill="#0F7A40"/>
<path fill-rule="evenodd" clip-rule="evenodd" d="M5.71429 7.20784C5.71429 7.08061 5.78671 6.96449 5.90096 6.90851L6.18667 6.76851C6.40814 6.65999 6.66667 6.82121 6.66667 7.06784V7.50844H8.09525V8.39997H6.66667H6.04763C5.86353 8.39997 5.71429 8.25073 5.71429 8.06664V7.20784Z" fill="#0F7A40"/>
</g>
</svg>
