<svg width="20" height="14" viewBox="0 0 20 14" fill="none" xmlns="http://www.w3.org/2000/svg">
<rect x="0.25" y="0.25" width="19.5" height="13.5" rx="1.75" fill="white" stroke="#F5F5F5" stroke-width="0.5"/>
<mask id="mask0_11425_87735" style="mask-type:luminance" maskUnits="userSpaceOnUse" x="0" y="0" width="20" height="14">
<rect x="0.25" y="0.25" width="19.5" height="13.5" rx="1.75" fill="white" stroke="white" stroke-width="0.5"/>
</mask>
<g mask="url(#mask0_11425_87735)">
<path fill-rule="evenodd" clip-rule="evenodd" d="M0 4.66667H20V0H0V4.66667Z" fill="#38BB56"/>
<path fill-rule="evenodd" clip-rule="evenodd" d="M0 14H20V9.33337H0V14Z" fill="#DE1B27"/>
<path fill-rule="evenodd" clip-rule="evenodd" d="M1.28573 3.73328C1.10163 3.73328 0.952393 3.88251 0.952393 4.06661V4.33328C0.952393 4.51737 1.10163 4.66661 1.28573 4.66661H1.57144C1.75554 4.66661 1.90477 4.51737 1.90477 4.33328V4.06661C1.90477 3.88251 1.75554 3.73328 1.57144 3.73328H1.28573ZM3.19049 3.73328C3.00639 3.73328 2.85715 3.88251 2.85715 4.06661V4.33328C2.85715 4.51737 3.00639 4.66661 3.19049 4.66661H3.4762C3.6603 4.66661 3.80954 4.51737 3.80954 4.33328V4.06661C3.80954 3.88251 3.6603 3.73328 3.4762 3.73328H3.19049ZM4.76192 4.06661C4.76192 3.88251 4.91116 3.73328 5.09525 3.73328H5.38096C5.56506 3.73328 5.7143 3.88251 5.7143 4.06661V4.33328C5.7143 4.51737 5.56506 4.66661 5.38096 4.66661H5.09525C4.91116 4.66661 4.76192 4.51737 4.76192 4.33328V4.06661ZM7.00001 3.73328C6.81592 3.73328 6.66668 3.88251 6.66668 4.06661V4.33328C6.66668 4.51737 6.81592 4.66661 7.00001 4.66661H7.28573C7.46982 4.66661 7.61906 4.51737 7.61906 4.33328V4.06661C7.61906 3.88251 7.46982 3.73328 7.28573 3.73328H7.00001ZM8.57144 4.06661C8.57144 3.88251 8.72068 3.73328 8.90477 3.73328H9.19049C9.37458 3.73328 9.52382 3.88251 9.52382 4.06661V4.33328C9.52382 4.51737 9.37458 4.66661 9.19049 4.66661H8.90477C8.72068 4.66661 8.57144 4.51737 8.57144 4.33328V4.06661ZM10.8095 3.73328C10.6254 3.73328 10.4762 3.88251 10.4762 4.06661V4.33328C10.4762 4.51737 10.6254 4.66661 10.8095 4.66661H11.0953C11.2793 4.66661 11.4286 4.51737 11.4286 4.33328V4.06661C11.4286 3.88251 11.2793 3.73328 11.0952 3.73328H10.8095ZM12.381 4.06661C12.381 3.88251 12.5302 3.73328 12.7143 3.73328H13C13.1841 3.73328 13.3333 3.88251 13.3333 4.06661V4.33328C13.3333 4.51737 13.1841 4.66661 13 4.66661H12.7143C12.5302 4.66661 12.381 4.51737 12.381 4.33328V4.06661ZM14.6191 3.73328C14.435 3.73328 14.2857 3.88251 14.2857 4.06661V4.33328C14.2857 4.51737 14.435 4.66661 14.6191 4.66661H14.9048C15.0889 4.66661 15.2381 4.51737 15.2381 4.33328V4.06661C15.2381 3.88251 15.0889 3.73328 14.9048 3.73328H14.6191ZM16.1905 4.06661C16.1905 3.88251 16.3397 3.73328 16.5238 3.73328H16.8095C16.9936 3.73328 17.1429 3.88251 17.1429 4.06661V4.33328C17.1429 4.51737 16.9936 4.66661 16.8095 4.66661H16.5238C16.3397 4.66661 16.1905 4.51737 16.1905 4.33328V4.06661ZM18.4286 3.73328C18.2445 3.73328 18.0952 3.88251 18.0952 4.06661V4.33328C18.0952 4.51737 18.2445 4.66661 18.4286 4.66661H18.7143C18.8984 4.66661 19.0476 4.51737 19.0476 4.33328V4.06661C19.0476 3.88251 18.8984 3.73328 18.7143 3.73328H18.4286ZM0.952393 9.66661C0.952393 9.48252 1.10163 9.33328 1.28573 9.33328H1.57144C1.75554 9.33328 1.90477 9.48252 1.90477 9.66661V9.93328C1.90477 10.1174 1.75554 10.2666 1.57144 10.2666H1.28573C1.10163 10.2666 0.952393 10.1174 0.952393 9.93328V9.66661ZM3.19049 9.33328C3.00639 9.33328 2.85715 9.48252 2.85715 9.66661V9.93328C2.85715 10.1174 3.00639 10.2666 3.19049 10.2666H3.4762C3.6603 10.2666 3.80954 10.1174 3.80954 9.93328V9.66661C3.80954 9.48252 3.6603 9.33328 3.4762 9.33328H3.19049ZM4.76192 9.66661C4.76192 9.48252 4.91116 9.33328 5.09525 9.33328H5.38096C5.56506 9.33328 5.7143 9.48252 5.7143 9.66661V9.93328C5.7143 10.1174 5.56506 10.2666 5.38096 10.2666H5.09525C4.91116 10.2666 4.76192 10.1174 4.76192 9.93328V9.66661ZM7.00001 9.33328C6.81592 9.33328 6.66668 9.48252 6.66668 9.66661V9.93328C6.66668 10.1174 6.81592 10.2666 7.00001 10.2666H7.28573C7.46982 10.2666 7.61906 10.1174 7.61906 9.93328V9.66661C7.61906 9.48252 7.46982 9.33328 7.28573 9.33328H7.00001ZM8.57144 9.66661C8.57144 9.48252 8.72068 9.33328 8.90477 9.33328H9.19049C9.37458 9.33328 9.52382 9.48252 9.52382 9.66661V9.93328C9.52382 10.1174 9.37458 10.2666 9.19049 10.2666H8.90477C8.72068 10.2666 8.57144 10.1174 8.57144 9.93328V9.66661ZM10.8095 9.33328C10.6254 9.33328 10.4762 9.48252 10.4762 9.66661V9.93328C10.4762 10.1174 10.6254 10.2666 10.8095 10.2666H11.0953C11.2793 10.2666 11.4286 10.1174 11.4286 9.93328V9.66661C11.4286 9.48252 11.2793 9.33328 11.0952 9.33328H10.8095ZM12.381 9.66661C12.381 9.48252 12.5302 9.33328 12.7143 9.33328H13C13.1841 9.33328 13.3333 9.48252 13.3333 9.66661V9.93328C13.3333 10.1174 13.1841 10.2666 13 10.2666H12.7143C12.5302 10.2666 12.381 10.1174 12.381 9.93328V9.66661ZM14.6191 9.33328C14.435 9.33328 14.2857 9.48252 14.2857 9.66661V9.93328C14.2857 10.1174 14.435 10.2666 14.6191 10.2666H14.9048C15.0889 10.2666 15.2381 10.1174 15.2381 9.93328V9.66661C15.2381 9.48252 15.0889 9.33328 14.9048 9.33328H14.6191ZM16.1905 9.66661C16.1905 9.48252 16.3397 9.33328 16.5238 9.33328H16.8095C16.9936 9.33328 17.1429 9.48252 17.1429 9.66661V9.93328C17.1429 10.1174 16.9936 10.2666 16.8095 10.2666H16.5238C16.3397 10.2666 16.1905 10.1174 16.1905 9.93328V9.66661ZM18.4286 9.33328C18.2445 9.33328 18.0952 9.48252 18.0952 9.66661V9.93328C18.0952 10.1174 18.2445 10.2666 18.4286 10.2666H18.7143C18.8984 10.2666 19.0476 10.1174 19.0476 9.93328V9.66661C19.0476 9.48252 18.8984 9.33328 18.7143 9.33328H18.4286Z" fill="white" fill-opacity="0.5"/>
<mask id="path-6-inside-1_11425_87735" fill="white">
<path fill-rule="evenodd" clip-rule="evenodd" d="M9.0382 5.96484C8.7514 6.2209 8.57141 6.58987 8.57141 7.00004C8.57141 7.77324 9.211 8.40005 9.99998 8.40005C10.789 8.40005 11.4286 7.77324 11.4286 7.00004C11.4286 6.59761 11.2553 6.23484 10.9779 5.97946"/>
</mask>
<path d="M8.59421 5.46754C8.17357 5.84308 7.90474 6.3897 7.90474 7.00004H9.23808C9.23808 6.79005 9.32923 6.59872 9.4822 6.46215L8.59421 5.46754ZM7.90474 7.00004C7.90474 8.15407 8.85558 9.06671 9.99998 9.06671V7.73338C9.56643 7.73338 9.23808 7.39242 9.23808 7.00004H7.90474ZM9.99998 9.06671C11.1444 9.06671 12.0952 8.15407 12.0952 7.00004H10.7619C10.7619 7.39242 10.4335 7.73338 9.99998 7.73338V9.06671ZM12.0952 7.00004C12.0952 6.40131 11.8365 5.86371 11.4294 5.48899L10.5264 6.46994C10.6741 6.60597 10.7619 6.79392 10.7619 7.00004H12.0952Z" fill="#D80915" mask="url(#path-6-inside-1_11425_87735)"/>
<rect x="9.5238" y="6.53333" width="0.95238" height="1.86667" rx="0.47619" fill="#D80915"/>
</g>
</svg>
