<svg width="20" height="14" viewBox="0 0 20 14" fill="none" xmlns="http://www.w3.org/2000/svg">
<rect x="0.25" y="0.25" width="19.5" height="13.5" rx="1.75" fill="white" stroke="#F5F5F5" stroke-width="0.5"/>
<mask id="mask0_11425_87743" style="mask-type:luminance" maskUnits="userSpaceOnUse" x="0" y="0" width="20" height="14">
<rect x="0.25" y="0.25" width="19.5" height="13.5" rx="1.75" fill="white" stroke="white" stroke-width="0.5"/>
</mask>
<g mask="url(#mask0_11425_87743)">
<path fill-rule="evenodd" clip-rule="evenodd" d="M0 14H20V9.33337H0V14Z" fill="#199E56"/>
<path fill-rule="evenodd" clip-rule="evenodd" d="M0 4.66667H20V0H0V4.66667Z" fill="#262626"/>
<path fill-rule="evenodd" clip-rule="evenodd" d="M0 0L9.52381 7L0 14V0Z" fill="#E6223A"/>
<path fill-rule="evenodd" clip-rule="evenodd" d="M3.33336 7.69998L2.71352 8.26133L2.77491 7.43642L1.9406 7.31151L2.63698 6.84421L2.21645 6.12709L3.02344 6.3693L3.33336 5.59998L3.64327 6.3693L4.45026 6.12709L4.02973 6.84421L4.72611 7.31151L3.89181 7.43642L3.95319 8.26133L3.33336 7.69998Z" fill="white"/>
</g>
</svg>
