<svg width="20" height="14" viewBox="0 0 20 14" fill="none" xmlns="http://www.w3.org/2000/svg">
<rect width="20" height="14" rx="2" fill="white"/>
<mask id="mask0_11425_87750" style="mask-type:luminance" maskUnits="userSpaceOnUse" x="0" y="0" width="20" height="14">
<rect width="20" height="14" rx="2" fill="white"/>
</mask>
<g mask="url(#mask0_11425_87750)">
<path fill-rule="evenodd" clip-rule="evenodd" d="M0 3.73333H20V0H0V3.73333Z" fill="#262626"/>
<path fill-rule="evenodd" clip-rule="evenodd" d="M0 14.0001H20V10.2667H0V14.0001Z" fill="#018301"/>
<path fill-rule="evenodd" clip-rule="evenodd" d="M0 10.2666H20V3.73328H0V10.2666Z" fill="white"/>
<path fill-rule="evenodd" clip-rule="evenodd" d="M0 9.33329H20V4.66663H0V9.33329Z" fill="#DC0808"/>
<path fill-rule="evenodd" clip-rule="evenodd" d="M9.99997 11.6667C10.9524 11.6667 12.3809 9.8351 12.3809 7.00004C12.3809 4.16498 10.9524 2.33337 9.99997 2.33337C9.04759 2.33337 7.61902 4.16498 7.61902 7.00004C7.61902 9.8351 9.04759 11.6667 9.99997 11.6667Z" fill="#BC0000"/>
<mask id="mask1_11425_87750" style="mask-type:luminance" maskUnits="userSpaceOnUse" x="7" y="2" width="6" height="10">
<path fill-rule="evenodd" clip-rule="evenodd" d="M9.99997 11.6667C10.9524 11.6667 12.3809 9.8351 12.3809 7.00004C12.3809 4.16498 10.9524 2.33337 9.99997 2.33337C9.04759 2.33337 7.61902 4.16498 7.61902 7.00004C7.61902 9.8351 9.04759 11.6667 9.99997 11.6667Z" fill="white"/>
</mask>
<g mask="url(#mask1_11425_87750)">
<path fill-rule="evenodd" clip-rule="evenodd" d="M6.1904 12.1334C7.50536 12.1334 8.57135 9.83509 8.57135 7.00003C8.57135 4.16497 7.50536 1.8667 6.1904 1.8667C4.87544 1.8667 3.80945 4.16497 3.80945 7.00003C3.80945 9.83509 4.87544 12.1334 6.1904 12.1334Z" fill="#262626"/>
<path fill-rule="evenodd" clip-rule="evenodd" d="M13.8095 12.1334C15.1245 12.1334 16.1905 9.83509 16.1905 7.00003C16.1905 4.16497 15.1245 1.8667 13.8095 1.8667C12.4946 1.8667 11.4286 4.16497 11.4286 7.00003C11.4286 9.83509 12.4946 12.1334 13.8095 12.1334Z" fill="#262626"/>
<g filter="url(#filter0_d_11425_87750)">
<path fill-rule="evenodd" clip-rule="evenodd" d="M9.99999 5.60003C10.263 5.60003 10.4762 4.7643 10.4762 3.73337C10.4762 2.70243 10.263 1.8667 9.99999 1.8667C9.737 1.8667 9.5238 2.70243 9.5238 3.73337C9.5238 4.7643 9.737 5.60003 9.99999 5.60003ZM9.99999 5.60003C10.263 5.60003 10.4762 6.22683 10.4762 7.00003C10.4762 7.77323 10.263 8.40003 9.99999 8.40003C9.737 8.40003 9.5238 7.77323 9.5238 7.00003C9.5238 6.22683 9.737 5.60003 9.99999 5.60003ZM10.4762 10.2667C10.4762 11.2976 10.263 12.1334 9.99999 12.1334C9.737 12.1334 9.5238 11.2976 9.5238 10.2667C9.5238 9.23577 9.737 8.40003 9.99999 8.40003C10.263 8.40003 10.4762 9.23577 10.4762 10.2667Z" fill="url(#paint0_linear_11425_87750)"/>
</g>
</g>
</g>
<defs>
<filter id="filter0_d_11425_87750" x="9.5238" y="1.8667" width="0.952393" height="11.2667" filterUnits="userSpaceOnUse" color-interpolation-filters="sRGB">
<feFlood flood-opacity="0" result="BackgroundImageFix"/>
<feColorMatrix in="SourceAlpha" type="matrix" values="0 0 0 0 0 0 0 0 0 0 0 0 0 0 0 0 0 0 127 0" result="hardAlpha"/>
<feOffset dy="1"/>
<feColorMatrix type="matrix" values="0 0 0 0 0 0 0 0 0 0 0 0 0 0 0 0 0 0 0.06 0"/>
<feBlend mode="normal" in2="BackgroundImageFix" result="effect1_dropShadow_11425_87750"/>
<feBlend mode="normal" in="SourceGraphic" in2="effect1_dropShadow_11425_87750" result="shape"/>
</filter>
<linearGradient id="paint0_linear_11425_87750" x1="9.5238" y1="1.8667" x2="9.5238" y2="12.1334" gradientUnits="userSpaceOnUse">
<stop stop-color="white"/>
<stop offset="1" stop-color="#F0F0F0"/>
</linearGradient>
</defs>
</svg>
