<svg width="20" height="14" viewBox="0 0 20 14" fill="none" xmlns="http://www.w3.org/2000/svg">
<rect width="20" height="14" rx="2" fill="white"/>
<mask id="mask0_11425_87749" style="mask-type:luminance" maskUnits="userSpaceOnUse" x="0" y="0" width="20" height="14">
<rect width="20" height="14" rx="2" fill="white"/>
</mask>
<g mask="url(#mask0_11425_87749)">
<rect width="20" height="14" fill="#F22A46"/>
<path fill-rule="evenodd" clip-rule="evenodd" d="M9.99997 9.33329C11.3149 9.33329 12.3809 8.28862 12.3809 6.99996C12.3809 5.71129 11.3149 4.66663 9.99997 4.66663C8.68501 4.66663 7.61902 5.71129 7.61902 6.99996C7.61902 8.28862 8.68501 9.33329 9.99997 9.33329Z" fill="#FFF04D"/>
<path fill-rule="evenodd" clip-rule="evenodd" d="M8.83447 12.0046L10.0001 10.2995L11.1656 12.0046L11.4609 9.97276L13.266 11.0134L12.6324 9.05721L14.7194 9.22726L13.2825 7.73421L15.2382 6.99999L13.2825 6.26578L14.7194 4.77272L12.6324 4.94277L13.266 2.98659L11.4609 4.02722L11.1656 1.99536L10.0001 3.70046L8.83447 1.99536L8.53923 4.02722L6.73416 2.98659L7.36774 4.94277L5.2807 4.77272L6.71761 6.26578L4.76196 6.99999L6.71761 7.73421L5.2807 9.22726L7.36774 9.05721L6.73416 11.0134L8.53923 9.97276L8.83447 12.0046ZM13.3334 6.99999C13.3334 8.80412 11.841 10.2667 10.0001 10.2667C8.15911 10.2667 6.66672 8.80412 6.66672 6.99999C6.66672 5.19586 8.15911 3.73332 10.0001 3.73332C11.841 3.73332 13.3334 5.19586 13.3334 6.99999Z" fill="#FFF04D"/>
</g>
</svg>
