<svg width="20" height="14" viewBox="0 0 20 14" fill="none" xmlns="http://www.w3.org/2000/svg">
<rect width="20" height="14" rx="2" fill="white"/>
<mask id="mask0_11425_87758" style="mask-type:luminance" maskUnits="userSpaceOnUse" x="0" y="0" width="20" height="14">
<rect width="20" height="14" rx="2" fill="white"/>
</mask>
<g mask="url(#mask0_11425_87758)">
<path fill-rule="evenodd" clip-rule="evenodd" d="M0 3.73333H20V0H0V3.73333Z" fill="#0F3EB6"/>
<path fill-rule="evenodd" clip-rule="evenodd" d="M0 14.0001H20V10.2667H0V14.0001Z" fill="#0F3EB6"/>
<path fill-rule="evenodd" clip-rule="evenodd" d="M0 10.2666H20V3.73328H0V10.2666Z" fill="#ED1A3C"/>
<path fill-rule="evenodd" clip-rule="evenodd" d="M8.57144 6.10902H9.52382V5.60949C9.52382 5.3465 9.73702 5.1333 10 5.1333C10.263 5.1333 10.4762 5.3465 10.4762 5.60949V6.10902H11.4286V6.99997H8.57144V6.10902ZM12.381 5.59997C12.118 5.59997 11.9048 5.81316 11.9048 6.07616V6.99997H12.8572V6.07616C12.8572 5.81316 12.644 5.59997 12.381 5.59997ZM8.09525 7.46663H7.14287L6.19049 9.3333H8.09525V7.46663ZM8.57144 7.46663V9.3333H11.4286V7.46663H8.57144ZM11.9048 7.46663H12.8572L13.8095 9.3333H11.9048V7.46663ZM7.61906 5.59997C7.35607 5.59997 7.14287 5.81316 7.14287 6.07616V6.99997H8.09525V6.07616C8.09525 5.81316 7.88205 5.59997 7.61906 5.59997Z" fill="white"/>
</g>
</svg>
