<svg width="20" height="14" viewBox="0 0 20 14" fill="none" xmlns="http://www.w3.org/2000/svg">
<rect x="0.25" y="0.25" width="19.5" height="13.5" rx="1.75" fill="white" stroke="#F5F5F5" stroke-width="0.5"/>
<mask id="mask0_11425_87690" style="mask-type:luminance" maskUnits="userSpaceOnUse" x="0" y="0" width="20" height="14">
<rect x="0.25" y="0.25" width="19.5" height="13.5" rx="1.75" fill="white" stroke="white" stroke-width="0.5"/>
</mask>
<g mask="url(#mask0_11425_87690)">
<path fill-rule="evenodd" clip-rule="evenodd" d="M0 3.73333H20V0H0V3.73333Z" fill="#FFCB49"/>
<path fill-rule="evenodd" clip-rule="evenodd" d="M0 10.2667H20V6.53333H0V10.2667Z" fill="#DC1D34"/>
<path fill-rule="evenodd" clip-rule="evenodd" d="M0 14.0001H20V10.2667H0V14.0001Z" fill="#4985D4"/>
<path fill-rule="evenodd" clip-rule="evenodd" d="M0 14L9.52381 7L0 0V14Z" fill="#4BA343"/>
<path fill-rule="evenodd" clip-rule="evenodd" d="M3.80954 9.79995C4.05618 9.79995 4.29552 9.76932 4.52382 9.71174C3.29152 9.40091 2.38096 8.30464 2.38096 6.99995C2.38096 5.69526 3.29152 4.59899 4.52382 4.28816C4.29552 4.23058 4.05618 4.19995 3.80954 4.19995C2.23158 4.19995 0.952393 5.45355 0.952393 6.99995C0.952393 8.54635 2.23158 9.79995 3.80954 9.79995ZM5.7143 5.13328C5.7143 5.39102 5.5011 5.59995 5.23811 5.59995C4.97511 5.59995 4.76192 5.39102 4.76192 5.13328C4.76192 4.87555 4.97511 4.66662 5.23811 4.66662C5.5011 4.66662 5.7143 4.87555 5.7143 5.13328ZM5.23811 7.46662C5.5011 7.46662 5.7143 7.25768 5.7143 6.99995C5.7143 6.74222 5.5011 6.53328 5.23811 6.53328C4.97511 6.53328 4.76192 6.74222 4.76192 6.99995C4.76192 7.25768 4.97511 7.46662 5.23811 7.46662ZM5.7143 8.86662C5.7143 9.12435 5.5011 9.33328 5.23811 9.33328C4.97511 9.33328 4.76192 9.12435 4.76192 8.86662C4.76192 8.60889 4.97511 8.39995 5.23811 8.39995C5.5011 8.39995 5.7143 8.60889 5.7143 8.86662Z" fill="white"/>
</g>
</svg>
