<svg width="20" height="14" viewBox="0 0 20 14" fill="none" xmlns="http://www.w3.org/2000/svg">
<rect x="0.25" y="0.25" width="19.5" height="13.5" rx="1.75" fill="white" stroke="#F5F5F5" stroke-width="0.5"/>
<mask id="mask0_11425_87753" style="mask-type:luminance" maskUnits="userSpaceOnUse" x="0" y="0" width="20" height="14">
<rect x="0.25" y="0.25" width="19.5" height="13.5" rx="1.75" fill="white" stroke="white" stroke-width="0.5"/>
</mask>
<g mask="url(#mask0_11425_87753)">
<path fill-rule="evenodd" clip-rule="evenodd" d="M9.99996 10.2666C11.8409 10.2666 13.3333 8.80407 13.3333 6.99994C13.3333 5.19581 11.8409 3.73328 9.99996 3.73328C8.15901 3.73328 6.66663 5.19581 6.66663 6.99994C6.66663 8.80407 8.15901 10.2666 9.99996 10.2666Z" fill="#E01B41"/>
<mask id="mask1_11425_87753" style="mask-type:luminance" maskUnits="userSpaceOnUse" x="6" y="3" width="8" height="8">
<path fill-rule="evenodd" clip-rule="evenodd" d="M9.99996 10.2666C11.8409 10.2666 13.3333 8.80407 13.3333 6.99994C13.3333 5.19581 11.8409 3.73328 9.99996 3.73328C8.15901 3.73328 6.66663 5.19581 6.66663 6.99994C6.66663 8.80407 8.15901 10.2666 9.99996 10.2666Z" fill="white"/>
</mask>
<g mask="url(#mask1_11425_87753)">
<path fill-rule="evenodd" clip-rule="evenodd" d="M6.66657 7.46663C7.61895 8.34163 9.04752 8.86663 9.9999 7.46663C10.9523 6.06663 12.857 6.06663 13.3332 7.46663C13.8094 8.86663 13.3332 10.2666 13.3332 10.2666H6.66657C6.66657 10.2666 5.71419 6.59163 6.66657 7.46663Z" fill="#0E4B9C"/>
</g>
<path opacity="0.75" fill-rule="evenodd" clip-rule="evenodd" d="M14.937 2.59011C14.7768 2.68076 14.7226 2.88284 14.8161 3.04145L15.9062 4.89193C15.9997 5.05054 16.2053 5.10564 16.3655 5.01498L16.6101 4.87661C16.7703 4.78595 16.8245 4.58388 16.731 4.42526L15.6408 2.57479C15.5474 2.41617 15.3418 2.36108 15.1815 2.45174L14.937 2.59011ZM13.6998 3.29011C13.5396 3.38076 13.4854 3.58284 13.5789 3.74145L14.6691 5.59193C14.7625 5.75054 14.9681 5.80564 15.1284 5.71498L15.3729 5.57661C15.5332 5.48595 15.5873 5.28388 15.4938 5.12526L14.4037 3.27479C14.3102 3.11617 14.1046 3.06108 13.9444 3.15174L13.6998 3.29011ZM3.26906 9.57479C3.17561 9.41617 3.22975 9.2141 3.38997 9.12344L3.63453 8.98507C3.79475 8.89441 4.0004 8.94951 4.09384 9.10812L5.18402 10.9586C5.27746 11.1172 5.22333 11.3193 5.0631 11.4099L4.81854 11.5483C4.65832 11.639 4.45268 11.5839 4.35923 11.4253L3.26906 9.57479ZM4.62715 8.42344C4.46693 8.5141 4.41279 8.71617 4.50624 8.87479L5.59641 10.7253C5.68986 10.8839 5.8955 10.939 6.05572 10.8483L6.30028 10.7099C6.46051 10.6193 6.51464 10.4172 6.4212 10.2586L5.33102 8.40812C5.23758 8.24951 5.03193 8.19441 4.87171 8.28507L4.62715 8.42344ZM14.6691 8.40812C14.7625 8.24951 14.9681 8.19442 15.1284 8.28507L15.3729 8.42344C15.5332 8.5141 15.5873 8.71617 15.4938 8.87479L14.4037 10.7253C14.3102 10.8839 14.1046 10.939 13.9444 10.8483L13.6998 10.7099C13.5396 10.6193 13.4854 10.4172 13.5789 10.2586L14.6691 8.40812ZM16.3655 8.98507C16.2053 8.89442 15.9997 8.94951 15.9062 9.10812L14.8161 10.9586C14.7226 11.1172 14.7768 11.3193 14.937 11.4099L15.1815 11.5483C15.3418 11.639 15.5474 11.5839 15.6408 11.4253L16.731 9.57479C16.8245 9.41617 16.7703 9.2141 16.6101 9.12344L16.3655 8.98507ZM4.35923 2.57479C4.45268 2.41617 4.65832 2.36108 4.81854 2.45174L5.0631 2.59011C5.22333 2.68076 5.27746 2.88284 5.18402 3.04145L4.09384 4.89193C4.0004 5.05054 3.79475 5.10564 3.63453 5.01498L3.38997 4.87661C3.22975 4.78595 3.17561 4.58388 3.26906 4.42526L4.35923 2.57479ZM6.05572 3.15174C5.8955 3.06108 5.68986 3.11617 5.59641 3.27479L4.50624 5.12526C4.41279 5.28388 4.46693 5.48595 4.62715 5.57661L4.87171 5.71498C5.03193 5.80564 5.23758 5.75054 5.33102 5.59193L6.4212 3.74145C6.51464 3.58284 6.46051 3.38076 6.30028 3.29011L6.05572 3.15174Z" fill="#262626"/>
</g>
</svg>
