<svg width="20" height="14" viewBox="0 0 20 14" fill="none" xmlns="http://www.w3.org/2000/svg">
<rect width="20" height="14" rx="2" fill="white"/>
<mask id="mask0_11425_87746" style="mask-type:luminance" maskUnits="userSpaceOnUse" x="0" y="0" width="20" height="14">
<rect width="20" height="14" rx="2" fill="white"/>
</mask>
<g mask="url(#mask0_11425_87746)">
<rect width="20" height="14" fill="#30C6E0"/>
<path fill-rule="evenodd" clip-rule="evenodd" d="M9.99996 9.79995C11.5779 9.79995 12.8571 8.54635 12.8571 6.99995C12.8571 5.45355 11.5779 4.19995 9.99996 4.19995C8.42201 4.19995 7.14282 5.45355 7.14282 6.99995C7.14282 8.54635 8.42201 9.79995 9.99996 9.79995Z" fill="#FFCD4B"/>
<path fill-rule="evenodd" clip-rule="evenodd" d="M8.83447 12.0046L10.0001 10.2995L11.1656 12.0046L11.4609 9.97276L13.266 11.0134L12.6324 9.05721L14.7194 9.22726L13.2825 7.73421L15.2382 6.99999L13.2825 6.26578L14.7194 4.77272L12.6324 4.94277L13.266 2.98659L11.4609 4.02722L11.1656 1.99536L10.0001 3.70046L8.83447 1.99536L8.53923 4.02722L6.73416 2.98659L7.36774 4.94277L5.2807 4.77272L6.71761 6.26578L4.76196 6.99999L6.71761 7.73421L5.2807 9.22726L7.36774 9.05721L6.73416 11.0134L8.53923 9.97276L8.83447 12.0046ZM13.3334 6.99999C13.3334 8.80412 11.841 10.2667 10.0001 10.2667C8.15911 10.2667 6.66672 8.80412 6.66672 6.99999C6.66672 5.19586 8.15911 3.73332 10.0001 3.73332C11.841 3.73332 13.3334 5.19586 13.3334 6.99999Z" fill="#FFCD4B"/>
<path fill-rule="evenodd" clip-rule="evenodd" d="M0.952393 1.26668C0.952393 1.08259 1.10163 0.93335 1.28573 0.93335H1.57144C1.75554 0.93335 1.90477 1.08259 1.90477 1.26668V1.53335C1.90477 1.71744 1.75554 1.86668 1.57144 1.86668H1.28573C1.10163 1.86668 0.952393 1.71744 0.952393 1.53335V1.26668ZM0.952393 3.13335C0.952393 2.94925 1.10163 2.80002 1.28573 2.80002H1.57144C1.75554 2.80002 1.90477 2.94925 1.90477 3.13335V3.40002C1.90477 3.58411 1.75554 3.73335 1.57144 3.73335H1.28573C1.10163 3.73335 0.952393 3.58411 0.952393 3.40002V3.13335ZM1.28573 4.66668C1.10163 4.66668 0.952393 4.81592 0.952393 5.00002V5.26668C0.952393 5.45078 1.10163 5.60002 1.28573 5.60002H1.57144C1.75554 5.60002 1.90477 5.45078 1.90477 5.26668V5.00002C1.90477 4.81592 1.75554 4.66668 1.57144 4.66668H1.28573ZM0.952393 6.86668C0.952393 6.68259 1.10163 6.53335 1.28573 6.53335H1.57144C1.75554 6.53335 1.90477 6.68259 1.90477 6.86668V7.13335C1.90477 7.31745 1.75554 7.46668 1.57144 7.46668H1.28573C1.10163 7.46668 0.952393 7.31744 0.952393 7.13335V6.86668ZM1.28573 8.40002C1.10163 8.40002 0.952393 8.54925 0.952393 8.73335V9.00002C0.952393 9.18411 1.10163 9.33335 1.28573 9.33335H1.57144C1.75554 9.33335 1.90477 9.18411 1.90477 9.00002V8.73335C1.90477 8.54926 1.75554 8.40002 1.57144 8.40002H1.28573ZM0.952393 10.6C0.952393 10.4159 1.10163 10.2667 1.28573 10.2667H1.57144C1.75554 10.2667 1.90477 10.4159 1.90477 10.6V10.8667C1.90477 11.0508 1.75554 11.2 1.57144 11.2H1.28573C1.10163 11.2 0.952393 11.0508 0.952393 10.8667V10.6ZM1.28573 12.1333C1.10163 12.1333 0.952393 12.2826 0.952393 12.4667V12.7334C0.952393 12.9174 1.10163 13.0667 1.28573 13.0667H1.57144C1.75554 13.0667 1.90477 12.9174 1.90477 12.7333V12.4667C1.90477 12.2826 1.75554 12.1333 1.57144 12.1333H1.28573ZM1.90477 11.5333C1.90477 11.3493 2.05401 11.2 2.23811 11.2H2.52382C2.70792 11.2 2.85715 11.3493 2.85715 11.5333V11.8C2.85715 11.9841 2.70792 12.1333 2.52382 12.1333H2.23811C2.05401 12.1333 1.90477 11.9841 1.90477 11.8V11.5333ZM2.23811 9.33335C2.05401 9.33335 1.90477 9.48259 1.90477 9.66668V9.93335C1.90477 10.1174 2.05401 10.2667 2.23811 10.2667H2.52382C2.70792 10.2667 2.85715 10.1174 2.85715 9.93335V9.66668C2.85715 9.48259 2.70792 9.33335 2.52382 9.33335H2.23811ZM1.90477 7.80002C1.90477 7.61592 2.05401 7.46668 2.23811 7.46668H2.52382C2.70792 7.46668 2.85715 7.61592 2.85715 7.80002V8.06668C2.85715 8.25078 2.70792 8.40002 2.52382 8.40002H2.23811C2.05401 8.40002 1.90477 8.25078 1.90477 8.06668V7.80002ZM2.23811 5.60002C2.05401 5.60002 1.90477 5.74925 1.90477 5.93335V6.20002C1.90477 6.38411 2.05401 6.53335 2.23811 6.53335H2.52382C2.70792 6.53335 2.85715 6.38411 2.85715 6.20002V5.93335C2.85715 5.74925 2.70792 5.60002 2.52382 5.60002H2.23811ZM1.90477 4.06668C1.90477 3.88259 2.05401 3.73335 2.23811 3.73335H2.52382C2.70792 3.73335 2.85715 3.88259 2.85715 4.06668V4.33335C2.85715 4.51745 2.70792 4.66668 2.52382 4.66668H2.23811C2.05401 4.66668 1.90477 4.51744 1.90477 4.33335V4.06668ZM2.23811 1.86668C2.05401 1.86668 1.90477 2.01592 1.90477 2.20002V2.46668C1.90477 2.65078 2.05401 2.80002 2.23811 2.80002H2.52382C2.70792 2.80002 2.85715 2.65078 2.85715 2.46668V2.20002C2.85715 2.01592 2.70792 1.86668 2.52382 1.86668H2.23811Z" fill="#FFCD4B"/>
</g>
</svg>
