<svg width="20" height="14" viewBox="0 0 20 14" fill="none" xmlns="http://www.w3.org/2000/svg">
<rect x="0.25" y="0.25" width="19.5" height="13.5" rx="1.75" fill="white" stroke="#F5F5F5" stroke-width="0.5"/>
<mask id="mask0_11425_87759" style="mask-type:luminance" maskUnits="userSpaceOnUse" x="0" y="0" width="20" height="14">
<rect x="0.25" y="0.25" width="19.5" height="13.5" rx="1.75" fill="white" stroke="white" stroke-width="0.5"/>
</mask>
<g mask="url(#mask0_11425_87759)">
<path fill-rule="evenodd" clip-rule="evenodd" d="M0 3.73333H20V0H0V3.73333Z" fill="#F03340"/>
<path fill-rule="evenodd" clip-rule="evenodd" d="M0 14.0001H20V10.2667H0V14.0001Z" fill="#F03340"/>
<path fill-rule="evenodd" clip-rule="evenodd" d="M9.24367 8.67446C9.39745 8.52376 9.39745 8.27616 9.24367 8.12546L9.18745 8.07036C9.10048 7.98513 8.97564 7.95092 8.85738 7.97989L8.57081 8.0501C8.25943 8.12639 8.06916 7.7191 8.32747 7.52924L8.57088 7.35034C8.7219 7.23934 8.64339 6.99996 8.45597 6.99996C8.25037 6.99996 8.18597 6.72215 8.37059 6.63169L8.7722 6.4349C8.95682 6.34443 8.89241 6.06663 8.68682 6.06663C8.4994 6.06663 8.42089 5.82725 8.57191 5.71625L9.62999 4.93856C9.85011 4.77677 10.1498 4.77677 10.3699 4.93856L11.428 5.71625C11.579 5.82725 11.5005 6.06663 11.3131 6.06663C11.1075 6.06663 11.0431 6.34443 11.2277 6.4349L11.6293 6.63169C11.814 6.72215 11.7496 6.99996 11.544 6.99996C11.3565 6.99996 11.278 7.23934 11.429 7.35034L11.6725 7.52924C11.9308 7.7191 11.7405 8.12639 11.4291 8.0501L11.1426 7.97989C11.0243 7.95092 10.8994 7.98513 10.8125 8.07036L10.7563 8.12546C10.6025 8.27616 10.6025 8.52376 10.7563 8.67446C11.0021 8.91543 10.8315 9.33329 10.4872 9.33329H9.51268C9.1684 9.33329 8.99778 8.91543 9.24367 8.67446Z" fill="#1FC065"/>
</g>
</svg>
