<svg width="20" height="14" viewBox="0 0 20 14" fill="none" xmlns="http://www.w3.org/2000/svg">
<rect width="20" height="14" rx="2" fill="white"/>
<mask id="mask0_11425_87766" style="mask-type:luminance" maskUnits="userSpaceOnUse" x="0" y="0" width="20" height="14">
<rect width="20" height="14" rx="2" fill="white"/>
</mask>
<g mask="url(#mask0_11425_87766)">
<rect width="20" height="14" fill="#FFBF19"/>
<path fill-rule="evenodd" clip-rule="evenodd" d="M7.61902 0.93335H17.7143C18.4506 0.93335 19.0476 1.5303 19.0476 2.26668V11.7333C19.0476 12.4697 18.4506 13.0667 17.7143 13.0667H7.61902V0.93335Z" fill="#A52531"/>
<path d="M0.952393 2.26668C0.952393 1.5303 1.54935 0.93335 2.28573 0.93335H3.80954V13.0667H2.28573C1.54935 13.0667 0.952393 12.4697 0.952393 11.7333V2.26668Z" fill="#03664F"/>
<rect x="3.80957" y="0.93335" width="2.85714" height="12.1333" rx="0.666667" fill="#FF6816"/>
<path fill-rule="evenodd" clip-rule="evenodd" d="M9.52379 2.33337C9.52379 2.5911 9.31059 2.80003 9.0476 2.80003C8.78461 2.80003 8.57141 2.5911 8.57141 2.33337V1.8667H9.0476C9.31059 1.8667 9.52379 2.07563 9.52379 2.33337ZM17.1428 2.33337C17.1428 2.5911 17.356 2.80003 17.619 2.80003C17.882 2.80003 18.0952 2.5911 18.0952 2.33337V1.8667H17.619C17.356 1.8667 17.1428 2.07563 17.1428 2.33337ZM17.619 11.2C17.356 11.2 17.1428 11.409 17.1428 11.6667C17.1428 11.9244 17.356 12.1334 17.619 12.1334H18.0952V11.6667C18.0952 11.409 17.882 11.2 17.619 11.2ZM9.52379 11.6667C9.52379 11.409 9.31059 11.2 9.0476 11.2C8.78461 11.2 8.57141 11.409 8.57141 11.6667V12.1334H9.0476C9.31059 12.1334 9.52379 11.9244 9.52379 11.6667Z" fill="#FFBF18"/>
<path fill-rule="evenodd" clip-rule="evenodd" d="M11.4286 8.81083C11.4286 8.58396 11.2447 8.40004 11.0178 8.40004C10.9745 8.40004 10.9314 8.39323 10.8906 8.37891C10.6164 8.28292 9.52382 7.87481 9.52382 7.4667C9.52382 7.26303 9.61452 7.05935 9.71676 6.89447C9.86265 6.65921 9.92626 6.36605 9.83019 6.10643C9.67028 5.67432 9.46358 5.02088 9.52382 4.6667C9.54389 4.54868 9.59784 4.43893 9.6705 4.33922C9.95339 3.95097 10.4762 4.27083 10.4762 4.75121V6.11764C10.4762 6.37208 10.621 6.60434 10.8495 6.7163L11.229 6.90225C11.3486 6.96086 11.4922 6.93771 11.5873 6.84449C11.7422 6.69266 11.7004 6.43323 11.5056 6.33778L10.9524 6.0667V5.60004C11.1863 5.60004 11.2596 5.28392 11.0495 5.18097L10.9524 5.13337V4.6667H11.6326C11.807 4.6667 11.9746 4.5983 12.0992 4.47618L12.1865 4.39056C12.3112 4.26844 12.4787 4.20004 12.6532 4.20004H12.9251C13.1756 4.20004 13.405 4.34053 13.5189 4.56372L13.6815 4.88243C13.7633 5.04285 13.7768 5.22957 13.7188 5.40008L13.6331 5.65202C13.486 6.08445 13.8075 6.53337 14.2643 6.53337H15.5649C15.6607 6.53337 15.7526 6.49584 15.821 6.42882C16.0013 6.2521 15.9526 5.95015 15.7259 5.83905L15.3722 5.66576C15.284 5.62252 15.187 5.60004 15.0887 5.60004H14.9429C14.58 5.60004 14.2857 5.30579 14.2857 4.94283C14.2857 4.76622 14.3568 4.59705 14.4829 4.47344L14.7619 4.20004V4.65718C14.7619 4.92017 14.9751 5.13337 15.2381 5.13337H15.7822C16.0328 5.13337 16.2622 5.27386 16.376 5.49706L16.6114 5.95839C16.648 6.03001 16.6713 6.10742 16.6784 6.18751C16.7017 6.45063 16.745 7.08268 16.6667 7.4667C16.6075 7.7569 16.4537 8.02797 16.3368 8.20239C16.2483 8.33435 16.1905 8.48733 16.1905 8.6462V9.90497C16.1905 10.1048 16.0285 10.2667 15.8288 10.2667C15.5586 10.2667 15.3837 9.98125 15.5065 9.74058L15.6623 9.43533C15.695 9.37128 15.695 9.29546 15.6623 9.23141L15.6391 9.18601C15.5378 8.98748 15.2381 9.05953 15.2381 9.28239C15.2381 9.3159 15.2302 9.34893 15.2149 9.37878L14.88 10.0353C14.8075 10.1773 14.6616 10.2667 14.5021 10.2667C14.1853 10.2667 13.9803 9.93198 14.1243 9.64976L14.2246 9.45313C14.2648 9.37441 14.2857 9.28729 14.2857 9.19892V9.0667C14.2857 8.69851 13.9872 8.40004 13.6191 8.40004H13.0476C12.6794 8.40004 12.381 8.69851 12.381 9.0667V9.17313C12.381 9.27846 12.356 9.38229 12.3081 9.47611L12.0228 10.0353C11.9504 10.1773 11.8044 10.2667 11.645 10.2667C11.3282 10.2667 11.1232 9.93198 11.2672 9.64976L11.3675 9.45313C11.4076 9.37441 11.4286 9.28729 11.4286 9.19892V8.81083Z" fill="#FFBF18"/>
</g>
</svg>
