<svg width="20" height="14" viewBox="0 0 20 14" fill="none" xmlns="http://www.w3.org/2000/svg">
<rect x="0.25" y="0.25" width="19.5" height="13.5" rx="1.75" fill="white" stroke="#F5F5F5" stroke-width="0.5"/>
<mask id="mask0_11425_87756" style="mask-type:luminance" maskUnits="userSpaceOnUse" x="0" y="0" width="20" height="14">
<rect x="0.25" y="0.25" width="19.5" height="13.5" rx="1.75" fill="white" stroke="white" stroke-width="0.5"/>
</mask>
<g mask="url(#mask0_11425_87756)">
<path fill-rule="evenodd" clip-rule="evenodd" d="M0 4.66667H20V0H0V4.66667Z" fill="#0C33B8"/>
<path fill-rule="evenodd" clip-rule="evenodd" d="M0 14H20V9.33337H0V14Z" fill="#1DB158"/>
<path fill-rule="evenodd" clip-rule="evenodd" d="M9.52379 7.00004C9.67844 6.54536 10.3215 6.54536 10.4762 7.00004L11.2718 8.16958C11.3625 8.30298 11.3419 8.48048 11.203 8.56252C10.975 8.69722 10.5739 8.86671 9.99998 8.86671C9.42601 8.86671 9.025 8.69722 8.79694 8.56252C8.65803 8.48048 8.63744 8.30298 8.72818 8.16958L9.52379 7.00004Z" fill="#262626"/>
<path d="M10.619 6.06663C10.619 6.39169 10.3483 6.66663 9.99999 6.66663C9.65172 6.66663 9.38094 6.39169 9.38094 6.06663C9.38094 5.74158 9.65172 5.46663 9.99999 5.46663C10.3483 5.46663 10.619 5.74158 10.619 6.06663Z" stroke="#262626" stroke-width="0.666667"/>
</g>
</svg>
