<svg width="20" height="14" viewBox="0 0 20 14" fill="none" xmlns="http://www.w3.org/2000/svg">
<rect width="20" height="14" rx="2" fill="white"/>
<mask id="mask0_11425_87767" style="mask-type:luminance" maskUnits="userSpaceOnUse" x="0" y="0" width="20" height="14">
<rect width="20" height="14" rx="2" fill="white"/>
</mask>
<g mask="url(#mask0_11425_87767)">
<rect width="20" height="14" fill="#E6BE53"/>
<path fill-rule="evenodd" clip-rule="evenodd" d="M0.952393 12.0667C0.952393 12.619 1.40011 13.0667 1.95239 13.0667H18.0476C18.5999 13.0667 19.0476 12.619 19.0476 12.0667V1.93335C19.0476 1.38107 18.5999 0.93335 18.0476 0.93335H1.95239C1.40011 0.93335 0.952393 1.38106 0.952393 1.93335V12.0667Z" fill="#E01826"/>
<path fill-rule="evenodd" clip-rule="evenodd" d="M9.58724 2.46821C9.12456 2.61935 8.98703 3.20732 9.33466 3.54801C9.4559 3.66682 9.61889 3.73337 9.78865 3.73337H10.2114C10.3811 3.73337 10.5441 3.66682 10.6653 3.54801C11.013 3.20732 10.8754 2.61935 10.4128 2.46821L10.207 2.401C10.0725 2.35706 9.9275 2.35706 9.79299 2.401L9.58724 2.46821ZM10.4666 4.67609C10.2074 4.93012 9.7926 4.93012 9.53338 4.67609L9.52381 4.66671L8.82391 3.9808C8.67259 3.83251 8.44424 3.7957 8.25399 3.88892L8.21777 3.90667C7.92558 4.04984 7.86285 4.43896 8.09524 4.66671L8.6978 5.25721C8.90595 5.4612 8.95747 5.77674 8.82502 6.03634L8.59908 6.47919C8.58091 6.5148 8.57143 6.55422 8.57143 6.5942C8.57143 6.78145 8.37514 6.90386 8.207 6.82147L7.96684 6.70379C7.79711 6.62062 7.76067 6.39459 7.89566 6.26229C8.00523 6.15492 8.00523 5.97849 7.89566 5.87112L7.68474 5.66442C7.64124 5.62178 7.60493 5.57237 7.57725 5.51811L7.17663 4.7329C7.15419 4.68891 7.1367 4.64256 7.12449 4.59471L7.00651 4.13221C6.86886 3.59264 6.16954 3.44962 5.83111 3.89184L5.37535 4.48737C5.28633 4.60368 5.2381 4.74607 5.2381 4.89254V6.37313C5.2381 6.47846 5.26306 6.58229 5.31092 6.67611L5.66482 7.36974C5.69758 7.43396 5.74055 7.49244 5.79204 7.5429L6.58991 8.32481C6.64075 8.37464 6.69925 8.41601 6.76318 8.44733L7.57543 8.84533C7.60413 8.8594 7.63567 8.86671 7.66763 8.86671C7.88964 8.86671 7.95919 9.1667 7.75982 9.26439L7.65336 9.31656C7.63064 9.3277 7.60984 9.3424 7.59176 9.36012L7.38096 9.56671C7.24869 9.69633 7.03703 9.69633 6.90477 9.56671C6.7725 9.43708 6.56084 9.43708 6.42857 9.56671L6.39451 9.60009C6.27311 9.71906 6.24306 9.9031 6.32031 10.0545L6.48112 10.3697C6.59499 10.5929 6.82439 10.7334 7.07496 10.7334H7.4645C7.56618 10.7334 7.66652 10.7101 7.75784 10.6654L8.38636 10.3574C8.50649 10.2985 8.6043 10.2023 8.6651 10.0831L8.85993 9.70126C8.953 9.51884 9.19633 9.47911 9.34259 9.62245C9.44749 9.72524 9.4637 9.8884 9.3811 10.0098L8.95347 10.6384C8.74364 10.9469 8.82774 11.3675 9.14005 11.5715L9.63537 11.8951C9.85691 12.0399 10.1431 12.0399 10.3646 11.8951L10.86 11.5715C11.1723 11.3675 11.2564 10.9469 11.0465 10.6384L10.6189 10.0098C10.5363 9.8884 10.5525 9.72524 10.6574 9.62245C10.8037 9.47911 11.047 9.51884 11.1401 9.70126L11.3349 10.0831C11.3957 10.2023 11.4935 10.2985 11.6136 10.3574L12.2422 10.6654C12.3335 10.7101 12.4338 10.7334 12.5355 10.7334H12.9251C13.1756 10.7334 13.405 10.5929 13.5189 10.3697L13.6797 10.0545C13.7569 9.9031 13.7269 9.71906 13.6055 9.60009L13.5714 9.56671C13.4392 9.43708 13.2275 9.43708 13.0952 9.56671C12.963 9.69633 12.7513 9.69633 12.6191 9.56671L12.4082 9.36012C12.3902 9.3424 12.3694 9.3277 12.3466 9.31656L12.2402 9.26439C12.0408 9.1667 12.1104 8.86671 12.3324 8.86671C12.3643 8.86671 12.3959 8.8594 12.4246 8.84533L13.2368 8.44733C13.3008 8.41601 13.3593 8.37464 13.4101 8.32481L14.208 7.5429C14.2595 7.49244 14.3024 7.43396 14.3352 7.36974L14.6891 6.67611C14.737 6.58229 14.7619 6.47846 14.7619 6.37313V4.89254C14.7619 4.74607 14.7137 4.60368 14.6247 4.48737L14.1689 3.89184C13.8305 3.44962 13.1311 3.59264 12.9935 4.13221L12.8755 4.59471C12.8633 4.64256 12.8458 4.68891 12.8234 4.7329L12.4228 5.51811C12.3951 5.57237 12.3588 5.62178 12.3153 5.66442L12.1043 5.87112C11.9948 5.97849 11.9948 6.15492 12.1043 6.26229C12.2393 6.39459 12.2029 6.62062 12.0332 6.70379L11.793 6.82147C11.6249 6.90386 11.4286 6.78145 11.4286 6.5942C11.4286 6.55422 11.4191 6.5148 11.4009 6.47919L11.175 6.03634C11.0425 5.77674 11.0941 5.4612 11.3022 5.25721L11.9048 4.66671C12.1372 4.43896 12.0744 4.04984 11.7822 3.90667L11.746 3.88892C11.5558 3.7957 11.3274 3.83251 11.1761 3.9808L10.4762 4.66671L10.4666 4.67609Z" fill="#E6BE53"/>
<path fill-rule="evenodd" clip-rule="evenodd" d="M9.04761 7.93333C9.04761 8.10792 9.34052 8.16679 9.42676 8.01498C9.59308 7.72223 9.79653 7.46666 9.99999 7.46666C10.2034 7.46666 10.4069 7.72223 10.5732 8.01498C10.6595 8.16679 10.9524 8.10792 10.9524 7.93333C10.9524 7.16013 10.526 6.53333 9.99999 6.53333C9.474 6.53333 9.04761 7.16013 9.04761 7.93333Z" fill="#215F90"/>
</g>
</svg>
