<svg width="20" height="14" viewBox="0 0 20 14" fill="none" xmlns="http://www.w3.org/2000/svg">
<rect width="20" height="14" rx="2" fill="white"/>
<mask id="mask0_11425_87770" style="mask-type:luminance" maskUnits="userSpaceOnUse" x="0" y="0" width="20" height="14">
<rect width="20" height="14" rx="2" fill="white"/>
</mask>
<g mask="url(#mask0_11425_87770)">
<rect width="20" height="14" fill="#E81B26"/>
<path fill-rule="evenodd" clip-rule="evenodd" d="M9.99997 9.33329C11.3149 9.33329 12.3809 8.28862 12.3809 6.99996C12.3809 5.71129 11.3149 4.66663 9.99997 4.66663C8.68501 4.66663 7.61902 5.71129 7.61902 6.99996C7.61902 8.28862 8.68501 9.33329 9.99997 9.33329Z" fill="#FFE94F"/>
<path fill-rule="evenodd" clip-rule="evenodd" d="M7.29149 5.0955C7.43528 4.89945 7.60068 4.71965 7.78429 4.55945L1.40118 -2.47144L-0.51062 -0.390631L7.29149 5.0955ZM7.78429 9.44058C7.60068 9.28038 7.43528 9.10058 7.29149 8.90453L-0.51062 14.3907L1.40118 16.4715L7.78429 9.44058ZM6.69975 7.46205C6.67795 7.31111 6.66667 7.15685 6.66667 7.00001C6.66667 6.84317 6.67795 6.68892 6.69975 6.53798L-5.96046e-08 5.60001V8.40001L6.69975 7.46205ZM10.6538 10.2039C10.4424 10.2451 10.2238 10.2667 10 10.2667C9.77621 10.2667 9.55758 10.2451 9.34615 10.2039L8.57143 14H11.4286L10.6538 10.2039ZM10.6538 3.79617L11.4286 1.28746e-05H8.57143L9.34615 3.79617C9.55758 3.75496 9.77621 3.73335 10 3.73335C10.2238 3.73335 10.4424 3.75496 10.6538 3.79617ZM13.3002 6.53798C13.3221 6.68892 13.3333 6.84317 13.3333 7.00001C13.3333 7.15685 13.3221 7.31111 13.3002 7.46205L20 8.40001V5.60001L13.3002 6.53798ZM12.2157 9.44058L18.5988 16.4715L20.5106 14.3907L12.7085 8.90453C12.5647 9.10058 12.3993 9.28038 12.2157 9.44058ZM12.2157 4.55944C12.3993 4.71965 12.5647 4.89945 12.7085 5.09549L20.5106 -0.39063L18.5988 -2.47144L12.2157 4.55944Z" fill="#FFE94F"/>
</g>
</svg>
