<svg width="20" height="14" viewBox="0 0 20 14" fill="none" xmlns="http://www.w3.org/2000/svg">
<rect width="20" height="14" rx="2" fill="white"/>
<mask id="mask0_11425_87809" style="mask-type:luminance" maskUnits="userSpaceOnUse" x="0" y="0" width="20" height="14">
<rect width="20" height="14" rx="2" fill="white"/>
</mask>
<g mask="url(#mask0_11425_87809)">
<path fill-rule="evenodd" clip-rule="evenodd" d="M0 14H20V0H0V14Z" fill="#079D7B"/>
<path fill-rule="evenodd" clip-rule="evenodd" d="M11.3464 6.06673C11.3464 6.27103 11.3313 6.4692 11.3028 6.65805C11.3758 6.63605 11.4503 6.61506 11.5259 6.5952C12.796 6.26167 13.9297 6.37172 14.058 6.841C14.174 7.26511 13.4291 7.83749 12.3471 8.18994C12.1559 7.63437 11.1778 7.46673 9.99996 7.46673C8.8208 7.46673 7.84185 7.63474 7.65222 8.19179C6.58484 7.83866 5.85331 7.27229 5.9683 6.85172C6.09661 6.38244 7.23029 6.27239 8.50045 6.60592C8.56714 6.62343 8.63288 6.64182 8.69757 6.66101C8.66882 6.47127 8.65351 6.2721 8.65351 6.06673C8.65351 4.77807 9.25634 3.7334 9.99996 3.7334C10.7436 3.7334 11.3464 4.77807 11.3464 6.06673ZM7.61901 8.40007H8.45222C8.32025 8.37471 8.18559 8.34435 8.04933 8.30888C8.20256 8.31333 8.39155 8.32616 8.6078 8.34084C8.99932 8.36742 9.48019 8.40007 9.99996 8.40007C10.5197 8.40007 11.0006 8.36742 11.3921 8.34084C11.6002 8.32672 11.7831 8.3143 11.9331 8.30942C11.7921 8.34508 11.6529 8.37526 11.5168 8.40007H12.3809H13.8095C13.6965 8.73236 13.5445 9.04546 13.3591 9.3334H6.6408C6.45543 9.04546 6.3034 8.73236 6.19044 8.40007H7.61901ZM9.99996 11.2001C10.9619 11.2001 11.8453 10.8504 12.5391 10.2667H7.46084C8.1546 10.8504 9.03801 11.2001 9.99996 11.2001Z" fill="white"/>
<path fill-rule="evenodd" clip-rule="evenodd" d="M9.99995 2.80003C10.2629 2.80003 10.4761 2.5911 10.4761 2.33337C10.4761 2.07563 10.2629 1.8667 9.99995 1.8667C9.73695 1.8667 9.52376 2.07563 9.52376 2.33337C9.52376 2.5911 9.73695 2.80003 9.99995 2.80003ZM6.19042 5.13337C6.45342 5.13337 6.66661 4.92443 6.66661 4.6667C6.66661 4.40897 6.45342 4.20003 6.19042 4.20003C5.92743 4.20003 5.71423 4.40897 5.71423 4.6667C5.71423 4.92443 5.92743 5.13337 6.19042 5.13337ZM14.2857 4.6667C14.2857 4.92443 14.0725 5.13337 13.8095 5.13337C13.5465 5.13337 13.3333 4.92443 13.3333 4.6667C13.3333 4.40897 13.5465 4.20003 13.8095 4.20003C14.0725 4.20003 14.2857 4.40897 14.2857 4.6667ZM12.3809 3.73337C12.6439 3.73337 12.8571 3.52443 12.8571 3.2667C12.8571 3.00897 12.6439 2.80003 12.3809 2.80003C12.1179 2.80003 11.9047 3.00897 11.9047 3.2667C11.9047 3.52443 12.1179 3.73337 12.3809 3.73337ZM8.09518 3.2667C8.09518 3.52443 7.88199 3.73337 7.61899 3.73337C7.356 3.73337 7.14281 3.52443 7.14281 3.2667C7.14281 3.00897 7.356 2.80003 7.61899 2.80003C7.88199 2.80003 8.09518 3.00897 8.09518 3.2667Z" fill="#FCD117"/>
</g>
</svg>
