<svg width="20" height="14" viewBox="0 0 20 14" fill="none" xmlns="http://www.w3.org/2000/svg">
<rect x="0.25" y="0.25" width="19.5" height="13.5" rx="1.75" fill="white" stroke="#F5F5F5" stroke-width="0.5"/>
<mask id="mask0_11425_87768" style="mask-type:luminance" maskUnits="userSpaceOnUse" x="0" y="0" width="20" height="14">
<rect x="0.25" y="0.25" width="19.5" height="13.5" rx="1.75" fill="white" stroke="white" stroke-width="0.5"/>
</mask>
<g mask="url(#mask0_11425_87768)">
<path fill-rule="evenodd" clip-rule="evenodd" d="M10.4762 14H20V0H10.4762V14Z" fill="#DE233C"/>
<mask id="path-4-outside-1_11425_87768" maskUnits="userSpaceOnUse" x="0.904785" y="0.866699" width="5" height="5" fill="black">
<rect fill="white" x="0.904785" y="0.866699" width="5" height="5"/>
<path fill-rule="evenodd" clip-rule="evenodd" d="M3.80955 1.8667H2.85717V2.80003H1.90479V3.73337H2.85717V4.6667H3.80955V3.73337H4.76193V2.80003H3.80955V1.8667Z"/>
</mask>
<path fill-rule="evenodd" clip-rule="evenodd" d="M3.80955 1.8667H2.85717V2.80003H1.90479V3.73337H2.85717V4.6667H3.80955V3.73337H4.76193V2.80003H3.80955V1.8667Z" fill="#CCCCCD"/>
<path d="M2.85717 1.8667V1.20003H2.1905V1.8667H2.85717ZM3.80955 1.8667H4.47621V1.20003H3.80955V1.8667ZM2.85717 2.80003V3.4667H3.52383V2.80003H2.85717ZM1.90479 2.80003V2.13337H1.23812V2.80003H1.90479ZM1.90479 3.73337H1.23812V4.40003H1.90479V3.73337ZM2.85717 3.73337H3.52383V3.0667H2.85717V3.73337ZM2.85717 4.6667H2.1905V5.33337H2.85717V4.6667ZM3.80955 4.6667V5.33337H4.47621V4.6667H3.80955ZM3.80955 3.73337V3.0667H3.14288V3.73337H3.80955ZM4.76193 3.73337V4.40003H5.42859V3.73337H4.76193ZM4.76193 2.80003H5.42859V2.13337H4.76193V2.80003ZM3.80955 2.80003H3.14288V3.4667H3.80955V2.80003ZM2.85717 2.53337H3.80955V1.20003H2.85717V2.53337ZM3.52383 2.80003V1.8667H2.1905V2.80003H3.52383ZM1.90479 3.4667H2.85717V2.13337H1.90479V3.4667ZM2.57145 3.73337V2.80003H1.23812V3.73337H2.57145ZM2.85717 3.0667H1.90479V4.40003H2.85717V3.0667ZM3.52383 4.6667V3.73337H2.1905V4.6667H3.52383ZM3.80955 4.00003H2.85717V5.33337H3.80955V4.00003ZM3.14288 3.73337V4.6667H4.47621V3.73337H3.14288ZM4.76193 3.0667H3.80955V4.40003H4.76193V3.0667ZM4.09526 2.80003V3.73337H5.42859V2.80003H4.09526ZM3.80955 3.4667H4.76193V2.13337H3.80955V3.4667ZM3.14288 1.8667V2.80003H4.47621V1.8667H3.14288Z" fill="#7B716A" fill-opacity="0.66" mask="url(#path-4-outside-1_11425_87768)"/>
<path fill-rule="evenodd" clip-rule="evenodd" d="M3.33331 3.73338C3.5963 3.73338 3.8095 3.52445 3.8095 3.26672C3.8095 3.00898 3.5963 2.80005 3.33331 2.80005C3.07031 2.80005 2.85712 3.00898 2.85712 3.26672C2.85712 3.52445 3.07031 3.73338 3.33331 3.73338Z" fill="#7B716A"/>
</g>
</svg>
