<svg width="20" height="14" viewBox="0 0 20 14" fill="none" xmlns="http://www.w3.org/2000/svg">
<rect width="20" height="14" rx="2" fill="white"/>
<mask id="mask0_11425_87776" style="mask-type:luminance" maskUnits="userSpaceOnUse" x="0" y="0" width="20" height="14">
<rect width="20" height="14" rx="2" fill="white"/>
</mask>
<g mask="url(#mask0_11425_87776)">
<path fill-rule="evenodd" clip-rule="evenodd" d="M20 0H9.52381V0.933333H20V0ZM20 1.86667H9.52381V2.8H20V1.86667ZM9.52381 3.73333H20V4.66667H9.52381V3.73333ZM20 5.6H9.52381V6.53333H20V5.6ZM0 7.46667H20V8.4H0V7.46667ZM20 9.33333H0V10.2667H20V9.33333ZM0 11.2H20V12.1333H0V11.2ZM20 13.0667H0V14H20V13.0667Z" fill="#E1244A"/>
<rect width="11.4286" height="7.46667" fill="#0C3F8E"/>
<path fill-rule="evenodd" clip-rule="evenodd" d="M4.76193 6.53335C5.43701 6.53335 6.0574 6.3039 6.54635 5.92025C6.28734 6.01493 6.00699 6.06668 5.71431 6.06668C4.39934 6.06668 3.33336 5.02201 3.33336 3.73335C3.33336 2.44468 4.39934 1.40002 5.71431 1.40002C6.00699 1.40002 6.28734 1.45177 6.54634 1.54645C6.0574 1.16279 5.43701 0.93335 4.76193 0.93335C3.18397 0.93335 1.90479 2.18695 1.90479 3.73335C1.90479 5.27975 3.18397 6.53335 4.76193 6.53335ZM6.79263 5.41516L7.61907 4.49868L8.44552 5.41516L8.22964 4.21053L9.47608 4.14872L8.38044 3.56305L9.10827 2.5695L7.95791 3.04381L7.61907 1.86668L7.28023 3.04381L6.12987 2.5695L6.8577 3.56305L5.76207 4.14872L7.0085 4.21053L6.79263 5.41516Z" fill="#FFD34F"/>
</g>
</svg>
