<svg width="20" height="14" viewBox="0 0 20 14" fill="none" xmlns="http://www.w3.org/2000/svg">
<rect x="0.25" y="0.25" width="19.5" height="13.5" rx="1.75" fill="white" stroke="#F5F5F5" stroke-width="0.5"/>
<path fill-rule="evenodd" clip-rule="evenodd" d="M0 1.7328C0 0.775803 0.775802 -6.1594e-10 1.7328 2.93282e-10C1.84501 3.99886e-10 1.95479 0.032682 2.04872 0.094053L9.58401 5.01711C10.6938 5.74216 10.1804 7.46667 8.85475 7.46667H5.71429L10.5981 11.6545C11.5377 12.4602 10.9679 14 9.73013 14H2C0.895429 14 0 13.1046 0 12V1.7328Z" fill="white"/>
<mask id="mask0_11425_87785" style="mask-type:luminance" maskUnits="userSpaceOnUse" x="0" y="0" width="12" height="14">
<path fill-rule="evenodd" clip-rule="evenodd" d="M0 1.7328C0 0.775803 0.775802 -6.1594e-10 1.7328 2.93282e-10C1.84501 3.99886e-10 1.95479 0.032682 2.04872 0.094053L9.58401 5.01711C10.6938 5.74216 10.1804 7.46667 8.85475 7.46667H5.71429L10.5981 11.6545C11.5377 12.4602 10.9679 14 9.73013 14H2C0.895429 14 0 13.1046 0 12V1.7328Z" fill="white"/>
</mask>
<g mask="url(#mask0_11425_87785)">
<path d="M9.73013 13.3333H0.666667V0.666667H1.70629L9.21938 5.57522C9.77427 5.93775 9.51756 6.8 8.85475 6.8H5.71429C5.43533 6.8 5.18586 6.97368 5.08905 7.2353C4.99224 7.49693 5.06856 7.79116 5.28032 7.97275L10.1641 12.1606C10.6339 12.5634 10.349 13.3333 9.73013 13.3333Z" fill="#EE1B44" stroke="#0543A8" stroke-width="1.33333" stroke-linejoin="round"/>
<path fill-rule="evenodd" clip-rule="evenodd" d="M4.89364 5.46048C5.168 5.38679 5.42094 5.28601 5.64466 5.16324C5.42276 5.9531 4.68454 6.53328 3.80805 6.53328C2.93155 6.53328 2.19333 5.9531 1.97144 5.16324C2.19577 5.28635 2.44949 5.38735 2.72473 5.46109L3.09525 5.13328L2.4897 4.59752L3.30445 4.6383L3.26284 3.83984L3.80953 4.43328L4.35622 3.83984L4.31461 4.6383L5.12936 4.59752L4.52382 5.13328L4.89364 5.46048ZM3.08061 11.9912L3.80953 11.1999L4.53845 11.9912L4.48297 10.9266L5.5693 10.981L4.76191 10.2666L5.5693 9.55227L4.48297 9.60664L4.53845 8.54203L3.80953 9.33328L3.08061 8.54203L3.1361 9.60664L2.04976 9.55227L2.85715 10.2666L2.04976 10.981L3.1361 10.9266L3.08061 11.9912Z" fill="white"/>
</g>
</svg>
