<svg width="20" height="14" viewBox="0 0 20 14" fill="none" xmlns="http://www.w3.org/2000/svg">
<rect x="0.25" y="0.25" width="19.5" height="13.5" rx="1.75" fill="white" stroke="#F5F5F5" stroke-width="0.5"/>
<mask id="mask0_11425_87803" style="mask-type:luminance" maskUnits="userSpaceOnUse" x="0" y="0" width="20" height="14">
<rect x="0.25" y="0.25" width="19.5" height="13.5" rx="1.75" fill="white" stroke="white" stroke-width="0.5"/>
</mask>
<g mask="url(#mask0_11425_87803)">
<path fill-rule="evenodd" clip-rule="evenodd" d="M0 3.73333H20V0H0V3.73333Z" fill="#D82332"/>
<path fill-rule="evenodd" clip-rule="evenodd" d="M0 14.0001H20V10.2667H0V14.0001Z" fill="#D82332"/>
<path fill-rule="evenodd" clip-rule="evenodd" d="M9.33391 7.52686L9.13074 7.71254C9.31441 7.76305 9.56921 7.70426 9.67065 7.52686H9.33391Z" fill="#064A89"/>
<path fill-rule="evenodd" clip-rule="evenodd" d="M7.69458 7.65328C7.83207 7.78801 8.05981 7.77228 8.1973 7.687C8.33487 7.60165 8.43593 7.59623 8.52164 7.60518C8.53071 7.68121 8.55097 7.77868 8.58574 7.87502H7.77009C7.74983 7.82565 7.7103 7.71056 7.69458 7.65328Z" fill="#064A89"/>
<path fill-rule="evenodd" clip-rule="evenodd" d="M7.84583 8.01335C8.00592 7.93921 8.16956 7.998 8.24038 8.05144C8.37115 8.15027 8.58717 8.12347 8.69314 8.0674C8.73358 8.13205 8.78271 8.19565 8.84197 8.2442H7.96926C7.93381 8.18813 7.85716 8.05031 7.84583 8.01335Z" fill="#064A89"/>
<path fill-rule="evenodd" clip-rule="evenodd" d="M11.6414 8.62745C11.6798 8.58928 11.7316 8.52643 11.7655 8.48157C11.7091 8.4748 11.6436 8.43483 11.5739 8.40074C11.4453 8.33781 11.3225 8.33781 11.2131 8.41195C11.0508 8.52192 10.8479 8.54886 10.69 8.4389C10.5169 8.31817 10.3564 8.34459 10.2211 8.42098C10.0858 8.49723 10.0002 8.50175 9.919 8.50175C9.83782 8.50175 9.75218 8.49723 9.61688 8.42098C9.48158 8.34459 9.32111 8.31817 9.14794 8.4389C8.99012 8.54886 8.78717 8.52192 8.62489 8.41195C8.51552 8.33781 8.39269 8.33781 8.26412 8.40074C8.19435 8.43483 8.1289 8.4748 8.07251 8.48157C8.10637 8.52643 8.15822 8.58928 8.19655 8.62745H11.6414Z" fill="#064A89"/>
<path fill-rule="evenodd" clip-rule="evenodd" d="M11.219 9.00285C11.2551 8.98042 11.3543 8.90635 11.4039 8.86819C11.3498 8.87941 11.2264 8.84004 11.1627 8.80752C10.9777 8.71321 10.856 8.72224 10.7185 8.79405C10.581 8.86593 10.3871 8.90409 10.2451 8.82777C10.103 8.75145 10.0015 8.7312 9.92716 8.7312C9.85278 8.7312 9.75127 8.75145 9.60925 8.82777C9.46722 8.90409 9.27334 8.86593 9.13578 8.79405C8.99829 8.72224 8.87659 8.71321 8.69163 8.80752C8.62791 8.84004 8.50456 8.87941 8.45044 8.86819C8.50002 8.90635 8.59927 8.98042 8.63532 9.00285H11.219Z" fill="#064A89"/>
<path fill-rule="evenodd" clip-rule="evenodd" d="M10.4059 8.25644C10.3676 8.23626 10.3228 8.18922 10.2819 8.12886C10.2165 8.03229 10.1128 7.97839 9.95727 7.97839C9.80171 7.97839 9.69801 8.03229 9.63263 8.12886C9.59174 8.18922 9.54691 8.23626 9.50867 8.25644H10.4059Z" fill="#064A89"/>
<path fill-rule="evenodd" clip-rule="evenodd" d="M10.1503 7.90992C10.1345 7.88298 10.1007 7.79762 10.0894 7.75269C10.0533 7.76398 9.98347 7.76842 9.94288 7.76842C9.90229 7.76842 9.83245 7.76398 9.79632 7.75269C9.78506 7.79762 9.75127 7.88298 9.73547 7.90992H10.1503Z" fill="#064A89"/>
<path fill-rule="evenodd" clip-rule="evenodd" d="M10.5257 7.52686L10.7289 7.71254C10.5452 7.76305 10.2904 7.70426 10.189 7.52686H10.5257Z" fill="#064A89"/>
<path fill-rule="evenodd" clip-rule="evenodd" d="M12.2139 7.65328C12.0764 7.78801 11.8487 7.77228 11.7112 7.687C11.5736 7.60165 11.4726 7.59623 11.3869 7.60518C11.3777 7.68121 11.3575 7.77868 11.3228 7.87502H12.1384C12.1587 7.82565 12.1981 7.71056 12.2139 7.65328Z" fill="#064A89"/>
<path fill-rule="evenodd" clip-rule="evenodd" d="M12.0921 8.01335C11.932 7.93921 11.7684 7.998 11.6975 8.05144C11.5668 8.15027 11.3507 8.12347 11.2448 8.0674C11.2043 8.13205 11.1552 8.19565 11.0959 8.2442H11.9687C12.0041 8.18813 12.0808 8.05031 12.0921 8.01335Z" fill="#064A89"/>
<path fill-rule="evenodd" clip-rule="evenodd" d="M10.8277 9.15006C10.5543 9.26116 10.2552 9.3225 9.94165 9.3225C9.62781 9.3225 9.3288 9.26123 9.05518 9.14991C9.11375 9.14321 9.19138 9.11506 9.25397 9.08036C9.35548 9.02421 9.54029 9.013 9.62827 9.06915C9.71617 9.1253 9.82215 9.18137 9.94165 9.18137C10.0611 9.18137 10.1671 9.1253 10.255 9.06915C10.3429 9.013 10.5278 9.02421 10.6293 9.08036C10.6918 9.11506 10.7691 9.14336 10.8277 9.15006Z" fill="#064A89"/>
<path fill-rule="evenodd" clip-rule="evenodd" d="M10.4465 4.7088C9.95281 4.60779 9.50867 4.66613 9.50867 5.12865C9.50867 5.58215 9.50867 6.25565 9.50867 6.3949C9.50867 6.53407 9.51146 6.55169 9.67775 6.59022C10.0384 6.67385 10.0722 6.68228 10.4645 6.772V5.46992C10.1579 5.4362 10.0407 5.26489 10.0407 5.0658C10.0407 4.87274 10.1759 4.74697 10.4465 4.7088Z" fill="#514537"/>
<path fill-rule="evenodd" clip-rule="evenodd" d="M9.18136 8.2799C8.9063 8.2799 8.61772 8.0419 8.61772 7.58841C8.61772 7.13484 8.61772 6.5646 8.61772 6.46133C8.61772 6.35919 8.62928 6.34482 8.60532 6.32103C8.59126 6.30703 8.62112 6.28626 8.64137 6.26601C8.67184 6.23568 8.6927 6.21046 8.65158 6.16944C8.61038 6.12849 8.62792 6.1178 8.65385 6.09206C8.67977 6.06617 8.6899 6.04043 8.66511 6.01567C8.64032 5.99098 8.63465 5.98315 8.66171 5.9562C8.68877 5.92926 8.6775 5.91804 8.65498 5.89554C8.63238 5.87311 8.62172 5.85685 8.65044 5.82825C8.67864 5.80017 8.68083 5.79565 8.71356 5.79565C8.74629 5.79565 8.81726 5.79565 8.84886 5.79565C8.88045 5.79565 8.88098 5.80521 8.85445 5.83163C8.82006 5.8658 8.80993 5.87928 8.84886 5.91804C8.88771 5.95673 8.88605 5.96968 8.86125 5.99436C8.82399 6.0314 8.80766 6.05669 8.84546 6.09432C8.88325 6.13188 8.88657 6.14874 8.85785 6.17734C8.82913 6.20594 8.82626 6.23123 8.85785 6.26262C8.88211 6.28678 8.88378 6.30086 8.88378 6.34346C8.88378 6.60058 8.88378 7.30103 8.88378 7.4941C8.88378 7.68716 9.02354 7.8039 9.2896 7.8039C9.55566 7.8039 9.64583 7.69612 9.72248 7.62431C9.67289 7.97002 9.5286 8.2799 9.18136 8.2799Z" fill="#514537"/>
<path fill-rule="evenodd" clip-rule="evenodd" d="M9.95762 7.17841C9.99481 7.18955 10.0309 7.24345 10.0309 7.30185H10.1042C10.1042 7.25248 10.0827 7.17616 10.0439 7.12896C10.0433 7.11662 10.0416 7.10601 10.0388 7.09532C10.0659 7.0616 10.1053 7.0077 10.1042 6.95607C10.1034 6.92348 10.0647 6.92468 10.0602 6.9505C10.0565 6.97173 10.0422 7.00439 10.0151 7.01561C10.0151 6.97406 9.99141 6.92468 9.95762 6.92468C9.92383 6.92468 9.9001 6.97406 9.9001 7.01561C9.87304 7.00439 9.85875 6.97173 9.85505 6.9505C9.85052 6.92468 9.81174 6.92348 9.81106 6.95607C9.80993 7.0077 9.84938 7.0616 9.87644 7.09532C9.87364 7.10601 9.87198 7.11662 9.87138 7.12896C9.83253 7.17616 9.81106 7.25248 9.81106 7.30185H9.88438C9.88438 7.24345 9.92043 7.18955 9.95762 7.17841Z" fill="#514537"/>
<path fill-rule="evenodd" clip-rule="evenodd" d="M9.57969 7.17841C9.61688 7.18955 9.65301 7.24345 9.65301 7.30185H9.72625C9.72625 7.25248 9.70486 7.17616 9.66593 7.12896C9.6654 7.11662 9.66367 7.10601 9.66087 7.09532C9.68793 7.0616 9.72739 7.0077 9.72625 6.95607C9.72557 6.92348 9.6868 6.92468 9.68226 6.9505C9.67856 6.97173 9.6642 7.00439 9.63721 7.01561C9.63721 6.97406 9.61355 6.92468 9.57969 6.92468C9.5459 6.92468 9.52225 6.97406 9.52225 7.01561C9.49519 7.00439 9.48082 6.97173 9.47712 6.9505C9.47259 6.92468 9.43389 6.92348 9.43313 6.95607C9.432 7.0077 9.47145 7.0616 9.49851 7.09532C9.49571 7.10601 9.49405 7.11662 9.49345 7.12896C9.4546 7.17616 9.43313 7.25248 9.43313 7.30185H9.50645C9.50645 7.24345 9.5425 7.18955 9.57969 7.17841Z" fill="#514537"/>
<path fill-rule="evenodd" clip-rule="evenodd" d="M9.20176 7.17841C9.23895 7.18955 9.275 7.24345 9.275 7.30185H9.34832C9.34832 7.25248 9.32685 7.17616 9.288 7.12896C9.2874 7.11662 9.28574 7.10601 9.28294 7.09532C9.31 7.0616 9.34945 7.0077 9.34832 6.95607C9.34757 6.92348 9.30887 6.92468 9.30433 6.9505C9.30063 6.97173 9.28627 7.00439 9.25921 7.01561C9.25921 6.97406 9.23555 6.92468 9.20176 6.92468C9.1679 6.92468 9.14424 6.97406 9.14424 7.01561C9.11718 7.00439 9.10289 6.97173 9.09919 6.9505C9.09466 6.92468 9.05588 6.92348 9.0552 6.95607C9.05407 7.0077 9.09352 7.0616 9.12058 7.09532C9.11778 7.10601 9.11605 7.11662 9.11552 7.12896C9.07659 7.17616 9.0552 7.25248 9.0552 7.30185H9.12844C9.12844 7.24345 9.16457 7.18955 9.20176 7.17841Z" fill="#514537"/>
<path fill-rule="evenodd" clip-rule="evenodd" d="M10.3355 7.17841C10.2984 7.18955 10.2623 7.24345 10.2623 7.30185H10.189C10.189 7.25248 10.2104 7.17616 10.2493 7.12896C10.2498 7.11662 10.2516 7.10601 10.2544 7.09532C10.2273 7.0616 10.1879 7.0077 10.189 6.95607C10.1897 6.92348 10.2284 6.92468 10.233 6.9505C10.2367 6.97173 10.251 7.00439 10.278 7.01561C10.278 6.97406 10.3018 6.92468 10.3355 6.92468C10.3694 6.92468 10.3931 6.97406 10.3931 7.01561C10.4201 7.00439 10.4344 6.97173 10.4381 6.9505C10.4427 6.92468 10.4814 6.92348 10.4821 6.95607C10.4832 7.0077 10.4438 7.0616 10.4167 7.09532C10.4195 7.10601 10.4213 7.11662 10.4218 7.12896C10.4607 7.17616 10.4821 7.25248 10.4821 7.30185H10.4088C10.4088 7.24345 10.3727 7.18955 10.3355 7.17841Z" fill="#514537"/>
<path fill-rule="evenodd" clip-rule="evenodd" d="M10.7135 7.17841C10.6763 7.18955 10.6402 7.24345 10.6402 7.30185H10.5669C10.5669 7.25248 10.5884 7.17616 10.6272 7.12896C10.6278 7.11662 10.6295 7.10601 10.6323 7.09532C10.6052 7.0616 10.5658 7.0077 10.5669 6.95607C10.5676 6.92348 10.6064 6.92468 10.6109 6.9505C10.6146 6.97173 10.6289 7.00439 10.656 7.01561C10.656 6.97406 10.6797 6.92468 10.7135 6.92468C10.7473 6.92468 10.771 6.97406 10.771 7.01561C10.7981 7.00439 10.8123 6.97173 10.816 6.9505C10.8206 6.92468 10.8593 6.92348 10.86 6.95607C10.8612 7.0077 10.8217 7.0616 10.7947 7.09532C10.7975 7.10601 10.7991 7.11662 10.7997 7.12896C10.8386 7.17616 10.86 7.25248 10.86 7.30185H10.7868C10.7868 7.24345 10.7507 7.18955 10.7135 7.17841Z" fill="#514537"/>
<path fill-rule="evenodd" clip-rule="evenodd" d="M8.97961 7.37634H10.9636V7.46968H8.97961V7.37634Z" fill="#514537"/>
<path fill-rule="evenodd" clip-rule="evenodd" d="M10.7301 8.2799C11.0051 8.2799 11.2937 8.0419 11.2937 7.58841C11.2937 7.13484 11.2937 6.5646 11.2937 6.46133C11.2937 6.35919 11.2822 6.34482 11.3061 6.32103C11.3202 6.30703 11.2903 6.28626 11.2701 6.26601C11.2396 6.23568 11.2187 6.21046 11.2599 6.16944C11.3011 6.12849 11.2835 6.1178 11.2577 6.09206C11.2317 6.06617 11.2215 6.04043 11.2463 6.01567C11.2711 5.99098 11.2768 5.98315 11.2497 5.9562C11.2227 5.92926 11.2339 5.91804 11.2565 5.89554C11.2791 5.87311 11.2897 5.85685 11.261 5.82825C11.2328 5.80017 11.2306 5.79565 11.1979 5.79565C11.1652 5.79565 11.0942 5.79565 11.0626 5.79565C11.0311 5.79565 11.0305 5.80521 11.057 5.83163C11.0914 5.8658 11.1015 5.87928 11.0626 5.91804C11.0237 5.95673 11.0254 5.96968 11.0502 5.99436C11.0875 6.0314 11.1037 6.05669 11.066 6.09432C11.0282 6.13188 11.0248 6.14874 11.0536 6.17734C11.0823 6.20594 11.0852 6.23123 11.0536 6.26262C11.0293 6.28678 11.0277 6.30086 11.0277 6.34346C11.0277 6.60058 11.0277 7.30103 11.0277 7.4941C11.0277 7.68716 10.8878 7.8039 10.6218 7.8039C10.3558 7.8039 10.2657 7.69612 10.189 7.62431C10.2385 7.97002 10.3828 8.2799 10.7301 8.2799Z" fill="#514537"/>
<path fill-rule="evenodd" clip-rule="evenodd" d="M8.97961 6.77201C8.97961 6.77201 8.97969 6.70578 8.97969 6.62366L9.37629 6.77209L8.97961 6.77201Z" fill="#EEA339"/>
<path fill-rule="evenodd" clip-rule="evenodd" d="M8.50647 6.84091L7.61902 6.72176C7.64479 6.53238 7.69355 6.34775 7.76369 6.172L8.50647 6.46562V6.84091Z" fill="#EEA339"/>
<path fill-rule="evenodd" clip-rule="evenodd" d="M10.3401 5.38715L10.4978 4.74194C10.6824 4.7865 10.8619 4.85364 11.0319 4.94216L10.5232 5.91192L10.525 5.42501C10.4662 5.42531 10.3761 5.41635 10.3401 5.38715Z" fill="#EEA339"/>
<path fill-rule="evenodd" clip-rule="evenodd" d="M8.5274 6.90401L7.6234 6.84937C7.61176 7.03814 7.62332 7.22865 7.65809 7.41659C7.65809 7.41659 8.5274 7.42201 8.5274 7.41659V6.90401Z" fill="#EEA339"/>
<path fill-rule="evenodd" clip-rule="evenodd" d="M8.51846 6.29692C8.48921 6.25876 8.50728 6.23844 8.5388 6.21819C8.57039 6.19802 8.56585 6.18229 8.55013 6.15316C8.53434 6.12395 8.51854 6.09249 8.54787 6.0611C8.57719 6.02964 8.56585 6.01617 8.54333 5.99374C8.52081 5.97131 8.51854 5.94662 8.5388 5.92863C8.55913 5.91064 8.55459 5.89717 8.54114 5.87925C8.52753 5.86126 8.501 5.82483 8.52474 5.80127L8.15595 5.49463C8.03411 5.63975 7.9298 5.79992 7.84583 5.97168L8.51846 6.29692Z" fill="#EEA339"/>
<path fill-rule="evenodd" clip-rule="evenodd" d="M9.40196 6.46404L8.96243 6.0396C9.02441 5.97788 9.03061 5.9678 8.98669 5.92399C8.93877 5.87627 8.93703 5.8713 9.03454 5.77413C9.0678 5.74109 9.0492 5.71798 9.00189 5.71798C8.95457 5.71798 8.73696 5.71798 8.71217 5.71798C8.68737 5.71798 8.66787 5.71926 8.64973 5.73732L8.29932 5.39952C8.43303 5.26245 8.58238 5.14285 8.74368 5.04297L9.40196 6.09711V6.46404Z" fill="#EEA339"/>
<path fill-rule="evenodd" clip-rule="evenodd" d="M8.94476 6.52862C8.94476 6.42317 8.94484 6.31877 8.94484 6.30394C8.94484 6.27248 8.94257 6.26014 8.91778 6.23545C8.89298 6.21076 8.90538 6.19894 8.92458 6.172L9.34151 6.51786V6.72093L8.94476 6.52862Z" fill="#EEA339"/>
<path fill-rule="evenodd" clip-rule="evenodd" d="M9.33532 5.91245C9.33532 5.7099 9.33532 5.52256 9.33532 5.41462C9.33532 5.09134 9.35354 4.92966 9.40086 4.89715L9.36299 4.74194C9.17788 4.79155 8.99844 4.85869 8.82837 4.9472L9.33532 5.91245Z" fill="#EEA339"/>
<path fill-rule="evenodd" clip-rule="evenodd" d="M10.9636 6.77201C10.9636 6.77201 10.9635 6.70578 10.9635 6.62366L10.5669 6.77209L10.9636 6.77201Z" fill="#EEA339"/>
<path fill-rule="evenodd" clip-rule="evenodd" d="M11.3983 6.84091L12.2858 6.72176C12.26 6.53238 12.2112 6.34775 12.1411 6.172L11.3983 6.46562V6.84091Z" fill="#EEA339"/>
<path fill-rule="evenodd" clip-rule="evenodd" d="M11.3983 6.90401L12.3022 6.84937C12.3139 7.03814 12.3024 7.22865 12.2676 7.41659C12.2676 7.41659 11.3983 7.42201 11.3983 7.41659V6.90401Z" fill="#EEA339"/>
<path fill-rule="evenodd" clip-rule="evenodd" d="M11.3698 6.29692C11.3991 6.25876 11.381 6.23844 11.3494 6.21819C11.3178 6.19802 11.3224 6.18229 11.3381 6.15316C11.3539 6.12395 11.3697 6.09249 11.3404 6.0611C11.311 6.02964 11.3224 6.01617 11.3449 5.99374C11.3674 5.97131 11.3697 5.94662 11.3494 5.92863C11.3291 5.91064 11.3336 5.89717 11.3471 5.87925C11.3607 5.86126 11.3872 5.82483 11.3635 5.80127L11.7323 5.49463C11.8541 5.63975 11.9584 5.79992 12.0423 5.97168L11.3698 6.29692Z" fill="#EEA339"/>
<path fill-rule="evenodd" clip-rule="evenodd" d="M10.5669 6.46404L11.0064 6.0396C10.9444 5.97788 10.9382 5.9678 10.9822 5.92399C11.0301 5.87627 11.0318 5.8713 10.9343 5.77413C10.901 5.74109 10.9197 5.71798 10.967 5.71798C11.0143 5.71798 11.2319 5.71798 11.2567 5.71798C11.2815 5.71798 11.301 5.71926 11.3191 5.73732L11.6695 5.39952C11.5358 5.26245 11.3865 5.14285 11.2252 5.04297L10.5669 6.09711V6.46404Z" fill="#EEA339"/>
<path fill-rule="evenodd" clip-rule="evenodd" d="M10.9636 6.52862C10.9636 6.42317 10.9636 6.31877 10.9636 6.30394C10.9636 6.27248 10.9658 6.26014 10.9906 6.23545C11.0154 6.21076 11.003 6.19894 10.9838 6.172L10.5669 6.51786V6.72093L10.9636 6.52862Z" fill="#EEA339"/>
<path fill-rule="evenodd" clip-rule="evenodd" d="M8.67725 6.32251C8.69304 6.33824 8.69985 6.3539 8.69985 6.39206C8.69985 6.43022 8.69985 7.2654 8.69985 7.5932C8.69985 7.9928 8.94331 8.21507 9.19357 8.21507C9.4235 8.21507 9.5746 8.00627 9.65351 7.76383C9.55208 7.84241 9.40325 7.8671 9.26115 7.8671C9.0966 7.8671 8.83061 7.75713 8.83061 7.51913C8.83061 7.29912 8.83061 6.48411 8.83061 6.3539C8.83061 6.32251 8.79901 6.32251 8.67725 6.32251Z" fill="#D82332"/>
<path fill-rule="evenodd" clip-rule="evenodd" d="M10.115 4.74884C9.80064 4.71715 9.50903 4.78225 9.50903 5.20933C9.50903 5.65838 9.50903 6.20612 9.50903 6.34401C9.50903 6.53346 9.49407 6.51095 9.65529 6.55077C9.94781 6.62303 9.98099 6.63221 10.3358 6.7129V5.55843C10.0328 5.52538 9.90155 5.3278 9.90155 5.109C9.90155 4.9349 9.9788 4.77104 10.115 4.74884Z" fill="#D82332"/>
<path fill-rule="evenodd" clip-rule="evenodd" d="M11.2408 6.32251C11.225 6.33824 11.2182 6.3539 11.2182 6.39206C11.2182 6.43022 11.2182 7.2654 11.2182 7.5932C11.2182 7.9928 10.9747 8.21507 10.7245 8.21507C10.4945 8.21507 10.3434 8.00627 10.2645 7.76383C10.366 7.84241 10.5148 7.8671 10.6569 7.8671C10.8214 7.8671 11.0874 7.75713 11.0874 7.51913C11.0874 7.29912 11.0874 6.48411 11.0874 6.3539C11.0874 6.32251 11.119 6.32251 11.2408 6.32251Z" fill="#D82332"/>
<mask id="mask1_11425_87803" style="mask-type:luminance" maskUnits="userSpaceOnUse" x="7" y="4" width="6" height="6">
<path fill-rule="evenodd" clip-rule="evenodd" d="M9.99997 9.33329C11.3149 9.33329 12.3809 8.28862 12.3809 6.99996C12.3809 5.71129 11.3149 4.66663 9.99997 4.66663C8.68501 4.66663 7.61902 5.71129 7.61902 6.99996C7.61902 8.28862 8.68501 9.33329 9.99997 9.33329Z" fill="white"/>
</mask>
<g mask="url(#mask1_11425_87803)">
<path fill-rule="evenodd" clip-rule="evenodd" d="M9.99997 13.0666C11.3149 13.0666 12.3809 12.0219 12.3809 10.7332C12.3809 9.44457 11.3149 8.3999 9.99997 8.3999C8.68501 8.3999 7.61902 9.44457 7.61902 10.7332C7.61902 12.0219 8.68501 13.0666 9.99997 13.0666Z" fill="#064A89"/>
</g>
</g>
</svg>
