<svg width="20" height="14" viewBox="0 0 20 14" fill="none" xmlns="http://www.w3.org/2000/svg">
<rect width="20" height="14" rx="2" fill="white"/>
<mask id="mask0_11425_87792" style="mask-type:luminance" maskUnits="userSpaceOnUse" x="0" y="0" width="20" height="14">
<rect width="20" height="14" rx="2" fill="white"/>
</mask>
<g mask="url(#mask0_11425_87792)">
<rect width="20" height="14" fill="#262626"/>
<path fill-rule="evenodd" clip-rule="evenodd" d="M0 0H20V14L0 0Z" fill="#E8283F"/>
<path fill-rule="evenodd" clip-rule="evenodd" d="M4.76189 11.6667L4.08846 11.86L4.2857 11.2001L4.08846 10.5401L4.76189 10.7334L5.43533 10.5401L5.23808 11.2001L5.43533 11.86L4.76189 11.6667Z" fill="white"/>
<path fill-rule="evenodd" clip-rule="evenodd" d="M4.76189 6.06663L4.08846 6.25993L4.2857 5.59996L4.08846 4.93999L4.76189 5.13329L5.43533 4.93999L5.23808 5.59996L5.43533 6.25993L4.76189 6.06663Z" fill="white"/>
<path fill-rule="evenodd" clip-rule="evenodd" d="M2.38097 8.4L1.70753 8.5933L1.90478 7.93333L1.70753 7.27337L2.38097 7.46667L3.0544 7.27337L2.85716 7.93333L3.0544 8.5933L2.38097 8.4Z" fill="white"/>
<path fill-rule="evenodd" clip-rule="evenodd" d="M6.66668 7.93333L5.99324 8.12663L6.19048 7.46666L5.99324 6.80669L6.66668 6.99999L7.34011 6.80669L7.14287 7.46666L7.34011 8.12663L6.66668 7.93333Z" fill="white"/>
<path fill-rule="evenodd" clip-rule="evenodd" d="M13.4723 6.48593C13.3583 6.41889 13.2659 6.26097 13.2659 6.13463L13.2659 5.27453C13.2659 5.14755 13.1727 5.07506 13.0316 5.12115L12.49 5.29806C12.3606 5.34033 12.1625 5.34414 12.0215 5.29806L11.4799 5.12115C11.3505 5.07888 11.3361 4.99139 11.452 4.92322L12.7227 4.17605C12.8368 4.10901 12.8981 3.9633 12.8511 3.82506L12.6706 3.29432C12.6274 3.16751 12.6857 3.09517 12.8268 3.14125L13.3683 3.31816C13.4977 3.36043 13.6569 3.30599 13.7265 3.19238L14.4889 1.94709C14.5573 1.83536 14.6438 1.83614 14.6909 1.97438L14.8714 2.50513C14.9145 2.63193 14.9184 2.82609 14.8714 2.96433L14.6909 3.49508C14.6477 3.62188 14.7185 3.72468 14.8474 3.72468H15.725C15.8546 3.72468 16.014 3.81339 16.0835 3.92699L16.8459 5.17228C16.9143 5.28402 16.8593 5.39625 16.7357 5.42048L15.5203 5.6587C15.391 5.68404 15.2641 5.81283 15.2394 5.93399L14.9963 7.12508C14.9705 7.25178 14.859 7.30127 14.7431 7.23311L13.4723 6.48593Z" fill="#FFD84E"/>
</g>
</svg>
