<svg width="20" height="14" viewBox="0 0 20 14" fill="none" xmlns="http://www.w3.org/2000/svg">
<rect x="0.25" y="0.25" width="19.5" height="13.5" rx="1.75" fill="white" stroke="#F5F5F5" stroke-width="0.5"/>
<mask id="mask0_11425_87793" style="mask-type:luminance" maskUnits="userSpaceOnUse" x="0" y="0" width="20" height="14">
<rect x="0.25" y="0.25" width="19.5" height="13.5" rx="1.75" fill="white" stroke="white" stroke-width="0.5"/>
</mask>
<g mask="url(#mask0_11425_87793)">
<path fill-rule="evenodd" clip-rule="evenodd" d="M0 14H20V6.53333H8.88889L9.52381 6.99999L0 14Z" fill="#DD1C34"/>
<path fill-rule="evenodd" clip-rule="evenodd" d="M20 6.53333H8.88889L0 0H20V6.53333Z" fill="#0D4BC3"/>
<path fill-rule="evenodd" clip-rule="evenodd" d="M1.42858 2.80003C1.69158 2.80003 1.90477 2.5911 1.90477 2.33337C1.90477 2.07563 1.69158 1.8667 1.42858 1.8667C1.16559 1.8667 0.952393 2.07563 0.952393 2.33337C0.952393 2.5911 1.16559 2.80003 1.42858 2.80003ZM7.14287 7.4667C7.40586 7.4667 7.61906 7.25777 7.61906 7.00003C7.61906 6.7423 7.40586 6.53337 7.14287 6.53337C6.87988 6.53337 6.66668 6.7423 6.66668 7.00003C6.66668 7.25777 6.87988 7.4667 7.14287 7.4667ZM1.90477 11.6667C1.90477 11.9244 1.69158 12.1334 1.42858 12.1334C1.16559 12.1334 0.952393 11.9244 0.952393 11.6667C0.952393 11.409 1.16559 11.2 1.42858 11.2C1.69158 11.2 1.90477 11.409 1.90477 11.6667ZM3.23721 7.92867L2.42219 9.15575L2.73129 7.72325C2.68155 7.68344 2.63599 7.63879 2.59537 7.59005L1.13363 7.89296L2.38576 7.09425C2.38259 7.06326 2.38096 7.03183 2.38096 7.00003C2.38096 6.96823 2.38259 6.9368 2.38576 6.90582L1.13363 6.1071L2.59537 6.41002C2.63599 6.36127 2.68155 6.31663 2.73129 6.27681L2.42219 4.84431L3.23721 6.0714C3.26882 6.06829 3.30089 6.0667 3.33334 6.0667C3.3658 6.0667 3.39787 6.06829 3.42948 6.0714L4.2445 4.84431L3.9354 6.27681C3.98514 6.31663 4.0307 6.36127 4.07132 6.41002L5.53306 6.1071L4.28093 6.90582C4.2841 6.9368 4.28573 6.96823 4.28573 7.00003C4.28573 7.03183 4.2841 7.06326 4.28093 7.09425L5.53306 7.89296L4.07132 7.59005C4.0307 7.63879 3.98514 7.68344 3.9354 7.72325L4.2445 9.15575L3.42948 7.92867C3.39787 7.93178 3.3658 7.93337 3.33334 7.93337C3.30089 7.93337 3.26882 7.93178 3.23721 7.92867Z" fill="#FDD64D"/>
</g>
</svg>
