<svg width="20" height="14" viewBox="0 0 20 14" fill="none" xmlns="http://www.w3.org/2000/svg">
<rect x="0.25" y="0.25" width="19.5" height="13.5" rx="1.75" fill="white" stroke="#F5F5F5" stroke-width="0.5"/>
<mask id="mask0_11425_87652" style="mask-type:luminance" maskUnits="userSpaceOnUse" x="0" y="0" width="20" height="14">
<rect x="0.25" y="0.25" width="19.5" height="13.5" rx="1.75" fill="white" stroke="white" stroke-width="0.5"/>
</mask>
<g mask="url(#mask0_11425_87652)">
<path fill-rule="evenodd" clip-rule="evenodd" d="M0 7.46667H20V0H0V7.46667Z" fill="#E12237"/>
<path fill-rule="evenodd" clip-rule="evenodd" d="M4.76193 6.53335C5.43701 6.53335 6.0574 6.3039 6.54635 5.92025C6.28734 6.01493 6.00699 6.06668 5.71431 6.06668C4.39934 6.06668 3.33336 5.02201 3.33336 3.73335C3.33336 2.44468 4.39934 1.40002 5.71431 1.40002C6.00699 1.40002 6.28734 1.45177 6.54634 1.54645C6.0574 1.16279 5.43701 0.93335 4.76193 0.93335C3.18397 0.93335 1.90479 2.18695 1.90479 3.73335C1.90479 5.27975 3.18397 6.53335 4.76193 6.53335ZM5.71431 3.26668C5.71431 3.52442 5.50111 3.73335 5.23812 3.73335C4.97513 3.73335 4.76193 3.52442 4.76193 3.26668C4.76193 3.00895 4.97513 2.80002 5.23812 2.80002C5.50111 2.80002 5.71431 3.00895 5.71431 3.26668ZM6.1905 5.60002C6.45349 5.60002 6.66669 5.39108 6.66669 5.13335C6.66669 4.87562 6.45349 4.66668 6.1905 4.66668C5.92751 4.66668 5.71431 4.87562 5.71431 5.13335C5.71431 5.39108 5.92751 5.60002 6.1905 5.60002ZM8.57145 5.13335C8.57145 5.39108 8.35825 5.60002 8.09526 5.60002C7.83227 5.60002 7.61907 5.39108 7.61907 5.13335C7.61907 4.87562 7.83227 4.66668 8.09526 4.66668C8.35825 4.66668 8.57145 4.87562 8.57145 5.13335ZM9.04764 3.73335C9.31064 3.73335 9.52383 3.52442 9.52383 3.26668C9.52383 3.00895 9.31064 2.80002 9.04764 2.80002C8.78465 2.80002 8.57145 3.00895 8.57145 3.26668C8.57145 3.52442 8.78465 3.73335 9.04764 3.73335ZM7.61907 1.86668C7.61907 2.12442 7.40587 2.33335 7.14288 2.33335C6.87989 2.33335 6.66669 2.12442 6.66669 1.86668C6.66669 1.60895 6.87989 1.40002 7.14288 1.40002C7.40587 1.40002 7.61907 1.60895 7.61907 1.86668Z" fill="white"/>
</g>
</svg>
