<svg width="20" height="14" viewBox="0 0 20 14" fill="none" xmlns="http://www.w3.org/2000/svg">
<rect x="0.25" y="0.25" width="19.5" height="13.5" rx="1.75" fill="white" stroke="#F5F5F5" stroke-width="0.5"/>
<mask id="mask0_11425_87644" style="mask-type:luminance" maskUnits="userSpaceOnUse" x="0" y="0" width="20" height="14">
<rect x="0.25" y="0.25" width="19.5" height="13.5" rx="1.75" fill="white" stroke="white" stroke-width="0.5"/>
</mask>
<g mask="url(#mask0_11425_87644)">
<path fill-rule="evenodd" clip-rule="evenodd" d="M0 9.33329H20V4.66663H0V9.33329Z" fill="#0C47B7"/>
<path fill-rule="evenodd" clip-rule="evenodd" d="M0 14H20V9.33337H0V14Z" fill="#E53B35"/>
<path d="M3.88109 9.79747L4.30778 9.28951L3.8811 9.79748L5.4277 11.0966C6.41943 11.9297 7.86633 11.9297 8.85806 11.0966L10.4047 9.79748C10.8781 9.39978 11.141 8.80547 11.1167 8.18763L10.9545 4.05495C10.9124 2.98172 10.0301 2.13338 8.95609 2.13338H5.32967C4.25562 2.13338 3.37333 2.98172 3.33121 4.05495L3.16902 8.18763C3.14477 8.80547 3.40765 9.39978 3.88109 9.79747Z" fill="#F73744" stroke="white" stroke-width="1.33333"/>
<mask id="mask1_11425_87644" style="mask-type:luminance" maskUnits="userSpaceOnUse" x="2" y="1" width="10" height="12">
<path d="M3.88109 9.79747L4.30778 9.28951L3.8811 9.79748L5.4277 11.0966C6.41943 11.9297 7.86633 11.9297 8.85806 11.0966L10.4047 9.79748C10.8781 9.39978 11.141 8.80547 11.1167 8.18763L10.9545 4.05495C10.9124 2.98172 10.0301 2.13338 8.95609 2.13338H5.32967C4.25562 2.13338 3.37333 2.98172 3.33121 4.05495L3.16902 8.18763C3.14477 8.80547 3.40765 9.39978 3.88109 9.79747Z" fill="white" stroke="white" stroke-width="1.33333"/>
</mask>
<g mask="url(#mask1_11425_87644)">
<path fill-rule="evenodd" clip-rule="evenodd" d="M6.66667 7.80007C6.66667 7.61597 6.51743 7.46673 6.33334 7.46673H5.57143C5.38734 7.46673 5.2381 7.31749 5.2381 7.1334V6.86673C5.2381 6.68264 5.38734 6.5334 5.57143 6.5334H6.33334C6.51743 6.5334 6.66667 6.38416 6.66667 6.20006V5.9334C6.66667 5.7493 6.51743 5.60006 6.33334 5.60006H6.04762C5.86353 5.60006 5.71429 5.45083 5.71429 5.26673V5.00007C5.71429 4.81597 5.86353 4.66673 6.04762 4.66673H6.33334C6.51743 4.66673 6.66667 4.51749 6.66667 4.3334V4.06673C6.66667 3.88264 6.81591 3.7334 7 3.7334H7.28572C7.46981 3.7334 7.61905 3.88264 7.61905 4.06673V4.3334C7.61905 4.51749 7.76829 4.66673 7.95238 4.66673H8.2381C8.42219 4.66673 8.57143 4.81597 8.57143 5.00006V5.26673C8.57143 5.45083 8.42219 5.60006 8.2381 5.60006H7.95238C7.76829 5.60006 7.61905 5.7493 7.61905 5.9334V6.20006C7.61905 6.38416 7.76829 6.5334 7.95238 6.5334H8.71429C8.89838 6.5334 9.04762 6.68264 9.04762 6.86673V7.1334C9.04762 7.31749 8.89838 7.46673 8.71429 7.46673H7.95238C7.76829 7.46673 7.61905 7.61597 7.61905 7.80007V9.00006C7.61905 9.18416 7.46981 9.3334 7.28572 9.3334H7C6.81591 9.3334 6.66667 9.18416 6.66667 9.00006V7.80007Z" fill="white"/>
<path fill-rule="evenodd" clip-rule="evenodd" d="M8.00258 9.39785C7.84927 9.0837 7.52195 8.8667 7.14291 8.8667C6.76387 8.8667 6.43655 9.0837 6.28324 9.39785C5.12537 9.57663 4.28577 10.107 4.28577 10.7334C4.28577 11.5066 5.56495 12.1334 7.14291 12.1334C8.72087 12.1334 10.0001 11.5066 10.0001 10.7334C10.0001 10.107 9.16045 9.57663 8.00258 9.39785Z" fill="#1251A1"/>
</g>
</g>
</svg>
