<svg width="20" height="14" viewBox="0 0 20 14" fill="none" xmlns="http://www.w3.org/2000/svg">
<rect x="0.25" y="0.25" width="19.5" height="13.5" rx="1.75" fill="white" stroke="#F5F5F5" stroke-width="0.5"/>
<mask id="mask0_11425_87642" style="mask-type:luminance" maskUnits="userSpaceOnUse" x="0" y="0" width="20" height="14">
<rect x="0.25" y="0.25" width="19.5" height="13.5" rx="1.75" fill="white" stroke="white" stroke-width="0.5"/>
</mask>
<g mask="url(#mask0_11425_87642)">
<path fill-rule="evenodd" clip-rule="evenodd" d="M0 14H20V9.33337H0V14Z" fill="#262626"/>
<path fill-rule="evenodd" clip-rule="evenodd" d="M0 4.66667H20V0H0V4.66667Z" fill="#E32139"/>
<path fill-rule="evenodd" clip-rule="evenodd" d="M6.66666 7.7653L5.54707 8.51013L5.92393 7.23647L4.85513 6.42314L6.20763 6.3808L6.66666 5.1333L7.1257 6.3808L8.4782 6.42314L7.40939 7.23647L7.78625 8.51013L6.66666 7.7653Z" fill="#128A49"/>
<path fill-rule="evenodd" clip-rule="evenodd" d="M13.3334 7.7653L12.2138 8.51013L12.5906 7.23647L11.5218 6.42314L12.8743 6.3808L13.3334 5.1333L13.7924 6.3808L15.1449 6.42314L14.0761 7.23647L14.4529 8.51013L13.3334 7.7653Z" fill="#128A49"/>
</g>
</svg>
