<svg width="20" height="14" viewBox="0 0 20 14" fill="none" xmlns="http://www.w3.org/2000/svg">
<rect width="20" height="14" rx="2" fill="white"/>
<mask id="mask0_11425_87812" style="mask-type:luminance" maskUnits="userSpaceOnUse" x="0" y="0" width="20" height="14">
<rect width="20" height="14" rx="2" fill="white"/>
</mask>
<g mask="url(#mask0_11425_87812)">
<path fill-rule="evenodd" clip-rule="evenodd" d="M0 2.8H20V0H0V2.8Z" fill="#486BCA"/>
<path fill-rule="evenodd" clip-rule="evenodd" d="M0 14H20V11.2H0V14Z" fill="#486BCA"/>
<path fill-rule="evenodd" clip-rule="evenodd" d="M0 11.2H20V2.80005H0V11.2Z" fill="#FFDF20"/>
<path fill-rule="evenodd" clip-rule="evenodd" d="M0 10.2666H20V3.73328H0V10.2666Z" fill="#CF1615"/>
<path fill-rule="evenodd" clip-rule="evenodd" d="M9.99995 9.33329C12.3669 9.33329 14.2857 6.99996 14.2857 6.99996C14.2857 6.99996 12.3669 4.66663 9.99995 4.66663C7.63301 4.66663 5.71423 6.99996 5.71423 6.99996C5.71423 6.99996 7.63301 9.33329 9.99995 9.33329Z" fill="white"/>
<mask id="mask1_11425_87812" style="mask-type:luminance" maskUnits="userSpaceOnUse" x="5" y="4" width="10" height="6">
<path fill-rule="evenodd" clip-rule="evenodd" d="M9.99995 9.33329C12.3669 9.33329 14.2857 6.99996 14.2857 6.99996C14.2857 6.99996 12.3669 4.66663 9.99995 4.66663C7.63301 4.66663 5.71423 6.99996 5.71423 6.99996C5.71423 6.99996 7.63301 9.33329 9.99995 9.33329Z" fill="white"/>
</mask>
<g mask="url(#mask1_11425_87812)">
<path fill-rule="evenodd" clip-rule="evenodd" d="M10.4762 4.66663H5.71429V9.33329H9.52382L10.4762 4.66663Z" fill="#262626"/>
<path fill-rule="evenodd" clip-rule="evenodd" d="M10.9524 7.46666C11.2154 7.46666 11.4286 7.25772 11.4286 6.99999C11.4286 6.74226 11.2154 6.53333 10.9524 6.53333C10.6894 6.53333 10.4762 6.74226 10.4762 6.99999C10.4762 7.25772 10.6894 7.46666 10.9524 7.46666Z" fill="#1A1A1A"/>
<path fill-rule="evenodd" clip-rule="evenodd" d="M9.0476 7.46666C9.31059 7.46666 9.52379 7.25772 9.52379 6.99999C9.52379 6.74226 9.31059 6.53333 9.0476 6.53333C8.78461 6.53333 8.57141 6.74226 8.57141 6.99999C8.57141 7.25772 8.78461 7.46666 9.0476 7.46666Z" fill="#F6F6F6"/>
</g>
</g>
</svg>
