<svg width="20" height="14" viewBox="0 0 20 14" fill="none" xmlns="http://www.w3.org/2000/svg">
<rect width="20" height="14" rx="2" fill="white"/>
<mask id="mask0_11425_87640" style="mask-type:luminance" maskUnits="userSpaceOnUse" x="0" y="0" width="20" height="14">
<rect width="20" height="14" rx="2" fill="white"/>
</mask>
<g mask="url(#mask0_11425_87640)">
<rect width="20" height="14" fill="#07319C"/>
<path d="M12.7143 6.99994V6.9415V6.88256V6.82315V6.76332V6.70311V6.64254V6.58165V6.52049V6.45909V6.39749V6.33572V6.27383V6.21184V6.1498V6.14204V6.13816V6.13429V6.11877V6.11489V6.11101V6.10714V6.10326V6.09938V6.0955V6.09162V6.08774V6.08387V6.07999V6.07611V6.07223V6.06835V6.06448V6.0606V6.05672V6.05284V6.04897V6.04509V6.04121V6.03734V6.03346V6.02958V6.02571V6.02183V6.01796V6.01408V6.01021V6.00633V6.00246V5.99858V5.99471V5.99084V5.98696V5.98309V5.97922V5.97535V5.97147V5.9676V5.96373V5.95986V5.95599V5.95212V5.94825V5.94438V5.94051V5.93664V5.93278V5.92891V5.92504V5.92118V5.91731V5.91344V5.90958V5.90571V5.90185V5.89799V5.89412V5.89026V5.8864V5.88254V5.87868V5.87482V5.87096V5.8671V5.86324V5.85938V5.85552V5.85167V5.84781V5.84395V5.8401V5.83625V5.83239V5.82854V5.82469V5.82084V5.81699V5.81314V5.80929V5.80544V5.80159V5.79774V5.7939V5.79005V5.78621V5.78236V5.77852V5.77468V5.77084V5.767V5.76316V5.75932V5.75548V5.75164V5.74781V5.74397V5.74014V5.7363V5.73247V5.72864V5.72481V5.72098V5.71715V5.71332V5.70949V5.70567V5.70184V5.69802V5.69419V5.69037V5.68655V5.68273V5.67891V5.67509V5.67128V5.66746V5.66365V5.65983V5.65602V5.65221V5.6484V5.64459V5.64078V5.63697V5.63317V5.62936V5.62556V5.62176V5.61795V5.61415V5.61036V5.60656V5.60276V5.59897V5.59517V5.59138V5.58759V5.5838V5.58001V5.57622V5.57244V5.56865V5.56487V5.56108V5.5573V5.55352V5.54974V5.54597V5.54219V5.53842V5.53464V5.53087V5.5271V5.51957V5.50451V5.47447V5.41469V5.35534V5.29646V5.23808V5.18025V5.12299V5.06635C12.7143 4.51415 13.1619 4.06661 13.7143 4.06661H15.8096C16.3619 4.06661 16.8096 4.51415 16.8096 5.06635V5.06987V5.0734V5.07692V5.08045V5.08398V5.08752V5.09105V5.09459V5.09813V5.10168V5.10522V5.10877V5.11232V5.11588V5.11943V5.12299V5.12655V5.13012V5.13368V5.13725V5.14082V5.14439V5.14797V5.15155V5.15513V5.15871V5.16229V5.16588V5.16947V5.17306V5.17665V5.18025V5.18385V5.18745V5.19105V5.19465V5.19826V5.20187V5.20548V5.2091V5.21271V5.21633V5.21995V5.22357V5.2272V5.23082V5.23445V5.23808V5.24172V5.24535V5.24899V5.25263V5.25627V5.25991V5.26356V5.26721V5.27086V5.27451V5.27816V5.28182V5.28548V5.28914V5.2928V5.29646V5.30013V5.30379V5.30746V5.31114V5.31481V5.31848V5.32216V5.32584V5.32952V5.33321V5.33689V5.34058V5.34427V5.34796V5.35165V5.35534V5.35904V5.36274V5.36644V5.37014V5.37384V5.37755V5.38125V5.38496V5.38867V5.39238V5.3961V5.39981V5.40353V5.40725V5.41097V5.41469V5.41842V5.42214V5.42587V5.4296V5.43333V5.43706V5.4408V5.44453V5.44827V5.45201V5.45575V5.45949V5.46323V5.46698V5.47072V5.47447V5.47822V5.48197V5.48573V5.48948V5.49324V5.49699V5.50075V5.50451V5.50827V5.51204V5.5158V5.51957V5.52333V5.5271V5.53087V5.53464V5.53842V5.54219V5.54597V5.54974V5.55352V5.5573V5.56108V5.56487V5.56865V5.57244V5.57622V5.58001V5.5838V5.58759V5.59138V5.59517V5.59897V5.60276V5.60656V5.61036V5.61416V5.61796V5.62176V5.62556V5.62936V5.63317V5.63697V5.64078V5.64459V5.6484V5.65221V5.65602V5.65983V5.66365V5.66746V5.67128V5.67509V5.67891V5.68273V5.68655V5.69037V5.69419V5.69802V5.70184V5.70567V5.70949V5.71332V5.71715V5.72098V5.72481V5.72864V5.73247V5.7363V5.74014V5.74397V5.74781V5.75164V5.75548V5.75932V5.76316V5.767V5.77084V5.77468V5.77852V5.78236V5.78621V5.79005V5.7939V5.79774V5.80159V5.80544V5.80929V5.81314V5.81699V5.82084V5.82469V5.82854V5.83239V5.83625V5.8401V5.84396V5.84781V5.85167V5.85552V5.85938V5.86324V5.8671V5.87096V5.87482V5.87868V5.88254V5.8864V5.89026V5.89412V5.89799V5.90185V5.90571V5.90958V5.91344V5.91731V5.92118V5.92504V5.92891V5.93278V5.93664V5.94051V5.94438V5.94825V5.95212V5.95599V5.95986V5.96373V5.9676V5.97147V5.97535V5.97922V5.98309V5.98696V5.99084V5.99471V5.99858V6.00246V6.00633V6.01021V6.01408V6.01796V6.02183V6.02571V6.02958V6.03346V6.03734V6.04121V6.04509V6.04897V6.05284V6.05672V6.0606V6.06448V6.06835V6.07223V6.07611V6.07999V6.08387V6.08774V6.09162V6.0955V6.09938V6.10326V6.10714V6.11101V6.11489V6.11877V6.12265V6.12653V6.13041V6.13429V6.13816V6.14204V6.14592V6.1498V6.15368V6.15756V6.16143V6.16531V6.16919V6.17307V6.17695V6.18082V6.1847V6.18858V6.19246V6.19633V6.20021V6.20409V6.20796V6.21184V6.21572V6.21959V6.22347V6.22734V6.23122V6.23509V6.23897V6.24284V6.24672V6.25059V6.25446V6.25834V6.26221V6.26608V6.26995V6.27383V6.2777V6.28157V6.28544V6.28931V6.29318V6.29705V6.30092V6.30479V6.30866V6.31252V6.31639V6.32026V6.32412V6.32799V6.33186V6.33572V6.33959V6.34345V6.34731V6.35118V6.35504V6.3589V6.36276V6.36662V6.37048V6.37434V6.3782V6.38206V6.38592V6.38978V6.39363V6.39749V6.40134V6.4052V6.40905V6.41291V6.41676V6.42061V6.42446V6.42831V6.43216V6.43601V6.43986V6.44371V6.44756V6.4514V6.45525V6.45909V6.46294V6.46678V6.47062V6.47446V6.4783V6.48214V6.48598V6.48982V6.49366V6.49749V6.50133V6.50516V6.509V6.51283V6.51666V6.52049V6.52432V6.52815V6.53198V6.53581V6.53963V6.54346V6.54728V6.5511V6.55493V6.55875V6.56257V6.56639V6.5702V6.57402V6.57784V6.58165V6.58547V6.58928V6.59309V6.5969V6.60071V6.60452V6.60833V6.61213V6.61594V6.61974V6.62354V6.62734V6.63114V6.63494V6.63874V6.64254V6.64633V6.65013V6.65392V6.65771V6.6615V6.66529V6.66908V6.67286V6.67665V6.68043V6.68421V6.688V6.69178V6.69555V6.69933V6.70311V6.70688V6.71065V6.71443V6.7182V6.72196V6.72573V6.7295V6.73326V6.73702V6.74079V6.74455V6.74831V6.75206V6.75582V6.75957V6.76332V6.76708V6.77083V6.77457V6.77832V6.78207V6.78581V6.78955V6.79329V6.79703V6.80077V6.8045V6.80824V6.81197V6.8157V6.81943V6.82315V6.82688V6.8306V6.83433V6.83805V6.84177V6.84548V6.8492V6.85291V6.85662V6.86034V6.86404V6.86775V6.87146V6.87516V6.87886V6.88256V6.88626V6.88995V6.89365V6.89734V6.90103V6.90472V6.90841V6.91209V6.91577V6.91945V6.92313V6.92681V6.93049V6.93416V6.93783V6.9415V6.94517V6.94883V6.9525V6.95616V6.95982V6.96348V6.96713V6.97079V6.97444V6.97809V6.98174V6.98538V6.98902V6.99267V6.99631V6.99994C16.8096 8.03996 16.2825 8.77268 15.7319 9.25829C15.4566 9.50114 15.18 9.67747 14.9721 9.7929C14.8889 9.83915 14.8172 9.87528 14.7619 9.90172C14.7066 9.87528 14.635 9.83915 14.5517 9.7929C14.3439 9.67747 14.0673 9.50114 13.7919 9.25829C13.2414 8.77268 12.7143 8.03996 12.7143 6.99994Z" fill="#FFD033" stroke="white" stroke-width="0.666667"/>
<mask id="mask1_11425_87640" style="mask-type:luminance" maskUnits="userSpaceOnUse" x="12" y="3" width="6" height="8">
<path d="M12.7143 6.99994V6.9415V6.88256V6.82315V6.76332V6.70311V6.64254V6.58165V6.52049V6.45909V6.39749V6.33572V6.27383V6.21184V6.1498V6.14204V6.13816V6.13429V6.11877V6.11489V6.11101V6.10714V6.10326V6.09938V6.0955V6.09162V6.08774V6.08387V6.07999V6.07611V6.07223V6.06835V6.06448V6.0606V6.05672V6.05284V6.04897V6.04509V6.04121V6.03734V6.03346V6.02958V6.02571V6.02183V6.01796V6.01408V6.01021V6.00633V6.00246V5.99858V5.99471V5.99084V5.98696V5.98309V5.97922V5.97535V5.97147V5.9676V5.96373V5.95986V5.95599V5.95212V5.94825V5.94438V5.94051V5.93664V5.93278V5.92891V5.92504V5.92118V5.91731V5.91344V5.90958V5.90571V5.90185V5.89799V5.89412V5.89026V5.8864V5.88254V5.87868V5.87482V5.87096V5.8671V5.86324V5.85938V5.85552V5.85167V5.84781V5.84395V5.8401V5.83625V5.83239V5.82854V5.82469V5.82084V5.81699V5.81314V5.80929V5.80544V5.80159V5.79774V5.7939V5.79005V5.78621V5.78236V5.77852V5.77468V5.77084V5.767V5.76316V5.75932V5.75548V5.75164V5.74781V5.74397V5.74014V5.7363V5.73247V5.72864V5.72481V5.72098V5.71715V5.71332V5.70949V5.70567V5.70184V5.69802V5.69419V5.69037V5.68655V5.68273V5.67891V5.67509V5.67128V5.66746V5.66365V5.65983V5.65602V5.65221V5.6484V5.64459V5.64078V5.63697V5.63317V5.62936V5.62556V5.62176V5.61795V5.61415V5.61036V5.60656V5.60276V5.59897V5.59517V5.59138V5.58759V5.5838V5.58001V5.57622V5.57244V5.56865V5.56487V5.56108V5.5573V5.55352V5.54974V5.54597V5.54219V5.53842V5.53464V5.53087V5.5271V5.51957V5.50451V5.47447V5.41469V5.35534V5.29646V5.23808V5.18025V5.12299V5.06635C12.7143 4.51415 13.1619 4.06661 13.7143 4.06661H15.8096C16.3619 4.06661 16.8096 4.51415 16.8096 5.06635V5.06987V5.0734V5.07692V5.08045V5.08398V5.08752V5.09105V5.09459V5.09813V5.10168V5.10522V5.10877V5.11232V5.11588V5.11943V5.12299V5.12655V5.13012V5.13368V5.13725V5.14082V5.14439V5.14797V5.15155V5.15513V5.15871V5.16229V5.16588V5.16947V5.17306V5.17665V5.18025V5.18385V5.18745V5.19105V5.19465V5.19826V5.20187V5.20548V5.2091V5.21271V5.21633V5.21995V5.22357V5.2272V5.23082V5.23445V5.23808V5.24172V5.24535V5.24899V5.25263V5.25627V5.25991V5.26356V5.26721V5.27086V5.27451V5.27816V5.28182V5.28548V5.28914V5.2928V5.29646V5.30013V5.30379V5.30746V5.31114V5.31481V5.31848V5.32216V5.32584V5.32952V5.33321V5.33689V5.34058V5.34427V5.34796V5.35165V5.35534V5.35904V5.36274V5.36644V5.37014V5.37384V5.37755V5.38125V5.38496V5.38867V5.39238V5.3961V5.39981V5.40353V5.40725V5.41097V5.41469V5.41842V5.42214V5.42587V5.4296V5.43333V5.43706V5.4408V5.44453V5.44827V5.45201V5.45575V5.45949V5.46323V5.46698V5.47072V5.47447V5.47822V5.48197V5.48573V5.48948V5.49324V5.49699V5.50075V5.50451V5.50827V5.51204V5.5158V5.51957V5.52333V5.5271V5.53087V5.53464V5.53842V5.54219V5.54597V5.54974V5.55352V5.5573V5.56108V5.56487V5.56865V5.57244V5.57622V5.58001V5.5838V5.58759V5.59138V5.59517V5.59897V5.60276V5.60656V5.61036V5.61416V5.61796V5.62176V5.62556V5.62936V5.63317V5.63697V5.64078V5.64459V5.6484V5.65221V5.65602V5.65983V5.66365V5.66746V5.67128V5.67509V5.67891V5.68273V5.68655V5.69037V5.69419V5.69802V5.70184V5.70567V5.70949V5.71332V5.71715V5.72098V5.72481V5.72864V5.73247V5.7363V5.74014V5.74397V5.74781V5.75164V5.75548V5.75932V5.76316V5.767V5.77084V5.77468V5.77852V5.78236V5.78621V5.79005V5.7939V5.79774V5.80159V5.80544V5.80929V5.81314V5.81699V5.82084V5.82469V5.82854V5.83239V5.83625V5.8401V5.84396V5.84781V5.85167V5.85552V5.85938V5.86324V5.8671V5.87096V5.87482V5.87868V5.88254V5.8864V5.89026V5.89412V5.89799V5.90185V5.90571V5.90958V5.91344V5.91731V5.92118V5.92504V5.92891V5.93278V5.93664V5.94051V5.94438V5.94825V5.95212V5.95599V5.95986V5.96373V5.9676V5.97147V5.97535V5.97922V5.98309V5.98696V5.99084V5.99471V5.99858V6.00246V6.00633V6.01021V6.01408V6.01796V6.02183V6.02571V6.02958V6.03346V6.03734V6.04121V6.04509V6.04897V6.05284V6.05672V6.0606V6.06448V6.06835V6.07223V6.07611V6.07999V6.08387V6.08774V6.09162V6.0955V6.09938V6.10326V6.10714V6.11101V6.11489V6.11877V6.12265V6.12653V6.13041V6.13429V6.13816V6.14204V6.14592V6.1498V6.15368V6.15756V6.16143V6.16531V6.16919V6.17307V6.17695V6.18082V6.1847V6.18858V6.19246V6.19633V6.20021V6.20409V6.20796V6.21184V6.21572V6.21959V6.22347V6.22734V6.23122V6.23509V6.23897V6.24284V6.24672V6.25059V6.25446V6.25834V6.26221V6.26608V6.26995V6.27383V6.2777V6.28157V6.28544V6.28931V6.29318V6.29705V6.30092V6.30479V6.30866V6.31252V6.31639V6.32026V6.32412V6.32799V6.33186V6.33572V6.33959V6.34345V6.34731V6.35118V6.35504V6.3589V6.36276V6.36662V6.37048V6.37434V6.3782V6.38206V6.38592V6.38978V6.39363V6.39749V6.40134V6.4052V6.40905V6.41291V6.41676V6.42061V6.42446V6.42831V6.43216V6.43601V6.43986V6.44371V6.44756V6.4514V6.45525V6.45909V6.46294V6.46678V6.47062V6.47446V6.4783V6.48214V6.48598V6.48982V6.49366V6.49749V6.50133V6.50516V6.509V6.51283V6.51666V6.52049V6.52432V6.52815V6.53198V6.53581V6.53963V6.54346V6.54728V6.5511V6.55493V6.55875V6.56257V6.56639V6.5702V6.57402V6.57784V6.58165V6.58547V6.58928V6.59309V6.5969V6.60071V6.60452V6.60833V6.61213V6.61594V6.61974V6.62354V6.62734V6.63114V6.63494V6.63874V6.64254V6.64633V6.65013V6.65392V6.65771V6.6615V6.66529V6.66908V6.67286V6.67665V6.68043V6.68421V6.688V6.69178V6.69555V6.69933V6.70311V6.70688V6.71065V6.71443V6.7182V6.72196V6.72573V6.7295V6.73326V6.73702V6.74079V6.74455V6.74831V6.75206V6.75582V6.75957V6.76332V6.76708V6.77083V6.77457V6.77832V6.78207V6.78581V6.78955V6.79329V6.79703V6.80077V6.8045V6.80824V6.81197V6.8157V6.81943V6.82315V6.82688V6.8306V6.83433V6.83805V6.84177V6.84548V6.8492V6.85291V6.85662V6.86034V6.86404V6.86775V6.87146V6.87516V6.87886V6.88256V6.88626V6.88995V6.89365V6.89734V6.90103V6.90472V6.90841V6.91209V6.91577V6.91945V6.92313V6.92681V6.93049V6.93416V6.93783V6.9415V6.94517V6.94883V6.9525V6.95616V6.95982V6.96348V6.96713V6.97079V6.97444V6.97809V6.98174V6.98538V6.98902V6.99267V6.99631V6.99994C16.8096 8.03996 16.2825 8.77268 15.7319 9.25829C15.4566 9.50114 15.18 9.67747 14.9721 9.7929C14.8889 9.83915 14.8172 9.87528 14.7619 9.90172C14.7066 9.87528 14.635 9.83915 14.5517 9.7929C14.3439 9.67747 14.0673 9.50114 13.7919 9.25829C13.2414 8.77268 12.7143 8.03996 12.7143 6.99994Z" fill="white" stroke="white" stroke-width="0.666667"/>
</mask>
<g mask="url(#mask1_11425_87640)">
<path fill-rule="evenodd" clip-rule="evenodd" d="M15.7143 6.53329C15.9773 6.53329 16.1905 6.11543 16.1905 5.59996C16.1905 5.08449 15.9773 4.66663 15.7143 4.66663C15.4513 4.66663 15.2381 5.08449 15.2381 5.59996C15.2381 6.11543 15.4513 6.53329 15.7143 6.53329Z" fill="#BA5B1F"/>
<path fill-rule="evenodd" clip-rule="evenodd" d="M13.9561 6.50513C14.2032 6.41698 14.2578 5.95285 14.0779 5.46847C13.898 4.98409 13.5518 4.66289 13.3047 4.75104C13.0575 4.83918 13.003 5.30331 13.1829 5.78769C13.3628 6.27207 13.709 6.59328 13.9561 6.50513Z" fill="#FF9F3E"/>
<path fill-rule="evenodd" clip-rule="evenodd" d="M13.6083 6.48958C13.8466 6.5985 14.2201 6.30809 14.4423 5.84092C14.6646 5.37375 14.6516 4.90673 14.4133 4.79781C14.1749 4.68889 13.8015 4.9793 13.5792 5.44647C13.3569 5.91364 13.3699 6.38066 13.6083 6.48958Z" fill="#FF937F"/>
<path fill-rule="evenodd" clip-rule="evenodd" d="M14.2858 7.46666L14.762 6.53333L15.2381 7.46666V8.39999H14.2858V7.46666Z" fill="#01A827"/>
</g>
<path d="M-0.915074 -0.333333H0H0.47619H0.581265L0.667345 -0.273077L3.9146 2H4.66793L8.39732 -0.284251L8.90476 -0.595057V0V0.293115C8.90476 0.510658 8.79862 0.714517 8.6204 0.839269L5.57143 2.97355V3.578L8.45876 6.00336C8.80818 6.29688 8.60063 6.86667 8.14428 6.86667C8.04397 6.86667 7.94608 6.83581 7.8639 6.77828M-0.915074 -0.333333L7.8639 6.77828M-0.915074 -0.333333L-0.214397 0.255235L3 2.95533V3.55978L-0.191154 5.79359L-0.333333 5.89311V6.06667V6.53333V7.12839L0.174104 6.81758L3.90349 4.53333H4.65683L7.8639 6.77828M-0.915074 -0.333333L7.8639 6.77828" fill="#DB1E36" stroke="white" stroke-width="0.666667"/>
<path fill-rule="evenodd" clip-rule="evenodd" d="M0 2.33333V4.2H3.33333V6.33333C3.33333 6.70152 3.63181 7 4 7H4.57143C4.93962 7 5.23809 6.70152 5.23809 6.33333V4.2H8.38095C8.74914 4.2 9.04762 3.90152 9.04762 3.53333V3C9.04762 2.63181 8.74914 2.33333 8.38095 2.33333H5.23809V0H3.33333V2.33333H0Z" fill="white"/>
<path fill-rule="evenodd" clip-rule="evenodd" d="M0 2.8H3.80952V2.33333V0H4.7619V2.33333V2.8H8.57143V3.73333H4.7619V4.2V6.53333H3.80952V4.2V3.73333H0V2.8Z" fill="#DB1E36"/>
</g>
</svg>
