<svg width="20" height="14" viewBox="0 0 20 14" fill="none" xmlns="http://www.w3.org/2000/svg">
<rect width="20" height="14" rx="2" fill="white"/>
<mask id="mask0_11425_87639" style="mask-type:luminance" maskUnits="userSpaceOnUse" x="0" y="0" width="20" height="14">
<rect width="20" height="14" rx="2" fill="white"/>
</mask>
<g mask="url(#mask0_11425_87639)">
<path fill-rule="evenodd" clip-rule="evenodd" d="M0 14H20V0H0V14Z" fill="#30C375"/>
<rect x="2.85712" width="2.85714" height="14" fill="#DE414F"/>
<path fill-rule="evenodd" clip-rule="evenodd" d="M4.28569 2.80002C5.07467 2.80002 5.71426 2.38215 5.71426 1.86668C5.71426 1.35122 5.07467 0.93335 4.28569 0.93335C3.49671 0.93335 2.85712 1.35122 2.85712 1.86668C2.85712 2.38215 3.49671 2.80002 4.28569 2.80002Z" fill="white"/>
<mask id="mask1_11425_87639" style="mask-type:luminance" maskUnits="userSpaceOnUse" x="2" y="0" width="4" height="3">
<path fill-rule="evenodd" clip-rule="evenodd" d="M4.28569 2.80002C5.07467 2.80002 5.71426 2.38215 5.71426 1.86668C5.71426 1.35122 5.07467 0.93335 4.28569 0.93335C3.49671 0.93335 2.85712 1.35122 2.85712 1.86668C2.85712 2.38215 3.49671 2.80002 4.28569 2.80002Z" fill="white"/>
</mask>
<g mask="url(#mask1_11425_87639)">
<path fill-rule="evenodd" clip-rule="evenodd" d="M4.2857 2.33336C4.54869 2.33336 4.76189 2.12442 4.76189 1.86669C4.76189 1.60896 4.54869 1.40002 4.2857 1.40002C4.02271 1.40002 3.80951 1.60896 3.80951 1.86669C3.80951 2.12442 4.02271 2.33336 4.2857 2.33336Z" fill="#DD404F"/>
<rect x="2.85712" y="0.93335" width="1.42857" height="0.933333" fill="#FBAF29"/>
<rect x="4.28571" y="1.8667" width="1.42857" height="0.933333" fill="#FBAF29"/>
</g>
<path fill-rule="evenodd" clip-rule="evenodd" d="M4.28569 13.0666C5.07467 13.0666 5.71426 12.6488 5.71426 12.1333C5.71426 11.6178 5.07467 11.2 4.28569 11.2C3.49671 11.2 2.85712 11.6178 2.85712 12.1333C2.85712 12.6488 3.49671 13.0666 4.28569 13.0666Z" fill="white"/>
<mask id="mask2_11425_87639" style="mask-type:luminance" maskUnits="userSpaceOnUse" x="2" y="11" width="4" height="3">
<path fill-rule="evenodd" clip-rule="evenodd" d="M4.28569 13.0666C5.07467 13.0666 5.71426 12.6488 5.71426 12.1333C5.71426 11.6178 5.07467 11.2 4.28569 11.2C3.49671 11.2 2.85712 11.6178 2.85712 12.1333C2.85712 12.6488 3.49671 13.0666 4.28569 13.0666Z" fill="white"/>
</mask>
<g mask="url(#mask2_11425_87639)">
<path fill-rule="evenodd" clip-rule="evenodd" d="M4.2857 12.6C4.54869 12.6 4.76189 12.391 4.76189 12.1333C4.76189 11.8756 4.54869 11.6666 4.2857 11.6666C4.02271 11.6666 3.80951 11.8756 3.80951 12.1333C3.80951 12.391 4.02271 12.6 4.2857 12.6Z" fill="#DD404F"/>
<rect x="2.85712" y="11.2" width="1.42857" height="0.933332" fill="#FBAF29"/>
<rect x="4.28571" y="12.1333" width="1.42857" height="0.933335" fill="#FBAF29"/>
</g>
<path fill-rule="evenodd" clip-rule="evenodd" d="M4.28569 8.39999C5.07467 8.39999 5.71426 7.98213 5.71426 7.46666C5.71426 6.95119 5.07467 6.53333 4.28569 6.53333C3.49671 6.53333 2.85712 6.95119 2.85712 7.46666C2.85712 7.98213 3.49671 8.39999 4.28569 8.39999Z" fill="#28AE67"/>
<mask id="mask3_11425_87639" style="mask-type:luminance" maskUnits="userSpaceOnUse" x="2" y="6" width="4" height="3">
<path fill-rule="evenodd" clip-rule="evenodd" d="M4.28569 8.39999C5.07467 8.39999 5.71426 7.98213 5.71426 7.46666C5.71426 6.95119 5.07467 6.53333 4.28569 6.53333C3.49671 6.53333 2.85712 6.95119 2.85712 7.46666C2.85712 7.98213 3.49671 8.39999 4.28569 8.39999Z" fill="white"/>
</mask>
<g mask="url(#mask3_11425_87639)">
<path fill-rule="evenodd" clip-rule="evenodd" d="M4.28569 7.93333C4.81168 7.93333 5.23807 7.7244 5.23807 7.46667C5.23807 7.20893 4.81168 7 4.28569 7C3.75971 7 3.33331 7.20893 3.33331 7.46667C3.33331 7.7244 3.75971 7.93333 4.28569 7.93333Z" fill="#DD404F"/>
</g>
<path fill-rule="evenodd" clip-rule="evenodd" d="M4.28569 10.2667C5.07467 10.2667 5.71426 10.0578 5.71426 9.80004C5.71426 9.54231 5.07467 9.33337 4.28569 9.33337C3.49671 9.33337 2.85712 9.54231 2.85712 9.80004C2.85712 10.0578 3.49671 10.2667 4.28569 10.2667Z" fill="#28AE67"/>
<mask id="mask4_11425_87639" style="mask-type:luminance" maskUnits="userSpaceOnUse" x="2" y="9" width="4" height="2">
<path fill-rule="evenodd" clip-rule="evenodd" d="M4.28569 10.2667C5.07467 10.2667 5.71426 10.0578 5.71426 9.80004C5.71426 9.54231 5.07467 9.33337 4.28569 9.33337C3.49671 9.33337 2.85712 9.54231 2.85712 9.80004C2.85712 10.0578 3.49671 10.2667 4.28569 10.2667Z" fill="white"/>
</mask>
<g mask="url(#mask4_11425_87639)">
</g>
<path fill-rule="evenodd" clip-rule="evenodd" d="M4.28569 5.59994C5.07467 5.59994 5.71426 5.18208 5.71426 4.66661C5.71426 4.15114 5.07467 3.73328 4.28569 3.73328C3.49671 3.73328 2.85712 4.15114 2.85712 4.66661C2.85712 5.18208 3.49671 5.59994 4.28569 5.59994Z" fill="#FBAF29"/>
<mask id="mask5_11425_87639" style="mask-type:luminance" maskUnits="userSpaceOnUse" x="2" y="3" width="4" height="3">
<path fill-rule="evenodd" clip-rule="evenodd" d="M4.28569 5.59994C5.07467 5.59994 5.71426 5.18208 5.71426 4.66661C5.71426 4.15114 5.07467 3.73328 4.28569 3.73328C3.49671 3.73328 2.85712 4.15114 2.85712 4.66661C2.85712 5.18208 3.49671 5.59994 4.28569 5.59994Z" fill="white"/>
</mask>
<g mask="url(#mask5_11425_87639)">
<path fill-rule="evenodd" clip-rule="evenodd" d="M4.2857 5.13328C4.54869 5.13328 4.76189 4.92435 4.76189 4.66662C4.76189 4.40888 4.54869 4.19995 4.2857 4.19995C4.02271 4.19995 3.80951 4.40888 3.80951 4.66662C3.80951 4.92435 4.02271 5.13328 4.2857 5.13328Z" fill="#DD404F"/>
<rect x="2.85712" y="3.73328" width="0.952381" height="1.86667" fill="#28AE67"/>
<rect x="4.7619" y="3.73328" width="0.952381" height="1.86667" fill="#28AE67"/>
</g>
<path fill-rule="evenodd" clip-rule="evenodd" d="M10.5876 2.96674C10.4185 3.16418 10.4448 3.45853 10.6463 3.6242C10.8477 3.78987 11.1481 3.76411 11.3171 3.56668C11.4862 3.36924 11.4599 3.07489 11.2585 2.90922C11.057 2.74356 10.7566 2.76931 10.5876 2.96674ZM9.35369 4.77589C9.15223 4.61022 8.85187 4.63597 8.68282 4.83341C8.51377 5.03084 8.54005 5.3252 8.74151 5.49086C8.94298 5.65653 9.24334 5.63078 9.41238 5.43334C9.58143 5.23591 9.55515 4.94156 9.35369 4.77589ZM8.40131 3.84256C8.19985 3.67689 7.89949 3.70264 7.73044 3.90008C7.56139 4.09751 7.58767 4.39186 7.78913 4.55753C7.9906 4.7232 8.29096 4.69745 8.46 4.50001C8.62905 4.30258 8.60277 4.00822 8.40131 3.84256ZM10.3061 1.97589C10.1046 1.81022 9.80425 1.83597 9.6352 2.03341C9.46615 2.23084 9.49243 2.5252 9.69389 2.69086C9.89536 2.85653 10.1957 2.83078 10.3648 2.63334C10.5338 2.43591 10.5075 2.14156 10.3061 1.97589ZM9.82988 3.37589C9.62842 3.21022 9.32806 3.23597 9.15901 3.43341C8.98996 3.63084 9.01624 3.9252 9.2177 4.09086C9.41917 4.25653 9.71953 4.23078 9.88858 4.03334C10.0576 3.83591 10.0313 3.54156 9.82988 3.37589Z" fill="white"/>
<path fill-rule="evenodd" clip-rule="evenodd" d="M12.4829 6.61539C11.3486 7.72703 9.5095 7.72703 8.37518 6.61539C8.26527 6.50768 8.166 6.39348 8.07739 6.27405C9.2132 7.08342 10.8124 6.98614 11.8368 5.98222C12.8612 4.9783 12.9605 3.41106 12.1346 2.29797C12.2565 2.38481 12.373 2.48209 12.4829 2.5898C13.6172 3.70144 13.6172 5.50376 12.4829 6.61539Z" fill="white"/>
</g>
</svg>
