<svg width="20" height="14" viewBox="0 0 20 14" fill="none" xmlns="http://www.w3.org/2000/svg">
<rect width="20" height="14" rx="2" fill="white"/>
<mask id="mask0_11425_87635" style="mask-type:luminance" maskUnits="userSpaceOnUse" x="0" y="0" width="20" height="14">
<rect width="20" height="14" rx="2" fill="white"/>
</mask>
<g mask="url(#mask0_11425_87635)">
<rect width="20" height="14" fill="#E92434"/>
<path fill-rule="evenodd" clip-rule="evenodd" d="M14.2857 7.00005C14.2857 9.31964 12.3669 11.2 9.99995 11.2C7.63301 11.2 5.71423 9.31964 5.71423 7.00005C5.71423 4.68045 7.63301 2.80005 9.99995 2.80005C12.3669 2.80005 14.2857 4.68045 14.2857 7.00005ZM8.57138 7.00005C8.57138 8.5516 9.76004 9.83107 11.2936 10.0116C10.8958 10.1759 10.4587 10.2667 9.99995 10.2667C8.159 10.2667 6.66661 8.80418 6.66661 7.00005C6.66661 5.19592 8.159 3.73338 9.99995 3.73338C10.4587 3.73338 10.8958 3.82421 11.2936 3.98852C9.76004 4.16903 8.57138 5.4485 8.57138 7.00005ZM10.8066 8.85861L11.6815 7.81912L12.9695 8.29066L12.2311 7.15403L13.0867 6.09927L11.7555 6.43628L10.9963 5.31286L10.9119 6.65778L9.5871 7.01823L10.8662 7.51242L10.8066 8.85861Z" fill="white"/>
</g>
</svg>
