<svg width="20" height="14" viewBox="0 0 20 14" fill="none" xmlns="http://www.w3.org/2000/svg">
<rect width="20" height="14" rx="2" fill="white"/>
<mask id="mask0_11425_87636" style="mask-type:luminance" maskUnits="userSpaceOnUse" x="0" y="0" width="20" height="14">
<rect width="20" height="14" rx="2" fill="white"/>
</mask>
<g mask="url(#mask0_11425_87636)">
<rect width="20" height="14" fill="#E92434"/>
<path fill-rule="evenodd" clip-rule="evenodd" d="M13.5863 7.53786L12.7114 8.57735L12.771 7.23116L11.4919 6.73697L12.8167 6.37652L12.9011 5.03161L13.6603 6.15502L14.9915 5.81801L14.1359 6.87277L14.8743 8.0094L13.5863 7.53786Z" fill="white"/>
<path fill-rule="evenodd" clip-rule="evenodd" d="M12.4306 9.57893C11.6464 10.5655 10.4226 11.2 9.04768 11.2C6.68074 11.2 4.76196 9.31964 4.76196 7.00005C4.76196 4.68045 6.68074 2.80005 9.04768 2.80005C10.4226 2.80005 11.6464 3.43459 12.4306 4.42117C11.8254 3.99013 11.0646 3.73338 10.2382 3.73338C8.26571 3.73338 6.66672 5.19592 6.66672 7.00005C6.66672 8.80418 8.26571 10.2667 10.2382 10.2667C11.0646 10.2667 11.8254 10.01 12.4306 9.57893Z" fill="white"/>
</g>
</svg>
