<svg width="20" height="14" viewBox="0 0 20 14" fill="none" xmlns="http://www.w3.org/2000/svg">
<rect width="20" height="14" rx="2" fill="white"/>
<mask id="mask0_11425_87627" style="mask-type:luminance" maskUnits="userSpaceOnUse" x="0" y="0" width="20" height="14">
<rect width="20" height="14" rx="2" fill="white"/>
</mask>
<g mask="url(#mask0_11425_87627)">
<path fill-rule="evenodd" clip-rule="evenodd" d="M0 1.86667H20V0H0V1.86667Z" fill="#262626"/>
<path fill-rule="evenodd" clip-rule="evenodd" d="M0 9.33334H20V7.46667H0V9.33334Z" fill="#262626"/>
<path fill-rule="evenodd" clip-rule="evenodd" d="M0 7.46663H20V4.66663H0V7.46663Z" fill="#ED1623"/>
<path fill-rule="evenodd" clip-rule="evenodd" d="M0 4.6667H20V1.8667H0V4.6667Z" fill="#FEE044"/>
<path fill-rule="evenodd" clip-rule="evenodd" d="M0 14H20V12.1333H0V14Z" fill="#ED1623"/>
<path fill-rule="evenodd" clip-rule="evenodd" d="M0 12.1334H20V9.33337H0V12.1334Z" fill="#FEE044"/>
<path fill-rule="evenodd" clip-rule="evenodd" d="M10 10.2666C11.841 10.2666 13.3334 8.80407 13.3334 6.99994C13.3334 5.19581 11.841 3.73328 10 3.73328C8.15907 3.73328 6.66669 5.19581 6.66669 6.99994C6.66669 8.80407 8.15907 10.2666 10 10.2666Z" fill="white"/>
<path fill-rule="evenodd" clip-rule="evenodd" d="M9.2857 5.36671C9.15499 5.23861 9.15499 5.02814 9.2857 4.90004L9.50443 4.68569C9.51732 4.67306 9.52902 4.65952 9.54017 4.64533C9.55877 4.62164 9.5919 4.58107 9.63269 4.53817C9.78084 4.38236 10.2857 4.41437 10.4175 4.58421C10.4829 4.66849 10.4465 4.72488 10.398 4.81991L10.0364 5.52867C10.0125 5.57558 9.99998 5.6275 9.99998 5.68016V5.85884C9.99998 5.98607 10.0724 6.10219 10.1866 6.15817L10.9041 6.50973C10.9361 6.52539 10.9653 6.54607 10.9907 6.57099L11.7298 7.2953C11.8339 7.39729 11.8597 7.55506 11.7934 7.68486L11.6047 8.05475C11.5174 8.22597 11.289 8.26326 11.1517 8.12873C11.041 8.02021 10.8638 8.02021 10.753 8.12873L10.5762 8.30202C10.5122 8.36471 10.4762 8.45052 10.4762 8.54009V8.76908C10.4762 8.83152 10.5013 8.89134 10.5459 8.93504C10.6946 9.08074 10.5914 9.33338 10.3833 9.33338H10.0929C9.88474 9.33338 9.78159 9.08074 9.93025 8.93504C9.97485 8.89134 9.99998 8.83152 9.99998 8.76908V8.72865C9.99998 8.54716 9.85286 8.40004 9.67138 8.40004H9.6599C9.57266 8.40004 9.48889 8.43424 9.42659 8.49531L9.28089 8.63809C9.15129 8.76509 8.94391 8.76509 8.81432 8.63809C8.68096 8.50741 8.68096 8.29268 8.81432 8.162L8.95041 8.02863C9.01271 7.96757 9.09646 7.93338 9.18369 7.93338C9.48225 7.93338 9.63021 7.571 9.41698 7.36203L8.81434 6.77145C8.68098 6.64075 8.68098 6.426 8.81434 6.2953L9.2857 5.83338C9.41641 5.70528 9.41641 5.49481 9.2857 5.36671Z" fill="#262626"/>
</g>
</svg>
