<svg width="20" height="14" viewBox="0 0 20 14" fill="none" xmlns="http://www.w3.org/2000/svg">
<rect width="20" height="14" rx="2" fill="white"/>
<mask id="mask0_11425_87624" style="mask-type:luminance" maskUnits="userSpaceOnUse" x="0" y="0" width="20" height="14">
<rect width="20" height="14" rx="2" fill="white"/>
</mask>
<g mask="url(#mask0_11425_87624)">
<path fill-rule="evenodd" clip-rule="evenodd" d="M20 0H0V0.933333H20V0ZM20 1.86667H0V2.8H20V1.86667ZM0 3.73333H20V4.66667H0V3.73333ZM20 5.6H0V6.53333H20V5.6ZM0 7.46667H20V8.4H0V7.46667ZM20 9.33333H0V10.2667H20V9.33333ZM0 11.2H20V12.1333H0V11.2ZM20 13.0667H0V14H20V13.0667Z" fill="#D02F44"/>
<rect width="8.57143" height="6.53333" fill="#46467F"/>
<g filter="url(#filter0_d_11425_87624)">
<path fill-rule="evenodd" clip-rule="evenodd" d="M1.90477 1.40002C1.90477 1.65775 1.69158 1.86668 1.42858 1.86668C1.16559 1.86668 0.952393 1.65775 0.952393 1.40002C0.952393 1.14228 1.16559 0.93335 1.42858 0.93335C1.69158 0.93335 1.90477 1.14228 1.90477 1.40002ZM3.80954 1.40002C3.80954 1.65775 3.59634 1.86668 3.33334 1.86668C3.07035 1.86668 2.85715 1.65775 2.85715 1.40002C2.85715 1.14228 3.07035 0.93335 3.33334 0.93335C3.59634 0.93335 3.80954 1.14228 3.80954 1.40002ZM5.23811 1.86668C5.5011 1.86668 5.7143 1.65775 5.7143 1.40002C5.7143 1.14228 5.5011 0.93335 5.23811 0.93335C4.97511 0.93335 4.76192 1.14228 4.76192 1.40002C4.76192 1.65775 4.97511 1.86668 5.23811 1.86668ZM7.61906 1.40002C7.61906 1.65775 7.40586 1.86668 7.14287 1.86668C6.87988 1.86668 6.66668 1.65775 6.66668 1.40002C6.66668 1.14228 6.87988 0.93335 7.14287 0.93335C7.40586 0.93335 7.61906 1.14228 7.61906 1.40002ZM2.38096 2.80002C2.64396 2.80002 2.85715 2.59108 2.85715 2.33335C2.85715 2.07562 2.64396 1.86668 2.38096 1.86668C2.11797 1.86668 1.90477 2.07562 1.90477 2.33335C1.90477 2.59108 2.11797 2.80002 2.38096 2.80002ZM4.76192 2.33335C4.76192 2.59108 4.54872 2.80002 4.28573 2.80002C4.02273 2.80002 3.80954 2.59108 3.80954 2.33335C3.80954 2.07562 4.02273 1.86668 4.28573 1.86668C4.54872 1.86668 4.76192 2.07562 4.76192 2.33335ZM6.19049 2.80002C6.45348 2.80002 6.66668 2.59108 6.66668 2.33335C6.66668 2.07562 6.45348 1.86668 6.19049 1.86668C5.9275 1.86668 5.7143 2.07562 5.7143 2.33335C5.7143 2.59108 5.9275 2.80002 6.19049 2.80002ZM7.61906 3.26668C7.61906 3.52442 7.40586 3.73335 7.14287 3.73335C6.87988 3.73335 6.66668 3.52442 6.66668 3.26668C6.66668 3.00895 6.87988 2.80002 7.14287 2.80002C7.40586 2.80002 7.61906 3.00895 7.61906 3.26668ZM5.23811 3.73335C5.5011 3.73335 5.7143 3.52442 5.7143 3.26668C5.7143 3.00895 5.5011 2.80002 5.23811 2.80002C4.97511 2.80002 4.76192 3.00895 4.76192 3.26668C4.76192 3.52442 4.97511 3.73335 5.23811 3.73335ZM3.80954 3.26668C3.80954 3.52442 3.59634 3.73335 3.33335 3.73335C3.07035 3.73335 2.85715 3.52442 2.85715 3.26668C2.85715 3.00895 3.07035 2.80002 3.33335 2.80002C3.59634 2.80002 3.80954 3.00895 3.80954 3.26668ZM1.42858 3.73335C1.69158 3.73335 1.90477 3.52442 1.90477 3.26668C1.90477 3.00895 1.69158 2.80002 1.42858 2.80002C1.16559 2.80002 0.952393 3.00895 0.952393 3.26668C0.952393 3.52442 1.16559 3.73335 1.42858 3.73335ZM2.85715 4.20002C2.85715 4.45775 2.64396 4.66668 2.38096 4.66668C2.11797 4.66668 1.90477 4.45775 1.90477 4.20002C1.90477 3.94228 2.11797 3.73335 2.38096 3.73335C2.64396 3.73335 2.85715 3.94228 2.85715 4.20002ZM4.28573 4.66668C4.54872 4.66668 4.76192 4.45775 4.76192 4.20002C4.76192 3.94228 4.54872 3.73335 4.28573 3.73335C4.02273 3.73335 3.80954 3.94228 3.80954 4.20002C3.80954 4.45775 4.02273 4.66668 4.28573 4.66668ZM6.66668 4.20002C6.66668 4.45775 6.45348 4.66668 6.19049 4.66668C5.9275 4.66668 5.7143 4.45775 5.7143 4.20002C5.7143 3.94228 5.9275 3.73335 6.19049 3.73335C6.45348 3.73335 6.66668 3.94228 6.66668 4.20002ZM7.14287 5.60002C7.40586 5.60002 7.61906 5.39108 7.61906 5.13335C7.61906 4.87562 7.40586 4.66668 7.14287 4.66668C6.87988 4.66668 6.66668 4.87562 6.66668 5.13335C6.66668 5.39108 6.87988 5.60002 7.14287 5.60002ZM5.7143 5.13335C5.7143 5.39108 5.5011 5.60002 5.23811 5.60002C4.97511 5.60002 4.76192 5.39108 4.76192 5.13335C4.76192 4.87562 4.97511 4.66668 5.23811 4.66668C5.5011 4.66668 5.7143 4.87562 5.7143 5.13335ZM3.33335 5.60002C3.59634 5.60002 3.80954 5.39108 3.80954 5.13335C3.80954 4.87562 3.59634 4.66668 3.33335 4.66668C3.07035 4.66668 2.85715 4.87562 2.85715 5.13335C2.85715 5.39108 3.07035 5.60002 3.33335 5.60002ZM1.90477 5.13335C1.90477 5.39108 1.69158 5.60002 1.42858 5.60002C1.16559 5.60002 0.952393 5.39108 0.952393 5.13335C0.952393 4.87562 1.16559 4.66668 1.42858 4.66668C1.69158 4.66668 1.90477 4.87562 1.90477 5.13335Z" fill="url(#paint0_linear_11425_87624)"/>
</g>
</g>
<defs>
<filter id="filter0_d_11425_87624" x="0.952393" y="0.93335" width="6.66669" height="5.66663" filterUnits="userSpaceOnUse" color-interpolation-filters="sRGB">
<feFlood flood-opacity="0" result="BackgroundImageFix"/>
<feColorMatrix in="SourceAlpha" type="matrix" values="0 0 0 0 0 0 0 0 0 0 0 0 0 0 0 0 0 0 127 0" result="hardAlpha"/>
<feOffset dy="1"/>
<feColorMatrix type="matrix" values="0 0 0 0 0 0 0 0 0 0 0 0 0 0 0 0 0 0 0.06 0"/>
<feBlend mode="normal" in2="BackgroundImageFix" result="effect1_dropShadow_11425_87624"/>
<feBlend mode="normal" in="SourceGraphic" in2="effect1_dropShadow_11425_87624" result="shape"/>
</filter>
<linearGradient id="paint0_linear_11425_87624" x1="0.952393" y1="0.93335" x2="0.952393" y2="5.60002" gradientUnits="userSpaceOnUse">
<stop stop-color="white"/>
<stop offset="1" stop-color="#F0F0F0"/>
</linearGradient>
</defs>
</svg>
