<svg width="20" height="14" viewBox="0 0 20 14" fill="none" xmlns="http://www.w3.org/2000/svg">
<rect x="0.25" y="0.25" width="19.5" height="13.5" rx="1.75" fill="white" stroke="#F5F5F5" stroke-width="0.5"/>
<mask id="mask0_11425_87625" style="mask-type:luminance" maskUnits="userSpaceOnUse" x="0" y="0" width="20" height="14">
<rect x="0.25" y="0.25" width="19.5" height="13.5" rx="1.75" fill="white" stroke="white" stroke-width="0.5"/>
</mask>
<g mask="url(#mask0_11425_87625)">
<path fill-rule="evenodd" clip-rule="evenodd" d="M20 1.8667H9.52381V3.73337H20V1.8667ZM9.52381 5.60003V7.4667H20V5.60003H9.52381ZM9.52381 9.33337H0V11.2H20V9.33337H9.52381ZM0 14V13.0667H20V14H0Z" fill="#0E4DC5"/>
<path fill-rule="evenodd" clip-rule="evenodd" d="M4.76193 6.5249L4.12615 7.45496L3.96511 6.34667L2.98053 6.91429L3.32612 5.84728L2.18773 5.94003L2.9715 5.12564L1.90479 4.72516L2.9715 4.32468L2.18773 3.51029L3.32612 3.60304L2.98053 2.53603L3.96511 3.10365L4.12615 1.99536L4.76193 2.92542L5.3977 1.99536L5.55874 3.10365L6.54333 2.53603L6.19774 3.60304L7.33612 3.51029L6.55236 4.32468L7.61907 4.72516L6.55236 5.12564L7.33612 5.94003L6.19774 5.84728L6.54333 6.91429L5.55874 6.34667L5.3977 7.45496L4.76193 6.5249ZM4.76193 6.50698C5.76608 6.50698 6.58011 5.70923 6.58011 4.72516C6.58011 3.74109 5.76608 2.94334 4.76193 2.94334C3.75777 2.94334 2.94375 3.74109 2.94375 4.72516C2.94375 5.70923 3.75777 6.50698 4.76193 6.50698ZM6.1905 4.66666C6.1905 5.43986 5.55091 6.06666 4.76193 6.06666C3.97295 6.06666 3.33336 5.43986 3.33336 4.66666C3.33336 3.89346 3.97295 3.26666 4.76193 3.26666C5.55091 3.26666 6.1905 3.89346 6.1905 4.66666Z" fill="#FED443"/>
</g>
</svg>
