<svg width="20" height="14" viewBox="0 0 20 14" fill="none" xmlns="http://www.w3.org/2000/svg">
<rect x="0.25" y="0.25" width="19.5" height="13.5" rx="1.75" fill="white" stroke="#F5F5F5" stroke-width="0.5"/>
<mask id="mask0_11425_87623" style="mask-type:luminance" maskUnits="userSpaceOnUse" x="0" y="0" width="20" height="14">
<rect x="0.25" y="0.25" width="19.5" height="13.5" rx="1.75" fill="white" stroke="white" stroke-width="0.5"/>
</mask>
<g mask="url(#mask0_11425_87623)">
<path fill-rule="evenodd" clip-rule="evenodd" d="M0 4.66667H20V0H0V4.66667Z" fill="#04AAC8"/>
<path fill-rule="evenodd" clip-rule="evenodd" d="M0 14H20V9.33337H0V14Z" fill="#23C840"/>
<path fill-rule="evenodd" clip-rule="evenodd" d="M3.33336 3.73335C3.62713 3.73335 3.90019 3.64645 4.12723 3.49745C4.10093 3.49915 4.07439 3.50002 4.04764 3.50002C3.39016 3.50002 2.85717 2.97768 2.85717 2.33335C2.85717 1.68902 3.39016 1.16668 4.04764 1.16668C4.07439 1.16668 4.10093 1.16755 4.12723 1.16925C3.90019 1.02025 3.62713 0.93335 3.33336 0.93335C2.54438 0.93335 1.90479 1.56015 1.90479 2.33335C1.90479 3.10655 2.54438 3.73335 3.33336 3.73335ZM5.71431 3.26668C5.71431 3.52442 5.50111 3.73335 5.23812 3.73335C4.97513 3.73335 4.76193 3.52442 4.76193 3.26668C4.76193 3.00895 4.97513 2.80002 5.23812 2.80002C5.50111 2.80002 5.71431 3.00895 5.71431 3.26668ZM7.14288 1.86668C7.40587 1.86668 7.61907 1.65775 7.61907 1.40002C7.61907 1.14228 7.40587 0.93335 7.14288 0.93335C6.87989 0.93335 6.66669 1.14228 6.66669 1.40002C6.66669 1.65775 6.87989 1.86668 7.14288 1.86668ZM9.52383 1.40002C9.52383 1.65775 9.31064 1.86668 9.04764 1.86668C8.78465 1.86668 8.57145 1.65775 8.57145 1.40002C8.57145 1.14228 8.78465 0.93335 9.04764 0.93335C9.31064 0.93335 9.52383 1.14228 9.52383 1.40002ZM9.04764 3.73335C9.31064 3.73335 9.52383 3.52442 9.52383 3.26668C9.52383 3.00895 9.31064 2.80002 9.04764 2.80002C8.78465 2.80002 8.57145 3.00895 8.57145 3.26668C8.57145 3.52442 8.78465 3.73335 9.04764 3.73335ZM7.61907 3.26668C7.61907 3.52442 7.40587 3.73335 7.14288 3.73335C6.87989 3.73335 6.66669 3.52442 6.66669 3.26668C6.66669 3.00895 6.87989 2.80002 7.14288 2.80002C7.40587 2.80002 7.61907 3.00895 7.61907 3.26668Z" fill="white"/>
</g>
</svg>
