<svg width="20" height="14" viewBox="0 0 20 14" fill="none" xmlns="http://www.w3.org/2000/svg">
<rect width="20" height="14" rx="2" fill="white"/>
<mask id="mask0_11425_87619" style="mask-type:luminance" maskUnits="userSpaceOnUse" x="0" y="0" width="20" height="14">
<rect width="20" height="14" rx="2" fill="white"/>
</mask>
<g mask="url(#mask0_11425_87619)">
<rect width="20" height="14" fill="#E31F37"/>
<path fill-rule="evenodd" clip-rule="evenodd" d="M-0.952393 7.46665H10.4762V-0.93335H-0.952393V7.46665Z" fill="#083B9A"/>
<path fill-rule="evenodd" clip-rule="evenodd" d="M4.76191 1.86662L4.08848 2.05992L4.28572 1.39996L4.08848 0.73999L4.76191 0.93329L5.43535 0.73999L5.2381 1.39996L5.43535 2.05992L4.76191 1.86662ZM4.76191 6.53329L4.08848 6.72659L4.28572 6.06662L4.08848 5.40666L4.76191 5.59996L5.43535 5.40666L5.2381 6.06662L5.43535 6.72659L4.76191 6.53329ZM2.18372 4.39326L2.85715 4.19996L3.53059 4.39326L3.33334 3.73329L3.53059 3.07332L2.85715 3.26662L2.18372 3.07332L2.38096 3.73329L2.18372 4.39326ZM7.14286 3.73329L6.46943 3.92659L6.66667 3.26662L6.46943 2.60666L7.14286 2.79996L7.8163 2.60666L7.61905 3.26662L7.8163 3.92659L7.14286 3.73329ZM6.19048 4.89996C6.19048 5.02882 6.08389 5.13329 5.95239 5.13329C5.82089 5.13329 5.71429 5.02882 5.71429 4.89996C5.71429 4.77109 5.82089 4.66662 5.95239 4.66662C6.08389 4.66662 6.19048 4.77109 6.19048 4.89996Z" fill="white"/>
</g>
</svg>
