<svg width="20" height="14" viewBox="0 0 20 14" fill="none" xmlns="http://www.w3.org/2000/svg">
<rect width="20" height="14" rx="2" fill="white"/>
<mask id="mask0_11425_87606" style="mask-type:luminance" maskUnits="userSpaceOnUse" x="0" y="0" width="20" height="14">
<rect width="20" height="14" rx="2" fill="white"/>
</mask>
<g mask="url(#mask0_11425_87606)">
<rect width="20" height="14" fill="#19BFBF"/>
<path fill-rule="evenodd" clip-rule="evenodd" d="M10.0001 12.1334C12.893 12.1334 15.2382 9.83509 15.2382 7.00003C15.2382 4.16497 12.893 1.8667 10.0001 1.8667C7.10714 1.8667 4.76196 4.16497 4.76196 7.00003C4.76196 9.83509 7.10714 12.1334 10.0001 12.1334ZM14.2596 7.4667C14.0828 9.03412 13.0259 10.3416 11.5839 10.9039C12.0482 9.9771 12.3195 8.76965 12.3717 7.4667H14.2596ZM11.4184 7.4667C11.3488 9.04103 10.9294 10.4324 10.2754 11.1915C10.1844 11.1972 10.0926 11.2 10.0001 11.2C9.90756 11.2 9.81574 11.1972 9.7247 11.1915C9.07072 10.4324 8.65127 9.04103 8.58174 7.4667H11.4184ZM7.62841 7.4667C7.68065 8.76965 7.95192 9.9771 8.41626 10.9039C6.97424 10.3416 5.91731 9.03412 5.7405 7.4667H7.62841ZM8.58174 6.53337H11.4184C11.3488 4.95903 10.9294 3.56763 10.2754 2.80856C10.1844 2.8029 10.0926 2.80003 10.0001 2.80003C9.90756 2.80003 9.81574 2.8029 9.7247 2.80856C9.07072 3.56763 8.65127 4.95903 8.58174 6.53337ZM8.41626 3.09615C7.95192 4.02297 7.68065 5.23041 7.62841 6.53337H5.7405C5.91731 4.96595 6.97424 3.65849 8.41626 3.09615ZM14.2596 6.53337H12.3717C12.3195 5.23041 12.0482 4.02297 11.5839 3.09615C13.0259 3.65849 14.0828 4.96595 14.2596 6.53337Z" fill="white"/>
</g>
</svg>
