<svg width="20" height="14" viewBox="0 0 20 14" fill="none" xmlns="http://www.w3.org/2000/svg">
<rect width="20" height="14" rx="2" fill="#009F60"/>
<mask id="mask0_11425_87615" style="mask-type:luminance" maskUnits="userSpaceOnUse" x="0" y="0" width="20" height="14">
<rect width="20" height="14" rx="2" fill="white"/>
</mask>
<g mask="url(#mask0_11425_87615)">
<rect x="17.1428" y="7.46667" width="2.85714" height="6.53333" fill="#EA8B42"/>
<path fill-rule="evenodd" clip-rule="evenodd" d="M14.2858 14H17.1429V7.46667H14.2858V14Z" fill="#1A1919"/>
<path fill-rule="evenodd" clip-rule="evenodd" d="M11.4286 14H14.2857V7.46667H11.4286V14Z" fill="#DB3C36"/>
<path fill-rule="evenodd" clip-rule="evenodd" d="M15.0101 2.43879C14.9445 2.44059 14.8962 2.41831 14.879 2.38086C14.986 2.31932 15.0583 2.33305 15.1481 2.41145C15.1654 2.35015 15.1481 2.28187 15.1101 2.24092C15.0722 2.19997 15.0411 2.19997 14.9894 2.19648C14.9376 2.19311 14.8858 2.1795 14.8513 2.1795C14.8007 2.07027 14.674 2.11652 14.5523 2.16132C14.3544 2.23406 14.1766 2.36617 14.0968 2.49804C14.0603 2.55837 14.0559 2.5821 14.0334 2.6163C14.0519 2.61401 14.0507 2.61401 14.0622 2.60715C14.0484 2.75733 14.03 2.89606 14.0576 2.98482C14.0232 3.11452 14.0507 3.19641 14.0921 3.23736C14.1336 3.27831 14.1508 3.29541 14.1577 3.34322C14.1646 3.39091 14.1853 3.43523 14.2198 3.46256C14.2543 3.4899 14.275 3.53085 14.2785 3.55481C14.2819 3.57866 14.3887 3.68151 14.4337 3.70836C14.451 3.71848 14.4544 3.73907 14.4752 3.76629C14.4303 4.02569 14.6098 4.2851 14.5683 4.54102C14.5994 4.54439 14.6408 4.54102 14.6823 4.53078C14.7167 4.74912 14.7374 4.85498 14.5442 4.91977C14.351 4.98468 14.2453 5.04851 14.2992 5.12113C14.3371 5.17231 14.4157 5.12775 14.4648 5.08355C14.5028 5.04947 14.5476 5.01876 14.5821 5.00852C14.6167 4.99829 14.6237 5.00852 14.6063 5.05284C14.589 5.09728 14.4959 5.19278 14.4924 5.24059C14.489 5.2884 14.5303 5.32249 14.596 5.28491C14.6615 5.24734 14.7192 5.14907 14.734 5.09042C14.7443 5.04947 14.7617 5.02213 14.7581 5.09042C14.7547 5.1587 14.7133 5.28154 14.8065 5.30201C14.8997 5.32249 14.9273 5.21326 14.8962 5.11426C14.8651 5.01539 14.8548 4.96071 14.8686 4.92663C14.8824 4.89243 14.8962 4.87208 14.9306 4.88219C14.9652 4.89243 15.0342 4.87882 15.0308 4.82427C15.0272 4.76971 14.979 4.72527 14.9238 4.75598C14.8686 4.78669 14.8272 4.78212 14.8513 4.71504C14.8686 4.66723 14.8997 4.60918 14.9031 4.57172C14.941 4.62628 15.155 4.63314 15.2413 4.58196C15.262 4.68433 15.3172 4.77646 15.1965 4.87208C15.0756 4.96758 14.979 5.05971 14.9824 5.12799C14.986 5.19628 15.0135 5.2371 15.0756 5.20302C15.1377 5.16894 15.1757 5.12113 15.1895 5.07681C15.2033 5.03237 15.231 5.03237 15.2172 5.08705C15.2033 5.1416 15.1792 5.22012 15.1895 5.26793C15.1999 5.31562 15.2758 5.31911 15.3068 5.27468C15.3379 5.23036 15.3309 5.17231 15.3241 5.11426C15.3172 5.05622 15.3276 4.99492 15.3413 4.97095C15.3552 4.94711 15.3827 4.9129 15.4104 4.97782C15.4381 5.04261 15.4518 5.09379 15.507 5.11089C15.5622 5.12799 15.6036 5.10403 15.5933 5.03923C15.5829 4.97444 15.5104 4.90267 15.4381 4.84811C15.3656 4.79356 15.3897 4.76622 15.3931 4.71504C15.3966 4.66385 15.3863 4.57172 15.3827 4.53078C15.4483 4.57859 15.5208 4.57172 15.5552 4.57172C15.5898 4.57172 15.6465 4.56125 15.5898 4.51031C15.4759 4.40794 15.5139 4.3464 15.4345 4.27137C15.3552 4.19634 15.2827 4.08025 15.2586 3.98138C15.2343 3.88238 15.1812 3.7015 15.0756 3.60937C15.017 3.55819 14.9997 3.41825 15.0135 3.25783C15.0272 3.09742 15.0308 2.92003 14.8824 2.83813C14.734 2.75624 14.7374 2.68796 14.7858 2.6163C14.834 2.54465 14.8961 2.47456 14.9756 2.4695C14.9934 2.46841 15.0347 2.46504 15.0515 2.453C15.044 2.44734 15.0319 2.43831 15.0101 2.43879Z" fill="#EA8B42"/>
<path fill-rule="evenodd" clip-rule="evenodd" d="M14.045 2.80741C14.0413 2.87678 14.043 2.93784 14.0576 2.98481C14.0232 3.11451 14.0507 3.1964 14.0921 3.23735C14.1336 3.2783 14.1508 3.2954 14.1578 3.34321C14.1646 3.3909 14.1853 3.43522 14.2198 3.46255C14.2544 3.48989 14.2751 3.53084 14.2785 3.5548C14.2819 3.57865 14.3887 3.6815 14.4338 3.70835C14.451 3.71847 14.4545 3.73906 14.4753 3.76628C14.4565 3.87406 14.4763 3.98185 14.5032 4.08939C14.2593 4.28955 14.0185 4.19513 14.1198 3.9904C13.9173 4.14961 13.5677 4.14515 13.6459 3.9904C13.3284 4.09963 13.2318 4.00858 13.2732 3.90851C13.0064 4.01316 12.8683 3.91308 12.9051 3.84022C12.6842 3.89935 12.5416 3.86298 12.5185 3.82661C12.4956 3.79024 12.5507 3.70835 12.6014 3.66741C12.5002 3.70378 12.4036 3.70378 12.3115 3.69017C12.2195 3.67644 12.2425 3.6491 12.2609 3.60815C12.2794 3.56721 12.3035 3.50242 12.3771 3.43871C12.2012 3.47279 11.9803 3.49676 11.825 3.44545C11.7957 3.43582 11.7456 3.42498 11.7766 3.39439C11.8077 3.36368 11.9009 3.28853 12.0148 3.24072C11.7559 3.2783 11.2659 3.30563 11.1279 3.15209C11.2625 3.1793 11.435 3.12475 11.5454 3.08043C11.1106 3.03262 10.5171 2.73913 10.5101 2.45251C10.6344 2.65037 10.8485 2.71866 11.0624 2.78008C10.7724 2.6128 10.6517 2.41144 10.6414 2.27836C10.8069 2.43541 11.0588 2.6128 11.3074 2.65387C11.1313 2.56174 10.9036 2.29209 10.8415 2.10434C10.9692 2.21695 11.297 2.39783 11.5213 2.45588C11.3661 2.33641 11.1142 2.05316 11.1279 1.89624C11.1865 1.95429 11.3315 2.0634 11.6282 2.23405C11.925 2.4047 12.0861 2.39217 12.3311 2.44335C12.2863 2.38422 12.246 2.3057 12.2425 2.28523C12.315 2.29547 12.384 2.3228 12.591 2.44901C12.7981 2.57535 13.2505 2.614 13.509 2.72552C13.6987 2.80741 13.9691 2.75623 14.045 2.80741Z" fill="#EA8B42"/>
<path fill-rule="evenodd" clip-rule="evenodd" d="M15.6068 4.56007C15.6182 4.55116 15.6182 4.53574 15.5898 4.51033C15.4759 4.40797 15.5139 4.34643 15.4345 4.2714C15.3552 4.19637 15.2827 4.08028 15.2586 3.9814C15.2343 3.88241 15.1812 3.70153 15.0756 3.6094C15.017 3.55821 14.9997 3.41827 15.0135 3.25786C15.0253 3.12057 15.0296 2.97088 14.9375 2.87923C15.11 2.83142 15.269 2.82106 15.3241 2.87562C15.6105 2.80396 15.8591 2.78228 16.1028 2.76651C16.3835 2.7482 16.9126 2.62994 17.29 2.37968C17.267 2.47073 17.1382 2.60718 17.0231 2.67546C17.405 2.58442 17.8651 2.41605 18.2562 2.12943C18.2516 2.32971 18.086 2.47976 17.9893 2.56177C18.2562 2.41605 18.6472 2.23408 18.7807 2.00659C18.8393 2.23974 18.4403 2.54467 18.2239 2.71303C18.4448 2.60838 18.7301 2.51168 18.8406 2.35692C18.8382 2.54576 18.5875 2.78011 18.3482 2.91656C18.5921 2.82564 18.8636 2.73002 19.02 2.58899C19.0383 2.77903 18.2906 3.21583 17.9202 3.33518C18.2424 3.25786 18.6611 3.15321 18.8451 3.04398C18.8359 3.08263 18.7608 3.13683 18.7062 3.17633C18.4812 3.33939 18.136 3.42694 17.9249 3.46717C17.9526 3.58097 17.9157 3.64468 17.7869 3.65371C17.6581 3.66287 17.3463 3.61397 17.1899 3.53654C17.1669 3.55014 17.1393 3.55484 17.1082 3.55821C17.26 3.67082 17.3118 3.75271 17.2807 3.80052C17.2497 3.84833 17.141 3.83966 17.0582 3.82268C17.1237 4.00356 16.9045 3.99164 16.7217 3.88916C16.7942 3.9814 16.8046 4.0598 16.7044 4.08028C16.6044 4.10075 16.5249 4.09401 16.4283 4.03247C16.4215 4.10075 16.3547 4.14627 16.2662 4.12351C16.5699 4.3044 16.5526 4.37039 16.5008 4.43856C16.4491 4.50684 16.2679 4.49323 16.1713 4.43181C16.1299 4.57175 15.9648 4.57223 15.8417 4.46084C15.8406 4.5166 15.723 4.62727 15.6068 4.56007Z" fill="#EA8B42"/>
<path fill-rule="evenodd" clip-rule="evenodd" d="M14.198 5.24623C14.203 5.20312 14.2072 5.15302 14.2439 5.1211C14.2808 5.08919 14.3038 5.06197 14.336 5.09377C14.3682 5.12568 14.3475 5.15531 14.3038 5.16891C14.2601 5.18252 14.2302 5.22118 14.2232 5.24623C14.2164 5.27128 14.1934 5.28489 14.198 5.24623Z" fill="black"/>
<path fill-rule="evenodd" clip-rule="evenodd" d="M14.4487 5.45551C14.4259 5.38397 14.4373 5.29172 14.4625 5.26439C14.4879 5.23705 14.5201 5.21886 14.5499 5.2462C14.5798 5.27354 14.5913 5.3122 14.5361 5.33496C14.4873 5.35507 14.4832 5.40541 14.481 5.4419C14.4787 5.47827 14.4625 5.49874 14.4487 5.45551Z" fill="black"/>
<path fill-rule="evenodd" clip-rule="evenodd" d="M14.7708 5.27132C14.7531 5.30058 14.7754 5.4192 14.8352 5.44871C14.8776 5.46966 14.8973 5.46473 14.872 5.42595C14.8467 5.38729 14.8559 5.35092 14.8698 5.33045C14.8835 5.30997 14.8813 5.2736 14.8513 5.25542C14.8214 5.23711 14.7845 5.24855 14.7708 5.27132Z" fill="black"/>
<path fill-rule="evenodd" clip-rule="evenodd" d="M15.0309 5.16437C14.9929 5.13619 14.9573 5.17003 14.9434 5.19387C14.9158 5.24168 14.9366 5.30997 14.9803 5.34862C15.024 5.38728 15.017 5.33502 15.0032 5.31225C14.9895 5.28949 14.9871 5.24397 15.017 5.23939C15.0469 5.23494 15.0677 5.19158 15.0309 5.16437Z" fill="black"/>
<path fill-rule="evenodd" clip-rule="evenodd" d="M15.2471 5.24169C15.2101 5.23098 15.1735 5.26903 15.178 5.31455C15.1814 5.34852 15.185 5.39187 15.2194 5.41463C15.2425 5.42981 15.2586 5.43968 15.2471 5.39873C15.2355 5.35779 15.254 5.32359 15.2746 5.31227C15.2953 5.30095 15.2861 5.25313 15.2471 5.24169Z" fill="black"/>
<path fill-rule="evenodd" clip-rule="evenodd" d="M15.553 5.04822C15.5262 5.06677 15.5277 5.10976 15.553 5.12566C15.5782 5.14155 15.6151 5.16431 15.6082 5.20297C15.6013 5.24163 15.622 5.25536 15.6404 5.21212C15.6588 5.16889 15.6611 5.10518 15.6404 5.07556C15.6196 5.04593 15.5759 5.03232 15.553 5.04822Z" fill="black"/>
<path fill-rule="evenodd" clip-rule="evenodd" d="M14.8859 2.37777C14.9019 2.41249 14.9477 2.43299 15.0098 2.43128L15.0099 2.43128C15.0296 2.43084 15.0416 2.43603 15.056 2.45909C15.0408 2.46998 15.0122 2.47483 14.976 2.47702C14.9101 2.48122 14.8525 2.53083 14.7921 2.62048C14.7378 2.701 14.7568 2.76023 14.8861 2.83158C15.0146 2.90249 15.041 3.02601 15.0211 3.25848C15.0065 3.4274 15.0275 3.5574 15.0807 3.60375C15.1685 3.68047 15.2252 3.81303 15.266 3.97963C15.2892 4.07506 15.3597 4.19025 15.4398 4.26596C15.4586 4.28375 15.472 4.30169 15.4828 4.32216C15.489 4.33394 15.4935 4.34457 15.5008 4.36364C15.5261 4.42949 15.5431 4.4582 15.5949 4.50476C15.6236 4.53057 15.6292 4.55203 15.6115 4.56601C15.5998 4.57522 15.5787 4.57927 15.5552 4.57927L15.5425 4.57944C15.4868 4.58044 15.4509 4.57596 15.4096 4.55582C15.4035 4.55285 15.3976 4.54958 15.3918 4.54599L15.3953 4.58395C15.3968 4.60086 15.398 4.61586 15.399 4.63013C15.4014 4.66594 15.4021 4.69453 15.4007 4.71555C15.4002 4.72351 15.3993 4.73044 15.3975 4.74136C15.3943 4.76154 15.3937 4.76706 15.3943 4.77583C15.3958 4.79735 15.4088 4.81666 15.4427 4.84215C15.5314 4.90901 15.5912 4.97809 15.6008 5.03809C15.6116 5.10551 15.5684 5.13782 15.5047 5.11808C15.4657 5.106 15.4456 5.08098 15.4224 5.02674L15.4033 4.98074C15.392 4.95428 15.3818 4.94579 15.3727 4.94835C15.365 4.95054 15.3563 4.96021 15.348 4.97466C15.3338 4.99948 15.3254 5.06099 15.3316 5.11341L15.3317 5.11397C15.3422 5.20262 15.3404 5.24006 15.3131 5.27895C15.2785 5.3286 15.1939 5.32412 15.182 5.2695C15.1765 5.24421 15.1796 5.21078 15.1893 5.16642C15.192 5.15421 15.195 5.14156 15.1991 5.12601L15.2097 5.08524C15.215 5.0642 15.2136 5.05241 15.2123 5.05217C15.2101 5.05177 15.2022 5.06166 15.1968 5.07903C15.1813 5.12864 15.1394 5.17659 15.0793 5.20961C15.0159 5.24443 14.9789 5.209 14.9747 5.12838C14.9715 5.06414 15.0442 4.98277 15.1916 4.86623C15.2203 4.84355 15.2395 4.82052 15.2509 4.79639C15.2716 4.75272 15.2686 4.71918 15.2459 4.63349C15.2412 4.61586 15.2383 4.60436 15.2359 4.5935C15.1487 4.63727 14.9663 4.63352 14.9083 4.58789C14.9043 4.60585 14.8958 4.62778 14.8786 4.66789L14.8786 4.66809C14.8678 4.69327 14.8632 4.7045 14.8585 4.71756C14.8482 4.74607 14.8504 4.76113 14.8606 4.76522C14.8717 4.76966 14.8935 4.76417 14.92 4.74945C14.977 4.71773 15.0342 4.75926 15.0384 4.82382C15.0418 4.87726 14.9781 4.90416 14.9284 4.88942C14.9026 4.88183 14.8908 4.89187 14.8756 4.92942C14.8634 4.95972 14.8712 5.00947 14.9035 5.11205C14.9395 5.22654 14.8986 5.32998 14.8048 5.30937C14.7474 5.29676 14.7323 5.25214 14.7404 5.17408C14.7414 5.16441 14.7425 5.15517 14.7445 5.14073C14.7489 5.10918 14.7498 5.10199 14.7504 5.09005C14.751 5.07905 14.751 5.07039 14.7506 5.06412C14.7477 5.07085 14.7442 5.08096 14.7414 5.09225C14.7237 5.16236 14.6608 5.25646 14.5998 5.29143C14.5343 5.32892 14.4804 5.29979 14.4847 5.24006C14.4863 5.21809 14.5023 5.19006 14.5353 5.14472L14.5444 5.13225C14.5861 5.07569 14.593 5.06573 14.5991 5.05015C14.6143 5.01147 14.612 5.00753 14.5843 5.01575C14.5532 5.02498 14.5102 5.05303 14.47 5.08912C14.4018 5.15051 14.3295 5.17482 14.2929 5.12558C14.264 5.0866 14.276 5.04815 14.3243 5.0116C14.3668 4.97945 14.4385 4.94733 14.5417 4.91266C14.7052 4.85782 14.7177 4.80505 14.6841 4.53809C14.6426 4.54834 14.6001 4.55206 14.5607 4.53984C14.5776 4.43546 14.5644 4.35156 14.5138 4.15985C14.4621 3.96375 14.4485 3.8754 14.4691 3.77083C14.4637 3.76381 14.4592 3.75692 14.4546 3.74894L14.4446 3.73147C14.4395 3.72282 14.4353 3.71811 14.4297 3.71481C14.3807 3.68559 14.2746 3.58176 14.2709 3.55588C14.2671 3.52976 14.2445 3.49183 14.215 3.46844C14.1802 3.44094 14.1576 3.39612 14.1501 3.3443C14.1442 3.30384 14.1355 3.29085 14.0866 3.24268C14.0356 3.19217 14.0187 3.10133 14.0502 2.98703C14.0289 2.9185 14.0309 2.85251 14.0508 2.64661L14.0532 2.62046C14.051 2.62124 14.0486 2.62179 14.0453 2.62231L14.0344 2.62378L14.027 2.61224C14.0315 2.60528 14.0355 2.59849 14.0395 2.59105L14.0459 2.57822L14.046 2.57806C14.0459 2.57825 14.0459 2.5783 14.0459 2.57822C14.0464 2.57719 14.0586 2.55163 14.063 2.54296C14.0709 2.52731 14.0795 2.51182 14.0901 2.4942C14.1712 2.36029 14.3508 2.22734 14.5495 2.15428C14.7379 2.08496 14.8136 2.07997 14.8512 2.17199C14.8679 2.17199 14.8763 2.17313 14.9253 2.18095C14.9533 2.18543 14.9712 2.18777 14.9899 2.18899L15.0017 2.18977C15.0458 2.19269 15.0643 2.19655 15.0867 2.2109C15.0965 2.2172 15.106 2.22537 15.1158 2.23586C15.1565 2.27981 15.173 2.35115 15.1554 2.41347L15.143 2.41709C15.0527 2.33825 14.9838 2.3293 14.8859 2.37777ZM15.0468 2.45898C15.0347 2.44985 15.0258 2.44598 15.0102 2.44633L15.0103 2.44633C14.9426 2.44819 14.8909 2.42506 14.8751 2.37438C14.9783 2.31499 15.0529 2.3222 15.1436 2.39765C15.1427 2.40162 15.1418 2.40556 15.1407 2.40946L15.1531 2.40584C15.1499 2.40302 15.1467 2.4003 15.1436 2.39765C15.1547 2.34322 15.1391 2.28336 15.1044 2.24601C15.0956 2.23642 15.087 2.22908 15.0783 2.22351C15.0588 2.21099 15.0423 2.20754 15.0007 2.20479L14.9889 2.20401C14.9696 2.20275 14.9513 2.20036 14.9228 2.19581C14.9139 2.19439 14.9064 2.1932 14.8999 2.19217C14.8714 2.18764 14.8625 2.18622 14.8443 2.18264C14.8048 2.09737 14.7354 2.10194 14.5549 2.16838C14.3592 2.24032 14.1824 2.37119 14.1033 2.5019C14.0928 2.51919 14.0845 2.53435 14.0767 2.54966C14.0724 2.55819 14.0602 2.58372 14.0597 2.58471L14.053 2.598C14.0516 2.60077 14.0501 2.60346 14.0486 2.60611C14.0472 2.60664 14.0455 2.60702 14.0429 2.60746L14.0325 2.60885L14.0398 2.62039C14.043 2.61563 14.0458 2.61094 14.0486 2.60611C14.0489 2.606 14.0491 2.60589 14.0494 2.60576C14.051 2.60507 14.0524 2.60426 14.0582 2.60073L14.0698 2.60784L14.066 2.64803C14.0464 2.85133 14.0444 2.91688 14.0649 2.98673C14.0348 3.10036 14.0506 3.18572 14.0975 3.23206C14.1484 3.28233 14.1588 3.29768 14.1653 3.34218C14.1722 3.39048 14.1931 3.43182 14.2246 3.45672C14.2571 3.48246 14.2817 3.5238 14.286 3.55377C14.2889 3.5737 14.3923 3.67492 14.4376 3.70191C14.4458 3.70671 14.4515 3.71321 14.4578 3.72385L14.4678 3.74145C14.469 3.74342 14.4701 3.74531 14.4713 3.74726C14.4745 3.7527 14.4781 3.75854 14.4828 3.76757C14.4641 3.87511 14.4775 3.96204 14.5286 4.15607C14.5797 4.34981 14.5932 4.43506 14.5691 4.53355C14.5975 4.53662 14.6342 4.53385 14.6783 4.53051C14.6821 4.53022 14.6859 4.52993 14.6898 4.52964C14.7339 4.80923 14.7197 4.86885 14.5466 4.92691C14.4449 4.96108 14.3745 4.99264 14.3336 5.02354C14.2912 5.05561 14.282 5.08529 14.3053 5.11671C14.3339 5.15532 14.3975 5.13395 14.4596 5.07801C14.5014 5.04053 14.5461 5.01134 14.5799 5.00133C14.6222 4.98878 14.6325 5.0068 14.6134 5.05555C14.6066 5.07302 14.6 5.08253 14.5568 5.14109L14.5477 5.15347C14.5167 5.19626 14.5013 5.22313 14.5 5.24114C14.4966 5.28831 14.5368 5.31006 14.5921 5.27842C14.6492 5.24569 14.7097 5.15506 14.7265 5.08863C14.7323 5.06553 14.7396 5.04805 14.7469 5.04322C14.7559 5.03728 14.7626 5.04387 14.7647 5.0544C14.7663 5.06189 14.7666 5.07392 14.7657 5.0908C14.7651 5.10337 14.7642 5.11066 14.7597 5.14277C14.7577 5.15704 14.7566 5.16615 14.7556 5.1756C14.7483 5.24696 14.7608 5.2843 14.8081 5.29468C14.8864 5.31188 14.922 5.22187 14.8889 5.1165C14.8555 5.01044 14.8474 4.95866 14.8614 4.92386C14.8792 4.87998 14.8972 4.86455 14.9328 4.875C14.9738 4.88715 15.0257 4.86523 15.0231 4.82476C15.0196 4.77031 14.9736 4.73692 14.9275 4.76255C14.8973 4.77935 14.8715 4.78584 14.8549 4.77917C14.8348 4.77115 14.8314 4.74766 14.844 4.71253C14.8489 4.6991 14.8536 4.68771 14.8644 4.66226L14.8645 4.66206C14.8861 4.61167 14.8936 4.59075 14.8954 4.57107L14.9094 4.56749C14.9447 4.61828 15.1542 4.62477 15.2373 4.57553L15.2488 4.58051C15.2516 4.59451 15.2546 4.60687 15.2607 4.62969C15.2843 4.71875 15.2875 4.75474 15.2648 4.80275C15.2524 4.82908 15.2316 4.8539 15.2012 4.87796C15.0582 4.99098 14.9872 5.07056 14.99 5.12762C14.9937 5.19872 15.0207 5.22456 15.0718 5.19646C15.1287 5.16527 15.1679 5.12035 15.1821 5.07462C15.1896 5.05055 15.2021 5.03498 15.2151 5.03738C15.2294 5.04003 15.2319 5.05994 15.2246 5.08888L15.2139 5.12972C15.2099 5.14511 15.2069 5.15759 15.2042 5.16959C15.1949 5.21202 15.1921 5.24373 15.1969 5.26637C15.2057 5.30662 15.2727 5.31017 15.3005 5.27041C15.3248 5.23569 15.3265 5.20062 15.3165 5.1157L15.3164 5.11515C15.3099 5.05983 15.3186 4.99523 15.3346 4.96724C15.3449 4.94949 15.3556 4.93752 15.3685 4.93388C15.387 4.92864 15.4035 4.9423 15.4174 4.97492L15.4365 5.02092C15.4581 5.07146 15.4756 5.09332 15.5093 5.10373C15.5626 5.12025 15.5946 5.0963 15.5857 5.04042C15.5769 4.98543 15.5191 4.91876 15.4334 4.8541C15.3963 4.82622 15.3809 4.80328 15.3791 4.77688C15.3783 4.76651 15.379 4.76046 15.3824 4.73903C15.3841 4.72852 15.385 4.72196 15.3854 4.71456C15.3868 4.69437 15.3861 4.66633 15.3837 4.63113C15.3827 4.61698 15.3815 4.60208 15.38 4.58527L15.3751 4.53143L15.3872 4.52475C15.3966 4.53155 15.4063 4.53739 15.4164 4.54234C15.4549 4.56113 15.4888 4.56535 15.5422 4.56439L15.5552 4.56421C15.5754 4.56421 15.5937 4.56071 15.6019 4.55426C15.6103 4.54765 15.6073 4.53633 15.5846 4.51588C15.5307 4.46743 15.5125 4.43682 15.4865 4.36896C15.4794 4.35039 15.4751 4.3402 15.4692 4.32908C15.4592 4.31004 15.4468 4.29344 15.4292 4.27681C15.3471 4.19918 15.2751 4.08149 15.2511 3.98315C15.211 3.81943 15.1553 3.68903 15.0705 3.61501C15.0125 3.56441 14.9909 3.43063 15.0059 3.25722C15.0253 3.03029 14.9999 2.91165 14.8786 2.84471C14.7419 2.76929 14.7198 2.7004 14.7794 2.61216C14.8421 2.51891 14.9029 2.46659 14.9751 2.462C14.9854 2.46137 14.9953 2.46048 15.0042 2.45967C15.0236 2.45791 15.0388 2.45652 15.0468 2.45898Z" fill="black"/>
<path fill-rule="evenodd" clip-rule="evenodd" d="M13.8585 2.77189C13.9765 2.77597 14.0195 2.78115 14.0493 2.80126L14.0526 2.80786C14.0485 2.88507 14.0518 2.94064 14.065 2.98676C14.0348 3.10039 14.0507 3.18575 14.0975 3.23209C14.1485 3.28236 14.1588 3.29771 14.1653 3.34221C14.1722 3.39051 14.1932 3.43185 14.2246 3.45675C14.2571 3.48249 14.2817 3.52383 14.286 3.55381C14.2889 3.57373 14.3924 3.67495 14.4376 3.70194C14.4458 3.70675 14.4515 3.71324 14.4578 3.72388L14.4679 3.74148C14.469 3.74345 14.4701 3.74534 14.4713 3.74728C14.4746 3.75273 14.4781 3.75857 14.4828 3.7676C14.4666 3.86043 14.4769 3.95316 14.5081 4.09523C14.3926 4.18996 14.2679 4.22628 14.1797 4.19896C14.0998 4.17421 14.0684 4.10255 14.1016 4.01329C14.0076 4.07833 13.8828 4.11629 13.7775 4.11572C13.6691 4.11513 13.6079 4.07266 13.6322 4.00302C13.3703 4.08921 13.2245 4.04039 13.2604 3.92145C13.0436 4.00069 12.864 3.94573 12.8924 3.85136C12.7063 3.89815 12.5443 3.88163 12.512 3.83063C12.4919 3.79871 12.5232 3.7342 12.5707 3.68532C12.4884 3.70898 12.4046 3.7116 12.3103 3.69767C12.2659 3.69104 12.2439 3.68081 12.238 3.66338C12.2335 3.65008 12.2349 3.64606 12.2518 3.6098L12.2539 3.60516C12.2538 3.60528 12.2649 3.58016 12.2687 3.57196C12.2754 3.55758 12.282 3.5448 12.2894 3.53208C12.3064 3.50308 12.3267 3.47638 12.3525 3.45105C12.1373 3.49053 11.9536 3.49596 11.8225 3.45265L11.8029 3.44644C11.7846 3.44049 11.7733 3.4353 11.7662 3.42796C11.7554 3.41692 11.757 3.40311 11.7712 3.38914C11.813 3.3478 11.887 3.29467 11.9658 3.2551C11.5922 3.30335 11.2346 3.2823 11.1221 3.15713L11.1294 3.14477C11.2342 3.16597 11.3691 3.13973 11.5147 3.08437C11.0377 3.02195 10.5089 2.71747 10.5024 2.45274L10.5166 2.44861C10.6134 2.60267 10.7425 2.67598 11.0086 2.75645C10.7782 2.61047 10.6453 2.42911 10.6337 2.27899L10.6467 2.273C10.8348 2.45147 11.0589 2.59082 11.2647 2.63784C11.0943 2.52917 10.8925 2.28318 10.8342 2.10673L10.8465 2.0988C10.9766 2.21343 11.2782 2.37536 11.4873 2.43855C11.2969 2.28184 11.1086 2.02864 11.1202 1.89565L11.1333 1.89099C11.206 1.96297 11.3729 2.07858 11.632 2.22761C11.7926 2.31991 11.9149 2.36229 12.076 2.39146C12.0988 2.39559 12.1209 2.39927 12.1556 2.40484C12.2412 2.4186 12.2728 2.42389 12.3133 2.43208C12.2758 2.37886 12.2388 2.30937 12.2349 2.28651L12.2436 2.27784C12.3241 2.2892 12.4011 2.32444 12.595 2.44267C12.6885 2.4997 12.8027 2.53321 13.08 2.59642L13.0928 2.59934C13.3165 2.65037 13.416 2.67723 13.5121 2.71869C13.5622 2.74033 13.6208 2.75387 13.6906 2.76175C13.7379 2.76709 13.772 2.7689 13.8585 2.77189ZM14.0371 2.81143C14.0372 2.80999 14.0372 2.80854 14.0373 2.80708L14.0406 2.81368C14.0395 2.81291 14.0383 2.81216 14.0371 2.81143ZM11.1506 3.16356C11.262 3.17832 11.4004 3.14681 11.5483 3.08746L11.5462 3.07301C11.0869 3.02249 10.566 2.7359 10.5208 2.48268C10.6252 2.63308 10.7688 2.7037 11.0602 2.78736L11.0662 2.77364C10.8203 2.63178 10.674 2.44953 10.6513 2.29816C10.8519 2.48428 11.0906 2.62574 11.3061 2.66135L11.311 2.64728C11.1452 2.56057 10.9314 2.31307 10.8584 2.12859C11.0083 2.25004 11.3185 2.41125 11.5193 2.46321L11.526 2.45001C11.338 2.30533 11.1405 2.05152 11.1351 1.91374C11.2146 1.98728 11.3781 2.09899 11.6243 2.2406C11.7865 2.33383 11.9105 2.37679 12.0733 2.40627C12.0962 2.41041 12.1183 2.41411 12.1531 2.4197C12.2515 2.4355 12.2783 2.44009 12.3294 2.45077L12.3372 2.43891C12.3022 2.39279 12.2643 2.32536 12.2531 2.29457C12.3271 2.30739 12.4043 2.34413 12.587 2.45547C12.6825 2.51374 12.7973 2.54743 13.0765 2.61109L13.0893 2.614C13.3121 2.6648 13.411 2.69153 13.5059 2.73247C13.5576 2.7548 13.6176 2.76867 13.6889 2.77671C13.7367 2.78211 13.7711 2.78393 13.858 2.78693C13.9669 2.7907 14.0106 2.79556 14.0371 2.81143C14.0333 2.888 14.0368 2.94378 14.0502 2.98706C14.0187 3.10136 14.0356 3.1922 14.0867 3.24271C14.1355 3.29088 14.1442 3.30387 14.1501 3.34433C14.1576 3.39615 14.1803 3.44097 14.215 3.46847C14.2446 3.49186 14.2671 3.52979 14.2709 3.55591C14.2746 3.58179 14.3807 3.68562 14.4298 3.71485C14.4354 3.71814 14.4395 3.72286 14.4446 3.73151L14.4546 3.74897C14.4592 3.75696 14.4638 3.76384 14.4691 3.77086C14.4511 3.86039 14.4616 3.95492 14.4957 4.09125C14.3865 4.17539 14.2669 4.2102 14.1843 4.18461C14.1062 4.16041 14.0805 4.08714 14.1266 3.99375L14.115 3.98458C14.0219 4.05773 13.8883 4.10126 13.7776 4.10067C13.6706 4.10009 13.6194 4.05968 13.6527 3.99381L13.6434 3.98335C13.3697 4.07748 13.2325 4.0269 13.2802 3.9114L13.2703 3.90157C13.046 3.98957 12.868 3.93039 12.9119 3.84363L12.9031 3.83302C12.7167 3.8829 12.5533 3.86747 12.525 3.82269C12.5071 3.79426 12.5506 3.71822 12.6063 3.67328L12.5988 3.66039C12.5083 3.69289 12.4172 3.69825 12.3126 3.68278C12.2735 3.67695 12.256 3.66879 12.2525 3.65863C12.2499 3.65098 12.2514 3.64676 12.2657 3.61606L12.2679 3.61125C12.3069 3.52478 12.3214 3.49997 12.373 3.45258L12.3821 3.44442L12.3756 3.43138C12.1515 3.47478 11.9605 3.48237 11.8274 3.43837L11.8077 3.43215C11.7917 3.42697 11.782 3.42248 11.7772 3.41753C11.7727 3.41297 11.7733 3.40837 11.782 3.39976C11.8306 3.35175 11.9248 3.28674 12.0178 3.2477L12.0136 3.23333C11.6456 3.28675 11.2808 3.27369 11.1506 3.16356ZM11.1506 3.16356C11.1444 3.15831 11.1387 3.15285 11.1336 3.14716L11.1263 3.15951C11.1342 3.16112 11.1423 3.16246 11.1506 3.16356ZM12.2531 2.29457C12.2515 2.29032 12.2505 2.28676 12.2501 2.28406L12.2414 2.29274C12.2453 2.29329 12.2492 2.2939 12.2531 2.29457ZM11.1351 1.91374C11.1349 1.90793 11.135 1.90232 11.1355 1.89694L11.1224 1.9016C11.1264 1.90552 11.1306 1.90957 11.1351 1.91374ZM10.8584 2.12859C10.8548 2.11959 10.8516 2.11074 10.8487 2.10207L10.8363 2.11C10.8432 2.11608 10.8506 2.12228 10.8584 2.12859ZM10.6513 2.29816C10.6503 2.29132 10.6495 2.28455 10.649 2.27785L10.636 2.28384C10.6411 2.28864 10.6462 2.29341 10.6513 2.29816ZM10.5208 2.48268C10.519 2.47252 10.518 2.46242 10.5177 2.45238L10.5036 2.45652C10.5092 2.4655 10.515 2.47422 10.5208 2.48268Z" fill="black"/>
<path fill-rule="evenodd" clip-rule="evenodd" d="M15.6029 4.56654L15.602 4.55416C15.6104 4.54762 15.6074 4.53626 15.5846 4.51587C15.5307 4.46742 15.5125 4.43681 15.4865 4.36895C15.4794 4.35038 15.4751 4.34019 15.4692 4.32907C15.4592 4.31003 15.4468 4.29343 15.4292 4.2768C15.3471 4.19917 15.2751 4.08148 15.2511 3.98314C15.211 3.81942 15.1553 3.68902 15.0705 3.615C15.0125 3.5644 14.9909 3.43062 15.0059 3.25721C15.0077 3.23589 15.0091 3.21562 15.0102 3.19633L15.0151 3.19886L15.015 3.1995L15.0159 3.1993L15.0251 3.20399C15.0241 3.22139 15.0228 3.23953 15.0211 3.25847C15.0066 3.42739 15.0276 3.55739 15.0807 3.60374C15.1686 3.68046 15.2252 3.81302 15.266 3.97963C15.2893 4.07505 15.3597 4.19025 15.4398 4.26595C15.4586 4.28375 15.4721 4.30168 15.4828 4.32215C15.489 4.33393 15.4935 4.34456 15.5008 4.36364C15.5261 4.42948 15.5431 4.45819 15.5949 4.50474C15.6186 4.52594 15.6266 4.5443 15.6188 4.55789C15.616 4.55655 15.6133 4.55511 15.6107 4.55356L15.6115 4.56594C15.6147 4.56349 15.6171 4.5608 15.6188 4.55789C15.7116 4.6034 15.8326 4.52936 15.834 4.46067L15.8468 4.45527C15.9712 4.56775 16.1258 4.55853 16.1639 4.42969L16.1754 4.42547C16.2744 4.48841 16.4483 4.49534 16.4946 4.43403C16.5585 4.34994 16.521 4.28406 16.2622 4.12993L16.2681 4.11621C16.3489 4.13699 16.414 4.09818 16.4207 4.0317L16.4324 4.02613C16.5217 4.08295 16.5971 4.09453 16.7029 4.07289C16.7896 4.05516 16.7912 3.98995 16.7156 3.89374L16.7255 3.88259C16.8163 3.93351 16.9151 3.96126 16.9823 3.95467C17.0532 3.94771 17.0799 3.90497 17.051 3.82518L17.0597 3.81529C17.1659 3.83706 17.2501 3.83363 17.2742 3.79644C17.3033 3.75176 17.2473 3.6708 17.1035 3.5642L17.1073 3.55071C17.1448 3.54664 17.167 3.5413 17.1934 3.52979C17.3355 3.6002 17.6429 3.65637 17.7863 3.64618C17.9063 3.63777 17.945 3.58235 17.9234 3.45976C18.2311 3.40112 18.5143 3.30602 18.7017 3.17024C18.722 3.15555 18.7311 3.14891 18.7427 3.14019C18.7591 3.12778 18.7731 3.11666 18.7854 3.10611C18.8043 3.08981 18.8184 3.07529 18.8273 3.06277C18.8348 3.05866 18.842 3.05454 18.849 3.0504L18.8376 3.04224C18.8362 3.04832 18.8327 3.05518 18.8273 3.06277C18.6695 3.14918 18.3938 3.22924 17.922 3.34247L17.9178 3.328C18.3368 3.19301 18.9853 2.78198 19.0117 2.60625L19.0251 2.59452L19.0123 2.58968C19.0128 2.59494 19.0126 2.60047 19.0117 2.60625C18.9031 2.69931 18.75 2.77336 18.4943 2.87006L18.4222 2.89707L18.3509 2.92358L18.3443 2.91003C18.602 2.76307 18.8098 2.54736 18.8311 2.38174C18.8366 2.37503 18.8418 2.3682 18.8468 2.36123L18.8329 2.35681C18.8328 2.36498 18.8322 2.37329 18.8311 2.38174C18.7598 2.46866 18.6417 2.5356 18.4147 2.6358L18.3092 2.68229C18.2778 2.69628 18.2516 2.70826 18.2272 2.71979L18.2191 2.70711C18.3326 2.61885 18.3721 2.58745 18.4338 2.53473C18.55 2.43548 18.6386 2.34537 18.6982 2.26031C18.759 2.17348 18.7867 2.09549 18.7769 2.02719C18.7805 2.02159 18.784 2.01597 18.7873 2.01033L18.7732 2.00838C18.7748 2.01456 18.776 2.02083 18.7769 2.02719C18.6944 2.15537 18.535 2.27286 18.2796 2.41438C18.2391 2.43681 18.1377 2.49096 18.0664 2.52904L18.0663 2.52906L18.0663 2.52909L17.993 2.56833L17.9843 2.55605C18.147 2.41808 18.2387 2.29724 18.2479 2.14482L18.2608 2.13544L18.2486 2.12924L18.2479 2.14482C17.8997 2.3968 17.4724 2.57606 17.0248 2.68275L17.0207 2.67285L17.0191 2.66899C17.1281 2.60432 17.2424 2.48351 17.276 2.39779L17.2942 2.3859L17.2825 2.37785C17.2809 2.38424 17.2787 2.3909 17.276 2.39779C16.9481 2.60865 16.4603 2.75071 16.1033 2.77399C15.7803 2.79489 15.5712 2.82151 15.3186 2.8809C15.2705 2.83323 15.1285 2.83577 14.9518 2.88312L14.9429 2.87392L14.9395 2.88645L14.9518 2.88312C15.0132 2.9502 15.0319 3.03898 15.0263 3.17941L15.012 3.18217L15.0103 3.19304C15.0179 3.04171 14.9988 2.95095 14.932 2.8845L14.9354 2.87196C15.1231 2.81996 15.2747 2.81607 15.3222 2.8683C15.5685 2.80665 15.7785 2.77993 16.1023 2.75897C16.4634 2.73542 16.9603 2.5892 17.2857 2.37342L17.2974 2.38148C17.2769 2.46245 17.1731 2.58194 17.0647 2.65751C17.5 2.5488 17.9141 2.37074 18.2516 2.12337L18.2639 2.12958C18.2604 2.27836 18.1837 2.39616 18.0437 2.52399L18.0592 2.51574C18.1305 2.47766 18.2317 2.42362 18.2721 2.40126C18.5363 2.25485 18.6967 2.13452 18.774 2.00281L18.7881 2.00476C18.8076 2.08242 18.7795 2.17074 18.7108 2.26885C18.6503 2.35516 18.5609 2.44609 18.4438 2.5461C18.3923 2.59013 18.3562 2.61932 18.2801 2.67879L18.3029 2.66857L18.4085 2.62207C18.6503 2.51532 18.767 2.44678 18.8343 2.35258L18.8482 2.35699C18.8462 2.51737 18.6627 2.72684 18.4208 2.88147L18.4888 2.85601C18.7534 2.75595 18.9072 2.68039 19.0147 2.58342L19.0275 2.58826C19.0429 2.7476 18.4829 3.12188 18.0503 3.29576C18.4614 3.19435 18.7034 3.11921 18.8411 3.03751L18.8525 3.04567C18.8477 3.06584 18.8281 3.08925 18.7955 3.11743C18.7829 3.12823 18.7687 3.13955 18.752 3.15214C18.7403 3.16094 18.7311 3.16762 18.7107 3.18237C18.5211 3.31979 18.2361 3.41551 17.9323 3.46539C17.962 3.58768 17.917 3.65211 17.7874 3.6612C17.6413 3.67158 17.3312 3.6149 17.1939 3.54296C17.1761 3.55349 17.1565 3.55925 17.1276 3.56336C17.2666 3.66919 17.3214 3.75183 17.2871 3.80454C17.2591 3.84779 17.176 3.8528 17.0695 3.83258C17.0943 3.91395 17.0608 3.96209 16.9838 3.96965C16.9204 3.97587 16.8321 3.95356 16.7472 3.91121C16.808 4.0015 16.7982 4.06876 16.706 4.08762C16.6004 4.10923 16.5227 4.09868 16.4341 4.04499C16.4225 4.10315 16.3698 4.13982 16.3026 4.13666C16.5389 4.28147 16.575 4.35348 16.5069 4.44303C16.456 4.51028 16.2816 4.50516 16.1756 4.44327C16.1305 4.57203 15.9744 4.58227 15.8475 4.47595C15.8306 4.5526 15.7006 4.62304 15.6029 4.56654ZM15.3649 3.15436C15.3686 3.14455 15.3714 3.13394 15.3731 3.12252L15.3641 3.11401L15.0263 3.17941L15.0258 3.18969L15.0172 3.18504L15.0151 3.19886L15.0159 3.1993L15.0254 3.19741L15.0251 3.20399C15.1564 3.26857 15.3015 3.26483 15.3545 3.17589C15.4695 3.23712 15.6512 3.20711 15.7098 3.1213C15.8746 3.1798 16.0288 3.14468 16.0562 2.99641L16.0462 2.98794L15.7225 3.09674C15.7271 3.08409 15.7293 3.07051 15.7285 3.0561L15.3649 3.15436ZM15.3615 3.16249L15.3649 3.15436L15.3495 3.1585L15.3478 3.1722L15.3545 3.17589L15.3567 3.17211L15.3718 3.16764C15.48 3.21842 15.643 3.18958 15.7014 3.11824L15.7098 3.1213C15.711 3.11946 15.7122 3.1176 15.7134 3.11571L15.7268 3.11119C15.8743 3.15957 16.0075 3.12889 16.0384 3.00648L16.0512 3.00218L16.0412 2.99371C16.0404 2.99807 16.0394 3.00233 16.0384 3.00648L15.7268 3.11119C15.7238 3.11018 15.7207 3.10914 15.7176 3.10807C15.7195 3.10438 15.7211 3.1006 15.7225 3.09674L15.7136 3.09973C15.7194 3.0885 15.7227 3.07644 15.7231 3.06369L15.3718 3.16764C15.3683 3.16601 15.3648 3.16429 15.3615 3.16249ZM15.7104 3.10549C15.7128 3.10637 15.7152 3.10723 15.7176 3.10807C15.7163 3.11066 15.7149 3.11321 15.7134 3.11571L15.7061 3.11816L15.7062 3.11187C15.7077 3.10978 15.7091 3.10765 15.7104 3.10549ZM15.7104 3.10549C15.709 3.105 15.7077 3.1045 15.7064 3.104L15.7062 3.11187C15.7047 3.11403 15.7031 3.11615 15.7014 3.11824L15.7009 3.11807L15.7012 3.10391L15.7136 3.09973C15.7126 3.10168 15.7115 3.1036 15.7104 3.10549ZM15.3615 3.16249C15.36 3.16579 15.3584 3.169 15.3567 3.17211L15.3539 3.17292L15.3556 3.15922L15.3615 3.16249ZM15.0365 3.19518L15.0254 3.19741L15.0258 3.18969L15.0365 3.19518ZM15.3559 3.13128C15.3296 3.2493 15.1769 3.26454 15.0365 3.19518L15.3559 3.13128ZM15.3559 3.13128C15.3567 3.1277 15.3574 3.12403 15.358 3.12026L15.367 3.12906L15.3559 3.13128ZM17.0207 2.67285L17.0256 2.68711C17.0331 2.68449 16.8165 2.76133 16.7404 2.78739L16.675 2.80955C16.5222 2.86059 16.4072 2.89377 16.3342 2.90578L16.3306 2.89119L17.0207 2.67285ZM15.0103 3.19304L15.0102 3.19633L15.0098 3.19616L15.0103 3.19304ZM12.3213 2.44535C12.3701 2.51504 12.4981 2.61722 12.5786 2.64207C12.5845 2.69739 12.6083 2.75099 12.6484 2.79419L12.2839 2.67959L12.2742 2.68871C12.2827 2.71992 12.2971 2.74742 12.3157 2.7709L12.0646 2.67113C12.0854 2.67152 12.1082 2.67013 12.1331 2.66688L12.1372 2.65384L11.957 2.49367C11.9887 2.50072 12.0207 2.50619 12.0529 2.50997L12.0573 2.49581L11.3602 2.14319L11.3514 2.15535C11.5182 2.31061 11.7118 2.42924 11.9157 2.48358C11.9027 2.51241 11.8993 2.54907 11.909 2.58117L11.5204 2.44543L11.513 2.45833C11.5983 2.52744 11.7317 2.56833 11.9163 2.59967L11.9195 2.60551C11.936 2.63389 11.9642 2.65382 12.0044 2.66382C11.9973 2.6808 11.9939 2.69713 11.994 2.71245C11.8084 2.67787 11.691 2.66679 11.6424 2.68781C11.6171 2.69879 11.6003 2.71436 11.593 2.73229C11.5602 2.71978 11.5292 2.70931 11.4952 2.69903C11.4817 2.69495 11.4676 2.69087 11.4514 2.68632C11.4609 2.689 11.3479 2.65784 11.3096 2.64669L11.3095 2.64667L11.3095 2.64667L11.3095 2.64665L11.3052 2.66157L11.589 2.74786C11.5862 2.77403 11.6015 2.80349 11.6373 2.8305C11.65 2.84001 11.665 2.84911 11.6822 2.85779C11.6459 2.87485 11.6322 2.90273 11.6399 2.93258L11.0644 2.77285L11.0582 2.78645C11.2065 2.87895 11.392 2.92832 11.6472 2.95098C11.6541 2.96381 11.6649 2.97668 11.6793 2.9889C11.662 3.00865 11.6552 3.03086 11.6578 3.05348C11.6236 3.05241 11.5746 3.06097 11.5425 3.07414L11.5466 3.08903L11.6616 3.07079C11.6685 3.09248 11.6837 3.11407 11.7059 3.13373C11.8913 3.29809 12.3489 3.29492 12.7816 3.14728C12.7914 3.16871 12.8166 3.18345 12.857 3.19452C12.8733 3.19903 12.8899 3.20287 12.9067 3.20606L12.374 3.43181L12.3782 3.44617C12.5399 3.42287 12.7671 3.31945 12.9349 3.21079C12.9795 3.21726 13.0251 3.2193 13.0711 3.2172C13.0515 3.25313 13.048 3.29916 13.0622 3.33819L12.4988 3.53399L12.5035 3.54831C12.6891 3.49473 12.9315 3.41162 13.0684 3.35246C13.0853 3.3858 13.1166 3.41173 13.1636 3.41771L12.5983 3.66052L12.6033 3.67471C12.7354 3.64114 12.9973 3.52897 13.1977 3.42072C13.2552 3.42378 13.3186 3.4177 13.384 3.40448C13.3718 3.42934 13.3646 3.45386 13.3621 3.47716L12.8224 3.72539L12.8275 3.73951C12.991 3.6984 13.1387 3.62596 13.3612 3.49546C13.3614 3.53059 13.373 3.56222 13.3955 3.58708L12.9016 3.83122L12.9066 3.84532C12.9603 3.83428 13.0243 3.81047 13.097 3.77589C13.1369 3.75694 13.1787 3.73505 13.2222 3.71059C13.2845 3.67567 13.3334 3.64573 13.4074 3.59877C13.4324 3.62053 13.4673 3.63548 13.5115 3.64069C13.5166 3.64129 13.5217 3.64173 13.5269 3.64203L13.1227 3.82776L13.1275 3.84194C13.2173 3.82325 13.3031 3.78881 13.3954 3.73897C13.4163 3.72773 13.4587 3.70292 13.4966 3.6808L13.4966 3.6808L13.4966 3.6808L13.4967 3.68077L13.4967 3.68076L13.4967 3.68076C13.5261 3.66357 13.5528 3.64802 13.5643 3.64171C13.6104 3.63856 13.6618 3.62557 13.7161 3.60372C13.6919 3.64099 13.6789 3.67081 13.6769 3.69704L13.264 3.8995L13.2699 3.91334C13.3425 3.88848 13.5522 3.78352 13.6772 3.71444C13.6793 3.73191 13.6868 3.74804 13.6996 3.76418C13.7124 3.78029 13.7276 3.78903 13.7476 3.79058L13.4644 3.91988L13.4704 3.93369C13.5678 3.89517 13.7004 3.83485 13.8126 3.77834C13.8429 3.76753 13.88 3.74973 13.9266 3.72511C13.9633 3.70579 14.0065 3.67837 14.056 3.64359C14.069 3.63445 14.0824 3.62485 14.0962 3.61474C14.0856 3.6523 14.0851 3.68469 14.0934 3.7117L13.6396 3.98169L13.6463 3.99516C13.7679 3.94937 13.993 3.8112 14.0995 3.72723C14.1111 3.75179 14.1311 3.77106 14.1583 3.78483L13.843 3.98177L13.85 3.99506C13.9701 3.94515 14.1091 3.85712 14.1762 3.7927L14.1792 3.79383C14.2493 3.81946 14.3198 3.82024 14.3859 3.78611L14.1152 3.98559L14.1237 3.9981C14.2557 3.92125 14.4124 3.80766 14.4638 3.74728L14.4534 3.73642L14.4527 3.73689L14.4506 3.72531L14.1314 3.58863C14.149 3.57541 14.1674 3.56146 14.1874 3.54602L14.2521 3.49582L14.246 3.48251L14.0368 3.52049L14.1831 3.41062L14.1741 3.39839C14.1274 3.42923 14.0566 3.47964 13.9904 3.52892L13.8016 3.56322C13.9137 3.50247 14.0324 3.40894 14.1393 3.29017L14.1325 3.27772L13.8566 3.31633L13.8934 3.29242L13.977 3.23749C14.0087 3.21675 14.0341 3.20053 14.0582 3.1857L14.0502 3.17283L14.0501 3.17294L13.7857 3.32625L13.5416 3.36041C13.6918 3.3072 13.8352 3.22507 13.923 3.1377C13.9603 3.13264 13.9989 3.12554 14.0381 3.11623L14.0401 3.11661L14.04 3.11576L14.0433 3.11497L14.043 3.10027L13.5848 3.01399C13.614 3.01185 13.644 3.00842 13.6746 3.00358L13.6756 2.98892L13.1499 2.83778L13.1401 2.84464C13.1399 2.84982 13.1401 2.85494 13.1407 2.85999L12.5886 2.59581L12.5776 2.60219C12.5773 2.60798 12.5772 2.61377 12.5773 2.61956L12.3322 2.4351L12.3213 2.44535ZM12.5775 2.62583L12.5773 2.61956L12.5922 2.6308L12.5856 2.64406L12.5786 2.64207L12.5784 2.63934L12.5829 2.64276L12.5895 2.6295C12.5856 2.62849 12.5816 2.62726 12.5775 2.62583ZM12.535 2.6067L12.3809 2.49072C12.3618 2.47184 12.3455 2.45333 12.3339 2.43681L12.3229 2.44706L12.3809 2.49072C12.4249 2.53399 12.4838 2.5792 12.535 2.6067ZM12.535 2.6067C12.55 2.61477 12.5644 2.62131 12.5775 2.62583C12.5776 2.63034 12.5779 2.63485 12.5784 2.63934L12.535 2.6067ZM13.158 2.86824L13.1407 2.85999C13.1412 2.86345 13.1418 2.86688 13.1427 2.87027L13.1323 2.87272L12.5925 2.61445L12.5929 2.60297L12.5819 2.60935L12.5925 2.61445C12.5921 2.71989 12.6616 2.82441 12.7876 2.86164C12.8994 2.89465 13.0091 2.89874 13.1017 2.88108C13.0781 2.88803 13.0545 2.89611 13.0314 2.90508C12.9541 2.91011 12.8693 2.90146 12.7832 2.87606C12.7405 2.86343 12.7039 2.84342 12.6739 2.81836L12.6775 2.81557L12.675 2.80255L12.6484 2.79419C12.6528 2.79897 12.6575 2.80362 12.6623 2.80813L12.6562 2.81246L12.2931 2.69829C12.2916 2.69388 12.2902 2.68939 12.2889 2.68481L12.2792 2.69393L12.2931 2.69829C12.3088 2.74406 12.3386 2.78052 12.3757 2.80644L12.3406 2.79773L12.3403 2.79744L12.3437 2.79644L12.3443 2.78227L12.3157 2.7709C12.3196 2.77586 12.3238 2.78065 12.3281 2.78525L12.3181 2.78811L12.0187 2.66913L12.0196 2.66703C12.0334 2.66945 12.0484 2.67083 12.0646 2.67113L12.0176 2.65244L12.0078 2.65623L12.0044 2.66382L12.0133 2.66584L12.0119 2.6664L12.0187 2.66913C12.0119 2.68542 12.009 2.70106 12.0097 2.71562L12.0062 2.71475L12.0058 2.71465L11.994 2.71245C11.994 2.71776 11.9945 2.72296 11.9953 2.72802C11.8117 2.69365 11.6933 2.68226 11.6485 2.70159C11.5923 2.72605 11.5866 2.77327 11.6467 2.81855C11.6622 2.83023 11.6815 2.84128 11.7041 2.8517L11.7025 2.85131L11.6982 2.85147C11.6925 2.85337 11.6871 2.85548 11.6822 2.85779C11.6876 2.86054 11.6933 2.86324 11.6991 2.8659L11.6988 2.86592L11.6996 2.8661L11.7006 2.86658C11.6404 2.88769 11.6379 2.93788 11.6928 2.98107L11.6913 2.98086L11.6848 2.98301L11.6793 2.9889C11.683 2.99207 11.687 2.99521 11.6913 2.99829C11.6588 3.03499 11.6701 3.08185 11.7162 3.12255C11.8927 3.2791 12.331 3.27914 12.7514 3.14146L12.7808 3.14549L12.7816 3.14728L12.7869 3.14548L12.7854 3.13092L12.7852 3.13089L12.7862 3.11746L12.7776 3.11535C12.7796 3.10041 12.786 3.08316 12.7971 3.06313C12.814 3.03241 12.852 2.99942 12.9014 2.96894C12.9154 2.96663 12.9287 2.96414 12.9412 2.96147L12.9415 2.94682L12.9405 2.94657C12.9688 2.93151 12.9996 2.91746 13.0314 2.90508C13.057 2.90342 13.0818 2.90025 13.1055 2.89569C12.9746 2.93432 12.8445 3.00866 12.8105 3.0703C12.7752 3.13446 12.7902 3.16059 12.8611 3.18002C13.0671 3.23681 13.3124 3.18522 13.4998 3.05648L13.5075 3.06029C13.5087 3.0625 13.5101 3.06467 13.5115 3.06681C13.4351 3.11977 13.3492 3.1601 13.26 3.18573L13.0837 3.20254L13.0781 3.2058C13.0756 3.20946 13.0732 3.21327 13.0711 3.2172L13.0873 3.21628L13.0852 3.21752L13.0888 3.21717C13.0474 3.28129 13.0694 3.39083 13.166 3.40284C13.1746 3.40391 13.1835 3.40473 13.1924 3.40533L13.1636 3.41771L13.1641 3.41777L13.1699 3.41846C13.1033 3.45382 13.0307 3.48932 12.959 3.52204L12.7935 3.59314C12.7171 3.62374 12.6489 3.64756 12.5995 3.66013L12.6045 3.67432L12.7935 3.59314C12.8459 3.57214 12.9021 3.54796 12.959 3.52204L13.1952 3.42058L13.1977 3.42072L13.209 3.4146L13.2047 3.40598C13.2628 3.4084 13.3272 3.40142 13.3933 3.38716C13.39 3.39295 13.3869 3.39872 13.384 3.40448L13.4034 3.40038C13.3432 3.50952 13.3857 3.61069 13.5133 3.62575C13.528 3.62748 13.5435 3.62786 13.5598 3.62694L13.5269 3.64203L13.5327 3.64229L13.488 3.66833C13.465 3.68173 13.4406 3.69602 13.4203 3.70764L13.2103 3.80413C13.1818 3.81349 13.1533 3.82119 13.1244 3.82721L13.1292 3.8414L13.2103 3.80413C13.2686 3.78496 13.3268 3.75881 13.3881 3.72577C13.396 3.72146 13.4073 3.7151 13.4203 3.70764L13.5637 3.64175L13.5643 3.64171L13.5678 3.63989L13.5612 3.62686C13.6121 3.62374 13.6701 3.60793 13.7317 3.58083C13.726 3.58877 13.7208 3.59639 13.7161 3.60372C13.7246 3.60029 13.7332 3.59664 13.7419 3.59277C13.6865 3.67165 13.6786 3.71331 13.7117 3.75491C13.7294 3.77722 13.7552 3.78129 13.8006 3.7664L13.7476 3.79058L13.7534 3.79083C13.6544 3.83905 13.5469 3.88722 13.4647 3.91972L13.4708 3.93353L13.805 3.78099L13.8126 3.77834L13.8299 3.7696L13.824 3.75776C13.8499 3.74726 13.8813 3.73198 13.9194 3.71185C13.9554 3.69287 13.9981 3.66578 14.0471 3.63134C14.0642 3.61931 14.082 3.60646 14.1006 3.5927L14.1043 3.58994C14.1011 3.59845 14.0984 3.60671 14.0962 3.61474L14.1098 3.60474L14.1172 3.59923C14.0831 3.69402 14.1118 3.7533 14.1845 3.77971C14.2707 3.81123 14.3566 3.80314 14.4338 3.73454L14.4445 3.73911L14.4422 3.72681L14.4338 3.73454L14.1174 3.59905L14.1314 3.58863L14.116 3.582L14.1138 3.58288C14.134 3.56787 14.1548 3.55201 14.1779 3.53418L14.2183 3.50283L14.2487 3.49731L14.2426 3.48399L14.2183 3.50283L14.01 3.54068L14.0368 3.52049L14.0242 3.52279C14.0826 3.47976 14.1419 3.43776 14.1827 3.41089L14.1738 3.39866L14.0036 3.52653L13.9904 3.52892L13.9635 3.54912L13.7542 3.58714C13.7698 3.57984 13.7857 3.57186 13.8016 3.56322L13.7496 3.57266C13.8676 3.51717 13.9971 3.4216 14.1138 3.29554L14.1347 3.29263L14.1279 3.28019L14.1138 3.29554L13.826 3.33581L13.8566 3.31633L13.8254 3.3207L14.058 3.1858L14.0501 3.17294C14.0258 3.18786 14.0004 3.20414 13.9685 3.22495L13.8849 3.27989C13.8622 3.29475 13.8408 3.30854 13.8206 3.32137L13.7857 3.32625L13.7511 3.3463L13.4539 3.38788C13.4831 3.37992 13.5125 3.37071 13.5416 3.36041L13.4508 3.37311C13.6202 3.32683 13.7931 3.2378 13.8978 3.14083L13.923 3.1377L13.925 3.13569L13.9196 3.12464C13.9472 3.12087 13.9756 3.11595 14.0044 3.10979L14.0381 3.11623L14.04 3.11576L14.0397 3.10169C14.0278 3.1046 14.0161 3.1073 14.0044 3.10979L13.5172 3.01669C13.5391 3.01656 13.5617 3.01568 13.5848 3.01399L13.5192 3.00164C13.5569 3.00133 13.5965 2.99877 13.6374 2.99364L13.6713 3.00337L13.6722 2.98871C13.6605 2.99056 13.6489 2.9922 13.6374 2.99364L13.1556 2.8551C13.1553 2.85188 13.1552 2.84863 13.1554 2.84537L13.1456 2.85223L13.1556 2.8551C13.156 2.85953 13.1568 2.86391 13.158 2.86824ZM13.1591 2.87023L13.1592 2.86882L13.158 2.86824L13.1585 2.86992L13.1564 2.86888L13.1536 2.86854L13.1536 2.8684L13.1533 2.8685L13.1512 2.86825L13.1427 2.87027L13.143 2.87146L13.1345 2.87375L13.1323 2.87272C13.1222 2.87528 13.1119 2.87808 13.1017 2.88108C13.1129 2.87895 13.1238 2.8765 13.1345 2.87375L13.1454 2.87898L13.1477 2.88452C13.1337 2.88779 13.1196 2.89153 13.1055 2.89569C13.1201 2.89287 13.1344 2.88952 13.1482 2.88567C13.1712 2.93616 13.2413 2.97726 13.3403 2.99925L13.0292 3.09952L13.0325 3.11466C13.1732 3.09717 13.2534 3.06776 13.371 3.00557L13.3708 3.00526C13.3828 3.00732 13.395 3.00912 13.4076 3.01064L13.4998 3.05648L13.5042 3.05345C13.5052 3.05576 13.5063 3.05804 13.5075 3.06029L13.5112 3.06211L13.5101 3.04929L13.5042 3.05345C13.5023 3.04901 13.501 3.04445 13.5001 3.03976L13.5181 3.04868L13.5191 3.0615L13.5115 3.06681C13.5305 3.09451 13.5705 3.11619 13.6252 3.13006L13.5654 3.15662L13.26 3.18573C13.2039 3.20185 13.1466 3.21215 13.0895 3.21613L13.0908 3.21426L13.0873 3.21628L13.0895 3.21613L13.0888 3.21717L13.522 3.17588L13.2608 3.29192L13.2663 3.30596C13.371 3.27356 13.4864 3.22322 13.5883 3.16956L13.8344 3.1461C13.855 3.14502 13.8762 3.14328 13.8978 3.14083L13.8988 3.13997L13.9203 3.13791L13.9142 3.12537L13.9196 3.12464L13.9188 3.12293L13.802 3.13406C13.6244 3.1377 13.5016 3.08868 13.5157 3.01669L13.5172 3.01669L13.5157 3.0164C13.5161 3.01423 13.5167 3.01203 13.5174 3.00981L13.5086 3.01505L13.5157 3.0164L13.5157 3.01669L13.5001 3.01663C13.5007 3.01293 13.5016 3.00917 13.5028 3.00536L13.509 3.00166L13.5192 3.00164L13.5115 3.00019L13.509 3.00166C13.4751 3.00158 13.4427 2.99965 13.4123 2.99612L13.1591 2.87023ZM13.159 2.87155L13.1591 2.87023L13.1585 2.86992L13.159 2.87155ZM13.1689 2.89197C13.1646 2.88533 13.1612 2.87852 13.159 2.87155L13.1581 2.88279L13.1533 2.88421L13.1519 2.88354L13.1546 2.88293L13.1494 2.88231L13.1519 2.88354L13.1477 2.88452L13.1482 2.88567L13.1533 2.88421L13.1689 2.89197ZM13.3637 2.9888C13.3792 2.99171 13.3955 2.99416 13.4123 2.99612L13.4495 3.0146C13.4352 3.01361 13.4212 3.01229 13.4076 3.01064L13.3637 2.9888ZM13.1689 2.89197L13.3637 2.9888C13.2673 2.97078 13.197 2.93532 13.1689 2.89197ZM13.4495 3.0146L13.5001 3.03976C13.4988 3.03235 13.4987 3.02463 13.5001 3.01663C13.4828 3.01641 13.4659 3.01573 13.4495 3.0146ZM13.9138 3.12542L13.9141 3.12516L13.9142 3.12537L13.9138 3.12542ZM13.9138 3.12542C13.8748 3.13054 13.8373 3.13334 13.802 3.13406L13.7033 3.14347C13.6846 3.14154 13.6668 3.13892 13.6502 3.13566L13.6519 3.13464L13.6449 3.12127L13.6252 3.13006L13.6281 3.13079C13.6137 3.13885 13.5989 3.14689 13.5838 3.15486L13.5654 3.15662L13.522 3.17588L13.5479 3.17341C13.4554 3.22013 13.3542 3.26298 13.2617 3.2916L13.2671 3.30564L13.5694 3.17137L13.5883 3.16956C13.5999 3.16347 13.6113 3.15733 13.6225 3.15118L13.7033 3.14347C13.7431 3.14757 13.7872 3.14858 13.8344 3.1461L13.8988 3.13997C13.904 3.13514 13.909 3.13029 13.9138 3.12542ZM13.6127 3.15211L13.6225 3.15118L13.6502 3.13566L13.6499 3.1356L13.6512 3.13499L13.6442 3.12163L13.6281 3.13079C13.6351 3.13252 13.6424 3.13413 13.6499 3.1356L13.6127 3.15211ZM13.6127 3.15211L13.5838 3.15486C13.572 3.1611 13.56 3.16729 13.5479 3.17341L13.5694 3.17137L13.6127 3.15211ZM13.3693 3.00499L13.3708 3.00526L13.3651 2.99126L13.3403 2.99925L13.3469 3.00067C13.3172 3.01603 13.2897 3.0292 13.2627 3.04056L13.1368 3.08115C13.1048 3.08843 13.0701 3.09429 13.0306 3.0992L13.0339 3.11433L13.1368 3.08115C13.1819 3.0709 13.2218 3.05782 13.2627 3.04056L13.3697 3.00607L13.3693 3.00499ZM13.3693 3.00499C13.3617 3.00366 13.3542 3.00222 13.3469 3.00067L13.3639 2.99176L13.3693 3.00499ZM13.1454 2.87898C13.1445 2.87649 13.1437 2.87399 13.143 2.87146L13.1533 2.8685L13.1536 2.86854L13.1525 2.88236L13.1454 2.87898ZM13.4067 3.39448L13.4034 3.40038C13.4201 3.39665 13.437 3.39248 13.4539 3.38788L13.4067 3.39448ZM13.4067 3.39448L13.4085 3.39137L13.403 3.39499L13.4067 3.39448ZM13.7893 3.34095L13.7511 3.3463L13.5499 3.46295L13.5565 3.47648C13.6395 3.44591 13.7173 3.40452 13.826 3.33581L13.7908 3.34074L13.8254 3.3207L13.8206 3.32137L13.7893 3.34095ZM13.768 3.35394L13.7893 3.34095L13.7908 3.34074L13.768 3.35394ZM13.768 3.35394C13.744 3.36851 13.7214 3.38161 13.6998 3.3935L13.768 3.35394ZM13.6998 3.3935C13.6469 3.42263 13.5999 3.44443 13.5511 3.46238L13.5577 3.47592L13.6998 3.3935ZM13.7446 3.58888L13.7419 3.59277L13.7542 3.58714L13.7446 3.58888ZM13.7446 3.58888L13.7464 3.58637L13.7416 3.58944L13.7446 3.58888ZM13.9767 3.54672L13.9635 3.54912C13.9028 3.59494 13.8496 3.63723 13.8279 3.65862L13.838 3.66991L14.01 3.54068L13.9968 3.54307L14.0242 3.52279L14.0036 3.52653L13.9767 3.54672ZM13.9767 3.54672L13.8287 3.65795L13.8388 3.66924C13.8627 3.64557 13.9269 3.59518 13.9968 3.54307L13.9767 3.54672ZM14.1173 3.59899L14.1172 3.59923L14.1174 3.59905L14.1173 3.59899ZM14.1173 3.59899L14.1201 3.59158L14.1098 3.5958L14.1173 3.59899ZM14.1138 3.58288L14.1043 3.58994L14.1057 3.58622L14.1138 3.58288ZM13.8237 3.75788L13.824 3.75776L13.8231 3.75609L13.8006 3.7664L13.8074 3.76407C13.7898 3.77292 13.7718 3.78188 13.7534 3.79083C13.7679 3.79096 13.7848 3.78767 13.805 3.78099L13.8296 3.76975L13.8237 3.75788ZM13.8237 3.75788L13.8228 3.75624L13.8074 3.76407C13.8126 3.76223 13.818 3.76017 13.8237 3.75788ZM13.7496 3.57266L13.7317 3.58083L13.7339 3.5777L13.7388 3.57463L13.7496 3.57266ZM13.5608 3.62688L13.5612 3.62686L13.561 3.6264L13.5599 3.62693L13.5607 3.62655L13.5608 3.62688ZM13.5608 3.62688L13.5599 3.62693C13.555 3.62951 13.5453 3.63505 13.5327 3.64229C13.5428 3.64264 13.5531 3.64246 13.5637 3.64175L13.5674 3.64004L13.5608 3.62688ZM13.4508 3.37311C13.4315 3.37836 13.4124 3.38306 13.3933 3.38716L13.3954 3.38371L13.4009 3.38009L13.4508 3.37311ZM13.2039 3.40594L13.2084 3.41491L13.1952 3.42058C13.1866 3.42008 13.1782 3.41937 13.1699 3.41846L13.1943 3.40542L13.2039 3.40594ZM13.2039 3.40594L13.2047 3.40598L13.2022 3.40112L13.1924 3.40533L13.1943 3.40542L13.2016 3.40143L13.2039 3.40594ZM12.938 2.94792L12.9405 2.94657L12.5884 2.85922C12.619 2.85145 12.6482 2.83796 12.6739 2.81836L12.67 2.81504L12.6678 2.80386L12.6623 2.80813L12.67 2.81504L12.6703 2.81689L12.6562 2.81246C12.6254 2.8337 12.5898 2.84614 12.5531 2.85045L12.3757 2.80644C12.3935 2.81886 12.4131 2.82886 12.4335 2.83631L12.3691 2.82033C12.3591 2.8135 12.3496 2.80596 12.3406 2.79773L12.3399 2.79756L12.3403 2.79744L12.3386 2.79581L12.3392 2.78205L12.3281 2.78525C12.3315 2.78888 12.335 2.7924 12.3386 2.79581L12.3386 2.79622L12.3181 2.78811L12.3103 2.7902L12.0097 2.71562C12.01 2.72116 12.0108 2.72654 12.0121 2.73175L12.0027 2.7294L12.0029 2.72944L12.0025 2.72934L12.0027 2.7294L11.9953 2.72802C12.0088 2.80757 12.1241 2.85329 12.3103 2.80574L12.3691 2.82033C12.422 2.85633 12.4884 2.87246 12.552 2.86571L12.9044 2.95315C12.7064 2.98697 12.3614 2.98243 12.0764 2.94314L11.7041 2.8517C11.7907 2.89162 11.9251 2.92228 12.0764 2.94314L12.1955 2.97238C12.1539 2.96822 12.1129 2.96337 12.0731 2.95784L11.701 2.86645L11.7031 2.86575L11.6991 2.8659L11.6996 2.8661L11.701 2.86645L11.7006 2.86658C11.7888 2.9064 11.9228 2.93697 12.0731 2.95784L12.7367 3.12081L12.7186 3.12176L11.6928 2.98107C11.7013 2.98768 11.711 2.99413 11.7221 3.00029L11.6931 2.9963L11.6957 2.99362L11.6892 2.99577L11.6931 2.9963L11.6913 2.99829C11.7088 3.01101 11.7306 3.02278 11.7565 3.03278C11.9351 3.10165 12.4295 3.15017 12.7179 3.13686L12.7514 3.14146L12.7767 3.13302L12.7775 3.13295C12.7781 3.13736 12.7792 3.14154 12.7808 3.14549L12.7833 3.14583L12.7819 3.13254L12.7851 3.13225L12.7852 3.13089L12.7826 3.13053L12.7836 3.11727L12.7773 3.11785L12.7776 3.11535L12.1955 2.97238C12.4508 2.99793 12.7285 2.99744 12.9014 2.96894C12.9078 2.965 12.9143 2.96111 12.921 2.95727L12.9377 2.96141L12.938 2.94792ZM12.938 2.94792L12.921 2.95727L12.9044 2.95315C12.9161 2.95116 12.9273 2.94902 12.938 2.94676L12.938 2.94792ZM12.7771 3.12978C12.7768 3.12598 12.7769 3.12201 12.7773 3.11785C12.7644 3.11901 12.7508 3.11999 12.7367 3.12081L12.7682 3.12856L12.7186 3.12176C12.6891 3.12314 12.6574 3.12387 12.6241 3.12399L11.7221 3.00029C11.7339 3.00683 11.7473 3.01304 11.7621 3.01876C11.9205 3.07985 12.3341 3.12502 12.6241 3.12399L12.7179 3.13686C12.7386 3.1359 12.7583 3.13463 12.7767 3.13302L12.7774 3.13276L12.7775 3.13295L12.7819 3.13254L12.7819 3.13192L12.7825 3.13207L12.7826 3.13053L12.7771 3.12978ZM12.7772 3.13077L12.7771 3.12978L12.7682 3.12856L12.7772 3.13077ZM12.7807 3.13164L12.7774 3.13276L12.7772 3.13077L12.7807 3.13164ZM12.7807 3.13164L12.7819 3.13192L12.7818 3.13127L12.7807 3.13164ZM12.4873 2.84965L12.4335 2.83631C12.4509 2.84262 12.469 2.84709 12.4873 2.84965ZM12.4873 2.84965L12.552 2.86571C12.5643 2.8644 12.5765 2.86225 12.5884 2.85922L12.5531 2.85045C12.5313 2.853 12.5091 2.85269 12.4873 2.84965ZM12.2785 2.79783C12.2888 2.7956 12.2994 2.79306 12.3103 2.7902L12.3399 2.79756C12.3299 2.80054 12.32 2.80327 12.3103 2.80574L12.2785 2.79783ZM12.2785 2.79783L12.0121 2.73175C12.0284 2.79499 12.1225 2.83142 12.2785 2.79783ZM12.0133 2.66584L12.0196 2.66703L12.0217 2.66261L12.0133 2.66584ZM14.4525 3.738L14.4529 3.73762L14.4527 3.73689L14.3859 3.78611C14.4073 3.77507 14.4282 3.76038 14.4485 3.7417C14.395 3.80145 14.2435 3.91083 14.1159 3.98514L14.1243 3.99764L14.4625 3.74847L14.4525 3.738ZM14.4525 3.738L14.4485 3.7417L14.4521 3.73761L14.4525 3.738ZM14.175 3.79224L14.1762 3.7927L14.1803 3.7887L14.1708 3.77704L14.1583 3.78483L14.161 3.78617C14.1344 3.81092 14.0975 3.83904 14.0553 3.86698L13.9936 3.9055C13.9448 3.93426 13.8928 3.96093 13.8441 3.98119L13.8512 3.99448L13.9936 3.9055C14.015 3.89294 14.0357 3.87998 14.0553 3.86698L14.175 3.79224ZM14.175 3.79224L14.179 3.78975L14.1694 3.77809L14.161 3.78617C14.1655 3.78834 14.1701 3.79036 14.175 3.79224ZM14.0989 3.72604L14.0995 3.72723L14.1074 3.72092L14.0985 3.70867L14.0934 3.7117L14.0937 3.71247C14.0508 3.74669 13.9866 3.79077 13.9176 3.83392L13.8104 3.89764C13.747 3.93342 13.6864 3.96393 13.6408 3.9811L13.6475 3.99457L13.8104 3.89764C13.846 3.87758 13.8824 3.85587 13.9176 3.83392L14.0989 3.72604ZM14.0989 3.72604C14.0969 3.72168 14.0952 3.71716 14.0937 3.71247L14.0976 3.7093L14.1065 3.72155L14.0989 3.72604ZM13.6771 3.71374L13.6772 3.71444L13.6887 3.70805L13.6815 3.69477L13.6769 3.69704L13.6769 3.69735C13.5537 3.76586 13.3377 3.87418 13.2649 3.89913L13.2708 3.91297L13.6771 3.71374ZM13.6771 3.71374C13.6765 3.70842 13.6764 3.70297 13.6769 3.69735L13.6812 3.69496L13.6884 3.70824L13.6771 3.71374ZM13.4068 3.5983L13.4074 3.59877L13.413 3.59522L13.4054 3.58218L13.3955 3.58708L13.3962 3.58793C13.3459 3.61988 13.3072 3.64389 13.2676 3.66715L12.9847 3.80703C12.9553 3.81757 12.9282 3.8255 12.9035 3.83058L12.9085 3.84468L12.9847 3.80703C13.0173 3.79529 13.0526 3.78029 13.0903 3.76234C13.1299 3.74355 13.1714 3.72182 13.2147 3.69752C13.2331 3.68715 13.2504 3.67722 13.2676 3.66715L13.4068 3.5983ZM13.4068 3.5983C13.4031 3.595 13.3995 3.59154 13.3962 3.58793L13.4047 3.58258L13.4123 3.59563L13.4068 3.5983ZM13.3612 3.49421L13.3612 3.49546L13.3714 3.4895L13.3642 3.47622L13.3621 3.47716L13.3621 3.47739C13.3085 3.50894 13.2592 3.53713 13.2131 3.56233L12.9258 3.69446C12.8918 3.7062 12.8581 3.71627 12.8237 3.72492L12.8288 3.73903L12.9258 3.69446C13.015 3.66356 13.1055 3.62106 13.2131 3.56233L13.3612 3.49421ZM13.3612 3.49421L13.3707 3.48986L13.3635 3.47658L13.3621 3.47739C13.3615 3.48308 13.3612 3.48868 13.3612 3.49421ZM13.0682 3.35208L13.0684 3.35246L13.0738 3.3501L13.0682 3.33613L13.0622 3.33819L13.0624 3.33861C12.9263 3.39748 12.6842 3.48043 12.4992 3.53387L12.5039 3.54819L13.0682 3.35208ZM13.0682 3.35208C13.066 3.34771 13.0641 3.34321 13.0624 3.33861L13.0676 3.33634L13.0733 3.35032L13.0682 3.35208ZM12.9344 3.21071L12.9349 3.21079L12.9368 3.20956L12.9296 3.19637L12.9067 3.20606L12.9126 3.20715C12.8893 3.22188 12.865 3.23647 12.84 3.25074L12.4486 3.4166C12.4233 3.423 12.3989 3.42797 12.376 3.43128L12.3801 3.44564L12.4486 3.4166C12.5699 3.38597 12.7141 3.32248 12.84 3.25074L12.9344 3.21071ZM12.9344 3.21071C12.9271 3.20964 12.9198 3.20846 12.9126 3.20715L12.9284 3.197L12.9356 3.2102L12.9344 3.21071ZM11.6611 3.06916L11.6616 3.07079L11.669 3.06962L11.6686 3.0542C11.6652 3.05384 11.6616 3.0536 11.6578 3.05348L11.6581 3.05558L11.5442 3.07363L11.5483 3.08853C11.5796 3.07566 11.6291 3.06734 11.6611 3.06916ZM11.6611 3.06916C11.6597 3.06463 11.6587 3.0601 11.6581 3.05558L11.6667 3.05422L11.667 3.06964L11.6611 3.06916ZM11.6468 2.95014L11.6472 2.95098L11.6517 2.95137L11.6545 2.93663L11.6399 2.93258L11.6406 2.93527C11.6144 2.93286 11.5888 2.93017 11.564 2.92717L11.1182 2.80341C11.1004 2.79406 11.0832 2.78417 11.0664 2.77374L11.0602 2.78734L11.1182 2.80341C11.2375 2.86621 11.3812 2.90504 11.564 2.92717L11.6468 2.95014ZM11.6468 2.95014C11.6442 2.94516 11.6421 2.94019 11.6406 2.93527L11.6531 2.93638L11.6503 2.95112L11.6468 2.95014ZM11.589 2.74741L11.589 2.74786L11.595 2.74968L11.5999 2.73496L11.593 2.73229L11.5928 2.73277L11.3096 2.64669L11.3095 2.64667L11.3052 2.6616C11.3435 2.67275 11.4569 2.70402 11.4473 2.70131C11.4634 2.70584 11.4774 2.70989 11.4908 2.71394C11.525 2.72427 11.5561 2.73479 11.589 2.74741ZM11.589 2.74741L11.5945 2.7495L11.5994 2.73478L11.5928 2.73277C11.5909 2.7375 11.5896 2.74239 11.589 2.74741ZM11.9158 2.59858L11.9163 2.59967L11.9168 2.59976L11.9207 2.58525L11.909 2.58117L11.9096 2.58325C11.878 2.57776 11.8478 2.57197 11.8192 2.56579L11.5683 2.47812C11.5517 2.46834 11.5365 2.4579 11.5227 2.44671L11.5153 2.45961L11.5683 2.47812C11.6316 2.51555 11.7152 2.54328 11.8192 2.56579L11.9156 2.59943L11.9158 2.59858ZM11.9158 2.59858C11.9134 2.59364 11.9113 2.58851 11.9096 2.58325L11.9194 2.58492L11.9158 2.59858ZM11.9313 2.47206L11.9206 2.47379C11.9188 2.47693 11.9172 2.4802 11.9157 2.48358L11.9257 2.48621L11.9297 2.48969C11.9151 2.52205 11.9141 2.56609 11.9328 2.59802C11.9584 2.64196 12.0174 2.6636 12.1144 2.65389L12.1269 2.66501L12.131 2.65196L12.1144 2.65389L11.9297 2.48969L11.9307 2.48746C11.9394 2.48965 11.9482 2.49172 11.957 2.49367L11.9332 2.47255C11.9585 2.47892 11.984 2.48428 12.0095 2.48858L12.0503 2.50919L12.0547 2.49503C12.0396 2.49325 12.0246 2.4911 12.0095 2.48858L11.404 2.18228C11.3898 2.16992 11.3758 2.1573 11.362 2.14442L11.3532 2.15657L11.404 2.18228C11.5624 2.32013 11.7428 2.42418 11.9313 2.47206ZM11.9313 2.47206L11.9324 2.47187L11.9332 2.47255L11.9313 2.47206ZM11.9307 2.48746L11.9257 2.48621L11.9222 2.48304L11.934 2.48111L11.9307 2.48746ZM14.4587 3.85055C14.4271 3.89212 14.3476 3.98424 14.297 4.03767L14.3084 4.04768L14.4706 3.85993L14.4587 3.85055ZM14.459 3.85018L14.4709 3.85956C14.439 3.9016 14.3591 3.99413 14.3082 4.04793L14.2967 4.03793L14.459 3.85018ZM17.0205 2.67292C17.0134 2.67545 16.8088 2.74803 16.7354 2.77318L16.6701 2.79529C16.5181 2.84608 16.4036 2.8791 16.3316 2.89093L16.3352 2.90552L17.0254 2.68718L17.0205 2.67292Z" fill="black"/>
<path fill-rule="evenodd" clip-rule="evenodd" d="M14.0647 2.61442C14.0878 2.60241 14.0992 2.59901 14.1251 2.59417C14.1316 2.59296 14.1355 2.59211 14.1397 2.59091C14.1561 2.58625 14.1702 2.57728 14.189 2.55849C14.1999 2.54752 14.2115 2.53643 14.2235 2.5253L14.6549 2.28328C14.6757 2.30282 14.6994 2.30804 14.7354 2.29483C14.7609 2.28541 14.7738 2.26721 14.7788 2.24101C14.7802 2.23354 14.7807 2.22875 14.7818 2.21497L14.782 2.21197L14.8255 2.18756C14.8343 2.18698 14.8434 2.18682 14.8529 2.18705L14.8533 2.172L14.8255 2.18756C14.8128 2.1884 14.8005 2.19008 14.7881 2.19265L14.7875 2.19278L14.7862 2.17769L14.7686 2.19639L14.7841 2.17887L14.7861 2.17769C14.7837 2.17791 14.7816 2.17835 14.7797 2.17905C14.7607 2.18332 14.7408 2.18959 14.7152 2.19911C14.6983 2.20539 14.6252 2.23423 14.6259 2.23394C14.5126 2.278 14.311 2.41657 14.1836 2.54239L14.1227 2.5793L14.1223 2.57938C14.095 2.58448 14.0822 2.58827 14.0575 2.60112L14.0647 2.61442ZM14.1298 2.57787L14.1227 2.5793L14.0647 2.61442L14.1298 2.57787ZM14.1709 2.5548L14.1781 2.54794L14.1836 2.54239L14.2471 2.50398C14.2391 2.51109 14.2312 2.5182 14.2235 2.5253L14.1709 2.5548ZM14.6199 2.25266C14.5221 2.29405 14.3662 2.39866 14.2471 2.50398L14.6397 2.26632L14.6458 2.27362L14.6458 2.27362L14.6472 2.27523C14.6497 2.27813 14.6523 2.28082 14.6549 2.28328L14.6692 2.27529C14.6849 2.28814 14.7024 2.29044 14.7302 2.28023C14.7501 2.27288 14.7597 2.2593 14.7638 2.23804C14.7648 2.23277 14.7653 2.22888 14.7659 2.22099L14.782 2.21197C14.7833 2.19725 14.7847 2.1934 14.7875 2.19315L14.7875 2.19278L14.7763 2.19489L14.7705 2.19597L14.7686 2.19639C14.7694 2.19231 14.7704 2.18901 14.7717 2.18639L14.7841 2.17887L14.785 2.17792L14.7797 2.17905C14.7761 2.18041 14.7736 2.18276 14.7717 2.18639L14.7386 2.20642C14.7237 2.21203 14.7011 2.22085 14.6646 2.23507L14.6646 2.23507L14.6403 2.24455C14.6323 2.23801 14.6241 2.23626 14.6146 2.24057L14.6199 2.25266ZM14.653 2.25824L14.6397 2.26632C14.6369 2.26312 14.6343 2.26001 14.6331 2.25885C14.628 2.25378 14.6251 2.25281 14.6209 2.25473L14.6199 2.25266L14.6316 2.24794L14.6403 2.24455L14.6438 2.24779C14.6456 2.24953 14.6496 2.25421 14.653 2.25824ZM14.653 2.25824L14.6583 2.26449L14.6583 2.26449L14.6586 2.26491C14.6621 2.2689 14.6656 2.27237 14.6692 2.27529L14.7659 2.22099L14.7665 2.21376C14.767 2.20682 14.7677 2.20108 14.7686 2.19639C14.7626 2.19774 14.7557 2.19997 14.7386 2.20642L14.653 2.25824ZM14.1709 2.5548L14.1298 2.57787L14.1355 2.57645C14.1471 2.57313 14.1575 2.56712 14.1709 2.5548ZM17.3733 2.97112L17.3662 2.97372L17.3609 2.95959L17.3732 2.95512C17.3736 2.96027 17.3736 2.96561 17.3733 2.97112ZM17.3149 3.10475C17.3382 3.0769 17.3597 3.03708 17.3687 3.00084C17.3712 2.99047 17.3728 2.98054 17.3733 2.97112C17.7073 2.84988 17.8936 2.77191 18.1177 2.64491C18.2335 2.57927 18.3411 2.50838 18.4403 2.4311L18.4308 2.4193C18.3322 2.4961 18.2252 2.56659 18.11 2.63187C17.8881 2.75767 17.7031 2.83523 17.3732 2.95512C17.3708 2.92457 17.3558 2.90076 17.327 2.8869C17.6191 2.79361 17.8923 2.66806 17.9969 2.56714L17.9862 2.55639C17.8813 2.65755 17.6005 2.78532 17.3033 2.87855C17.312 2.8807 17.3199 2.8835 17.327 2.8869L17.3037 2.89424L17.2996 2.89315L17.3033 2.87855C17.216 2.90592 17.1274 2.93031 17.0413 2.95018C17.0213 2.94073 16.997 2.93273 16.9684 2.92632C16.7855 2.88539 16.5103 2.9287 16.342 3.02399C16.3193 3.01838 16.2969 3.01323 16.2749 3.00862C16.326 2.96389 16.3528 2.90649 16.3319 2.85258L16.3176 2.85793C16.3599 2.96721 16.1728 3.09935 16.0122 3.06957L16.0094 3.08437C16.098 3.1008 16.1943 3.07075 16.2598 3.0209C16.3408 3.03729 16.4295 3.06149 16.5088 3.08876L16.509 3.08975L16.5108 3.08944C16.604 3.1216 16.6841 3.15797 16.7236 3.19085C16.7691 3.22875 16.7931 3.26244 16.7916 3.28818C16.7901 3.31643 16.7568 3.33817 16.6858 3.35052C16.5974 3.36597 16.5407 3.36987 16.4619 3.36145L16.416 3.35282L16.4154 3.35549C16.3862 3.3512 16.3535 3.34556 16.3153 3.33854C16.2068 3.26335 16.0403 3.18941 15.8683 3.13127L15.8634 3.14551C16.0328 3.20278 16.1973 3.27579 16.3042 3.34928L16.3038 3.35172L16.3092 3.35273C16.3398 3.37408 16.3654 3.39545 16.3848 3.41646C16.4318 3.46748 16.4258 3.50134 16.3743 3.52086C16.3234 3.54013 16.233 3.5423 16.1293 3.52692C15.9344 3.4979 15.6108 3.33513 15.4464 3.19082L15.4362 3.20205C15.5355 3.28924 15.6917 3.38281 15.8436 3.45038L15.8432 3.45079C15.8806 3.48788 15.9155 3.54195 15.931 3.59115C15.9456 3.63727 15.9268 3.6598 15.8837 3.65644C15.8259 3.6521 15.7833 3.64226 15.7276 3.6162L15.7253 3.62083C15.6987 3.59086 15.6628 3.56229 15.6175 3.53799C15.4939 3.47156 15.3328 3.33199 15.2579 3.22961L15.2454 3.23841C15.3217 3.34261 15.4845 3.4837 15.6102 3.5512C15.7523 3.62749 15.7958 3.74458 15.7525 3.80648C15.7142 3.86124 15.5865 3.86842 15.4591 3.79404C15.3068 3.70504 15.1309 3.42217 15.1073 3.2229L15.0921 3.22464C15.1162 3.42844 15.2948 3.71551 15.4512 3.80698C15.4767 3.82185 15.5023 3.8336 15.5273 3.84246C15.5389 3.87384 15.5436 3.913 15.5407 3.97418C15.537 4.05088 15.4796 4.1027 15.4096 4.07672C15.3405 4.05112 15.2872 3.99417 15.2515 3.92338L15.2378 3.93007C15.275 4.00397 15.3309 4.06365 15.4042 4.09081C15.4234 4.09794 15.4419 4.1 15.4588 4.09784C15.5002 4.18413 15.5229 4.24744 15.5201 4.27047C15.5157 4.30518 15.5065 4.31577 15.4742 4.30838L15.4707 4.32304C15.5141 4.33295 15.5299 4.3147 15.5352 4.27232C15.5386 4.24553 15.5161 4.18235 15.4742 4.09463C15.4828 4.09212 15.4909 4.08846 15.4984 4.08381C15.5567 4.15949 15.5993 4.2134 15.6519 4.27574C15.6677 4.29444 15.683 4.31224 15.6979 4.32906C15.7531 4.3915 15.8001 4.43859 15.8369 4.46677L15.8463 4.45489C15.8105 4.42745 15.7641 4.38094 15.7095 4.31918C15.6947 4.30245 15.6794 4.28474 15.6637 4.26613C15.6113 4.20405 15.5688 4.15031 15.5107 4.07487C15.537 4.05273 15.554 4.01689 15.556 3.97489C15.5578 3.93791 15.5568 3.90848 15.5532 3.88372C15.7049 4.05601 16.0614 4.37935 16.1675 4.43836L16.175 4.42526C16.0664 4.36489 15.686 4.01822 15.5474 3.85376L15.547 3.85403L15.5454 3.84839C15.6343 3.87525 15.714 3.86528 15.7534 3.82849C15.8423 3.94267 16.1194 4.10297 16.2624 4.12982L16.2652 4.11503C16.1248 4.08865 15.8478 3.92799 15.7637 3.81698L15.7651 3.81501C15.7911 3.77791 15.7901 3.72485 15.7611 3.67122C15.8621 3.75428 16.032 3.87675 16.1893 3.98409L16.198 3.97172C16.0299 3.85698 15.847 3.72469 15.7504 3.64256C15.7947 3.66016 15.8335 3.66777 15.8825 3.67145C15.9052 3.67322 15.9232 3.66842 15.9351 3.65803C16.042 3.76734 16.3169 3.98743 16.4261 4.04042L16.4329 4.02692C16.325 3.97459 16.0493 3.75369 15.9446 3.64611C15.9526 3.63163 15.9535 3.61146 15.9456 3.58668C15.9325 3.54509 15.9065 3.50059 15.8764 3.46461C15.9676 3.50307 16.0556 3.53118 16.127 3.5418C16.1485 3.54499 16.1694 3.54744 16.1896 3.54915L16.1886 3.55024C16.323 3.66728 16.5721 3.82747 16.7184 3.89595L16.7249 3.88235C16.5849 3.81675 16.3486 3.66566 16.2125 3.5508C16.2532 3.55317 16.2902 3.55236 16.3217 3.54834C16.3633 3.58143 16.4406 3.6278 16.5515 3.68813L16.5963 3.71227C16.6342 3.73255 16.7254 3.78032 16.7818 3.80989L16.8285 3.83435L16.8357 3.82111L16.7889 3.79654L16.7888 3.79649C16.7323 3.76689 16.6414 3.71926 16.6036 3.69905L16.5589 3.67496C16.4581 3.6201 16.3852 3.57683 16.3424 3.54509C16.3563 3.54244 16.3688 3.53905 16.3798 3.53491C16.3911 3.53062 16.4007 3.52555 16.4084 3.51978C16.6916 3.69529 16.872 3.78793 17.0564 3.83L17.0599 3.81534C16.8784 3.77394 16.6997 3.68237 16.4198 3.5091C16.4336 3.4928 16.4358 3.47241 16.4255 3.44896C16.4577 3.4616 16.4956 3.47713 16.5437 3.49729L16.7015 3.56385L16.7323 3.5768C16.9089 3.65078 17.0198 3.69298 17.0959 3.71218L17.0997 3.6976C17.0247 3.67866 16.9142 3.63661 16.7383 3.56295L16.7075 3.55001L16.5497 3.48344C16.4926 3.45951 16.4498 3.44208 16.4139 3.42824L16.4139 3.42835C16.409 3.42123 16.403 3.41389 16.3961 3.40635C16.3816 3.39062 16.3638 3.37476 16.3432 3.35889C16.3885 3.36693 16.426 3.37273 16.4596 3.37634C16.7519 3.43228 17.0341 3.50579 17.1031 3.56392L17.1131 3.55249C17.0488 3.49837 16.8175 3.43401 16.5581 3.38053C16.5978 3.37924 16.6382 3.37414 16.6885 3.36534C16.7305 3.35802 16.7613 3.34708 16.781 3.3326L16.7811 3.33363C16.7928 3.33245 16.8043 3.33114 16.8156 3.3297C16.948 3.38582 17.1604 3.40119 17.2629 3.35286C17.2952 3.41605 17.2452 3.51124 17.1876 3.52936L17.1922 3.5437C17.224 3.53371 17.2533 3.50428 17.271 3.4684C17.4216 3.50291 17.76 3.50956 17.9241 3.47416L17.9209 3.45894C17.7601 3.49364 17.4273 3.48734 17.2773 3.4539C17.2839 3.43704 17.2878 3.41921 17.2884 3.40161C17.5133 3.4216 17.7842 3.40495 17.9223 3.34017L17.9159 3.32605C17.7805 3.38954 17.5107 3.40596 17.2879 3.38595C17.2866 3.37196 17.2829 3.35835 17.2764 3.34575L17.2814 3.34266C17.2988 3.33138 17.3131 3.3188 17.3243 3.30544C17.6012 3.26642 17.8054 3.20334 17.9918 3.11178C18.0321 3.09197 18.1165 3.04531 18.1847 3.0076L18.1847 3.00759L18.1848 3.00756L18.1848 3.00754L18.1849 3.00747C18.2302 2.98244 18.2683 2.96137 18.2816 2.95475C18.3059 2.94265 18.3286 2.93239 18.351 2.92354L18.3453 2.90957C18.3225 2.91859 18.2994 2.92903 18.2747 2.94132C18.2611 2.9481 18.2223 2.96953 18.1765 2.99486L18.1765 2.99486L18.1765 2.99488L18.1764 2.99491C18.1083 3.03254 18.0248 3.07876 17.9849 3.09832C17.8033 3.18755 17.6046 3.24953 17.3367 3.28846C17.3492 3.26854 17.3554 3.24744 17.3557 3.22666C17.8213 3.11198 18.2245 2.94091 18.4956 2.72222L18.4859 2.71058C18.2174 2.92719 17.8172 3.09718 17.3548 3.21137C17.3505 3.17843 17.3309 3.14726 17.297 3.124C17.5429 3.07241 17.7045 3.00162 18.0159 2.83121L18.0362 2.82007C18.1246 2.77169 18.1723 2.74619 18.2273 2.71853L18.2204 2.70512C18.1651 2.73289 18.1173 2.75845 18.0288 2.80692L18.0084 2.81805C17.7074 2.98284 17.5474 3.05389 17.3149 3.10475ZM17.2966 3.12376C17.3027 3.11841 17.3089 3.11198 17.3149 3.10475L17.2929 3.10947L17.2959 3.12329L17.2882 3.11836L17.2802 3.1312L17.2842 3.13372C17.1519 3.2373 17.0213 3.29853 16.8461 3.32543C16.8375 3.32235 16.8293 3.31912 16.8213 3.31574L16.8152 3.32956L16.8156 3.3297C16.8259 3.32839 16.836 3.32696 16.8461 3.32543C16.9839 3.37513 17.19 3.38382 17.273 3.33009C17.3611 3.27303 17.3607 3.18282 17.2842 3.13372L17.2924 3.12726L17.2961 3.12419L17.297 3.124L17.2966 3.12376ZM17.2966 3.12376L17.2959 3.12329L17.2961 3.12419L17.2961 3.12419L17.2966 3.12376ZM17.3548 3.21137L17.3433 3.21418L17.347 3.22879L17.3557 3.22666C17.3557 3.22154 17.3554 3.21643 17.3548 3.21137ZM17.3367 3.28846L17.3164 3.29135L17.3186 3.30625L17.3243 3.30544C17.329 3.2999 17.3331 3.29423 17.3367 3.28846ZM17.2879 3.38595C17.2884 3.39113 17.2885 3.39636 17.2884 3.40161L17.2799 3.40084L17.2813 3.38535L17.2879 3.38595ZM17.2773 3.4539L17.2687 3.45189L17.2651 3.46702L17.271 3.4684C17.2733 3.46367 17.2754 3.45883 17.2773 3.4539ZM17.2764 3.34575C17.2722 3.34825 17.2677 3.35062 17.2629 3.35286L17.2603 3.34812L17.2735 3.34053L17.2764 3.34575ZM16.797 3.31677L16.7795 3.31865L16.781 3.3326C16.7876 3.32772 16.7929 3.32245 16.797 3.31677ZM16.7623 3.20562C16.7926 3.23607 16.8083 3.26408 16.8069 3.28901C16.8064 3.29913 16.8031 3.30839 16.797 3.31677C16.9974 3.29394 17.1382 3.2306 17.2828 3.11556C17.3109 3.09313 17.3428 3.04197 17.3538 2.99729C17.3668 2.94472 17.3518 2.90791 17.3037 2.89424C17.223 2.91944 17.1412 2.94208 17.0614 2.96097C17.0552 2.95719 17.0486 2.95359 17.0413 2.95018L17.0408 2.95029L17.0443 2.96495L17.0614 2.96097C17.0896 2.97832 17.1062 2.99949 17.1117 3.02374C17.1199 3.05978 17.1017 3.09948 17.0685 3.13026C17.0117 3.18294 16.8892 3.21384 16.7623 3.20562ZM16.7448 3.18911C16.7511 3.19469 16.7569 3.20019 16.7623 3.20562C16.7554 3.20517 16.7485 3.20461 16.7416 3.20392L16.7431 3.18895L16.7448 3.18911ZM16.542 3.08446L16.5108 3.08944L16.5088 3.08876L16.5065 3.07441L16.5112 3.0736C16.5216 3.07717 16.5319 3.08079 16.542 3.08446ZM16.3635 3.02943C16.5295 2.94133 16.7909 2.90202 16.965 2.941C17.0462 2.95919 17.0883 2.98959 17.0968 3.02701C17.1036 3.05705 17.0877 3.09181 17.058 3.1193C17.002 3.17123 16.8743 3.2015 16.7448 3.18911L16.7334 3.17937C16.6963 3.14838 16.6256 3.11486 16.542 3.08446C16.6653 3.06576 16.857 3.04754 16.9563 3.04754V3.03199C16.8481 3.03199 16.6323 3.05332 16.5112 3.0736C16.4639 3.05743 16.4136 3.0424 16.3635 3.02943ZM16.3635 3.02943L16.342 3.02399L16.3382 3.02616L16.3459 3.03914C16.3516 3.03584 16.3575 3.03261 16.3635 3.02943ZM16.5581 3.38053C16.5265 3.38156 16.4952 3.38018 16.4596 3.37634L16.4131 3.36762L16.4154 3.35549C16.4319 3.3579 16.4473 3.35989 16.4619 3.36145C16.4942 3.36762 16.5264 3.374 16.5581 3.38053ZM16.4139 3.42835L16.4083 3.44226L16.4255 3.44896C16.4226 3.44232 16.4188 3.43545 16.4139 3.42835ZM16.4198 3.5091C16.4166 3.51289 16.4128 3.51645 16.4084 3.51978L16.4035 3.51676L16.4116 3.50403L16.4198 3.5091ZM16.3424 3.54509C16.3378 3.54169 16.3335 3.53842 16.3296 3.53528L16.3199 3.54693L16.3217 3.54834C16.3289 3.54742 16.3358 3.54634 16.3424 3.54509ZM16.2125 3.5508C16.205 3.55036 16.1973 3.54981 16.1896 3.54915L16.1987 3.53896L16.2125 3.5508ZM15.9446 3.64611L15.9405 3.64181L15.9293 3.65212L15.9351 3.65803C15.9389 3.65464 15.9421 3.65066 15.9446 3.64611ZM15.7396 3.63811L15.7504 3.64256C15.7429 3.63616 15.7359 3.63006 15.7295 3.6243L15.7289 3.62489L15.7253 3.62083L15.721 3.6298L15.7234 3.63089L15.7191 3.63543C15.7312 3.64626 15.7453 3.65826 15.7611 3.67122C15.7551 3.66016 15.748 3.64908 15.7396 3.63811ZM15.7396 3.63811L15.7234 3.63089L15.7289 3.62489C15.7327 3.62927 15.7362 3.63368 15.7396 3.63811ZM15.7637 3.81698C15.7607 3.82107 15.7572 3.82491 15.7534 3.82849L15.7468 3.81962L15.7594 3.81103L15.7637 3.81698ZM15.547 3.85403C15.5496 3.86321 15.5516 3.87303 15.5532 3.88372L15.5356 3.86336L15.547 3.85403ZM15.5107 4.07487L15.5062 4.06899L15.494 4.07807L15.4984 4.08381C15.5027 4.08115 15.5068 4.07816 15.5107 4.07487ZM15.4742 4.09463L15.469 4.0839L15.4552 4.09038L15.4588 4.09784C15.4641 4.09717 15.4692 4.09609 15.4742 4.09463ZM15.5454 3.84839C15.544 3.84377 15.5425 3.8393 15.5408 3.83496L15.5265 3.84026L15.5273 3.84246C15.5334 3.84461 15.5394 3.84658 15.5454 3.84839ZM15.8764 3.46461C15.8655 3.46001 15.8545 3.45527 15.8436 3.45038L15.854 3.44018C15.8616 3.44772 15.8691 3.45592 15.8764 3.46461ZM16.3432 3.35889C16.3344 3.3521 16.3251 3.34532 16.3153 3.33854L16.3066 3.33693L16.3042 3.34928L16.3092 3.35273L16.3432 3.35889ZM16.2598 3.0209C16.265 3.01693 16.2701 3.01283 16.2749 3.00862L16.2561 3.0048L16.2531 3.01956L16.2598 3.0209ZM15.3255 2.86835C15.2614 2.88623 15.2254 2.90431 15.1579 2.9469L15.1659 2.96011C15.2323 2.91825 15.2671 2.90076 15.3296 2.88335L15.3255 2.86835ZM15.6239 3.17914C15.8001 3.27714 16.037 3.38728 16.2014 3.44582L16.2067 3.43166C16.0431 3.37343 15.807 3.26364 15.6315 3.16604L15.6239 3.17914ZM16.2646 3.18764C16.1374 3.16192 16.0277 3.14509 15.917 3.13565L15.9183 3.12065C16.0296 3.13015 16.14 3.14707 16.2677 3.1729C16.3189 3.18325 16.3718 3.19477 16.4395 3.21013L16.6163 3.25052L16.6129 3.26519L16.4361 3.2248C16.3684 3.20946 16.3157 3.19797 16.2646 3.18764ZM15.1683 3.23976C15.1994 3.33177 15.4197 3.60273 15.5236 3.66695L15.5317 3.6542C15.4308 3.59182 15.2128 3.32366 15.1829 3.23501L15.1683 3.23976ZM15.3618 3.89201C15.3274 3.80973 15.1144 3.49806 15.0004 3.35118L15.0126 3.34204C15.1275 3.49002 15.3409 3.80235 15.3759 3.88629L15.3618 3.89201ZM15.308 3.21852C15.3791 3.29776 15.6119 3.472 15.718 3.51401L15.7237 3.50004C15.6201 3.45899 15.3891 3.28615 15.3195 3.20856L15.308 3.21852ZM14.8755 2.37415C14.8326 2.39598 14.8014 2.42791 14.7756 2.47236L14.7888 2.48026C14.8131 2.43824 14.8423 2.40845 14.8823 2.38806L14.8755 2.37415ZM14.1639 2.86592C14.1597 2.80926 14.1656 2.73549 14.1813 2.6825L14.196 2.68671C14.1809 2.73783 14.1751 2.80984 14.1792 2.86482L14.1639 2.86592ZM14.1744 2.95927C14.1618 3.0118 14.1711 3.13403 14.1882 3.20163L14.2031 3.19799C14.1865 3.13251 14.1774 3.0125 14.1893 2.96272L14.1744 2.95927ZM14.2285 3.36356C14.2214 3.35247 14.216 3.34203 14.2126 3.33222L14.227 3.32697C14.23 3.33552 14.2348 3.34492 14.2413 3.35507C14.2495 3.36777 14.26 3.3813 14.2727 3.39576C14.2831 3.40772 14.2917 3.41671 14.308 3.43337L14.2971 3.44434C14.2806 3.42748 14.2719 3.41834 14.2612 3.4061C14.2481 3.39111 14.2371 3.377 14.2285 3.36356ZM14.2881 3.04916C14.281 3.13648 14.33 3.30222 14.3797 3.35842C14.3906 3.45137 14.4563 3.58442 14.5491 3.67612L14.56 3.6655C14.4696 3.57616 14.4053 3.44618 14.393 3.35251C14.3443 3.29555 14.2966 3.13382 14.3033 3.05035L14.2881 3.04916ZM14.2674 2.95181C14.2595 2.89662 14.2576 2.84128 14.264 2.80612L14.2791 2.80878C14.273 2.84204 14.2749 2.89597 14.2826 2.94971L14.2674 2.95181ZM14.399 2.46337C14.3685 2.5388 14.3515 2.69841 14.3606 2.76071C14.3623 2.77264 14.3621 2.77566 14.3567 2.82577C14.3469 2.91716 14.3508 2.98648 14.3816 3.07601L14.3961 3.07118C14.3661 2.98404 14.3624 2.91677 14.3719 2.82735C14.3775 2.77497 14.3777 2.77243 14.3758 2.75858C14.367 2.69881 14.3838 2.54185 14.4132 2.46893L14.399 2.46337ZM14.5058 3.04167C14.4732 2.93419 14.472 2.67608 14.5057 2.53952L14.5206 2.54307C14.4875 2.67714 14.4886 2.93255 14.5205 3.03736L14.5058 3.04167ZM14.4642 3.08217C14.4457 3.16235 14.4477 3.25517 14.4714 3.32503L14.4859 3.32027C14.4631 3.25317 14.4612 3.16312 14.4791 3.08549L14.4642 3.08217ZM14.7421 2.95916C14.6503 2.85875 14.5948 2.70902 14.5986 2.59212L14.6139 2.5926C14.6102 2.70562 14.6643 2.85157 14.7535 2.9491L14.7421 2.95916ZM14.5745 2.96726C14.5639 3.09696 14.5715 3.2161 14.5956 3.28417C14.6018 3.30174 14.6061 3.32309 14.6123 3.3622L14.6182 3.40029C14.6206 3.41529 14.6228 3.42793 14.6252 3.44003C14.6368 3.49909 14.6519 3.54255 14.676 3.57615L14.6885 3.56748C14.666 3.536 14.6514 3.49433 14.6402 3.43719C14.6379 3.42527 14.6357 3.41279 14.6333 3.39793L14.6274 3.3599C14.6211 3.31989 14.6166 3.29795 14.61 3.27923C14.5868 3.21352 14.5793 3.09627 14.5897 2.96846L14.5745 2.96726ZM14.6977 3.17875L14.692 3.15742L14.7068 3.15356L14.7126 3.17497C14.7205 3.20514 14.7252 3.22789 14.7274 3.2506C14.7305 3.28339 14.7275 3.31169 14.7168 3.33588L14.7028 3.32988C14.7123 3.30832 14.7151 3.28248 14.7121 3.25202C14.7101 3.23027 14.7055 3.20821 14.6977 3.17875ZM14.7818 3.05869C14.8073 3.14067 14.8231 3.24098 14.8195 3.28457L14.8347 3.28581C14.8386 3.24003 14.8224 3.13795 14.7965 3.0543L14.7818 3.05869ZM14.8895 3.72223C14.858 3.6679 14.8294 3.58112 14.8229 3.51108L14.8382 3.50971C14.8445 3.57756 14.8724 3.66228 14.9028 3.71477L14.8895 3.72223ZM14.7094 3.7175C14.7383 3.80288 14.7879 3.89103 14.8328 3.92577L14.8423 3.91394C14.8003 3.88146 14.752 3.79557 14.7239 3.71275L14.7094 3.7175ZM15.1339 3.95643C15.1033 3.86546 15.0832 3.82126 15.0348 3.75367L15.0473 3.745C15.0967 3.81404 15.1174 3.85945 15.1485 3.95169L15.1339 3.95643Z" fill="black"/>
<path fill-rule="evenodd" clip-rule="evenodd" d="M14.4744 3.77388C14.4839 3.77488 14.4899 3.77525 14.5063 3.77606C14.5444 3.77793 14.5578 3.78173 14.575 3.79956C14.5863 3.81131 14.5975 3.82908 14.6097 3.85493C14.652 3.9452 14.7678 4.08321 14.8355 4.1262L14.8354 4.12624C14.925 4.28077 14.9648 4.48476 14.937 4.59425C14.929 4.54608 14.9012 4.50901 14.8582 4.47865C14.8415 4.46686 14.8309 4.46085 14.8019 4.44572C14.7636 4.47858 14.7076 4.51641 14.6794 4.52232L14.6826 4.53704C14.7145 4.53037 14.7729 4.49085 14.804 4.45745C14.8181 4.46954 14.8274 4.47586 14.8377 4.48288L14.8493 4.49088C14.8893 4.51914 14.9147 4.55306 14.9219 4.59688L14.9369 4.59449L14.9359 4.59829L14.9507 4.60222C14.9804 4.49421 14.9445 4.29562 14.8598 4.13868C14.9641 4.18577 15.0308 4.23884 15.0439 4.3137L15.0584 4.3155L15.0659 4.29902C15.1007 4.22221 15.1139 4.16942 15.1007 4.11491L15.102 4.11646L15.1142 4.13092C15.1526 4.17622 15.1808 4.20956 15.2018 4.23476L15.2003 4.23496C15.2024 4.2493 15.2043 4.27113 15.2066 4.30443L15.214 4.41752C15.2195 4.4966 15.225 4.54929 15.2325 4.58365L15.2475 4.58049C15.2402 4.54708 15.2347 4.49484 15.2293 4.4165L15.2219 4.30341C15.2205 4.28328 15.2192 4.26728 15.218 4.2545C15.2507 4.29466 15.2592 4.30869 15.2636 4.32389C15.2649 4.32843 15.2659 4.33307 15.267 4.33854L15.2683 4.34468C15.281 4.40454 15.3301 4.48662 15.3793 4.53935L15.3906 4.52917C15.3431 4.47827 15.2954 4.39846 15.2832 4.34159L15.2816 4.3337L15.2816 4.3337L15.2816 4.3337C15.2804 4.32777 15.2794 4.32278 15.278 4.3179C15.2704 4.29169 15.251 4.26889 15.1279 4.12357L15.1137 4.10683C15.1033 4.09449 15.0938 4.08318 15.0849 4.07227L15.072 4.08013C15.1024 4.14519 15.0939 4.19926 15.0536 4.28918C15.0309 4.21747 14.9612 4.16677 14.8579 4.1213C14.7982 4.09508 14.6681 3.94359 14.6236 3.84863C14.6108 3.8214 14.5987 3.80232 14.5861 3.7892C14.5655 3.76782 14.5488 3.76307 14.507 3.76102C14.4909 3.76023 14.4851 3.75987 14.476 3.75891L14.4744 3.77388ZM15.218 4.2545C15.2172 4.24593 15.2163 4.2388 15.2155 4.23285L15.2018 4.23476C15.2078 4.24198 15.2132 4.24853 15.218 4.2545ZM14.9369 4.59449L14.937 4.59448L14.937 4.59425L14.9369 4.59449ZM14.8598 4.13868L14.8516 4.13504C14.8466 4.13284 14.8412 4.12987 14.8355 4.1262L14.8487 4.11878C14.8525 4.12533 14.8562 4.13197 14.8598 4.13868ZM14.5817 4.00204C14.6085 4.08147 14.6298 4.17684 14.632 4.23203L14.6473 4.23145C14.645 4.17461 14.6234 4.07796 14.5962 3.9973L14.5817 4.00204ZM14.8137 4.39363C14.8113 4.34908 14.7828 4.23241 14.7544 4.15468L14.7688 4.14959C14.7976 4.22858 14.8265 4.34659 14.829 4.39284L14.8137 4.39363ZM15.0811 4.36649C15.1033 4.41914 15.1173 4.50225 15.1129 4.55177L15.1281 4.55311C15.1328 4.5011 15.1184 4.41556 15.0952 4.36072L15.0811 4.36649Z" fill="black"/>
</g>
</svg>
