<svg width="24" height="24" viewBox="0 0 24 24" fill="none" xmlns="http://www.w3.org/2000/svg">
<path d="M9.00062 20.9982C10.6563 20.9982 12 19.6545 12 17.9988V14.9994H9.00062C7.34495 14.9994 6.00122 16.3431 6.00122 17.9988C6.00122 19.6545 7.34495 20.9982 9.00062 20.9982Z" fill="#0ACF83"/>
<path d="M6.00122 12C6.00122 10.3443 7.34495 9.00061 9.00062 9.00061H12V14.9994H9.00062C7.34495 14.9994 6.00122 13.6557 6.00122 12Z" fill="#A259FF"/>
<path d="M6.00085 6.00123C6.00085 4.34556 7.34459 3.00183 9.00025 3.00183H11.9997L12 9.00061H9.00062C7.34495 9.00061 6.00085 7.6569 6.00085 6.00123Z" fill="#F24E1E"/>
<path d="M11.9997 3.00183H14.9994C16.6551 3.00183 17.9988 4.34556 17.9988 6.00123C17.9988 7.6569 16.6551 9.00063 14.9994 9.00063L12 9.00061L11.9997 3.00183Z" fill="#FF7262"/>
<path d="M17.9988 12C17.9988 13.6557 16.6551 14.9994 14.9994 14.9994C13.3437 14.9994 12 13.6557 12 12C12 10.3443 13.3437 9.00063 14.9994 9.00063C16.6551 9.00063 17.9988 10.3443 17.9988 12Z" fill="#1ABCFE"/>
</svg>
