<svg width="24" height="24" viewBox="0 0 24 24" fill="none" xmlns="http://www.w3.org/2000/svg">
<path d="M21.8055 9.83105H21V9.78955H12V13.7896H17.6515C16.827 16.1181 14.6115 17.7896 12 17.7896C8.6865 17.7896 6 15.1031 6 11.7896C6 8.47605 8.6865 5.78955 12 5.78955C13.5295 5.78955 14.921 6.36655 15.9805 7.30905L18.809 4.48055C17.023 2.81605 14.634 1.78955 12 1.78955C6.4775 1.78955 2 6.26705 2 11.7896C2 17.3121 6.4775 21.7896 12 21.7896C17.5225 21.7896 22 17.3121 22 11.7896C22 11.1191 21.931 10.4646 21.8055 9.83105Z" fill="#FFC107"/>
<path d="M3.15299 7.13505L6.43849 9.54455C7.32749 7.34355 9.4805 5.78955 12 5.78955C13.5295 5.78955 14.921 6.36655 15.9805 7.30905L18.809 4.48055C17.023 2.81605 14.634 1.78955 12 1.78955C8.159 1.78955 4.82799 3.95805 3.15299 7.13505Z" fill="#FF3D00"/>
<path d="M12 21.7896C14.583 21.7896 16.93 20.8011 18.7045 19.1936L15.6095 16.5746C14.6055 17.3351 13.3575 17.7896 12 17.7896C9.399 17.7896 7.19052 16.1311 6.35852 13.8166L3.09752 16.3291C4.75252 19.5676 8.1135 21.7896 12 21.7896Z" fill="#4CAF50"/>
<path d="M21.8055 9.83105H21V9.78955H12V13.7896H17.6515C17.2555 14.9081 16.536 15.8726 15.608 16.5751C15.6085 16.5746 15.609 16.5751 15.6095 16.5746L18.7045 19.1936C18.4855 19.3926 22 16.7895 22 11.7896C22 11.1191 21.931 10.4646 21.8055 9.83105Z" fill="#1976D2"/>
</svg>
